<svg viewBox="0 0 600 600" fill="none" xmlns="http://www.w3.org/2000/svg">
<g clip-path="url(#clip0_3:95)">
<path d="M675 675H-75V-75H675V675Z" fill="#547980"/>
<path d="M30 99.897L0 49.947L30 -0.00299072L60 49.947L30 99.897ZM120 49.947L90 -0.00299072L60 49.947L90 99.897L120 49.947ZM180 49.947L150 -0.00299072L120 49.947L150 99.897L180 49.947ZM240 49.947L210 -0.00299072L180 49.947L210 99.897L240 49.947ZM300 49.947L270 -0.00299072L240 49.947L270 99.897L300 49.947ZM360 49.947L330 -0.00299072L300 49.947L330 99.897L360 49.947ZM420 49.947L390 -0.00299072L360 49.947L390 99.897L420 49.947ZM480 49.947L450 -0.00299072L420 49.947L450 99.897L480 49.947ZM540 49.947L510 -0.00299072L480 49.947L510 99.897L540 49.947ZM600 49.947L570 -0.00299072L540 49.947L570 99.897L600 49.947ZM60 149.946L30 99.996L0 149.946L30 199.896L60 149.946ZM120 149.946L90 99.996L60 149.946L90 199.896L120 149.946ZM180 149.946L150 99.996L120 149.946L150 199.896L180 149.946ZM240 149.946L210 99.996L180 149.946L210 199.896L240 149.946ZM300 149.946L270 99.996L240 149.946L270 199.896L300 149.946ZM360 149.946L330 99.996L300 149.946L330 199.896L360 149.946ZM420 149.946L390 99.996L360 149.946L390 199.896L420 149.946ZM480 149.946L450 99.996L420 149.946L450 199.896L480 149.946ZM540 149.946L510 99.996L480 149.946L510 199.896L540 149.946ZM600 149.946L570 99.996L540 149.946L570 199.896L600 149.946ZM60 249.948L30 199.998L0 249.948L30 299.898L60 249.948ZM120 249.948L90 199.998L60 249.948L90 299.898L120 249.948ZM180 249.948L150 199.998L120 249.948L150 299.898L180 249.948ZM240 249.948L210 199.998L180 249.948L210 299.898L240 249.948ZM300 249.948L270 199.998L240 249.948L270 299.898L300 249.948ZM360 249.948L330 199.998L300 249.948L330 299.898L360 249.948ZM420 249.948L390 199.998L360 249.948L390 299.898L420 249.948ZM480 249.948L450 199.998L420 249.948L450 299.898L480 249.948ZM540 249.948L510 199.998L480 249.948L510 299.898L540 249.948ZM600 249.948L570 199.998L540 249.948L570 299.898L600 249.948ZM60 349.947L30 300L0 349.95L30 399.897L60 349.947ZM120 349.947L90 300L60 349.95L90 399.897L120 349.947ZM180 349.947L150 300L120 349.95L150 399.897L180 349.947ZM240 349.947L210 300L180 349.95L210 399.897L240 349.947ZM300 349.947L270 300L240 349.95L270 399.897L300 349.947ZM360 349.947L330 300L300 349.95L330 399.897L360 349.947ZM420 349.947L390 300L360 349.95L390 399.897L420 349.947ZM480 349.947L450 300L420 349.95L450 399.897L480 349.947ZM540 349.947L510 300L480 349.95L510 399.897L540 349.947ZM600 349.947L570 300L540 349.95L570 399.897L600 349.947ZM60 449.946L30 399.999L0 449.946L30 499.893L60 449.946ZM120 449.946L90 399.999L60 449.946L90 499.893L120 449.946ZM180 449.946L150 399.999L120 449.946L150 499.893L180 449.946ZM240 449.946L210 399.999L180 449.946L210 499.893L240 449.946ZM300 449.946L270 399.999L240 449.946L270 499.893L300 449.946ZM360 449.946L330 399.999L300 449.946L330 499.893L360 449.946ZM420 449.946L390 399.999L360 449.946L390 499.893L420 449.946ZM480 449.946L450 399.999L420 449.946L450 499.893L480 449.946ZM540 449.946L510 399.999L480 449.946L510 499.893L540 449.946ZM600 449.946L570 399.999L540 449.946L570 499.893L600 449.946ZM60 549.945L30 499.998L0 549.945L30 599.892L60 549.945ZM120 549.945L90 499.998L60 549.945L90 599.892L120 549.945ZM180 549.945L150 499.998L120 549.945L150 599.892L180 549.945ZM240 549.945L210 499.998L180 549.945L210 599.892L240 549.945ZM300 549.945L270 499.998L240 549.945L270 599.892L300 549.945ZM360 549.945L330 499.998L300 549.945L330 599.892L360 549.945ZM420 549.945L390 499.998L360 549.945L390 599.892L420 549.945ZM480 549.945L450 499.998L420 549.945L450 599.892L480 549.945ZM540 549.945L510 499.998L480 549.945L510 599.892L540 549.945ZM600 549.945L570 499.998L540 549.945L570 599.892L600 549.945Z" fill="#3F6971"/>
<path d="M301.5 301.5H298.5V298.5H301.5V301.5Z" fill="#080806"/>
<path d="M586.251 599.334C579.663 585.096 561.666 563.997 541.671 558.168C516.954 550.959 461.16 542.244 440.472 537.399C423.888 533.511 390.486 503.517 378.78 493.449C376.68 491.649 374.961 487.932 374.919 485.169C374.502 452.577 387.504 365.997 387.504 365.997H300H212.499C212.499 365.997 225.501 452.574 225.078 485.169C225.045 487.932 223.317 491.649 221.223 493.449C209.517 503.517 176.115 533.511 159.531 537.399C138.84 542.244 83.046 551.256 58.332 558.465C38.331 564.291 20.34 585.093 13.752 599.331C2.628 623.355 0 666.831 0 704.331H300H600C600 666.834 597.369 623.358 586.251 599.334Z" fill="#E19E95"/>
<path d="M477.468 552.174C550.494 562.8 581.226 578.298 590.85 704.337H600C600 666.837 597.369 623.361 586.251 599.337C579.663 585.099 561.666 564 541.671 558.171C516.954 550.962 461.16 542.247 440.472 537.402C423.888 533.514 385.746 501.195 375.543 488.352C385.623 502.464 413.916 535.167 438.705 543.732C450.564 547.83 460.44 549.696 477.468 552.174ZM161.298 543.732C186.087 535.17 214.377 502.464 224.46 488.352C214.26 501.192 176.118 533.514 159.531 537.402C138.843 542.247 83.049 551.259 58.332 558.468C38.337 564.294 20.34 585.096 13.752 599.334C2.63399 623.358 0.00299072 666.834 0.00299072 704.334H9.15299C18.717 579.102 49.578 562.785 122.535 552.171C139.56 549.696 149.439 547.83 161.298 543.732Z" fill="#F0BEB7"/>
<path d="M286.938 592.86C286.938 592.86 271.716 588.033 265.689 585.723C234.342 573.696 132.504 565.902 132.504 565.902C132.504 565.902 239.766 570.159 263.436 574.239C262.062 559.938 254.385 514.227 254.385 514.227C254.385 514.227 269.832 564.672 273.612 577.398C275.634 584.202 286.938 592.86 286.938 592.86ZM319.335 588.834C319.068 589.053 318.762 589.338 318.429 589.638C318.768 589.383 319.074 589.116 319.335 588.834ZM286.938 592.86C286.938 592.86 295.617 601.836 299.979 601.95C305.709 602.103 314.463 593.253 318.432 589.638C314.637 592.509 305.955 593.811 302.502 593.946C298.512 594.099 286.938 592.86 286.938 592.86ZM349.992 570.303C345.357 571.047 336.834 572.67 336.834 572.67L343.695 528C341.757 537.213 330.273 576.633 319.335 588.834C325.065 583.986 337.809 581.661 344.307 580.722C375.015 576.27 375.003 576.273 467.493 565.902C467.493 565.902 380.28 565.437 349.992 570.303Z" fill="#D28176"/>
<path d="M586.251 599.334C579.663 585.096 561.666 563.997 541.671 558.168C516.954 550.959 461.16 542.244 440.472 537.399C423.888 533.511 390.486 503.517 378.78 493.449C376.68 491.649 374.961 487.932 374.919 485.169C374.502 452.577 387.504 365.997 387.504 365.997H300H212.499C212.499 365.997 225.501 452.574 225.078 485.169C225.045 487.932 223.317 491.649 221.223 493.449C209.517 503.517 176.115 533.511 159.531 537.399C138.84 542.244 83.046 551.256 58.332 558.465C38.331 564.291 20.34 585.093 13.752 599.331C2.628 623.355 0 666.831 0 704.331H300H600C600 666.834 597.369 623.358 586.251 599.334Z" stroke="#B34E41" stroke-width="4.5"/>
<path d="M300.006 512.598C334.179 512.598 349.893 493.518 372.66 483.684C372.636 459.888 378.777 411.885 382.506 384.963C334.098 379.407 265.893 379.407 217.488 384.966C221.217 411.885 227.358 459.882 227.331 483.675C250.11 493.506 265.824 512.598 300.006 512.598Z" fill="url(#paint0_linear_3:95)"/>
<path d="M335.418 707.664C278.013 707.664 211.053 707.442 130.719 706.977L59.682 706.593C16.788 706.359 14.259 706.311 9.02099 706.311L-5.67601 706.332C-19.389 580.707 37.554 547.722 125.61 536.208C148.977 532.917 171.957 526.917 189.987 515.292C238.968 582.021 384.42 567.978 409.296 513.405C413.466 514.995 416.913 517.05 421.227 518.607C435.225 528.906 454.443 536.115 474.111 537.204C552.135 541.527 607.368 576.192 606.282 701.124C606.291 701.619 606.294 704.649 606.243 705.594C568.704 705.594 554.625 705.957 525.141 706.38C485.148 706.95 435.372 707.661 335.454 707.661C335.439 707.664 335.43 707.664 335.418 707.664Z" fill="#864025"/>
<path d="M603.165 703.92C601.935 681.765 590.973 619.746 572.085 591.297C534.639 534.882 445.305 554.679 424.689 532.218C409.731 562.695 349.764 582.003 329.907 584.838C387.45 565.758 411.618 551.961 421.167 519.228C440.382 544.218 544.389 525.141 585.318 592.221C597.303 611.862 608.7 674.379 603.165 703.92ZM167.433 532.884C171.504 531.939 173.535 529.137 177.576 528.042L173.298 522.369C146.151 543.525 44.571 530.304 9.74096 594.477C-1.23604 614.7 -8.64004 662.841 -2.83504 703.794C-1.22404 678.642 -0.438036 624.852 18.45 596.4C52.422 545.22 114.372 558.741 161.307 537.075C182.256 562.875 214.971 575.559 248.259 580.806C206.496 569.913 182.55 551.52 167.433 532.884Z" fill="#955238"/>
<path d="M405.93 519.732C389.334 554.274 263.88 594.501 193.14 522.369C188.742 524.235 175.584 528.705 175.584 528.705C227.112 598.863 378.117 599.307 418.311 528.363C418.134 528.294 410.016 521.808 405.93 519.732Z" fill="#773015"/>
<path d="M409.14 513.006C380.901 569.472 233.949 577.461 190.104 514.902C174.093 519.636 158.697 529.725 143.196 532.248C50.436 546.063 -18.138 553.005 -6.00003 706.656C23.82 706.656 -25.833 706.461 130.713 707.301C501.483 709.431 489.399 705.918 606.531 705.918C606.618 705.498 606.576 701.562 606.594 701.13C612.882 531.822 514.038 541.818 447.234 530.145C437.802 527.991 429.036 521.826 421.329 518.31C417.072 516.363 413.454 514.614 409.14 513.006ZM189.042 516.795C227.964 586.971 381.699 572.892 411.381 517.098C414.981 518.61 415.902 519.21 420.075 520.689C389.331 585.156 237.249 605.7 175.044 524.178C175.482 524.055 184.656 518.439 189.042 516.795ZM-2.53503 704.334C-9.79803 625.041 2.85597 560.205 95.805 544.299C126.633 538.611 145.476 538.413 171.957 526.917C222.246 609.132 388.251 596.391 422.751 523.002C427.707 527.229 435.435 532.092 444.966 534.357C499.26 547.254 609.48 531.675 603.66 704.331C441.489 702.225 307.065 697.299 -2.53503 704.334Z" fill="#581900"/>
<path d="M141.654 244.515C138.753 237.054 117.408 226.509 108.024 228.174C97.41 230.055 93.51 241.242 94.917 249.531C98.226 268.992 106.905 277.188 110.805 292.389C114.093 305.208 121.104 312.585 124.569 318.033C128.829 324.717 132.759 340.056 133.638 342.294C135.027 345.834 139.947 354.423 148.644 353.982C158.643 353.466 171.279 333.918 171.486 329.577C172.632 306.027 149.199 263.937 141.654 244.515Z" fill="#E19E95" stroke="#B34E41" stroke-width="4.5"/>
<path d="M143.859 323.88C143.859 323.88 145.146 320.667 143.577 317.814C141.561 314.145 136.308 307.41 135.114 303.381C134.139 300.087 134.634 293.046 134.475 289.602C134.193 283.512 129.999 279.342 128.694 275.847C119.952 252.468 108.318 237.978 101.694 234.969C96.795 246.936 100.677 255.69 107.514 274.104C103.389 249.078 107.352 241.254 107.352 241.254C107.352 241.254 119.406 251.649 125.355 274.77C126.432 278.943 122.022 287.652 122.865 291.885C123.921 297.201 135.417 307.488 138.636 311.79C141.147 315.141 143.859 323.88 143.859 323.88Z" fill="#B34E41"/>
<path d="M457.56 244.515C460.461 237.054 481.806 226.509 491.193 228.174C501.81 230.055 505.707 241.242 504.3 249.531C500.988 268.992 492.312 277.188 488.409 292.389C485.121 305.208 478.107 312.585 474.645 318.033C470.385 324.717 466.455 340.056 465.576 342.294C464.187 345.834 459.264 354.423 450.57 353.982C440.574 353.466 427.935 333.918 427.731 329.577C426.579 306.027 450.018 263.937 457.56 244.515Z" fill="#E19E95" stroke="#B34E41" stroke-width="4.5"/>
<path d="M455.355 323.88C455.355 323.88 454.065 320.667 455.637 317.814C457.653 314.145 462.909 307.41 464.097 303.381C465.069 300.087 464.577 293.046 464.742 289.602C465.024 283.512 469.212 279.342 470.52 275.847C479.262 252.468 490.899 237.978 497.52 234.969C502.419 246.936 498.534 255.69 491.703 274.104C495.828 249.078 491.862 241.254 491.862 241.254C491.862 241.254 479.808 251.649 473.856 274.77C472.785 278.943 477.189 287.652 476.346 291.885C475.29 297.201 463.794 307.488 460.578 311.79C458.067 315.141 455.355 323.88 455.355 323.88Z" fill="#B34E41"/>
<path d="M300.006 2.60098C199.152 2.75998 117.246 85.608 117.402 187.68C117.429 203.889 119.514 219.609 123.408 234.582H123.411C123.447 234.744 147.771 342.009 158.871 377.148C167.196 403.509 201.735 443.115 226.065 453.114C249.543 462.765 265.182 482.598 300.003 482.598C334.824 482.598 350.463 462.765 373.941 453.114C398.271 443.115 432.813 403.509 441.135 377.148C452.235 342.009 476.562 234.744 476.592 234.582H476.598C480.492 219.606 482.58 203.889 482.604 187.68C482.769 85.608 400.86 2.75998 300.006 2.60098Z" fill="#E19E95"/>
<path d="M422.181 50.211C453.453 83.703 472.782 129.933 472.713 180.969C472.686 197.178 470.715 212.898 467.031 227.871H467.028C466.995 228.033 443.985 335.298 433.488 370.437C425.619 396.801 392.943 436.404 369.936 446.403C347.727 456.051 332.937 475.89 300.006 475.89C267.072 475.89 252.282 456.051 230.079 446.403C207.066 436.404 174.399 396.801 166.527 370.437C156.027 335.298 133.023 228.033 132.987 227.871H132.984C129.297 212.895 127.326 197.178 127.302 180.969C127.227 129.936 146.556 83.712 177.822 50.22C140.679 84.102 117.318 133.14 117.402 187.68C117.429 203.889 119.514 219.609 123.408 234.582H123.411C123.447 234.744 147.771 342.009 158.871 377.148C167.196 403.509 201.735 443.115 226.065 453.114C249.543 462.765 265.182 482.598 300.003 482.598C334.824 482.598 350.463 462.765 373.941 453.114C398.271 443.115 432.813 403.509 441.135 377.148C452.235 342.009 476.562 234.744 476.592 234.582H476.598C480.492 219.606 482.58 203.889 482.604 187.68C482.694 133.134 459.333 84.093 422.181 50.211Z" fill="#D98F85"/>
<path d="M300.006 2.60098C199.152 2.75998 117.246 85.608 117.402 187.68C117.429 203.889 119.514 219.609 123.408 234.582H123.411C123.447 234.744 147.771 342.009 158.871 377.148C167.196 403.509 201.735 443.115 226.065 453.114C249.543 462.765 265.182 482.598 300.003 482.598C334.824 482.598 350.463 462.765 373.941 453.114C398.271 443.115 432.813 403.509 441.135 377.148C452.235 342.009 476.562 234.744 476.592 234.582H476.598C480.492 219.606 482.58 203.889 482.604 187.68C482.769 85.608 400.86 2.75998 300.006 2.60098Z" stroke="#B34E41" stroke-width="4.5"/>
<path d="M300.6 428.841C292.104 429.273 289.668 420.582 289.668 420.582C289.668 420.582 301.461 422.277 310.641 419.523C310.644 419.526 308.076 428.466 300.6 428.841Z" fill="url(#paint1_linear_3:95)"/>
<path d="M301.464 422.28C295.512 422.58 290.169 422.049 289.833 422.013C289.419 421.971 289.119 421.605 289.161 421.197C289.206 420.783 289.59 420.498 289.983 420.525C290.106 420.534 302.271 421.74 310.197 419.514C310.59 419.418 311.01 419.637 311.124 420.036C311.238 420.435 311.004 420.846 310.605 420.96C307.803 421.746 304.551 422.124 301.464 422.28Z" fill="#B34E41"/>
<path d="M247.5 390.897C247.5 390.897 285.096 395.355 297.654 395.394C311.313 395.43 355.5 390.897 355.5 390.897C342.726 401.499 328.671 411.693 296.835 411.894C268.359 412.077 261.063 401.736 247.5 390.897Z" fill="white"/>
<path d="M247.5 390.897C247.5 390.897 285.096 395.355 297.654 395.394C311.313 395.43 355.5 390.897 355.5 390.897C342.726 401.499 328.671 411.693 296.835 411.894C268.359 412.077 261.063 401.736 247.5 390.897Z" stroke="#B34E41" stroke-width="2.25"/>
<path d="M260.187 254.241C260.67 255.954 260.958 257.712 260.958 259.515C260.958 263.958 259.389 268.158 256.638 271.92C244.407 272.034 205.74 274.038 199.833 271.011C191.394 266.688 183.864 248.904 183.315 244.53C213.3 227.283 235.425 230.637 260.187 254.241Z" fill="url(#paint2_radial_3:95)"/>
<path d="M241.614 258.264C239.007 267.84 229.134 273.483 219.54 270.852C209.955 268.224 204.291 258.318 206.904 248.739C209.508 239.154 219.405 233.511 228.99 236.145C238.569 238.77 244.224 248.676 241.614 258.264Z" fill="#4D3623" stroke="#1F1105" stroke-width="1.5"/>
<path d="M222.045 242.739L221.577 241.902C219.933 242.556 218.349 243.237 216.852 243.963L217.962 246.645L217.821 248.196L213.543 245.679C212.145 246.456 210.849 247.266 209.589 248.091L209.601 248.118L208.134 249.768L210.477 252.165L207.321 253.887L208.515 255.858L214.086 256.413L208.863 259.956L214.452 259.647L211.506 264.726L218.397 260.556L216.543 267.648L220.53 261.096L221.298 268.125L222.45 261.909L223.509 261.78L225.009 268.83L225.465 266.715C226.068 266.559 227.619 268.827 228.21 268.668L226.458 261L230.304 268.668L228.744 260.715L233.478 266.865C233.649 266.811 234.066 264.315 234.234 264.264L231.288 259.857L236.643 261.474L233.43 257.994L230.85 255.858L241.608 258.267L235.617 254.616L239.85 252.885L230.685 251.958L239.748 247.152L231.546 249.246L229.338 248.049L228.795 246.987L228.951 244.449L229.134 240.282L225.39 246.876L225.06 242.049L224.589 240.786C223.839 241.047 223.104 241.302 222.381 241.581L222.045 242.739Z" fill="#5C4633"/>
<path opacity="0.9" d="M241.818 249.765C226.092 250.482 218.097 253.845 206.697 257.658C204.501 247.971 210.591 238.344 220.287 236.166C229.983 233.988 239.625 240.075 241.818 249.765Z" fill="#3E2816"/>
<path opacity="0.8" d="M226.857 247.494C222.9 246.36 218.859 248.619 217.842 252.564C216.816 256.488 219.198 260.598 223.155 261.732C227.115 262.869 231.156 260.607 232.182 256.68C233.211 252.735 230.82 248.628 226.857 247.494Z" fill="black"/>
<path d="M226.857 247.494C222.9 246.36 218.859 248.619 217.842 252.564C216.816 256.488 219.198 260.598 223.155 261.732C227.115 262.869 231.156 260.607 232.182 256.68C233.211 252.735 230.82 248.628 226.857 247.494Z" stroke="#1F1105" stroke-width="2.25"/>
<path opacity="0.4" d="M211.143 264.18C212.982 267.099 215.421 269.298 218.877 270.03C222.855 270.873 223.308 265.581 220.461 264.975C218.301 264.519 216.933 263.46 215.805 261.669C213.741 258.39 209.487 261.552 211.143 264.18Z" fill="white"/>
<path d="M227.349 245.979C230.136 246.54 231.756 248.283 233.163 250.899C235.749 255.711 243.06 251.433 240.474 246.624C238.203 242.4 234.417 238.785 229.599 237.81C223.428 236.565 222.564 245.013 227.349 245.979Z" fill="url(#paint3_linear_3:95)"/>
<path d="M167.4 239.985C167.4 281.409 191.58 334.197 221.4 334.197C251.22 334.197 275.4 300.624 275.4 259.2C275.4 217.773 251.22 184.197 221.4 184.197C191.58 184.197 167.4 198.561 167.4 239.985ZM183.312 244.53C213.297 227.283 235.422 230.64 260.184 254.241C260.667 255.954 260.955 257.712 260.955 259.515C260.955 263.958 259.386 268.158 256.635 271.92C244.404 272.034 205.737 274.038 199.83 271.011C191.394 266.688 183.861 248.904 183.312 244.53Z" fill="#E19E95"/>
<path d="M183.627 245.985C185.193 251.922 192.126 267.063 199.83 271.011C205.737 274.038 244.401 272.034 256.635 271.92C259.386 268.161 260.955 263.961 260.955 259.515C260.955 257.712 260.667 255.954 260.184 254.241C235.686 230.889 213.756 227.391 184.254 244.02C190.158 226.848 209.82 214.164 233.274 214.059C261.453 213.939 284.328 232.002 284.397 254.412C284.466 276.819 261.681 295.074 233.514 295.2C205.335 295.32 182.466 277.257 182.397 254.85C182.391 251.802 182.835 248.844 183.627 245.985Z" fill="url(#paint4_radial_3:95)"/>
<path d="M199.83 271.011C191.391 266.688 183.861 248.904 183.312 244.53C213.297 227.283 235.422 230.64 260.184 254.241C260.667 255.954 260.955 257.712 260.955 259.515C260.955 263.958 259.386 268.158 256.635 271.92C244.404 272.034 205.737 274.038 199.83 271.011Z" fill="url(#paint5_radial_3:95)"/>
<path d="M183.414 235.167C193.656 231.147 236.808 216.225 260.358 247.989C233.4 217.686 196.746 231.654 183.414 235.167Z" fill="#B34E41"/>
<path d="M176.4 242.916C180.051 249.942 195.483 273.393 199.083 273.57C229.26 275.394 248.016 272.826 260.022 271.131C255.525 270.561 206.544 273.474 199.833 270.192C191.394 266.067 183.864 249.099 183.315 244.923C214.068 228.045 236.544 231.786 262.083 255.9C237.18 218.103 185.559 235.323 176.4 242.916Z" fill="#1B1929"/>
<path d="M338.616 254.241C338.133 255.954 337.845 257.712 337.845 259.515C337.845 263.958 339.414 268.158 342.165 271.92C354.396 272.034 393.063 274.038 398.97 271.011C407.409 266.688 414.939 248.904 415.488 244.53C385.503 227.283 363.378 230.637 338.616 254.241Z" fill="url(#paint6_radial_3:95)"/>
<path d="M393.114 258.261C390.507 267.84 380.634 273.483 371.04 270.849C361.455 268.221 355.794 258.315 358.404 248.736C361.005 239.151 370.905 233.508 380.487 236.142C390.072 238.773 395.724 248.679 393.114 258.261Z" fill="#4D3623" stroke="#1F1105" stroke-width="1.5"/>
<path d="M373.548 242.739L373.083 241.905C371.439 242.556 369.855 243.24 368.355 243.963L369.465 246.645L369.324 248.196L365.046 245.679C363.645 246.456 362.352 247.266 361.095 248.091L361.107 248.118L359.637 249.771L361.983 252.168L358.827 253.887L360.018 255.858L365.589 256.413L360.366 259.956L365.955 259.647L363.009 264.723L369.897 260.553L368.049 267.645L372.033 261.093L372.804 268.122L373.956 261.903L375.015 261.774L376.518 268.824L376.971 266.712C377.574 266.556 379.128 268.821 379.716 268.665L377.961 260.997L381.81 268.665L380.247 260.712L384.978 266.862C385.149 266.808 385.569 264.312 385.737 264.261L382.791 259.854L388.149 261.468L384.936 257.988L382.359 255.852L393.117 258.258L387.126 254.61L391.359 252.879L382.197 251.955L391.26 247.146L383.058 249.24L380.85 248.043L380.31 246.981L380.466 244.44L380.649 240.276L376.908 246.87L376.578 242.043L376.11 240.777C375.36 241.038 374.625 241.296 373.905 241.572L373.548 242.739Z" fill="#5C4633"/>
<path opacity="0.9" d="M393.315 249.765C377.595 250.482 369.597 253.845 358.197 257.658C356.004 247.971 362.091 238.344 371.787 236.166C381.483 233.985 391.128 240.075 393.315 249.765Z" fill="#3E2816"/>
<path opacity="0.8" d="M378.36 247.494C374.403 246.36 370.362 248.622 369.345 252.564C368.316 256.488 370.698 260.598 374.655 261.732C378.621 262.869 382.659 260.607 383.682 256.68C384.711 252.735 382.317 248.628 378.36 247.494Z" fill="black"/>
<path d="M378.36 247.494C374.403 246.36 370.362 248.622 369.345 252.564C368.316 256.488 370.698 260.598 374.655 261.732C378.621 262.869 382.659 260.607 383.682 256.68C384.711 252.735 382.317 248.628 378.36 247.494Z" stroke="#1F1105" stroke-width="2.25"/>
<path opacity="0.4" d="M362.646 264.18C364.482 267.099 366.924 269.298 370.377 270.03C374.355 270.873 374.811 265.584 371.961 264.975C369.801 264.519 368.43 263.463 367.305 261.669C365.244 258.39 360.987 261.552 362.646 264.18Z" fill="white"/>
<path d="M378.852 245.979C381.639 246.54 383.259 248.28 384.666 250.896C387.252 255.708 394.566 251.43 391.977 246.621C389.706 242.397 385.923 238.782 381.102 237.807C374.931 236.565 374.064 245.013 378.852 245.979Z" fill="url(#paint7_linear_3:95)"/>
<path d="M377.403 184.197C347.583 184.197 323.403 217.776 323.403 259.2C323.403 300.624 347.583 334.197 377.403 334.197C407.223 334.197 431.403 285.519 431.403 244.098C431.403 202.674 407.223 184.197 377.403 184.197ZM398.97 271.011C393.063 274.038 354.399 272.034 342.165 271.92C339.414 268.161 337.845 263.961 337.845 259.515C337.845 257.712 338.133 255.954 338.616 254.241C363.378 230.637 385.503 227.283 415.488 244.53C414.939 248.904 407.409 266.688 398.97 271.011Z" fill="#E19E95"/>
<path d="M415.176 245.985C413.61 251.922 406.677 267.063 398.973 271.011C393.066 274.038 354.402 272.034 342.168 271.92C339.417 268.161 337.848 263.961 337.848 259.515C337.848 257.712 338.136 255.954 338.619 254.241C363.117 230.889 385.047 227.391 414.549 244.02C408.645 226.848 388.983 214.164 365.529 214.059C337.35 213.939 314.475 232.002 314.406 254.412C314.337 276.819 337.122 295.074 365.289 295.2C393.468 295.32 416.337 277.257 416.406 254.85C416.412 251.802 415.965 248.844 415.176 245.985Z" fill="url(#paint8_radial_3:95)"/>
<path d="M398.97 271.011C407.409 266.688 414.939 248.904 415.488 244.53C385.503 227.283 363.378 230.64 338.616 254.241C338.133 255.954 337.845 257.712 337.845 259.515C337.845 263.958 339.414 268.158 342.165 271.92C354.399 272.034 393.063 274.038 398.97 271.011Z" fill="url(#paint9_radial_3:95)"/>
<path d="M338.442 247.992C361.992 216.228 405.144 231.147 415.386 235.17C402.057 231.654 365.403 217.686 338.442 247.992Z" fill="#B34E41"/>
<path d="M422.403 242.916C418.752 249.942 403.32 273.393 399.72 273.57C369.543 275.394 350.787 272.826 338.781 271.131C343.278 270.561 392.259 273.474 398.97 270.192C407.409 266.067 414.939 249.099 415.488 244.923C384.735 228.045 362.259 231.786 336.72 255.9C361.623 218.103 413.244 235.323 422.403 242.916Z" fill="#1B1929"/>
<path d="M423 341.922C423.105 409.788 368.124 464.904 300.186 464.997C232.26 465.108 177.102 410.178 176.997 342.297C176.892 274.437 231.873 219.105 299.808 218.997C367.737 218.892 422.901 274.047 423 341.922Z" fill="url(#paint10_radial_3:95)"/>
<path d="M412.5 161.997C412.5 224.13 362.133 274.497 300.003 274.497C237.87 274.497 187.5 224.13 187.5 161.997C187.5 99.864 237.87 49.497 300.003 49.497C362.133 49.497 412.5 99.864 412.5 161.997Z" fill="url(#paint11_radial_3:95)"/>
<path d="M157.464 221.61C179.889 193.461 218.478 198.144 250.098 202.668C258.141 203.82 266.421 204.684 274.308 206.676C279.96 208.101 284.403 214.542 279.861 219.744C277.737 222.219 273.102 221.76 270.24 221.7C232.377 220.935 189.579 199.161 157.464 221.61Z" fill="#080806"/>
<path d="M442.731 220.47C436.239 216.126 429.369 213.06 421.602 211.803C393.111 207.183 338.844 226.173 324.579 222.153C315.843 219.687 317.61 210.936 321.474 208.779C323.799 207.48 324.444 207.513 345.201 203.943C380.472 197.883 419.964 193.065 442.731 220.47Z" fill="#080806"/>
<path d="M299.937 362.946C292.14 362.709 278.265 354.672 279.921 347.448C281.454 340.734 290.187 349.896 300.219 349.98C310.248 350.061 322.227 344.079 323.637 350.811C325.908 361.683 312.498 363.336 299.937 362.946Z" fill="#D98F85"/>
<path d="M317.379 358.86C318.009 359.685 319.095 359.685 319.77 358.854C320.463 358.023 320.499 356.673 319.851 355.851C315.147 349.788 306.681 357.915 307.32 358.758C307.557 359.073 313.824 354.339 317.379 358.86ZM282.318 343.431C283.305 349.875 285.354 358.479 301.839 362.988C285.588 362.505 275.028 359.481 275.115 344.37C275.16 336.723 283.149 321 283.149 321C283.149 321 281.274 336.621 282.318 343.431Z" fill="#B34E41"/>
<path d="M475.29 123.975C420 -14.295 300 1.21497 300 1.21497C300 1.21497 180 -14.292 124.71 123.975C96.975 193.335 131.184 274.947 131.184 274.947H148.662C133.38 209.691 151.05 221.961 152.19 209.781C152.544 206.016 151.29 199.68 150.927 195.915C149.151 177.579 156.873 141.828 166.662 126.396C171.471 118.818 182.769 106.419 191.184 103.299C221.094 92.217 251.316 105.444 259.746 107.562C273.129 110.922 326.865 110.922 340.254 107.562C350.283 105.045 379.8 92.847 408.816 103.599C417.234 106.719 429.429 118.515 434.238 126.096C444.027 141.528 450.849 174.576 449.073 192.912C448.71 196.677 447.456 206.013 447.807 209.781C448.128 213.222 455.658 220.848 456.501 224.202C459.981 238.038 451.335 274.947 451.335 274.947H468.81C468.813 274.947 503.028 193.335 475.29 123.975Z" fill="#080806"/>
<path d="M464.814 93.489C408.534 -9.34203 305.937 -1.89303 300 -1.36503C294.063 -1.89303 191.469 -9.34203 135.186 93.489C91.71 172.923 124.71 264.411 128.721 274.836C128.949 275.427 133.449 274.95 133.449 274.95C133.431 274.905 133.137 273.774 132.951 273.3C129.324 263.94 96.384 173.76 139.134 95.652C195.333 -7.02603 298.785 3.02097 299.82 3.13797L300 1.51197L300.18 3.13797C301.215 3.02097 404.667 -7.02602 460.869 95.649C504.558 175.479 469.188 267.918 466.857 273.798C466.794 273.963 466.536 274.923 466.524 274.947C466.524 274.947 471.042 275.454 471.249 274.914C475.122 264.882 508.401 173.127 464.814 93.489Z" fill="black"/>
</g>
<defs>
<linearGradient id="paint0_linear_3:95" x1="300" y1="513" x2="300" y2="381" gradientUnits="userSpaceOnUse">
<stop stop-color="#D28176" stop-opacity="0.8"/>
<stop offset="0.7" stop-color="#B34E41"/>
</linearGradient>
<linearGradient id="paint1_linear_3:95" x1="300" y1="426" x2="300" y2="417" gradientUnits="userSpaceOnUse">
<stop offset="0.1" stop-color="#D98F85"/>
<stop offset="1" stop-color="#D28176"/>
</linearGradient>
<radialGradient id="paint2_radial_3:95" cx="0" cy="0" r="1" gradientUnits="userSpaceOnUse" gradientTransform="translate(221.113 254.557) rotate(180) scale(40.7999)">
<stop stop-color="white"/>
<stop offset="0.544" stop-color="#FDFEFE"/>
<stop offset="0.74" stop-color="#F6F8F9"/>
<stop offset="0.879" stop-color="#EAEFF2"/>
<stop offset="0.992" stop-color="#D9E3E8"/>
<stop offset="1" stop-color="#D8E2E7"/>
</radialGradient>
<linearGradient id="paint3_linear_3:95" x1="248.25" y1="235.5" x2="230.25" y2="253.5" gradientUnits="userSpaceOnUse">
<stop stop-color="white"/>
<stop offset="1" stop-color="white" stop-opacity="0"/>
</linearGradient>
<radialGradient id="paint4_radial_3:95" cx="0" cy="0" r="1" gradientUnits="userSpaceOnUse" gradientTransform="translate(233.648 253.04) rotate(1.19182) scale(50.5898 40.4698)">
<stop stop-color="#D28176"/>
<stop offset="0.7" stop-color="#D28176" stop-opacity="0.3"/>
<stop offset="1" stop-color="#E19E95" stop-opacity="0"/>
</radialGradient>
<radialGradient id="paint5_radial_3:95" cx="0" cy="0" r="1" gradientUnits="userSpaceOnUse" gradientTransform="translate(218.567 308.56) rotate(-2.98402) scale(69.4013 68.9787)">
<stop offset="0.95" stop-opacity="0"/>
<stop offset="1" stop-opacity="0.2"/>
</radialGradient>
<radialGradient id="paint6_radial_3:95" cx="0" cy="0" r="1" gradientUnits="userSpaceOnUse" gradientTransform="translate(377.688 254.557) scale(40.8029)">
<stop stop-color="white"/>
<stop offset="0.544" stop-color="#FDFEFE"/>
<stop offset="0.74" stop-color="#F6F8F9"/>
<stop offset="0.879" stop-color="#EAEFF2"/>
<stop offset="0.992" stop-color="#D9E3E8"/>
<stop offset="1" stop-color="#D8E2E7"/>
</radialGradient>
<linearGradient id="paint7_linear_3:95" x1="393.75" y1="235.5" x2="375.75" y2="253.5" gradientUnits="userSpaceOnUse">
<stop stop-color="white"/>
<stop offset="1" stop-color="white" stop-opacity="0"/>
</linearGradient>
<radialGradient id="paint8_radial_3:95" cx="0" cy="0" r="1" gradientUnits="userSpaceOnUse" gradientTransform="translate(365.153 253.04) rotate(178.808) scale(50.5898 40.4698)">
<stop stop-color="#D28176"/>
<stop offset="0.7" stop-color="#D28176" stop-opacity="0.3"/>
<stop offset="1" stop-color="#E19E95" stop-opacity="0"/>
</radialGradient>
<radialGradient id="paint9_radial_3:95" cx="0" cy="0" r="1" gradientUnits="userSpaceOnUse" gradientTransform="translate(380.231 308.56) rotate(-177.016) scale(69.4014 68.9787)">
<stop offset="0.95" stop-opacity="0"/>
<stop offset="1" stop-opacity="0.2"/>
</radialGradient>
<radialGradient id="paint10_radial_3:95" cx="0" cy="0" r="1" gradientUnits="userSpaceOnUse" gradientTransform="translate(300 342) scale(123)">
<stop stop-color="#F0BEB7" stop-opacity="0.5"/>
<stop offset="0.9" stop-color="#E19E95" stop-opacity="0"/>
</radialGradient>
<radialGradient id="paint11_radial_3:95" cx="0" cy="0" r="1" gradientUnits="userSpaceOnUse" gradientTransform="translate(300 162) scale(111)">
<stop stop-color="#F0BEB7" stop-opacity="0.5"/>
<stop offset="0.9" stop-color="#E19E95" stop-opacity="0"/>
</radialGradient>
<clipPath id="clip0_3:95">
<rect width="600" height="600" fill="white"/>
</clipPath>
</defs>
</svg>
