<svg viewBox="0 0 600 600" fill="none" xmlns="http://www.w3.org/2000/svg">
<g clip-path="url(#clip0_4:189)">
<path d="M675 675H-75V-75H675V675Z" fill="#547980"/>
<path d="M300 255C275.148 255 255 275.148 255 300C255 324.852 275.148 345 300 345C324.852 345 345 324.852 345 300C345 275.148 324.852 255 300 255ZM300 330C283.434 330 270 316.566 270 300C270 283.434 283.434 270 300 270C316.566 270 330 283.434 330 300C330 316.566 316.566 330 300 330ZM300 210C250.296 210 210 250.296 210 300C210 349.704 250.296 390 300 390C349.704 390 390 349.704 390 300C390 250.296 349.704 210 300 210ZM300 375C258.579 375 225 341.421 225 300C225 258.579 258.579 225 300 225C341.421 225 375 258.579 375 300C375 341.421 341.421 375 300 375ZM300 165C225.441 165 165 225.441 165 300C165 374.559 225.441 435 300 435C374.559 435 435 374.559 435 300C435 225.441 374.559 165 300 165ZM300 420C233.727 420 180 366.273 180 300C180 233.727 233.727 180 300 180C366.273 180 420 233.727 420 300C420 366.273 366.273 420 300 420ZM300 120C200.589 120 120 200.589 120 300C120 399.411 200.589 480 300 480C399.411 480 480 399.411 480 300C480 200.589 399.411 120 300 120ZM300 465C208.875 465 135 391.125 135 300C135 208.875 208.875 135 300 135C391.125 135 465 208.875 465 300C465 391.125 391.125 465 300 465ZM300 75C175.737 75 75 175.737 75 300C75 424.263 175.737 525 300 525C424.263 525 525 424.263 525 300C525 175.737 424.263 75 300 75ZM300 510C184.026 510 90 415.974 90 300C90 184.026 184.026 90 300 90C415.974 90 510 184.026 510 300C510 415.974 415.974 510 300 510ZM300 30C150.885 30 30 150.885 30 300C30 449.115 150.885 570 300 570C449.115 570 570 449.115 570 300C570 150.885 449.115 30 300 30ZM300 554.997C159.171 554.997 45 440.826 45 300C45 159.174 159.171 44.997 300 44.997C440.829 44.997 555 159.174 555 300C555 440.826 440.829 554.997 300 554.997ZM300 -15C126.033 -15 -15 126.033 -15 300C-15 473.967 126.033 615 300 615C473.967 615 615 473.967 615 300C615 126.033 473.967 -15 300 -15ZM300 599.994C134.316 599.994 0 465.678 0 300C0 134.319 134.316 -0.00299835 300 -0.00299835C465.684 -0.00299835 600 134.319 600 300C600 465.678 465.684 599.994 300 599.994ZM300 -105C76.326 -105 -105 76.326 -105 300C-105 523.674 76.326 705 300 705C523.674 705 705 523.674 705 300C705 76.326 523.674 -105 300 -105ZM300 689.994C84.615 689.994 -90 515.379 -90 300C-90 84.615 84.615 -90.006 300 -90.006C515.382 -90.006 690 84.615 690 300C690 515.379 515.382 689.994 300 689.994ZM300 -60C101.181 -60 -60 101.181 -60 300C-60 498.819 101.181 660 300 660C498.819 660 660 498.819 660 300C660 101.181 498.819 -60 300 -60ZM300 644.994C109.467 644.994 -45 490.53 -45 300C-45 109.467 109.467 -45.006 300 -45.006C490.533 -45.006 645 109.467 645 300C645 490.53 490.533 644.994 300 644.994Z" fill="#3F6971"/>
<path d="M301.5 301.5H298.5V298.5H301.5V301.5Z" fill="#080806"/>
<path d="M586.251 599.334C579.663 585.096 561.666 563.997 541.671 558.168C516.954 550.959 461.16 542.244 440.472 537.399C423.888 533.511 390.486 503.517 378.78 493.449C376.68 491.649 374.961 487.932 374.919 485.169C374.502 452.577 387.504 365.997 387.504 365.997H300H212.499C212.499 365.997 225.501 452.574 225.078 485.169C225.045 487.932 223.317 491.649 221.223 493.449C209.517 503.517 176.115 533.511 159.531 537.399C138.84 542.244 83.046 551.256 58.332 558.465C38.331 564.291 20.34 585.093 13.752 599.331C2.628 623.355 0 666.831 0 704.331H300H600C600 666.834 597.369 623.358 586.251 599.334Z" fill="#F3D4CF"/>
<path d="M477.468 552.174C550.494 562.8 581.226 578.298 590.85 704.337H600C600 666.837 597.369 623.361 586.251 599.337C579.663 585.099 561.666 564 541.671 558.171C516.954 550.962 461.16 542.247 440.472 537.402C423.888 533.514 385.746 501.195 375.543 488.352C385.623 502.464 413.916 535.167 438.705 543.732C450.564 547.83 460.44 549.696 477.468 552.174ZM161.298 543.732C186.087 535.17 214.377 502.464 224.46 488.352C214.26 501.192 176.118 533.514 159.531 537.402C138.843 542.247 83.049 551.259 58.332 558.468C38.337 564.294 20.34 585.096 13.752 599.334C2.63399 623.358 0.00299072 666.834 0.00299072 704.334H9.15299C18.717 579.102 49.578 562.785 122.535 552.171C139.56 549.696 149.439 547.83 161.298 543.732Z" fill="#FFF4F3"/>
<path d="M286.938 592.86C286.938 592.86 271.716 588.033 265.689 585.723C234.342 573.696 132.504 565.902 132.504 565.902C132.504 565.902 239.766 570.159 263.436 574.239C262.062 559.938 254.385 514.227 254.385 514.227C254.385 514.227 269.832 564.672 273.612 577.398C275.634 584.202 286.938 592.86 286.938 592.86ZM319.335 588.834C319.068 589.053 318.762 589.338 318.429 589.638C318.768 589.383 319.074 589.116 319.335 588.834ZM286.938 592.86C286.938 592.86 295.617 601.836 299.979 601.95C305.709 602.103 314.463 593.253 318.432 589.638C314.637 592.509 305.955 593.811 302.502 593.946C298.512 594.099 286.938 592.86 286.938 592.86ZM349.992 570.303C345.357 571.047 336.834 572.67 336.834 572.67L343.695 528C341.757 537.213 330.273 576.633 319.335 588.834C325.065 583.986 337.809 581.661 344.307 580.722C375.015 576.27 375.003 576.273 467.493 565.902C467.493 565.902 380.28 565.437 349.992 570.303Z" fill="#E4B3AB"/>
<path d="M586.251 599.334C579.663 585.096 561.666 563.997 541.671 558.168C516.954 550.959 461.16 542.244 440.472 537.399C423.888 533.511 390.486 503.517 378.78 493.449C376.68 491.649 374.961 487.932 374.919 485.169C374.502 452.577 387.504 365.997 387.504 365.997H300H212.499C212.499 365.997 225.501 452.574 225.078 485.169C225.045 487.932 223.317 491.649 221.223 493.449C209.517 503.517 176.115 533.511 159.531 537.399C138.84 542.244 83.046 551.256 58.332 558.465C38.331 564.291 20.34 585.093 13.752 599.331C2.628 623.355 0 666.831 0 704.331H300H600C600 666.834 597.369 623.358 586.251 599.334Z" stroke="#C5796D" stroke-width="4.5"/>
<path d="M351.408 509.226C358.953 506.019 367.059 500.142 375.189 492.669C373.707 490.431 372.705 487.617 372.666 485.199C372.387 463.311 377.991 418.092 381.828 389.94C334.491 384.165 265.515 384.189 218.181 389.982C222.015 418.134 227.616 463.32 227.331 485.196C227.301 487.563 226.287 490.401 224.811 492.651C232.947 500.13 241.059 506.013 248.607 509.223C270.936 518.721 329.079 518.721 351.408 509.226Z" fill="url(#paint0_linear_4:189)"/>
<path d="M-11.046 708.576C-19.788 635.697 13.02 567.306 92.442 544.743C115.752 538.119 109.515 534.72 113.043 534.513C112.926 533.88 112.908 533.913 112.908 532.623H112.8C113.061 508.533 139.884 513.264 147.561 511.671C177.924 505.197 188.235 473.313 222.906 481.716C223.758 489.027 223.131 497.46 218.793 528.705C251.49 599.103 286.959 593.016 299.568 632.418C311.013 597.18 351.585 591.567 381.486 528.69C379.521 511.038 375.237 495.591 377.04 480.885L377.211 480.759C400.443 473.01 410.592 483.381 419.841 492.321C448.032 519.57 462.987 502.296 477.096 514.692C482.709 519.669 484.737 526.683 484.737 534.246C548.973 543.576 622.659 563.94 608.004 706.689L608.292 707.001C543.282 707.001 172.638 723.285 -11.046 708.576Z" fill="#CBE9EE"/>
<path d="M300.804 629.055C313.491 597.141 351.642 589.659 380.433 530.79C380.727 530.466 381.474 529.017 382.401 527.079C381.909 521.601 381.285 515.838 378.762 509.808C377.196 499.758 375.945 490.341 377.001 481.203C382.923 482.937 388.527 484.989 392.361 489.183C398.007 495.339 393.726 506.01 388.323 516.309C378.189 560.532 352.782 592.479 300.804 629.055ZM507.846 596.577C516.66 627.705 522.531 677.361 515.478 708.912C521.364 708.777 523.536 708.621 528.996 708.498C531.438 675.36 525.462 622.44 507.846 596.577ZM412.812 602.205C374.397 624.645 335.751 633.279 300.849 663.078C265.929 633.366 226.908 628.167 188.49 605.754C170.88 598.674 143.868 573.657 127.359 556.038C179.298 634.89 216.477 612.507 299.661 665.652C382.869 612.507 420.276 630.576 472.209 551.73C455.7 569.346 430.428 595.17 412.812 602.205ZM299.43 632.808C286.716 600.876 250.053 589.659 221.262 530.79C220.983 530.466 220.233 529.017 219.306 527.079C219.774 521.601 218.52 515.556 221.064 509.508C222.627 499.434 223.308 491.232 222.243 482.112C216.336 483.834 213.168 484.989 209.334 489.183C203.694 495.339 207.975 506.01 213.375 516.309C223.506 560.532 247.437 596.22 299.43 632.808ZM81.489 593.064C68.574 621.252 68.469 675.36 70.905 708.501C76.368 708.624 78.549 708.78 84.423 708.915C77.373 677.361 79.137 624.78 81.489 593.064ZM299.664 638.892C348.831 624.165 401.103 597.21 444.579 531.351C405.327 584.28 347.004 615.54 300.801 634.716C253.131 617.43 196.056 583.053 162.783 536.811C201.771 600.678 250.524 624.165 299.664 638.892Z" fill="#A8D7DF"/>
<path d="M608.286 707.001C607.941 707.001 607.518 707.004 607.164 707.004C605.883 561.159 524.673 555.282 479.724 545.829C472.689 545.829 469.035 526.314 463.86 521.109C459.459 516.684 425.553 516.684 414.816 487.602C416.565 489.141 418.209 490.758 419.838 492.321C448.029 519.57 462.984 502.296 477.093 514.692C482.706 519.669 484.734 526.683 484.734 534.246C548.97 543.576 622.656 563.94 608.001 706.689L608.286 707.001ZM-11.904 710.52C-11.562 710.52 -11.139 710.523 -10.776 710.523C3.50099 594.627 37.311 558.09 119.853 544.431C130.206 540.492 124.755 533.001 129.939 527.799C134.34 523.395 158.82 523.299 192.711 487.632C190.965 489.171 183.486 490.758 181.866 492.321C153.672 519.57 132.411 511.851 124.602 514.692C114.975 518.256 113.481 526.776 113.481 534.33C49.239 543.663 -19.002 579.252 -11.625 710.208L-11.904 710.52Z" fill="#F1FCFD"/>
<path d="M485.07 533.934C485.07 504.36 457.275 510.249 444.483 507.498C416.256 501.438 417.144 468.75 376.737 480.543C375.015 494.514 378.285 506.757 381.156 528.534C351.525 590.799 310.428 597.813 299.568 631.269C287.697 594.129 251.433 597.867 219.138 528.756C223.632 496.242 224.082 488.694 223.218 481.434C192.405 474.387 185.454 494.394 157.59 507.762C140.679 515.688 135.903 508.551 121.389 515.661C115.368 518.565 112.335 526.488 112.551 532.962C112.512 532.992 112.551 532.992 112.551 532.992C112.551 533.409 112.551 533.793 112.62 534.18C109.095 534.426 114.258 534.402 90.651 538.218C14.562 550.518 -19.179 614.82 -11.364 708.936C24.306 708.936 -8.33104 722.082 538.077 708.705C563.445 708.063 606.474 707.364 608.283 707.364C624.963 567.795 554.508 544.704 485.07 533.934ZM-10.872 708.171C-3.135 600.159 13.182 558.093 112.266 536.184C166.2 625.701 232.206 612.681 298.962 662.751C238.464 612.438 175.056 619.104 114.096 535.002C113.412 527.94 117.096 520.173 124.701 517.125C130.089 515.019 135.861 515.631 141.501 515.661C162.762 515.823 179.139 499.155 194.88 486.927C202.377 481.917 213.54 481.671 222.48 483.051C223.173 494.673 218.694 512.214 217.194 524.586C214.068 517.701 211.107 510.594 208.149 503.52C245.559 613.392 282.858 588.522 299.532 634.095C296.001 633.114 236.49 611.691 189.066 564.531C178.992 554.556 159.033 532.563 157.518 530.511C216.237 610.041 253.755 614.091 299.691 634.584C299.691 634.614 299.754 634.689 299.754 634.728C299.79 634.836 299.958 635.391 300.012 635.496C300.234 635.397 300.486 635.286 300.729 635.223C300.807 635.157 300.87 635.124 300.969 635.124C307.335 631.995 349.164 617.418 381.012 595.524C413.793 572.973 451.182 524.061 448.365 527.604C393.606 583.323 385.14 595.959 300.729 634.614C300.648 634.614 300.585 634.584 300.522 634.551C300.456 634.158 300.33 633.78 300.201 633.39C300.234 633.204 300.297 633.027 300.363 632.856C315.207 592.119 358.791 607.866 394.893 496.194C391.197 505.842 387.312 515.34 382.956 524.652C381.585 508.287 376.83 495.384 377.361 481.911C383.613 479.832 400.587 478.845 405.285 483.537C424.872 500.295 426.462 512.568 458.373 512.568C468.606 512.628 481.986 513.918 483.498 532.692C481.617 535.458 467.625 551.985 454.389 565.119C408.075 611.223 366.642 612.111 302.532 661.14C304.095 661.14 307.347 657.747 308.619 656.886C358.755 621.294 394.776 621.855 440.874 584.139C462.12 566.784 482.565 539.007 484.764 535.473C484.83 535.512 484.941 535.512 485.001 535.512C569.595 550.071 611.964 581.898 607.293 706.719C228.129 704.349 176.652 714.435 -10.872 708.171Z" fill="#6AB4C0"/>
<path d="M141.654 244.515C138.753 237.054 117.408 226.509 108.024 228.174C97.41 230.055 93.51 241.242 94.917 249.531C98.226 268.992 106.905 277.188 110.805 292.389C114.093 305.208 121.104 312.585 124.569 318.033C128.829 324.717 132.759 340.056 133.638 342.294C135.027 345.834 139.947 354.423 148.644 353.982C158.643 353.466 171.279 333.918 171.486 329.577C172.632 306.027 149.199 263.937 141.654 244.515Z" fill="#F3D4CF" stroke="#C5796D" stroke-width="4.5"/>
<path d="M143.859 323.88C143.859 323.88 145.146 320.667 143.577 317.814C141.561 314.145 136.308 307.41 135.114 303.381C134.139 300.087 134.634 293.046 134.475 289.602C134.193 283.512 129.999 279.342 128.694 275.847C119.952 252.468 108.318 237.978 101.694 234.969C96.795 246.936 100.677 255.69 107.514 274.104C103.389 249.078 107.352 241.254 107.352 241.254C107.352 241.254 119.406 251.649 125.355 274.77C126.432 278.943 122.022 287.652 122.865 291.885C123.921 297.201 135.417 307.488 138.636 311.79C141.147 315.141 143.859 323.88 143.859 323.88Z" fill="#C5796D"/>
<path d="M457.56 244.515C460.461 237.054 481.806 226.509 491.193 228.174C501.81 230.055 505.707 241.242 504.3 249.531C500.988 268.992 492.312 277.188 488.409 292.389C485.121 305.208 478.107 312.585 474.645 318.033C470.385 324.717 466.455 340.056 465.576 342.294C464.187 345.834 459.264 354.423 450.57 353.982C440.574 353.466 427.935 333.918 427.731 329.577C426.579 306.027 450.018 263.937 457.56 244.515Z" fill="#F3D4CF" stroke="#C5796D" stroke-width="4.5"/>
<path d="M455.355 323.88C455.355 323.88 454.065 320.667 455.637 317.814C457.653 314.145 462.909 307.41 464.097 303.381C465.069 300.087 464.577 293.046 464.742 289.602C465.024 283.512 469.212 279.342 470.52 275.847C479.262 252.468 490.899 237.978 497.52 234.969C502.419 246.936 498.534 255.69 491.703 274.104C495.828 249.078 491.862 241.254 491.862 241.254C491.862 241.254 479.808 251.649 473.856 274.77C472.785 278.943 477.189 287.652 476.346 291.885C475.29 297.201 463.794 307.488 460.578 311.79C458.067 315.141 455.355 323.88 455.355 323.88Z" fill="#C5796D"/>
<path d="M434.208 381.528C420.561 411.189 381.498 466.434 351.405 479.226C329.079 488.721 270.933 488.721 248.604 479.226C218.517 466.431 179.454 411.186 165.801 381.528C149.931 347.055 123.447 235.659 123.411 235.497C119.511 220.509 117.423 204.78 117.399 188.562C117.246 86.418 198.867 3.50701 299.721 3.34801C400.584 3.18901 482.46 85.833 482.61 187.977C482.637 204.201 480.603 219.936 476.754 234.936C476.703 235.095 450.135 346.923 434.208 381.528Z" fill="#F3D4CF"/>
<path d="M330.456 5.95203C411.438 24.993 471.747 98.523 471.612 186.324C471.585 202.545 469.5 218.274 465.6 233.262C465.564 233.424 438.126 344.916 422.412 379.293C409.161 408.27 373.68 461.106 344.811 474.756C335.304 479.253 310.494 480.321 300.006 480.321C289.524 480.321 264.711 479.253 255.207 474.756C226.338 461.106 190.854 408.27 177.606 379.293C161.889 344.916 134.451 233.424 134.418 233.262C130.518 218.277 128.43 202.545 128.406 186.324C128.268 98.523 188.571 24.993 269.559 5.95203C183.09 20.655 117.261 96.828 117.402 188.562C117.426 204.78 119.514 220.509 123.414 235.497C123.45 235.659 149.757 347.136 165.804 381.528C179.61 411.114 219.018 465.279 248.607 479.226C259.62 484.422 287.871 486.348 300.009 486.348C312.138 486.348 340.401 484.419 351.408 479.226C380.994 465.279 420.408 411.114 434.211 381.528C450.261 347.136 476.568 235.659 476.601 235.497C480.501 220.509 482.589 204.78 482.613 188.562C482.754 96.828 416.925 20.655 330.456 5.95203Z" fill="#EBC3BD"/>
<path d="M434.208 381.528C420.561 411.189 381.498 466.434 351.405 479.226C329.079 488.721 270.933 488.721 248.604 479.226C218.517 466.431 179.454 411.186 165.801 381.528C149.931 347.055 123.447 235.659 123.411 235.497C119.511 220.509 117.423 204.78 117.399 188.562C117.246 86.418 198.867 3.50701 299.721 3.34801C400.584 3.18901 482.46 85.833 482.61 187.977C482.637 204.201 480.603 219.936 476.754 234.936C476.703 235.095 450.135 346.923 434.208 381.528Z" stroke="#C5796D" stroke-width="4.5"/>
<path d="M300.6 428.841C292.104 429.273 289.668 420.582 289.668 420.582C289.668 420.582 301.461 422.277 310.641 419.523C310.644 419.526 308.076 428.466 300.6 428.841Z" fill="url(#paint1_linear_4:189)"/>
<path d="M301.464 422.28C295.512 422.58 290.169 422.049 289.833 422.013C289.419 421.971 289.119 421.605 289.161 421.197C289.206 420.783 289.59 420.498 289.983 420.525C290.106 420.534 302.271 421.74 310.197 419.514C310.59 419.418 311.01 419.637 311.124 420.036C311.238 420.435 311.004 420.846 310.605 420.96C307.803 421.746 304.551 422.124 301.464 422.28Z" fill="#C5796D"/>
<path d="M247.5 390.897C247.5 390.897 285.096 395.355 297.654 395.394C311.313 395.43 355.5 390.897 355.5 390.897C342.726 401.499 328.671 411.693 296.835 411.894C268.359 412.077 261.063 401.736 247.5 390.897Z" fill="white"/>
<path d="M247.5 390.897C247.5 390.897 285.096 395.355 297.654 395.394C311.313 395.43 355.5 390.897 355.5 390.897C342.726 401.499 328.671 411.693 296.835 411.894C268.359 412.077 261.063 401.736 247.5 390.897Z" stroke="#C5796D" stroke-width="2.25"/>
<path d="M260.187 254.241C260.67 255.954 260.958 257.712 260.958 259.515C260.958 263.958 259.389 268.158 256.638 271.92C244.407 272.034 205.74 274.038 199.833 271.011C191.394 266.688 183.864 248.904 183.315 244.53C213.3 227.283 235.425 230.637 260.187 254.241Z" fill="url(#paint2_radial_4:189)"/>
<path d="M241.614 258.264C239.007 267.84 229.134 273.483 219.54 270.852C209.955 268.224 204.291 258.318 206.904 248.739C209.508 239.154 219.405 233.511 228.99 236.145C238.569 238.77 244.224 248.676 241.614 258.264Z" fill="#4D3623" stroke="#1F1105" stroke-width="1.5"/>
<path d="M222.045 242.739L221.577 241.902C219.933 242.556 218.349 243.237 216.852 243.963L217.962 246.645L217.821 248.196L213.543 245.679C212.145 246.456 210.849 247.266 209.589 248.091L209.601 248.118L208.134 249.768L210.477 252.165L207.321 253.887L208.515 255.858L214.086 256.413L208.863 259.956L214.452 259.647L211.506 264.726L218.397 260.556L216.543 267.648L220.53 261.096L221.298 268.125L222.45 261.909L223.509 261.78L225.009 268.83L225.465 266.715C226.068 266.559 227.619 268.827 228.21 268.668L226.458 261L230.304 268.668L228.744 260.715L233.478 266.865C233.649 266.811 234.066 264.315 234.234 264.264L231.288 259.857L236.643 261.474L233.43 257.994L230.85 255.858L241.608 258.267L235.617 254.616L239.85 252.885L230.685 251.958L239.748 247.152L231.546 249.246L229.338 248.049L228.795 246.987L228.951 244.449L229.134 240.282L225.39 246.876L225.06 242.049L224.589 240.786C223.839 241.047 223.104 241.302 222.381 241.581L222.045 242.739Z" fill="#5C4633"/>
<path opacity="0.9" d="M241.818 249.765C226.092 250.482 218.097 253.845 206.697 257.658C204.501 247.971 210.591 238.344 220.287 236.166C229.983 233.988 239.625 240.075 241.818 249.765Z" fill="#3E2816"/>
<path opacity="0.8" d="M226.857 247.494C222.9 246.36 218.859 248.619 217.842 252.564C216.816 256.488 219.198 260.598 223.155 261.732C227.115 262.869 231.156 260.607 232.182 256.68C233.211 252.735 230.82 248.628 226.857 247.494Z" fill="black"/>
<path d="M226.857 247.494C222.9 246.36 218.859 248.619 217.842 252.564C216.816 256.488 219.198 260.598 223.155 261.732C227.115 262.869 231.156 260.607 232.182 256.68C233.211 252.735 230.82 248.628 226.857 247.494Z" stroke="#1F1105" stroke-width="2.25"/>
<path opacity="0.4" d="M211.143 264.18C212.982 267.099 215.421 269.298 218.877 270.03C222.855 270.873 223.308 265.581 220.461 264.975C218.301 264.519 216.933 263.46 215.805 261.669C213.741 258.39 209.487 261.552 211.143 264.18Z" fill="white"/>
<path d="M227.349 245.979C230.136 246.54 231.756 248.283 233.163 250.899C235.749 255.711 243.06 251.433 240.474 246.624C238.203 242.4 234.417 238.785 229.599 237.81C223.428 236.565 222.564 245.013 227.349 245.979Z" fill="url(#paint3_linear_4:189)"/>
<path d="M167.4 239.985C167.4 281.409 191.58 334.197 221.4 334.197C251.22 334.197 275.4 300.624 275.4 259.2C275.4 217.773 251.22 184.197 221.4 184.197C191.58 184.197 167.4 198.561 167.4 239.985ZM183.312 244.53C213.297 227.283 235.422 230.64 260.184 254.241C260.667 255.954 260.955 257.712 260.955 259.515C260.955 263.958 259.386 268.158 256.635 271.92C244.404 272.034 205.737 274.038 199.83 271.011C191.394 266.688 183.861 248.904 183.312 244.53Z" fill="#F3D4CF"/>
<path d="M183.627 245.985C185.193 251.922 192.126 267.063 199.83 271.011C205.737 274.038 244.401 272.034 256.635 271.92C259.386 268.161 260.955 263.961 260.955 259.515C260.955 257.712 260.667 255.954 260.184 254.241C235.686 230.889 213.756 227.391 184.254 244.02C190.158 226.848 209.82 214.164 233.274 214.059C261.453 213.939 284.328 232.002 284.397 254.412C284.466 276.819 261.681 295.074 233.514 295.2C205.335 295.32 182.466 277.257 182.397 254.85C182.391 251.802 182.835 248.844 183.627 245.985Z" fill="url(#paint4_radial_4:189)"/>
<path d="M199.83 271.011C191.391 266.688 183.861 248.904 183.312 244.53C213.297 227.283 235.422 230.64 260.184 254.241C260.667 255.954 260.955 257.712 260.955 259.515C260.955 263.958 259.386 268.158 256.635 271.92C244.404 272.034 205.737 274.038 199.83 271.011Z" fill="url(#paint5_radial_4:189)"/>
<path d="M183.414 235.167C193.656 231.147 236.808 216.225 260.358 247.989C233.4 217.686 196.746 231.654 183.414 235.167Z" fill="#C5796D"/>
<path d="M176.4 242.916C180.051 249.942 195.483 273.393 199.083 273.57C229.26 275.394 248.016 272.826 260.022 271.131C255.525 270.561 206.544 273.474 199.833 270.192C191.394 266.067 183.864 249.099 183.315 244.923C214.068 228.045 236.544 231.786 262.083 255.9C237.18 218.103 185.559 235.323 176.4 242.916Z" fill="#1B1929"/>
<path d="M338.616 254.241C338.133 255.954 337.845 257.712 337.845 259.515C337.845 263.958 339.414 268.158 342.165 271.92C354.396 272.034 393.063 274.038 398.97 271.011C407.409 266.688 414.939 248.904 415.488 244.53C385.503 227.283 363.378 230.637 338.616 254.241Z" fill="url(#paint6_radial_4:189)"/>
<path d="M393.114 258.261C390.507 267.84 380.634 273.483 371.04 270.849C361.455 268.221 355.794 258.315 358.404 248.736C361.005 239.151 370.905 233.508 380.487 236.142C390.072 238.773 395.724 248.679 393.114 258.261Z" fill="#4D3623" stroke="#1F1105" stroke-width="1.5"/>
<path d="M373.548 242.739L373.083 241.905C371.439 242.556 369.855 243.24 368.355 243.963L369.465 246.645L369.324 248.196L365.046 245.679C363.645 246.456 362.352 247.266 361.095 248.091L361.107 248.118L359.637 249.771L361.983 252.168L358.827 253.887L360.018 255.858L365.589 256.413L360.366 259.956L365.955 259.647L363.009 264.723L369.897 260.553L368.049 267.645L372.033 261.093L372.804 268.122L373.956 261.903L375.015 261.774L376.518 268.824L376.971 266.712C377.574 266.556 379.128 268.821 379.716 268.665L377.961 260.997L381.81 268.665L380.247 260.712L384.978 266.862C385.149 266.808 385.569 264.312 385.737 264.261L382.791 259.854L388.149 261.468L384.936 257.988L382.359 255.852L393.117 258.258L387.126 254.61L391.359 252.879L382.197 251.955L391.26 247.146L383.058 249.24L380.85 248.043L380.31 246.981L380.466 244.44L380.649 240.276L376.908 246.87L376.578 242.043L376.11 240.777C375.36 241.038 374.625 241.296 373.905 241.572L373.548 242.739Z" fill="#5C4633"/>
<path opacity="0.9" d="M393.315 249.765C377.595 250.482 369.597 253.845 358.197 257.658C356.004 247.971 362.091 238.344 371.787 236.166C381.483 233.985 391.128 240.075 393.315 249.765Z" fill="#3E2816"/>
<path opacity="0.8" d="M378.36 247.494C374.403 246.36 370.362 248.622 369.345 252.564C368.316 256.488 370.698 260.598 374.655 261.732C378.621 262.869 382.659 260.607 383.682 256.68C384.711 252.735 382.317 248.628 378.36 247.494Z" fill="black"/>
<path d="M378.36 247.494C374.403 246.36 370.362 248.622 369.345 252.564C368.316 256.488 370.698 260.598 374.655 261.732C378.621 262.869 382.659 260.607 383.682 256.68C384.711 252.735 382.317 248.628 378.36 247.494Z" stroke="#1F1105" stroke-width="2.25"/>
<path opacity="0.4" d="M362.646 264.18C364.482 267.099 366.924 269.298 370.377 270.03C374.355 270.873 374.811 265.584 371.961 264.975C369.801 264.519 368.43 263.463 367.305 261.669C365.244 258.39 360.987 261.552 362.646 264.18Z" fill="white"/>
<path d="M378.852 245.979C381.639 246.54 383.259 248.28 384.666 250.896C387.252 255.708 394.566 251.43 391.977 246.621C389.706 242.397 385.923 238.782 381.102 237.807C374.931 236.565 374.064 245.013 378.852 245.979Z" fill="url(#paint7_linear_4:189)"/>
<path d="M377.403 184.197C347.583 184.197 323.403 217.776 323.403 259.2C323.403 300.624 347.583 334.197 377.403 334.197C407.223 334.197 431.403 285.519 431.403 244.098C431.403 202.674 407.223 184.197 377.403 184.197ZM398.97 271.011C393.063 274.038 354.399 272.034 342.165 271.92C339.414 268.161 337.845 263.961 337.845 259.515C337.845 257.712 338.133 255.954 338.616 254.241C363.378 230.637 385.503 227.283 415.488 244.53C414.939 248.904 407.409 266.688 398.97 271.011Z" fill="#F3D4CF"/>
<path d="M415.176 245.985C413.61 251.922 406.677 267.063 398.973 271.011C393.066 274.038 354.402 272.034 342.168 271.92C339.417 268.161 337.848 263.961 337.848 259.515C337.848 257.712 338.136 255.954 338.619 254.241C363.117 230.889 385.047 227.391 414.549 244.02C408.645 226.848 388.983 214.164 365.529 214.059C337.35 213.939 314.475 232.002 314.406 254.412C314.337 276.819 337.122 295.074 365.289 295.2C393.468 295.32 416.337 277.257 416.406 254.85C416.412 251.802 415.965 248.844 415.176 245.985Z" fill="url(#paint8_radial_4:189)"/>
<path d="M398.97 271.011C407.409 266.688 414.939 248.904 415.488 244.53C385.503 227.283 363.378 230.64 338.616 254.241C338.133 255.954 337.845 257.712 337.845 259.515C337.845 263.958 339.414 268.158 342.165 271.92C354.399 272.034 393.063 274.038 398.97 271.011Z" fill="url(#paint9_radial_4:189)"/>
<path d="M338.442 247.992C361.992 216.228 405.144 231.147 415.386 235.17C402.057 231.654 365.403 217.686 338.442 247.992Z" fill="#C5796D"/>
<path d="M422.403 242.916C418.752 249.942 403.32 273.393 399.72 273.57C369.543 275.394 350.787 272.826 338.781 271.131C343.278 270.561 392.259 273.474 398.97 270.192C407.409 266.067 414.939 249.099 415.488 244.923C384.735 228.045 362.259 231.786 336.72 255.9C361.623 218.103 413.244 235.323 422.403 242.916Z" fill="#1B1929"/>
<path d="M423 341.922C423.105 409.788 368.124 464.904 300.186 464.997C232.26 465.108 177.102 410.178 176.997 342.297C176.892 274.437 231.873 219.105 299.808 218.997C367.737 218.892 422.901 274.047 423 341.922Z" fill="url(#paint10_radial_4:189)"/>
<path d="M412.5 161.997C412.5 224.13 362.133 274.497 300.003 274.497C237.87 274.497 187.5 224.13 187.5 161.997C187.5 99.864 237.87 49.497 300.003 49.497C362.133 49.497 412.5 99.864 412.5 161.997Z" fill="url(#paint11_radial_4:189)"/>
<path d="M157.464 221.61C179.889 193.461 218.478 198.144 250.098 202.668C258.141 203.82 266.421 204.684 274.308 206.676C279.96 208.101 284.403 214.542 279.861 219.744C277.737 222.219 273.102 221.76 270.24 221.7C232.377 220.935 189.579 199.161 157.464 221.61Z" fill="#080806"/>
<path d="M442.731 220.47C436.239 216.126 429.369 213.06 421.602 211.803C393.111 207.183 338.844 226.173 324.579 222.153C315.843 219.687 317.61 210.936 321.474 208.779C323.799 207.48 324.444 207.513 345.201 203.943C380.472 197.883 419.964 193.065 442.731 220.47Z" fill="#080806"/>
<path d="M299.937 362.946C292.14 362.709 278.265 354.672 279.921 347.448C281.454 340.734 290.187 349.896 300.219 349.98C310.248 350.061 322.227 344.079 323.637 350.811C325.908 361.683 312.498 363.336 299.937 362.946Z" fill="#EBC3BD"/>
<path d="M317.379 358.86C318.009 359.685 319.095 359.685 319.77 358.854C320.463 358.023 320.499 356.673 319.851 355.851C315.147 349.788 306.681 357.915 307.32 358.758C307.557 359.073 313.824 354.339 317.379 358.86ZM282.318 343.431C283.305 349.875 285.354 358.479 301.839 362.988C285.588 362.505 275.028 359.481 275.115 344.37C275.16 336.723 283.149 321 283.149 321C283.149 321 281.274 336.621 282.318 343.431Z" fill="#C5796D"/>
<path d="M274.47 514.41C239.61 502.71 241.56 481.74 228.12 466.29C214.14 450.75 186.66 431.76 199.89 413.7C223.77 426.69 231.66 395.46 240.42 384.57C255.69 367.11 278.58 362.04 299.85 369.36C325.74 361.2 352.05 368.94 366.03 394.71C374.1 409.47 381.42 422.79 400.08 413.67C410.61 428.16 395.34 443.01 381.9 456.12C376.74 461.16 371.85 465.9 368.79 470.28C358.17 484.59 358.98 502.83 325.71 514.32C313.29 518.88 288.39 519.57 274.47 514.41ZM261.66 392.82C247.86 398.25 241.35 410.55 244.23 425.73C247.32 442.08 259.71 455.4 271.8 455.4C287.94 455.4 296.79 432.66 299.97 417C320.43 514.11 399.42 398.79 325.5 389.43C320.01 388.71 278.1 386.07 261.66 392.82Z" fill="#080806"/>
<path d="M199.83 413.31C208.53 437.22 230.58 446.25 238.47 460.53C248.46 478.65 254.43 495.27 271.53 513.69C239.52 501.78 240.87 481.41 227.91 466.5C221.28 459.15 217.23 455.91 210.27 448.8C200.04 438.24 190.68 425.49 199.83 413.31C196.02 413.94 204.96 416.13 199.83 413.31ZM400.17 413.31C391.47 437.22 369.42 446.25 361.53 460.53C351.54 478.65 345.57 495.27 328.47 513.69C360.48 501.78 359.1 481.41 372.09 466.5C378.72 459.15 382.77 455.91 389.73 448.8C399.96 438.24 409.32 425.49 400.17 413.31C403.98 413.94 395.04 416.13 400.17 413.31Z" fill="black"/>
<path d="M400.2 413.31C381.39 422.61 374.25 409.11 366.09 394.17C352.56 368.7 325.14 360.93 299.97 369.09C279.75 362.13 256.38 365.94 240.21 384.39C231.33 395.4 223.65 426.51 199.83 413.31C190.68 425.49 200.04 438.24 210.27 448.8C217.23 455.91 221.28 459.15 227.91 466.5C241.26 481.86 239.43 502.98 274.38 514.71C288.96 520.11 314.04 518.94 325.83 514.65C359.19 503.13 358.56 484.68 369.06 470.49C380.07 454.68 415.35 433.65 400.2 413.31ZM365.25 467.82C358.41 477.09 354.09 492.42 344.28 499.62C333.69 507.78 320.13 514.2 304.89 515.4C304.65 515.52 295.23 515.58 290.64 514.95C276.99 513.57 259.56 503.91 250.83 495C242.22 484.38 240.96 474.15 230.1 461.94C216.21 446.67 190.41 433.14 200.19 414.57C205.08 416.82 215.61 422.76 226.77 411.3C235.89 401.82 247.08 358.17 300.03 370.56C325.11 364.68 351.06 372.36 363.12 395.79C373.26 414 381.48 423.81 399.78 414.6C411 434.4 377.91 449.55 365.25 467.82ZM350.34 398.43C337.65 386.1 317.55 386.91 300.03 388.53C272.19 385.95 243.09 388.8 241.53 417.09C239.31 453.33 287.7 484.47 300 419.85C312.81 484.71 360.66 453 358.47 417.09C358.2 412.17 357.06 409.02 357.03 409.02C355.86 405.24 353.58 401.37 350.34 398.43ZM303.09 427.44C301.62 422.76 300.51 418.29 300 415.44C298.89 421.77 295.95 431.7 292.08 439.17C266.64 488.07 217.29 410.58 261.78 393.12C278.22 386.37 320.16 389.07 325.5 389.76C394.41 398.46 328.8 503.94 303.09 427.44Z" fill="black"/>
<path d="M134.922 284.685C127.653 258.24 123.738 235.086 118.302 210.93L118.551 210.873C116.493 205.806 109.065 165.693 108.996 165.261C101.421 111.951 123.975 108.909 123.516 86.6671C133.011 91.4221 142.242 89.0641 150.573 82.5721C141.819 78.0751 144.582 77.3641 132.957 70.2871C141.15 68.8711 145.935 70.7821 152.895 71.6491C146.946 65.7001 135.27 53.5651 127.683 55.1731L127.188 54.1111C138.171 45.5401 152.832 63.3841 166.05 58.5511C166.449 9.43206 238.251 -0.767943 255.726 -8.06694C278.991 -16.9199 303.294 -36.3899 320.385 -38.1299C310.71 -28.4069 304.785 -12.7829 304.344 -1.05594C318.438 -14.5139 319.434 -14.1209 340.797 -37.8479C340.797 -18.7559 335.508 -16.3589 328.644 -5.15395C347.277 -17.3639 370.509 -51.6209 406.287 -56.8589L406.68 -55.749C393.786 -48.153 383.808 -35.3369 376.986 -17.6249C383.757 -25.8029 393.339 -34.6739 403.944 -36.279L404.343 -35.1719C397.698 -31.1969 384.681 -17.9459 381.702 4.24205C394.845 -10.4369 415.752 -22.6019 430.104 -27.1979L430.665 -26.1599C417.489 -15.4409 412.206 3.32406 409.227 19.2781C418.467 5.53806 423.843 2.40606 435.468 -3.36595C431.727 2.22906 431.97 1.25106 428.994 7.33206C436.182 25.7011 459.933 26.4151 463.992 58.5091C468.882 54.2371 470.823 53.1661 476.445 49.2331L477.291 50.0491C473.067 56.6101 469.584 68.2291 467.265 76.0051C475.605 69.6361 488.484 64.9441 497.553 61.6711L498.186 62.6551C490.533 70.4341 481.242 82.2931 479.7 95.1571C482.7 93.3811 482.844 93.5851 486.75 90.7591C486.75 100.002 487.065 98.8231 487.131 103.074C490.902 99.6991 491.481 99.2281 493.959 96.5311C493.41 193.617 488.424 174.267 475.008 241.929C472.656 253.818 468.495 274.578 465.825 284.55L447.678 287.667C453.288 220.485 447.399 235.131 451.479 192.855C457.515 130.518 407.067 79.4191 340.404 96.1441C326.916 99.5281 273.084 99.5251 259.602 96.1441C185.961 77.6551 159.429 120.684 151.524 195.978C147.651 232.932 146.703 220.461 152.325 287.667L134.922 284.685Z" fill="#080806"/>
<path d="M487.128 103.077C487.065 98.8231 486.747 100.005 486.747 90.7621C482.841 93.5851 482.697 93.384 479.697 95.16C481.239 82.296 490.53 70.437 498.183 62.658L497.55 61.6741C488.484 64.9501 475.605 69.6391 467.262 76.0081C469.578 68.2321 473.064 56.6131 477.288 50.0521L476.442 49.236C470.82 53.169 468.879 54.2401 463.989 58.5121C459.93 26.4211 436.179 25.704 428.991 7.33505C431.967 1.25405 431.724 2.23205 435.465 -3.36295C423.84 2.40905 418.464 5.54105 409.224 19.281C412.203 3.32705 417.489 -15.438 430.662 -26.157L430.101 -27.195C415.749 -22.599 394.842 -10.434 381.699 4.24505C384.678 -17.943 397.695 -31.194 404.34 -35.169L403.941 -36.276C393.336 -34.671 383.754 -25.797 376.983 -17.622C383.805 -35.334 393.786 -48.15 406.677 -55.746L406.284 -56.856C370.506 -51.618 347.274 -17.361 328.641 -5.15095C335.505 -16.356 340.794 -18.756 340.794 -37.845C319.431 -14.118 318.435 -14.511 304.341 -1.05295C304.779 -12.78 310.707 -28.407 320.382 -38.127C303.294 -36.387 278.991 -16.92 255.723 -8.06395C238.251 -0.767953 166.449 9.43205 166.05 58.5541C152.832 63.3871 138.171 45.543 127.188 54.114L127.683 55.1761C135.27 53.5651 146.946 65.7 152.895 71.652C145.938 70.785 141.15 68.8741 132.957 70.2901C144.582 77.3671 141.819 78.078 150.573 82.575C142.242 89.067 133.011 91.4251 123.516 86.6701C123.975 108.915 101.418 111.957 108.996 165.264C109.065 165.696 116.493 205.809 118.551 210.876L118.302 210.933C123.738 235.089 127.653 258.246 134.922 284.688L135 284.697C133.017 235.371 101.94 165.249 120.177 120.333C122.556 114.468 131.76 99.0001 131.76 99.0001C131.76 99.0001 160.641 95.2081 162 84.0001C162 84.0001 156 81.0001 153 78.0001C159 81.0001 159 72.0001 165 75.0001C165 69.0001 156 72.0001 156 66.0001C162 66.0001 168 66.0001 174 72.0001C171 57.0001 174 42 186 33C216 9.00005 255 12 285 -12C282 3.00005 279 18 279 33C297 24 303 6.00005 318 -5.99995C321 6.00005 315 21 315 33C324 12 336 -8.99995 363 -15C351 -2.99995 351 15 351 30C351 18 363 12 366 3.00005C366 15 366 27 366 39C372 21 384 12 399 6.00005C387 18 390 30 387 45.0001C396 36 408 33 417 24C426 42 420 57.0001 420 75.0001C423 60.0001 438 51.0001 447 39C450 54.0001 450 69.0001 447 84.0001C450 75.0001 456 69.0001 459 60.0001C459 74.5801 456.996 87.186 453.06 99.426C456.825 95.07 462.972 93.0931 465 87.0001C465 99.9751 465 110.712 465 123.081C466.74 119.505 471.87 118.257 474 114C471.438 124.239 473.238 132.309 473.823 141.906C474.936 136.026 480.597 132.42 482.643 127.005C482.763 124.671 482.886 122.334 482.997 120C483.684 122.736 483.402 124.992 482.643 127.005C479.907 180.318 474.864 233.553 463.875 284.889L465.819 284.556C468.489 274.584 472.647 253.824 475.002 241.935C488.421 174.273 493.407 193.623 493.953 96.5371C491.478 99.2341 490.899 99.7051 487.128 103.077Z" fill="#171714"/>
<path d="M503.337 59.085C488.49 61.587 478.119 66.399 470.187 71.835C471.342 68.82 476.766 51.825 482.607 44.685C473.637 48.684 468.447 52.974 465.447 55.215C465.447 52.119 464.253 48.543 463.677 46.695C463.11 45.15 462.633 43.344 459.864 38.835C444.351 16.947 443.382 26.103 430.677 9.34502C432.993 3.91202 436.344 -1.37097 440.547 -5.74497C428.823 -4.07997 422.652 0.480027 415.227 7.78503C415.107 7.90503 415.017 8.02502 414.927 8.14502C419.58 -10.233 428.697 -26.166 446.607 -32.145C424.455 -32.949 397.032 -16.569 383.247 -0.224974C389.199 -19.368 397.185 -28.488 409.05 -36.975C400.512 -38.238 392.145 -34.749 385.527 -29.235C393.15 -42.426 404.478 -52.932 413.58 -57.825C412.287 -57.855 410.76 -57.945 409.08 -57.825C406.749 -58.422 392.643 -56.127 387.6 -53.955C362.613 -44.199 344.433 -21.489 336.63 -14.115C342.378 -23.409 342.66 -30.009 341.61 -39.675C339.645 -37.986 306.765 -6.50998 306.36 -6.10498C308.691 -19.032 313.095 -26.916 321.42 -38.475C306.579 -41.253 269.424 -16.824 246.39 -10.305C222.258 -3.76798 162.378 9.86402 165.12 57.795C152.235 60.252 133.368 39.564 123.48 56.925C131.418 52.215 141.933 63.555 149.25 70.035C146.25 69.546 136.221 67.191 131.37 70.425C137.052 72.63 142.02 79.221 149.04 82.725C149.13 82.755 149.22 82.785 149.31 82.845C142.893 86.229 135.309 88.947 128.34 87.015C127.29 86.715 126.6 86.535 126.6 86.505C125.79 86.145 124.92 85.785 123.99 85.365H123.96L123.93 85.335C123.54 85.125 123.15 84.915 122.73 84.705C124.815 101.529 99.279 115.17 102.09 150.765C103.245 172.668 116.937 239.289 134.148 284.463L135.597 284.895C128.421 259.017 124.266 234.675 118.89 210.792C118.422 210.792 109.671 165.66 109.59 165.162C102.072 112.269 124.572 108.432 124.14 87.642C133.503 92.325 143.736 88.95 151.68 82.452C142.326 77.799 144.321 76.488 134.64 70.602C141.129 69.48 149.049 72.051 154.5 72.402C147.462 65.364 135.603 52.872 127.56 54.582C138.264 46.227 153.051 64.395 166.65 58.962C166.65 9.81302 237.819 0.0570216 255.96 -7.51798C277.773 -15.816 304.809 -35.946 318.777 -37.368C311.457 -29.994 303.717 -13.665 303.717 0.372025C318.219 -13.542 319.647 -13.473 340.197 -36.288C340.197 -18.246 333.456 -15.024 326.904 -3.37798C346.146 -14.472 369.441 -50.862 406.374 -56.268C390.912 -47.157 381.069 -31.293 375.144 -14.358C382.2 -23.535 392.544 -33.948 404.034 -35.688C398.007 -32.082 383.451 -18.342 380.874 6.10202C393.909 -9.23998 415.632 -21.936 430.284 -26.628C416.469 -15.384 411.18 4.48502 408.114 22.032C413.175 14.313 418.185 7.34103 426.024 2.41203C426.057 2.38203 426.114 2.35202 426.144 2.35202C429.231 0.255024 428.424 0.825026 433.707 -1.81797C431.7 1.18203 431.514 0.792023 428.337 7.30202C435.615 26.433 459.906 26.541 463.524 59.712C469.095 54.771 470.847 53.88 476.784 49.722C472.158 56.904 468.432 70.026 466.134 77.682C474.849 70.227 490.971 64.692 497.754 62.232C488.754 71.382 480.015 83.52 478.974 96.312C480.816 95.073 483.156 94.092 486.144 91.932C486.144 100.104 486.534 99.012 486.534 104.412C488.112 102.969 491.694 99.882 493.347 98.082C492.759 193.23 487.707 174.774 474.414 241.812C469.44 266.94 466.815 278.562 465.171 284.661L466.455 284.4C477.207 252.147 498.666 179.274 497.697 141.552C497.598 127.452 494.52 98.052 494.367 95.052C494.304 95.106 488.115 100.962 488.037 100.962C488.037 99.429 487.407 92.907 487.407 89.352C486.348 90.165 484.122 91.686 481.137 93.432C485.274 80.943 491.571 73.182 503.337 59.085Z" fill="black"/>
<path opacity="0.2" d="M430.86 300.3C423.78 306.9 412.17 309.42 390.18 309.42C360.84 309.42 341.64 306.15 328.95 280.89C319.08 261.27 315.09 240.21 319.89 232.95C326.52 222.93 345.6 216.12 366.9 214.11C403.89 231.69 429.87 266.94 430.86 300.3ZM216.03 213.51C193.11 214.14 170.76 220.56 161.22 234.66C154.68 244.29 156.15 272.31 160.56 285.48C166.56 303.45 175.77 309.42 209.82 309.42C239.16 309.42 258.36 306.15 271.05 280.89C272.31 278.37 273.48 275.82 274.56 273.27C264.87 248.85 243.48 226.29 216.03 213.51Z" fill="white"/>
<path opacity="0.4" d="M439.44 285.51C437.31 291.87 434.76 296.7 430.86 300.33C429.87 266.97 403.89 231.72 366.87 214.11C394.98 211.44 426.84 217.08 438.78 234.69C445.32 244.32 443.85 272.31 439.44 285.51ZM280.14 232.95C271.77 220.26 243.48 212.76 216.03 213.54C243.51 226.29 264.87 248.85 274.59 273.3C281.82 256.08 284.31 239.28 280.14 232.95Z" fill="white"/>
<path d="M455.37 220.83C424.83 204.45 346.95 199.8 318.87 221.28C316.47 222.69 306.18 219.69 300 219.69C294.15 219.69 283.74 222.84 281.13 221.28C253.05 199.8 175.17 204.45 144.63 220.83C140.25 223.2 139.77 234.36 143.58 236.07C146.31 237.3 148.11 239.01 147.96 242.01C147 258.87 151.65 280.77 153.69 286.8C156.3 294.57 161.01 309.03 181.56 312.6C199.05 315.63 230.85 317.04 247.38 312.09C277.35 303.15 290.1 257.97 290.64 242.58L290.67 242.64C291.87 237.24 308.13 237.24 309.36 242.64L309.39 242.58C309.9 257.97 322.68 303.15 352.65 312.09C369.18 317.04 400.98 315.63 418.47 312.6C439.02 309.03 443.73 294.57 446.34 286.8C448.38 280.74 453.03 258.87 452.1 242.01C451.95 239.01 453.78 237.3 456.48 236.07C460.23 234.36 459.75 223.2 455.37 220.83ZM244.23 304.08C229.05 308.61 201.27 308.91 185.1 306.09C171.48 303.72 165.78 296.31 162 285C157.56 271.8 156.39 244.47 162.48 235.5C182.76 205.56 264.09 211.35 278.88 233.76C285.48 243.81 272.67 295.59 244.23 304.08ZM438 285.03C434.22 296.34 428.49 303.75 414.9 306.12C398.73 308.94 370.95 308.64 355.77 304.11C327.33 295.62 314.52 243.84 321.12 233.79C335.91 211.38 417.24 205.59 437.52 235.53C443.61 244.47 442.44 271.83 438 285.03Z" fill="black"/>
<path d="M355.74 303.96C364.11 306.45 376.32 307.68 388.29 307.77C350.67 311.43 342.12 297.57 336.93 292.29C326.37 281.52 319.86 265.44 319.38 242.34C319.47 260.58 332.28 296.97 355.74 303.96ZM281.07 221.16C252.99 199.68 175.11 204.3 144.57 220.71C214.29 201.15 254.79 211.26 281.07 221.16ZM185.04 306C171.42 303.63 165.72 296.22 161.94 284.91C157.98 273.12 156.63 250.05 160.74 238.86C155.25 251.52 157.38 276.03 161.52 288.36C166.32 302.76 175.14 309.9 213.54 307.74C203.13 307.95 192.75 307.32 185.04 306ZM458.91 228.9C458.79 225.51 457.56 221.94 455.31 220.71C425.37 204.63 349.89 199.89 320.52 219.96C360 204.15 416.91 201.93 458.91 228.9Z" fill="#0F0F0F"/>
</g>
<defs>
<linearGradient id="paint0_linear_4:189" x1="300" y1="516" x2="300" y2="385.5" gradientUnits="userSpaceOnUse">
<stop stop-color="#E4B3AB" stop-opacity="0.8"/>
<stop offset="0.7" stop-color="#C5796D"/>
</linearGradient>
<linearGradient id="paint1_linear_4:189" x1="300" y1="426" x2="300" y2="417" gradientUnits="userSpaceOnUse">
<stop offset="0.1" stop-color="#EBC3BD"/>
<stop offset="1" stop-color="#E4B3AB"/>
</linearGradient>
<radialGradient id="paint2_radial_4:189" cx="0" cy="0" r="1" gradientUnits="userSpaceOnUse" gradientTransform="translate(221.113 254.557) rotate(180) scale(40.7999)">
<stop stop-color="white"/>
<stop offset="0.544" stop-color="#FDFEFE"/>
<stop offset="0.74" stop-color="#F6F8F9"/>
<stop offset="0.879" stop-color="#EAEFF2"/>
<stop offset="0.992" stop-color="#D9E3E8"/>
<stop offset="1" stop-color="#D8E2E7"/>
</radialGradient>
<linearGradient id="paint3_linear_4:189" x1="248.25" y1="235.5" x2="230.25" y2="253.5" gradientUnits="userSpaceOnUse">
<stop stop-color="white"/>
<stop offset="1" stop-color="white" stop-opacity="0"/>
</linearGradient>
<radialGradient id="paint4_radial_4:189" cx="0" cy="0" r="1" gradientUnits="userSpaceOnUse" gradientTransform="translate(233.648 253.04) rotate(1.19182) scale(50.5898 40.4698)">
<stop stop-color="#E4B3AB"/>
<stop offset="0.7" stop-color="#E4B3AB" stop-opacity="0.3"/>
<stop offset="1" stop-color="#F3D4CF" stop-opacity="0"/>
</radialGradient>
<radialGradient id="paint5_radial_4:189" cx="0" cy="0" r="1" gradientUnits="userSpaceOnUse" gradientTransform="translate(218.567 308.56) rotate(-2.98402) scale(69.4013 68.9787)">
<stop offset="0.95" stop-opacity="0"/>
<stop offset="1" stop-opacity="0.2"/>
</radialGradient>
<radialGradient id="paint6_radial_4:189" cx="0" cy="0" r="1" gradientUnits="userSpaceOnUse" gradientTransform="translate(377.688 254.557) scale(40.8029)">
<stop stop-color="white"/>
<stop offset="0.544" stop-color="#FDFEFE"/>
<stop offset="0.74" stop-color="#F6F8F9"/>
<stop offset="0.879" stop-color="#EAEFF2"/>
<stop offset="0.992" stop-color="#D9E3E8"/>
<stop offset="1" stop-color="#D8E2E7"/>
</radialGradient>
<linearGradient id="paint7_linear_4:189" x1="393.75" y1="235.5" x2="375.75" y2="253.5" gradientUnits="userSpaceOnUse">
<stop stop-color="white"/>
<stop offset="1" stop-color="white" stop-opacity="0"/>
</linearGradient>
<radialGradient id="paint8_radial_4:189" cx="0" cy="0" r="1" gradientUnits="userSpaceOnUse" gradientTransform="translate(365.153 253.04) rotate(178.808) scale(50.5898 40.4698)">
<stop stop-color="#E4B3AB"/>
<stop offset="0.7" stop-color="#E4B3AB" stop-opacity="0.3"/>
<stop offset="1" stop-color="#F3D4CF" stop-opacity="0"/>
</radialGradient>
<radialGradient id="paint9_radial_4:189" cx="0" cy="0" r="1" gradientUnits="userSpaceOnUse" gradientTransform="translate(380.231 308.56) rotate(-177.016) scale(69.4014 68.9787)">
<stop offset="0.95" stop-opacity="0"/>
<stop offset="1" stop-opacity="0.2"/>
</radialGradient>
<radialGradient id="paint10_radial_4:189" cx="0" cy="0" r="1" gradientUnits="userSpaceOnUse" gradientTransform="translate(300 342) scale(123)">
<stop stop-color="#FFF4F3" stop-opacity="0.5"/>
<stop offset="0.9" stop-color="#F3D4CF" stop-opacity="0"/>
</radialGradient>
<radialGradient id="paint11_radial_4:189" cx="0" cy="0" r="1" gradientUnits="userSpaceOnUse" gradientTransform="translate(300 162) scale(111)">
<stop stop-color="#FFF4F3" stop-opacity="0.5"/>
<stop offset="0.9" stop-color="#F3D4CF" stop-opacity="0"/>
</radialGradient>
<clipPath id="clip0_4:189">
<rect width="600" height="600" fill="white"/>
</clipPath>
</defs>
</svg>
