<svg  viewBox="0 0 600 600" fill="none" xmlns="http://www.w3.org/2000/svg">
<rect width="600" height="600" fill="#E5E5E5"/>
<g clip-path="url(#clip0_0:1)">
<path d="M675 675H-75V-75H675V675Z" fill="#45ADA8"/>
<path d="M300 299.997L270 -150.003H330L300 299.997ZM217.146 -143.325L159.03 -128.406L300 299.997L217.146 -143.325ZM109.5 -108.795L56.919 -79.89L300 299.997L109.5 -108.795ZM13.821 -48.576L-29.919 -7.49999L300 299.997L13.821 -48.576ZM-63.876 33.546L-96.027 84.207L300 299.997L-63.876 33.546ZM-118.707 132.408L-137.247 189.474L300 299.997L-118.707 132.408ZM-147.231 241.8L-150.999 301.683L300 299.997L-147.231 241.8ZM-147.654 354.849L-136.41 413.787L300 299.997L-147.654 354.849ZM-119.949 464.451L-94.401 518.745L300 299.997L-119.949 464.451ZM-65.859 563.721L-27.609 609.954L300 299.997L-65.859 563.721ZM11.22 646.422L59.766 681.693L300 299.997L11.22 646.422ZM106.443 707.355L162.234 729.444L300 299.997L106.443 707.355ZM213.828 742.692L273.36 750.213L300 299.997L213.828 742.692ZM326.631 750.213L386.163 742.692L300 299.997L326.631 750.213ZM437.757 729.444L493.551 707.358L300 299.997L437.757 729.444ZM540.228 681.693L588.777 646.425L300 299.997L540.228 681.693ZM627.603 609.96L665.856 563.727L300 299.997L627.603 609.96ZM694.395 518.751L719.952 464.457L300 299.997L694.395 518.751ZM736.407 413.799L747.657 354.855L300 299.997L736.407 413.799ZM750.996 301.692L747.234 241.8L300 299.997L750.996 301.692ZM737.247 189.483L718.71 132.408L300 299.997L737.247 189.483ZM696.027 84.216L663.879 33.543L300 299.997L696.027 84.216ZM629.922 -7.494L586.182 -48.579L300 299.997L629.922 -7.494ZM543.084 -79.881L490.503 -108.798L300 299.997L543.084 -79.881ZM440.976 -128.4L382.854 -143.334L300 299.997L440.976 -128.4Z" fill="url(#paint0_radial_0:1)"/>
<path d="M454.746 123.192L156.222 106.206C156.222 106.206 81 654.846 81 671.994C81 671.994 383.697 674.154 512.721 671.994C510.309 648.237 454.746 123.192 454.746 123.192Z" fill="#543C32"/>
<path d="M365.346 405.315C404.538 491.565 372.96 486.21 376.908 524.229C378.018 532.722 380.376 541.008 381.327 547.431C382.155 552.495 382.857 566.769 381.864 554.121C381.258 550.359 381.024 548.07 378.744 539.568C377.712 535.647 376.482 531.444 375.609 526.938C370.152 503.46 384.204 489.141 382.062 462.84C380.439 448.701 378.864 438.105 365.346 405.315ZM397.446 504.282C405.063 535.506 404.637 542.43 396.537 584.562C394.899 592.908 394.107 598.02 394.275 597.009C397.158 581.265 405.969 558.147 405.918 531.312C406.113 520.845 400.194 497.901 398.763 487.893C398.772 487.974 398.739 487.686 398.781 488.073C396.342 453.927 413.358 429.864 410.28 382.227C412.233 438.732 386.22 459.837 397.446 504.282ZM213.693 380.265C214.026 381.855 214.488 383.766 214.875 386.001C215.166 388.263 215.571 390.807 215.676 393.633C217.068 415.428 210.444 437.703 209.568 462.477C209.88 481.092 215.334 505.359 215.919 519.066C216.237 523.353 216.411 528.753 216.204 534.861C216.084 540.96 215.532 547.773 214.962 554.871C213.768 569.085 213.495 567.135 213.705 597.693C213.654 619.641 213.075 630 213.075 630C213.033 628.8 214.002 621.618 214.698 611.184C216.468 585.669 214.851 584.724 219.102 552.492C222.042 529.656 221.736 519.324 220.362 507.813C220.377 507.972 220.38 507.996 220.383 508.02C217.755 481.932 211.191 476.82 214.344 441.861C215.73 427.344 217.476 412.668 217.02 400.557C216.888 394.503 216.03 389.151 215.148 384.849C214.17 380.568 212.913 377.364 212.163 375.351C212.166 375.351 212.718 377.127 213.693 380.265ZM182.493 440.358C182.865 463.536 183.888 471.795 183.279 481.626C183.123 484.035 182.985 486.123 182.874 487.836C181.077 517.827 192.768 516.918 194.211 584.838C194.277 591.735 194.595 598.05 194.436 603.318C192.801 653.349 198.258 572.58 194.787 536.037C192.555 518.319 188.541 513.234 188.541 491.205C188.505 491.856 188.532 491.376 188.526 491.517C188.526 467.727 190.365 503.166 186.66 442.731C184.527 412.14 199.962 386.304 197.157 350.232C198.561 385.155 182.394 410.313 182.493 440.358Z" fill="#452C22"/>
<path d="M572.574 599.598C554.55 569.124 532.152 563.679 513.69 557.79C494.721 551.742 455.652 548.256 434.343 543.99C413.763 539.871 364.884 526.623 364.326 503.526C363.75 479.328 377.199 383.256 377.199 383.256H222.015C222.015 383.256 235.476 479.325 234.897 503.526C234.345 526.623 185.457 539.871 164.874 543.99C143.562 548.256 104.499 551.742 85.53 557.79C67.062 563.679 44.658 569.121 26.634 599.598C15.702 618.078 8.61002 647.997 8.61002 680.997H590.61C590.607 647.997 583.527 618.078 572.574 599.598Z" fill="#CDA184"/>
<path d="M364.326 503.529C371.811 536.316 418.821 544.623 443.205 549.504C508.932 562.641 544.521 564.906 570.096 608.121C578.805 622.869 586.473 655.713 587.982 680.58C593.487 681.453 589.575 628.284 572.574 599.598C543.348 550.182 485.307 554.193 434.343 543.993C413.763 539.874 364.884 526.626 364.326 503.529ZM235.674 503.529C235.116 526.626 186.237 539.874 165.657 543.993C114.693 554.193 56.652 550.182 27.426 599.598C10.425 628.287 6.51303 681.453 12.018 680.58C13.527 655.713 21.195 622.869 29.904 608.121C55.476 564.906 91.068 562.641 156.795 549.504C181.179 544.623 228.189 536.313 235.674 503.529Z" fill="#DCBAA4"/>
<path d="M153.618 568.539C153.618 568.539 239.541 569.436 254.037 574.194C260.979 576.468 279.153 591.093 279.153 591.093C279.153 591.093 259.485 581.583 253.179 579.819C238.53 575.727 153.618 568.539 153.618 568.539ZM299.385 599.997C305.544 599.874 323.046 588.6 323.046 588.6C323.046 588.6 306.324 594.777 301.02 595.08C296.547 595.338 281.922 591.366 281.922 591.366C281.922 591.366 294.336 600.096 299.385 599.997ZM351.024 578.271C371.274 572.817 440.382 568.581 440.382 568.581C440.382 568.581 369.009 567.033 348.852 573.756C342.096 576.012 326.166 589.236 326.166 589.236C326.166 589.236 344.358 580.062 351.024 578.271Z" fill="#BE8A67"/>
<path d="M572.574 599.598C543.351 550.185 485.208 554.172 434.343 543.993C413.763 539.874 364.884 526.626 364.326 503.529C363.75 479.331 377.199 383.259 377.199 383.259H222.015C222.015 383.259 235.476 479.328 234.897 503.529C234.345 526.626 185.457 539.874 164.874 543.993C143.562 548.259 104.499 551.745 85.53 557.793C67.062 563.682 44.658 569.124 26.634 599.601C15.702 618.081 8.61002 648 8.61002 681H590.61C590.607 647.997 583.527 618.078 572.574 599.598Z" stroke="#9F6037" stroke-width="4.5"/>
<path d="M300.135 515.211C316.914 515.184 340.599 504.387 362.859 489.891C364.203 469.827 368.01 438.162 371.061 414.453C329.196 409.014 269.844 409.14 228.192 414.768C231.216 438.261 234.966 469.446 236.331 489.438C258.93 504.189 283.11 515.238 300.135 515.211Z" fill="url(#paint1_linear_0:1)"/>
<path d="M12.897 715.977C12.357 712.977 6.10502 666.732 5.48702 647.139C4.60502 618.642 9.60001 577.902 38.13 578.178C70.602 555.606 125.397 536.115 163.284 524.793C186.993 499.032 191.733 488.88 231.12 471.171L231.09 470.79C235.629 502.242 239.991 517.65 204.558 530.376C198.879 538.266 193.563 545.958 186.084 556.737C197.463 618.27 201.027 660.954 202.416 717.048C202.416 717.048 213.729 717.081 398.28 716.235C404.478 651.453 397.617 614.607 412.698 555.057C412.698 555.057 400.635 540.519 392.52 529.338C357.735 515.787 365.103 495.72 368.082 471.279C398.298 485.421 407.619 496.206 433.041 523.122C453.147 528.834 474.369 535.008 494.979 543.081C522.27 553.77 556.923 574.695 559.923 577.179C571.023 576.858 577.29 582.972 581.964 593.028C597.096 625.491 593.514 672.183 588.066 717.102C534.621 717.195 165.24 723.522 12.897 715.977Z" fill="#5F8528"/>
<path d="M232.392 479.685C232.839 482.787 233.244 485.73 233.541 488.499C232.929 489.27 185.637 556.221 185.289 556.725C196.983 529.176 213.429 500.634 232.392 479.685ZM367.272 479.685C366.828 482.787 366.756 485.73 366.459 488.499C367.068 489.27 413.856 553.656 414.201 554.16C401.814 528.495 386.238 500.634 367.272 479.685ZM476.325 569.79C464.343 587.856 461.784 594.096 448.668 612C451.668 612 456.504 612.486 459.504 612.486C469.764 594.258 469.782 584.979 476.325 569.79ZM488.604 700.932C499.224 675.123 508.017 652.476 518.67 626.628L515.178 620.79C506.31 647.334 496.893 674.31 488.604 700.932ZM140.493 612.486C143.493 612.486 148.329 612 151.329 612C138.213 594.093 135.654 592.974 123.672 574.908C130.218 590.097 130.236 594.258 140.493 612.486ZM84.819 620.79L81.327 626.628C91.983 652.473 94.668 675.123 105.288 700.932C96.999 674.31 93.69 647.334 84.819 620.79Z" fill="#4F7618"/>
<path d="M231.177 509.565C228.687 516.465 220.407 521.895 214.407 525.315C211.497 526.965 208.437 528.375 205.347 529.695C206.757 527.655 208.197 525.615 209.667 523.605C216.627 513.885 223.407 504.105 229.917 494.055C230.847 492.615 231.747 491.145 232.647 489.675C233.127 496.188 233.667 503.625 231.177 509.565ZM369.507 510.918C365.727 504.588 366.087 496.098 366.507 488.865C373.407 501.168 380.667 513.195 388.857 524.778C389.697 525.975 390.537 527.148 391.407 528.318C382.647 524.385 374.487 519.288 369.507 510.918Z" fill="#41660A"/>
<path d="M368.016 471.789C368.037 471.618 368.061 471.453 368.079 471.282C418.731 500.28 442.254 537.321 476.325 569.79C475.071 571.881 472.887 573.255 471.606 575.319C435.924 547.191 424.791 511.188 368.016 471.789ZM226.407 473.715C183.75 487.326 128.886 568.731 123.072 574.272C124.326 576.363 125.007 575.946 126.291 578.007C161.976 549.882 162.927 516.858 226.407 473.715ZM581.964 593.034C577.29 582.975 571.026 576.861 559.923 577.185C556.923 574.701 522.267 553.773 494.979 543.087C475.071 535.287 453.864 531.804 434.37 526.257C528.708 573.525 568.314 587.562 584.79 604.308C583.926 601.962 582.996 595.248 581.964 593.034ZM30 594C73.533 570.951 110.142 553.779 162.609 524.997C124.749 536.349 70.413 555.735 38.13 578.178C16.575 577.971 8.46001 601.17 6.15601 624.816C15.441 606.615 20.394 601.203 30 594Z" fill="#70943B"/>
<path d="M592.767 642.015C592.137 625.455 589.287 608.028 582.237 592.908C578.517 584.898 573.507 578.418 564.3 577.188C563.22 577.038 562.137 576.948 561.06 576.918C560.73 576.885 560.37 576.855 560.037 576.885C559.83 576.705 559.59 576.585 559.377 576.438C552.447 572.028 545.277 567.978 538.347 563.928C524.367 555.765 510.177 548.718 495.087 542.808C474.867 534.885 454.107 528.798 433.257 522.918C430.887 520.428 428.487 517.908 426.117 515.385C415.587 504.198 405.147 493.158 392.397 484.428C385.497 479.688 378.147 475.668 370.587 472.125C369.774 471.735 368.967 471.375 368.154 470.985C368.067 470.925 367.947 470.898 367.827 470.835C367.764 471.435 367.677 472.005 367.587 472.575C366.987 476.565 366.327 480.585 365.847 484.575C365.727 485.445 365.637 486.285 365.547 487.155C365.514 487.602 365.457 488.025 365.427 488.472C364.737 496.452 364.467 505.452 368.904 512.472C374.364 521.082 383.004 525.942 392.274 529.512C398.307 537.825 404.634 545.805 411.354 553.695C411.714 554.115 412.074 554.535 412.404 554.985C409.587 566.115 407.634 577.515 405.894 588.825C403.437 605.085 401.844 621.345 401.427 637.785C400.977 654.132 401.394 670.602 400.494 686.955C399.984 696.615 398.904 706.275 398.004 715.935C394.797 715.935 391.584 715.965 388.374 715.965C356.634 716.115 324.927 716.265 293.214 716.415C263.034 716.565 232.884 716.655 202.704 716.742C202.074 687.645 200.574 658.665 197.274 629.712C195.534 614.682 194.094 599.592 191.424 584.682C189.774 575.412 188.124 566.142 186.324 556.902C192.414 548.142 198.474 539.349 204.654 530.652C215.604 526.719 226.524 521.259 232.044 510.912C235.464 504.432 234.384 495.129 233.664 487.962C233.634 487.662 233.604 487.395 233.574 487.092C233.484 486.282 233.424 485.502 233.304 484.722C232.854 480.645 232.224 476.562 231.654 472.512C231.534 471.915 231.474 471.342 231.384 470.742C231.234 470.805 231.114 470.862 230.994 470.895C230.124 471.285 229.254 471.645 228.384 472.002C220.134 475.512 212.124 479.565 204.684 484.545C197.664 489.225 191.184 494.535 185.094 500.355C179.124 506.085 173.814 512.625 168.294 518.778C166.584 520.698 164.874 522.588 163.194 524.505C159.264 525.678 155.364 526.908 151.464 528.105C136.674 532.695 122.214 537.975 107.724 543.435C99.894 546.405 92.184 549.645 84.474 552.915C77.334 555.975 70.044 558.945 63.264 562.752C55.734 566.952 47.994 571.332 40.584 576.192C40.044 576.522 39.504 576.879 38.964 577.242C38.634 577.452 38.334 577.665 38.034 577.872C36.234 577.842 34.434 577.962 32.664 578.322C21.294 580.509 14.454 590.802 10.734 600.972C5.36401 615.645 4.70401 631.692 5.18401 647.145C5.69401 663.285 7.94401 679.275 9.86401 695.262C10.674 702.075 11.574 708.852 12.564 715.632C12.564 715.842 12.594 716.055 12.654 716.262C14.484 716.352 16.314 716.445 18.144 716.535C30.414 717.165 42.684 717.705 54.954 717.972C103.974 719.082 153.024 719.922 202.044 720.102C202.284 720.102 202.524 720.102 202.764 720.102C215.064 720.132 227.334 720.132 239.634 720.072C273.234 719.892 306.834 719.742 340.464 719.592C359.544 719.502 378.624 719.412 397.704 719.292C397.974 719.292 398.244 719.292 398.514 719.259C413.547 719.199 428.577 719.079 443.604 718.902C489.954 718.422 536.334 717.822 582.684 717.462C584.574 717.432 586.434 717.402 588.324 717.402C588.384 717.009 588.411 716.652 588.444 716.259C589.281 708.879 590.031 701.469 590.724 694.089C592.347 676.695 593.43 659.505 592.767 642.015ZM231.177 509.565C228.687 516.465 220.407 521.895 214.407 525.315C211.497 526.965 208.437 528.375 205.347 529.695C206.757 527.655 208.197 525.615 209.667 523.605C216.627 513.885 223.407 504.105 229.917 494.055C230.847 492.615 231.747 491.145 232.647 489.675C233.127 496.188 233.667 503.625 231.177 509.565ZM194.067 716.778C155.247 716.865 116.427 716.958 77.607 716.745C77.307 716.745 77.037 716.745 76.737 716.745C57.177 716.625 37.647 716.265 18.087 715.788C17.217 707.088 16.317 698.355 15.267 689.658C13.197 672.615 10.947 655.578 11.067 638.355C11.157 622.755 11.607 604.365 20.247 590.778C23.577 585.528 28.467 581.928 34.197 580.515C35.817 580.095 37.527 579.855 39.297 579.855C39.327 579.825 39.327 579.825 39.357 579.855C40.287 586.005 41.337 592.125 42.387 598.278C43.467 604.755 44.307 611.298 46.047 617.625C47.907 624.195 49.797 630.765 51.897 637.278C55.797 649.278 59.667 661.278 63.447 673.338C67.227 685.518 72.867 696.918 77.637 708.708C74.307 696.468 69.867 684.588 66.837 672.288C63.867 660.348 60.087 648.798 56.247 637.125C55.137 633.765 54.117 630.408 53.157 627.015C50.337 617.328 47.997 607.605 45.807 597.705C44.337 591.765 42.927 585.825 41.487 579.885C41.397 579.528 41.307 579.198 41.217 578.835C41.577 578.655 41.937 578.475 42.267 578.295C43.107 577.845 43.947 577.425 44.757 577.002C52.767 572.832 60.807 568.722 68.997 564.942C83.607 558.252 98.787 552.312 113.817 546.612C128.967 540.882 144.057 535.035 159.117 529.062C152.097 536.952 145.137 544.872 138.327 552.942C132.987 559.272 128.277 565.992 123.807 572.862C123.387 573.492 122.967 574.122 122.577 574.785C122.907 575.352 123.267 575.895 123.657 576.465C131.277 588.135 139.107 599.745 147.147 611.148C139.287 611.808 131.427 612.558 123.597 613.515C113.067 614.808 102.627 616.308 92.277 618.678C90.087 619.188 87.897 619.668 85.677 620.115C84.747 620.325 83.817 620.538 82.857 620.715C83.067 621.315 83.247 621.945 83.427 622.545C91.017 648.675 96.147 675.525 105.387 701.205C102.777 685.305 100.167 669.495 96.447 653.805C94.287 644.835 91.887 635.925 88.647 627.252C88.017 625.512 87.297 623.805 86.547 622.092C88.647 621.792 90.747 621.432 92.847 621.042C103.407 619.152 113.967 617.442 124.617 616.152C132.537 615.192 140.397 614.022 148.257 612.729C149.427 612.549 150.597 612.369 151.767 612.162C151.497 611.712 151.227 611.259 150.957 610.812C147.747 605.352 144.327 600.009 140.727 594.732C135.747 587.742 130.587 581.052 125.187 574.512C130.527 567.645 136.347 561.252 142.347 554.925C151.647 545.112 160.587 535.035 169.587 524.955C170.367 524.055 171.177 523.125 171.987 522.225C172.167 522.045 172.317 521.835 172.497 521.658C182.997 509.808 193.347 498.168 206.067 488.505C213.387 482.898 221.247 478.095 229.407 473.715C230.007 473.385 230.577 473.085 231.177 472.785C231.597 477.195 232.077 481.602 232.377 486.045C223.827 498.315 215.127 510.492 206.367 522.675C204.147 525.735 201.987 528.825 199.857 531.915C199.737 532.065 199.617 532.242 199.497 532.395C194.757 539.295 190.137 546.285 185.667 553.362C185.277 553.992 184.887 554.592 184.497 555.222C184.647 556.482 184.767 557.712 184.917 558.942C187.827 586.062 190.437 613.212 193.497 640.332C196.347 665.802 198.447 691.332 201.597 716.742C199.077 716.778 196.587 716.778 194.067 716.778ZM369.507 510.918C365.727 504.588 366.087 496.098 366.507 488.865C373.407 501.168 380.667 513.195 388.857 524.778C389.697 525.975 390.537 527.148 391.407 528.318C382.647 524.385 374.487 519.288 369.507 510.918ZM569.937 716.085C553.644 715.995 537.327 715.905 521.034 715.845C480.384 715.725 439.764 715.755 399.144 715.935C399.474 714.075 399.834 712.185 400.164 710.325C401.817 701.205 403.914 691.965 404.514 682.725C405.624 666.288 406.047 649.908 406.494 633.435C406.914 617.205 408.834 601.002 410.454 584.895C411.411 575.472 412.374 566.025 413.814 556.665C413.994 555.435 414.174 554.232 414.381 553.035C414.081 552.585 413.751 552.165 413.424 551.715C413.361 551.655 413.334 551.595 413.271 551.535C408.141 544.845 402.891 538.275 397.824 531.555C397.614 531.285 397.401 531.012 397.194 530.742C395.244 528.165 393.324 525.555 391.464 522.915C382.911 510.795 374.781 498.372 366.714 485.925C367.014 481.545 367.554 477.195 367.974 472.815C368.514 473.145 369.084 473.445 369.624 473.775C376.974 478.065 384.144 482.685 390.807 487.992C403.014 497.712 413.514 508.962 424.107 520.305C424.137 520.335 424.167 520.395 424.197 520.425C425.067 521.355 425.937 522.285 426.807 523.215C436.227 533.265 445.707 543.255 455.607 552.855C461.607 558.675 467.877 564.195 474.057 569.835C472.977 571.155 471.927 572.475 470.874 573.825C466.194 579.885 462.234 586.635 458.124 593.085C454.557 598.965 451.164 604.905 447.954 610.965C447.714 611.385 447.504 611.805 447.294 612.225C448.401 612.435 449.511 612.648 450.621 612.825C459.021 614.355 467.481 615.735 475.941 616.905C488.241 618.612 500.481 620.685 512.778 622.305C512.091 623.595 511.461 624.882 510.831 626.175C506.811 634.425 503.541 643.695 500.778 652.425C495.681 668.502 491.598 684.585 488.598 701.205C491.628 693.315 494.418 685.365 497.208 677.415C500.178 668.895 502.608 660.132 505.698 651.645C509.178 642.012 512.568 632.352 515.928 622.695C516.135 622.125 516.318 621.585 516.525 621.012C515.568 620.862 514.605 620.685 513.678 620.535C501.228 618.285 488.808 615.972 476.265 614.205C468.078 613.065 459.828 612.135 451.578 611.325C460.008 598.245 467.988 584.895 475.968 571.545C476.268 571.002 476.598 570.492 476.898 569.982C476.421 569.382 475.908 568.812 475.368 568.242C469.338 561.492 463.041 554.925 456.921 548.202C450.441 541.062 443.811 534.042 437.148 527.052C456.528 534.192 475.998 541.032 495.291 548.379C509.601 553.839 523.191 561.069 536.841 567.999C542.931 571.062 549.171 573.999 555.321 577.119C556.041 577.449 556.758 577.809 557.451 578.172C557.898 578.412 558.321 578.619 558.741 578.859C557.031 585.429 554.601 591.729 552.411 598.152C549.261 607.392 546.771 616.812 544.074 626.202C542.964 630.012 541.824 633.822 540.594 637.602C536.484 650.112 532.614 662.562 529.404 675.372C526.614 686.472 523.827 697.602 521.067 708.702C530.004 684.972 537.477 660.792 545.307 636.672C549.534 623.652 552.717 610.359 556.347 597.162C557.937 591.369 559.437 585.642 560.547 579.792C560.634 579.342 560.727 578.892 560.817 578.412C561.504 578.472 562.164 578.562 562.827 578.712C564.597 579.012 566.274 579.525 567.894 580.182C571.974 581.862 574.827 585.312 576.927 589.392C576.987 589.479 577.014 589.572 577.077 589.662C579.447 594.342 580.827 599.802 581.967 604.239C589.947 635.319 587.127 668.079 584.217 699.579C583.707 705.129 583.227 710.649 582.777 716.199C578.517 716.148 574.227 716.115 569.937 716.085Z" fill="#345700"/>
<path d="M476.754 230.286H476.739C476.703 230.445 451.188 352.407 426.582 390.141C407.226 419.823 335.484 479.955 300.462 480.009C265.449 480.069 193.551 420.135 174.105 390.51C149.382 352.854 123.45 231 123.414 230.838H123.411C119.517 216.105 117.429 200.64 117.405 184.692C117.246 84.27 198.867 2.75699 299.721 2.60099C400.584 2.44499 482.46 83.7 482.61 184.122C482.637 200.07 480.603 215.538 476.754 230.286Z" fill="#CDA184"/>
<path d="M377.694 19.866C435.006 50.61 473.919 110.931 473.811 180.294C473.784 196.242 471.699 211.707 467.802 226.44H467.799C467.763 226.599 441.831 348.456 417.105 386.112C399.267 413.295 336.84 474.678 300.006 474.678C263.169 474.678 200.748 413.292 182.907 386.112C158.181 348.456 132.246 226.602 132.213 226.44H132.21C128.316 211.707 126.228 196.242 126.204 180.294C126.093 110.931 165.009 50.61 222.315 19.866C160.233 48.972 117.288 111.84 117.402 184.692C117.426 200.64 119.514 216.105 123.408 230.838H123.411C123.45 231 149.382 352.854 174.108 390.51C187.356 410.694 228.477 451.995 260.208 467.856C258.621 467.178 257.022 466.458 255.411 465.705C271.635 474.33 287.403 479.994 299.55 480.009C299.697 480.009 299.859 479.994 300.006 479.994C300.153 479.994 300.315 480.009 300.462 480.009C312.606 479.994 328.374 474.33 344.601 465.705C342.987 466.461 341.388 467.178 339.798 467.856C371.529 451.998 412.653 410.691 425.901 390.51C450.624 352.854 476.562 231 476.592 230.838H476.598C480.492 216.105 482.58 200.64 482.604 184.692C482.724 111.84 439.785 48.972 377.694 19.866Z" fill="#C59575"/>
<path d="M476.754 230.286H476.739C476.703 230.445 451.188 352.407 426.582 390.141C407.226 419.823 335.484 479.955 300.462 480.009C265.449 480.069 193.551 420.135 174.105 390.51C149.382 352.854 123.45 231 123.414 230.838H123.411C119.517 216.105 117.429 200.64 117.405 184.692C117.246 84.27 198.867 2.75699 299.721 2.60099C400.584 2.44499 482.46 83.7 482.61 184.122C482.637 200.07 480.603 215.538 476.754 230.286Z" stroke="#9F6037" stroke-width="4.5"/>
<path d="M300.006 423.744C287.532 423.744 284.607 413.532 284.607 413.532C301.107 419.892 315.408 413.094 315.408 413.094C315.408 413.094 310.977 423.744 300.006 423.744Z" fill="url(#paint2_linear_0:1)"/>
<path d="M260.409 395.82C268.677 392.967 281.328 387.744 287.907 387.453C291.306 387.297 294.96 390.063 298.629 390.948C301.182 391.566 308.421 387.48 311.019 387.453C317.835 387.381 332.199 392.967 339.525 395.82C339.93 395.982 339.525 395.82 339.525 395.82C339.525 395.82 322.158 416.679 299.97 416.679C274.854 416.682 260.409 395.82 260.409 395.82C259.998 395.967 260.409 395.82 260.409 395.82Z" fill="#A96A47"/>
<path d="M260.409 395.82C268.677 392.967 281.328 387.744 287.907 387.453C291.306 387.297 294.96 390.063 298.629 390.948C301.182 391.566 308.421 387.48 311.019 387.453C317.835 387.381 332.199 392.967 339.525 395.82C339.93 395.982 339.525 395.82 339.525 395.82C339.525 395.82 322.158 416.679 299.97 416.679C274.854 416.682 260.409 395.82 260.409 395.82ZM260.409 395.82C260.409 395.82 259.998 395.967 260.409 395.82Z" stroke="#9A5731" stroke-width="2.25"/>
<path d="M340.623 395.208C340.479 394.716 339.177 394.107 338.664 394.131C337.731 394.182 336.648 395.319 334.725 395.361C332.499 395.415 320.688 397.191 317.517 396.981C311.13 396.555 306.045 398.979 299.973 398.979C293.898 398.979 288.369 396.333 281.985 396.762C278.814 396.978 267.444 395.418 265.212 395.361C263.283 395.316 262.536 394.128 261.714 393.969C261.138 393.861 259.725 394.467 259.443 394.983C259.194 395.43 259.719 396.993 260.07 397.365C260.925 398.256 263.478 398.091 265.164 398.133C267.495 398.184 278.895 399.747 282.114 399.531C288.357 399.108 293.922 401.997 299.97 401.997C306.018 401.997 311.145 399.33 317.388 399.753C320.601 399.966 332.433 398.181 334.767 398.133C336.456 398.091 338.865 397.95 339.729 397.257C340.137 396.933 340.77 395.712 340.623 395.208Z" fill="#7B350F"/>
<path d="M299.967 412.056C289.857 412.056 280.032 408.597 272.244 402.141C276.165 401.925 280.2 401.31 284.127 401.481C288.966 401.691 293.559 403.602 298.395 403.92C303.621 404.268 308.469 402.459 313.587 401.838C317.853 401.328 324.579 399.816 328.86 399.972C321.204 405.84 309.732 412.056 299.967 412.056ZM313.686 395.217C317.628 395.106 323.928 393.621 327.858 393.906C323.643 391.629 316.887 391.083 312.129 390.165C308.031 389.367 303.915 392.538 299.886 393.069C295.344 393.666 291.936 389.352 287.529 389.205C282.75 389.256 277.83 392.178 273.627 394.155C277.479 394.053 281.448 393.627 285.285 394.119C289.983 394.716 294.492 396.57 299.25 396.729C304.119 396.897 308.817 395.346 313.686 395.217Z" fill="#B87F60"/>
<path d="M299.823 409.2C293.736 409.2 287.802 407.094 282.702 403.194C283.842 403.08 284.994 402.993 286.101 402.993C286.452 402.993 286.803 403.005 287.154 403.026C288.981 403.122 290.781 403.647 292.692 404.205C294.546 404.739 296.46 405.294 298.461 405.465C298.857 405.495 299.253 405.51 299.646 405.51C302.103 405.51 304.434 404.898 306.69 404.31C308.121 403.935 309.474 403.581 310.866 403.371C311.625 403.251 312.447 403.194 313.377 403.194C314.181 403.194 315.009 403.239 315.831 403.302C311.586 406.455 306.09 409.2 299.823 409.2Z" fill="#C8977C"/>
<path d="M237.189 276.687C224.259 278.952 214.221 278.817 205.125 276.075C195.744 273.246 183.561 261.6 179.337 250.59C190.482 249.759 213.384 248.799 224.007 250.128C238.071 251.886 252.429 257.346 260.922 265.836C260.874 266.718 260.763 267.585 260.661 268.452C253.806 273.093 244.098 275.475 237.189 276.687Z" fill="url(#paint3_radial_0:1)"/>
<path d="M246.597 269.25C242.904 282.816 228.909 290.811 215.31 287.082C201.726 283.359 193.701 269.328 197.4 255.756C201.09 242.178 215.115 234.186 228.702 237.915C242.283 241.635 250.299 255.669 246.597 269.25Z" fill="#4D3623" stroke="#1F1105" stroke-width="1.5"/>
<path d="M242.634 269.562C239.028 279.981 228.153 286.059 217.563 283.155C207.789 280.473 201.618 271.095 202.419 261.18C206.046 260.892 210.015 260.808 214.131 261.012C214.089 261.153 214.014 261.273 213.978 261.42C212.676 266.202 215.706 271.215 220.746 272.598C225.801 273.981 230.949 271.212 232.251 266.43C232.416 265.806 232.506 265.179 232.53 264.561C235.98 265.824 239.376 267.453 242.634 269.562Z" fill="#5C4633"/>
<path opacity="0.9" d="M225.453 254.892C220.344 253.431 215.133 256.347 213.813 261.435C212.493 266.496 215.565 271.797 220.671 273.261C225.786 274.728 231 271.809 232.323 266.742C233.652 261.657 230.565 256.359 225.453 254.892ZM226.569 272.88C224.445 273.54 222.246 272.664 221.661 270.915C221.097 269.169 222.354 267.231 224.496 266.586C226.632 265.926 228.822 266.805 229.413 268.539C229.995 270.279 228.723 272.22 226.569 272.88Z" fill="black"/>
<path opacity="0.6" d="M208.446 275.928C206.877 276.87 204.525 276.03 203.184 274.029C201.84 272.049 202.041 269.676 203.619 268.728C205.182 267.795 207.552 268.638 208.884 270.624C210.21 272.61 210.018 274.986 208.446 275.928Z" fill="white"/>
<path opacity="0.9" d="M242.019 261.396C238.425 263.55 233.022 261.612 229.959 257.061C226.899 252.507 227.358 247.068 230.955 244.92C234.543 242.757 239.955 244.698 243 249.252C246.057 253.803 245.613 259.239 242.019 261.396Z" fill="white"/>
<path d="M168 264C168 305.424 192.18 338.997 222 338.997C251.82 338.997 276 305.424 276 264C276 222.573 251.82 188.997 222 188.997C192.18 188.997 168 222.573 168 264ZM179.34 250.59C190.485 249.759 213.387 248.799 224.01 250.128C238.866 251.985 254.13 257.928 262.374 267.258C255.507 272.718 244.683 275.373 237.189 276.687C224.259 278.952 214.221 278.817 205.125 276.075C195.747 273.249 183.564 261.6 179.34 250.59Z" fill="#CDA184"/>
<path d="M168.429 260.745C168.51 285.597 193.881 305.631 225.135 305.502C256.377 305.361 281.643 285.114 281.574 260.262C281.493 235.407 256.116 215.373 224.868 215.502C193.617 215.643 168.357 235.89 168.429 260.745ZM179.34 250.59C190.485 249.759 213.387 248.799 224.01 250.128C238.866 251.985 254.13 257.928 262.374 267.258C255.507 272.718 244.683 275.373 237.189 276.687C224.259 278.952 214.221 278.817 205.125 276.075C195.747 273.249 183.564 261.6 179.34 250.59Z" fill="url(#paint4_radial_0:1)"/>
<path d="M179.34 250.59C190.485 249.759 213.387 248.799 224.01 250.128C238.866 251.985 254.13 257.928 262.374 267.258C255.507 272.718 244.683 275.373 237.189 276.687C224.259 278.952 214.221 278.817 205.125 276.075C195.747 273.249 183.564 261.6 179.34 250.59Z" fill="url(#paint5_radial_0:1)"/>
<path d="M202.089 239.085C220.488 238.251 227.928 239.349 241.047 243.237C246.033 245.043 246.603 245.553 248.712 246.879C237.357 240.768 206.49 238.923 202.089 239.085ZM178.188 260.256C186.75 276.738 192.579 274.938 200.781 278.43C200.856 278.457 196.251 276.693 192.789 274.842C183.819 269.685 182.724 267.489 178.188 260.256Z" fill="#9F6037"/>
<path d="M168 245.202C177.288 252.777 181.089 263.061 190.194 270.789C196.305 275.976 207.825 278.94 219 279.108C230.532 279.282 244.77 277.806 249.774 276.543C258.288 274.389 260.391 272.709 270 272.127C264.042 263.01 258.492 258.93 251.196 254.604C242.265 249.312 235.974 247.767 225.039 246.912C210.48 245.772 168 245.202 168 245.202ZM182.115 251.478C192.516 250.704 213.885 249.807 223.8 251.046C237.663 252.777 251.907 258.324 259.602 267.03C253.191 272.127 243.09 274.602 236.1 275.829C224.037 277.944 214.665 277.818 206.181 275.259C197.427 272.622 186.06 261.753 182.115 251.478Z" fill="#092E0C"/>
<path d="M362.811 276.687C375.741 278.952 385.779 278.817 394.875 276.075C404.256 273.246 416.439 261.6 420.663 250.59C409.518 249.759 386.616 248.799 375.993 250.128C361.929 251.886 347.571 257.346 339.078 265.836C339.126 266.718 339.237 267.585 339.339 268.452C346.194 273.093 355.902 275.475 362.811 276.687Z" fill="url(#paint6_radial_0:1)"/>
<path d="M402.597 269.25C398.904 282.816 384.909 290.811 371.31 287.082C357.726 283.359 349.701 269.328 353.4 255.756C357.09 242.178 371.115 234.186 384.702 237.915C398.283 241.635 406.299 255.669 402.597 269.25Z" fill="#4D3623" stroke="#1F1105" stroke-width="1.5"/>
<path d="M398.634 269.562C395.028 279.981 384.153 286.059 373.563 283.155C363.789 280.473 357.618 271.095 358.419 261.18C362.046 260.892 366.015 260.808 370.131 261.012C370.089 261.153 370.014 261.273 369.978 261.42C368.676 266.202 371.706 271.215 376.746 272.598C381.801 273.981 386.949 271.212 388.251 266.43C388.416 265.806 388.506 265.179 388.53 264.561C391.98 265.824 395.376 267.453 398.634 269.562Z" fill="#5C4633"/>
<path opacity="0.9" d="M381.453 254.892C376.344 253.431 371.133 256.347 369.813 261.435C368.493 266.496 371.565 271.797 376.671 273.261C381.786 274.728 387 271.809 388.323 266.742C389.652 261.657 386.565 256.359 381.453 254.892ZM382.569 272.88C380.445 273.54 378.246 272.664 377.661 270.915C377.097 269.169 378.354 267.231 380.496 266.586C382.632 265.926 384.822 266.805 385.413 268.539C385.995 270.279 384.723 272.22 382.569 272.88Z" fill="black"/>
<path opacity="0.6" d="M364.446 275.928C362.877 276.87 360.525 276.03 359.184 274.029C357.84 272.049 358.041 269.676 359.619 268.728C361.182 267.795 363.552 268.638 364.884 270.624C366.21 272.61 366.018 274.986 364.446 275.928Z" fill="white"/>
<path opacity="0.9" d="M398.019 261.396C394.425 263.55 389.022 261.612 385.959 257.061C382.899 252.507 383.358 247.068 386.955 244.92C390.543 242.757 395.955 244.698 399 249.252C402.057 253.803 401.613 259.239 398.019 261.396Z" fill="white"/>
<path d="M378 188.997C348.18 188.997 324 222.576 324 264C324 305.424 348.18 338.997 378 338.997C407.82 338.997 432 305.424 432 264C432 222.573 407.82 188.997 378 188.997ZM394.872 276.075C385.779 278.817 375.738 278.952 362.808 276.687C355.317 275.373 344.493 272.718 337.623 267.258C345.867 257.928 361.131 251.985 375.987 250.128C386.61 248.799 409.512 249.759 420.657 250.59C416.436 261.6 404.253 273.249 394.872 276.075Z" fill="#CDA184"/>
<path d="M375.135 215.502C343.887 215.373 318.51 235.407 318.429 260.262C318.36 285.114 343.623 305.361 374.868 305.502C406.122 305.631 431.493 285.597 431.574 260.745C431.643 235.89 406.383 215.643 375.135 215.502ZM394.872 276.075C385.779 278.817 375.738 278.952 362.808 276.687C355.317 275.373 344.493 272.718 337.623 267.258C345.867 257.928 361.131 251.985 375.987 250.128C386.61 248.799 409.512 249.759 420.657 250.59C416.436 261.6 404.253 273.249 394.872 276.075Z" fill="url(#paint7_radial_0:1)"/>
<path d="M420.66 250.59C409.515 249.759 386.613 248.799 375.99 250.128C361.134 251.985 345.87 257.928 337.626 267.258C344.493 272.718 355.317 275.373 362.811 276.687C375.741 278.952 385.779 278.817 394.875 276.075C404.253 273.249 416.436 261.6 420.66 250.59Z" fill="url(#paint8_radial_0:1)"/>
<path d="M351.288 246.879C353.397 245.553 353.967 245.04 358.953 243.237C372.072 239.352 379.515 238.251 397.911 239.085C393.51 238.923 362.643 240.768 351.288 246.879ZM407.208 274.842C403.746 276.693 399.141 278.457 399.216 278.43C407.418 274.938 413.25 276.738 421.809 260.256C417.276 267.489 416.181 269.685 407.208 274.842Z" fill="#9F6037"/>
<path d="M374.958 246.912C364.023 247.767 357.732 249.312 348.801 254.604C341.505 258.927 335.958 263.01 329.997 272.127C339.606 272.706 341.709 274.389 350.223 276.543C355.227 277.806 369.465 279.282 380.997 279.108C392.172 278.94 403.689 275.976 409.803 270.789C418.908 263.061 422.712 252.78 431.997 245.202C432 245.202 389.52 245.772 374.958 246.912ZM393.819 275.259C385.335 277.818 375.966 277.944 363.9 275.829C356.91 274.602 346.809 272.127 340.398 267.03C348.09 258.324 362.337 252.777 376.2 251.046C386.115 249.807 407.484 250.704 417.885 251.478C413.94 261.753 402.573 272.622 393.819 275.259Z" fill="#092E0C"/>
<path d="M420.612 339.021C420.717 405.846 366.627 460.116 299.793 460.209C232.971 460.317 178.71 406.23 178.605 339.393C178.503 272.571 232.59 218.31 299.424 218.205C366.249 218.103 420.513 272.19 420.612 339.021Z" fill="url(#paint9_radial_0:1)"/>
<path d="M405 167.997C405 225.984 357.987 272.997 300 272.997C242.013 272.997 195 225.984 195 167.997C195 110.01 242.013 62.997 300 62.997C357.987 62.997 405 110.01 405 167.997Z" fill="url(#paint10_radial_0:1)"/>
<path d="M178.188 208.44C226.602 203.337 234.948 213.6 260.856 224.082C262.278 224.64 265.605 225.255 266.496 223.788C268.857 219.852 256.734 214.173 252.546 212.331C225.123 199.587 208.08 200.055 178.188 208.44Z" fill="#73625B"/>
<path d="M421.812 208.44C406.632 206.841 393.489 204.84 368.25 211.68C354.39 214.776 336.279 228.351 333.507 223.788C330.24 218.343 367.269 197.844 401.811 203.667C411.681 205.404 410.295 205.209 421.812 208.44Z" fill="#73625B"/>
<path d="M302.427 355.821C301.392 356.946 300.543 356.811 299.565 355.644L288.675 342.468H315.408L302.427 355.821Z" fill="#BE8A67"/>
<path d="M285.624 344.517L299.781 356.034C300.963 356.994 301.416 356.631 300.801 355.224L295.752 343.785C295.506 343.23 295.431 342.3 295.581 341.712L298.584 321.399L285.225 340.629C284.265 341.811 284.442 343.56 285.624 344.517Z" fill="#9F6037"/>
<path opacity="0.1" d="M451.608 76.209C437.385 65.733 144.12 78.189 133.449 94.287C124.164 108.294 115.59 698.052 117.204 698.208C158.49 701.514 281.952 700.923 370.794 699.174C309.684 696.729 175.677 691.362 173.604 691.233C169.074 651.336 176.241 615.603 180.195 595.893C181.071 591.522 181.764 588.072 182.154 585.414L182.208 584.967C183.33 573.309 181.101 563.262 178.743 552.618C175.554 538.212 172.251 523.314 177.138 501.75C183.954 471.813 179.091 451.161 175.182 434.568C173.649 428.061 172.326 422.442 171.93 417.204C170.967 404.442 176.55 396.972 183.012 388.323C193.098 374.829 198.9 347.637 182.286 324.504C169.005 306.012 171.768 300.432 176.286 290.649C180.87 280.728 187.149 267.141 179.859 240.993C174.483 221.694 167.124 195.267 218.502 163.185C235.257 152.715 252.153 146.271 267.06 140.589C285.978 133.374 311.475 112.395 319.179 99C322.566 131.157 344.1 162.951 358.179 177.558C377.493 197.592 392.745 213.417 384.867 270.693C381.534 294.909 386.487 306.327 390.852 319.548C392.775 325.374 395.67 331.398 397.377 339.456C400.191 352.623 397.281 365.058 393.237 378.225C389.688 389.781 389.463 401.637 389.655 415.203C392.259 407.286 400.947 392.718 402.321 383.262C405.954 358.272 410.334 220.791 410.007 205.167C435.831 228.96 441.243 264.129 435.594 286.458C432.942 296.937 427.032 334.776 426.084 347.034C424.182 371.586 427.038 365.931 425.868 382.011C424.737 397.719 419.148 405.855 409.305 422.463C386.52 461.37 395.856 483.84 404.883 505.566C408.249 513.675 411.732 522.06 413.523 531.525C417.027 549.69 410.139 575.655 403.476 600.762C397.071 624.9 390.45 649.857 392.403 670.215C392.874 675.057 397.791 688.956 400.164 698.523C433.329 697.695 458.064 696.717 465.759 695.796C492.165 692.628 479.127 96.486 451.608 76.209Z" fill="#73625B"/>
<path d="M509.607 181.524C508.521 143.457 500.448 110.892 485.58 84.642C481.878 65.535 474.336 41.181 448.677 22.275C435.15 12.312 407.712 1.68901 381.813 -3.63599C346.839 -35.952 344.697 -7.24199 307.767 -22.137C299.091 -25.638 293.04 -28.026 279.252 -18.804C260.4 -23.577 239.208 -24.021 225.804 -21.438C211.212 -18.63 192.048 -9.08399 177.975 2.37601C154.071 8.82601 137.04 19.503 127.356 34.113C118.695 47.181 114.573 61.545 115.074 76.95C110.604 86.13 107.946 95.898 106.647 107.832C98.502 119.169 89.901 133.521 83.703 145.71C78.255 156.372 68.97 205.854 74.085 227.472C38.151 291.414 62.301 320.733 77.01 373.872C66.237 399.093 66.303 422.034 77.235 448.437C64.917 496.935 51.228 503.91 63.642 623.334C70.392 688.275 67.614 690.171 67.614 707.715L67.911 707.415C101.493 707.163 117.627 696.216 136.542 698.565C139.425 698.739 165.405 701.061 166.248 701.145C405.228 720.282 385.839 697.086 517.878 694.881C515.4 670.575 512.55 603.669 516.81 576.987C523.074 537.642 517.089 491.502 505.623 458.181C518.565 433.824 517.344 421.443 509.112 396.846C525.741 348.213 532.803 323.52 522.462 277.623C534 244.326 527.376 212.334 509.607 181.524ZM433.347 334.809C432.243 350.73 436.014 366.678 434.847 382.656C433.53 400.968 426.561 410.877 417.075 427.008C388.224 476.274 415.593 493.968 422.364 529.821C429.771 568.2 397.572 629.811 401.367 669.348C402.087 676.758 406.374 695.076 407.976 701.979C347.355 708.831 200.025 702.237 165.636 699.72C157.737 646.404 171.141 598.449 173.25 584.106C175.692 558.711 159.426 539.196 168.366 499.752C177.384 460.158 164.484 438.015 162.96 417.882C159.975 378.321 208.077 377.259 174.906 329.646C145.2 286.968 185.022 293.004 171.198 243.411C165.759 223.884 156.654 191.202 213.741 155.556C259.137 127.188 302.133 128.418 319.899 93.543C338.415 190.908 405.942 161.775 390.789 271.923C386.337 304.269 395.376 310.545 401.094 337.578C406.992 365.172 388.83 387.552 389.22 415.173C396.612 392.715 415.908 371.526 416.49 348.102C416.937 329.484 409.194 311.544 409.35 292.878C409.467 277.974 413.874 263.46 416.193 248.973C427.32 179.784 369.147 177.468 354.939 124.176L355.482 123.936C389.139 175.875 415.761 191.625 434.094 225.204C458.565 270.129 435.948 296.154 433.347 334.809Z" fill="#73625B"/>
<path d="M430.167 698.628C422.811 699.771 416.235 700.755 408.84 701.595C401.247 664.545 399.705 660.021 414.99 608.055C437.7 530.985 429.18 527.835 416.94 491.835C401.397 446.205 430.05 433.575 439.86 402.975C445.41 385.575 443.25 367.908 441.33 350.115C436.89 308.385 460.287 283.428 447.36 243.315C433.14 199.128 398.01 184.371 354.21 120.045C352.869 114.282 351.942 108.201 351.228 102.072C390.015 163.506 458.409 194.91 459.609 241.302C460.452 273.999 442.068 342.3 450 387C454.83 414.234 429 432 423 459C414 495 450 525 438 558C420.264 601.071 416.784 649.203 430.167 698.628ZM144 174C117 207 147 249 129 288C111 321 147 363 126 402C117 423 138.456 444.159 132 462C102.825 542.61 117.537 619.545 119.646 698.316C126.429 697.026 130.983 696.69 135.927 696.882C138.06 652.443 122.694 618.972 121.647 599.082C120.567 577.962 130.497 564.492 134.127 546.732C139.257 521.502 132.987 490.842 142.107 466.992C147.807 450.732 138.117 433.785 136.137 418.212C133.497 397.662 144.567 378.822 144.597 365.682C142.767 343.542 131.367 331.572 133.017 313.122C133.977 302.082 138.477 292.332 142.557 282.192C154.857 251.502 141.147 245.592 139.467 219.132C136.065 166.068 226.389 108.999 296.775 94.416C236.706 89.322 176.748 130.338 144 174ZM139.191 108C112.311 135.249 114.075 167.58 111.339 206.205C109.176 236.721 72.546 263.934 78.465 293.499C90.192 352.059 106.719 390.69 93.354 454.383C90.039 470.193 97.191 489 97.191 504C87.771 532.128 86.472 560.955 86.49 592.218C86.28 623.337 87.714 654.609 94.191 687C95.277 693.525 94.779 699.654 93.714 705.675C96.969 705.183 100.278 704.526 104.058 703.635C113.118 658.068 94.908 584.745 99.708 560.205C104.943 532.422 113.484 528.267 111.138 497.565C109.938 482.775 107.388 463.512 107.208 449.805C106.599 406.593 129.492 387.48 114.498 349.845C111.468 342.225 108.138 334.755 105.138 327.105C89.481 287.253 110.01 265.917 122.538 234.885C129.498 217.695 129.288 211.275 127.188 190.515C124.608 164.865 121.158 128.175 188.898 84.855C228.219 59.709 264.342 58.362 293.538 58.533C230.976 45.165 177.606 69.063 139.191 108ZM291.633 19.608C270.471 14.637 248.943 11.562 227.097 13.368C172.461 17.841 116.448 50.937 111.339 109.89C137.106 35.649 209.841 2.601 291.633 19.608ZM380.502 179.124C362.88 159.21 318.213 117.801 326.79 69.435C326.037 77.286 322.839 87.99 320.517 92.898C337.488 173.43 393.717 168.048 398.58 233.844C400.701 222.138 388.821 188.523 380.502 179.124ZM305.628 101.838C305.751 101.898 305.877 101.943 306 102C305.877 101.94 305.751 101.895 305.628 101.838C254.283 134.034 167.55 138.705 153 210C149.202 228.609 168.162 264.09 153 291C141.126 312.072 165 342 165 360C165 378 153 393 150 414C147 429 156 441 159 456C162 474 150 492 153 507C165.519 607.395 130.107 580.719 155.46 698.604C158.337 698.862 161.559 699.123 165.237 699.375C162.417 684.135 160.167 661.485 162.747 631.125C167.367 576.945 174.957 595.365 164.277 549.375C155.577 511.908 163.587 507.105 165.207 483.315C166.707 461.235 159.807 441.435 157.017 428.115C147.477 382.755 186.177 376.185 177.087 349.365C174.537 341.865 169.527 335.355 165.237 328.815C142.497 292.911 169.5 287.043 167.637 259.125C166.257 237.765 146.637 208.935 185.217 172.395C237.267 123.105 302.646 136.53 324.018 86.496C319.191 90.882 310.968 98.49 305.628 101.838ZM474 570C477 543 470.607 517.116 461.607 490.116C455.607 460.116 481.407 443.205 485.952 414.819C491.373 380.985 465.765 352.917 486.054 304.029C509.025 248.682 496.854 196.65 460.608 172.485C416.595 142.227 390.453 109.89 367.752 61.017C387.96 166.188 455.802 174.831 473.517 230.835C485.367 268.275 461.847 298.335 464.7 339.765C465.915 357.645 473.523 374.634 471.06 392.835C466.59 425.445 434.7 444.765 441.69 485.685C444.777 503.835 451.86 520.845 453.45 539.325C455.94 567.855 450.57 596.625 453 626.355C455.04 651.315 459.36 645.288 453.183 695.148C459.366 694.323 474.576 694.014 480.804 693.948C472.494 652.887 466.428 610.386 474 570ZM342.801 25.443C373.893 35.37 380.298 67.074 418.8 98.955C435.06 112.455 465.6 127.545 490.767 155.355C451.938 102.072 376.749 25.443 342.801 25.443ZM354.651 12.789C384.987 12.597 404.307 16.791 435.09 33.855C455.43 45.135 470.4 60.255 481.407 77.175C471.723 46.701 412.413 -3.945 354.651 12.789ZM507.747 392.058C521.997 343.005 526.8 314.418 521.277 281.808C507.81 317.601 489.705 338.67 507.747 392.058ZM105.897 113.565C90.597 139.305 82.947 173.445 81.267 184.665C79.467 196.905 75.087 209.355 77.067 221.595C109.899 164.634 102.378 164.016 105.897 113.565ZM87 687C55.335 547.191 103.707 494.742 81.555 454.383C63.975 512.712 57.846 515.82 66.567 633.375C68.937 665.445 68.667 690.705 67.947 707.058C75.402 706.887 80.883 706.53 86.523 705.675C87.588 699.654 88.461 693.45 87 687ZM77.877 377.808C72.174 397.308 73.935 417.927 79.407 437.745C84.327 413.955 83.277 398.085 77.877 377.808ZM514.017 537.075C513.3 501.135 509.277 478.365 504.087 461.625C494.697 478.635 483.447 495.168 486.447 515.058C487.557 522.375 489.927 529.308 491.457 536.505C496.737 561.438 485.517 576.735 489.717 616.605C491.289 631.446 497.382 645.276 495.567 694.398C508.647 694.752 511.713 694.458 516.357 694.458C502.341 583.935 514.68 570.57 514.017 537.075Z" fill="#644E45"/>
<path d="M123.522 111.105C131.748 96.219 140.577 82.245 152.034 69.597C206.25 9.73501 282.861 32.037 295.557 31.527C288.198 31.824 243.546 22.815 200.403 39.873C157.059 57.015 138.489 86.319 123.522 111.105ZM246.312 46.485C273.939 46.362 304.068 55.998 307.068 57.408C303.033 55.512 271.524 44.415 247.608 44.412C225.618 44.409 204.714 53.295 185.256 62.646C204.624 54.159 224.862 46.581 246.312 46.485ZM283.509 73.194C284.238 73.101 304.272 70.908 304.608 71.55C304.47 71.283 300.582 71.571 300.246 71.571C225.564 71.733 151.722 111.285 131.91 171.315C155.694 109.353 234.201 79.485 283.509 73.194ZM257.145 88.536C242.541 92.769 227.853 98.319 214.743 106.119C219.909 103.047 225.903 100.767 231.468 98.556C274.572 81.408 297.969 84.591 302.814 84.807C287.496 83.547 272.019 84.225 257.145 88.536ZM167.385 172.347C190.356 140.613 259.788 122.253 295.512 103.026C255.504 122.751 194.718 134.583 167.385 172.347ZM71.406 271.221C65.631 290.721 75.732 322.332 82.329 341.748C77.973 328.92 69.447 291.111 74.979 272.976C82.599 248.013 99.21 226.986 106.062 201.681C96.735 229.962 77.814 249.612 71.406 271.221ZM148.035 406.128C147.354 408.624 146.028 411.513 145.899 414.105C145.998 412.107 147.546 409.572 148.236 407.736C162.594 369.588 165.096 359.511 146.316 321.33C157.401 349.572 161.037 358.47 148.035 406.128ZM113.07 505.506C113.067 506.022 113.289 514.872 113.538 515.322C113.127 514.581 113.553 512.466 113.568 511.662C114.333 471.507 134.256 457.302 118.227 414.294C130.371 456.003 113.394 459.489 113.07 505.506ZM148.959 553.392C147.057 568.701 139.272 591.462 138.75 621.588C138.681 625.47 139.449 629.352 139.377 633.219C139.461 628.563 139.167 623.952 139.473 619.29C140.919 597.387 145.839 586.047 148.659 570.012C154.659 537.939 149.211 533.304 147.387 500.208C147.483 520.749 150.882 537.933 148.959 553.392ZM122.31 342.801C128.328 365.751 126.9 368.253 127.302 381.156C127.149 376.206 130.134 369.96 124.233 342.129C109.56 273.015 135.276 297.612 129.324 229.224C132.195 299.208 104.7 275.625 122.31 342.801ZM377.673 175.245C424.05 233.415 385.746 287.079 403.362 317.388C389.877 294.198 414.195 248.676 397.272 202.341C386.775 173.625 358.848 156.462 343.488 124.683C335.832 108.84 329.397 92.928 328.356 75.216C329.934 125.133 368.202 163.374 377.673 175.245ZM387.999 144.168C395.763 152.583 404.298 161.022 413.868 167.394C410.136 164.91 406.812 161.472 403.605 158.376C356.067 112.506 354.774 75.594 351.87 53.973C355.599 96.15 361.782 115.749 387.999 144.168ZM403.689 103.869C432.327 142.131 527.805 193.32 507.519 263.208C507.519 263.211 501.228 283.089 501.228 283.089C516.168 247.533 517.596 220.743 490.275 182.622C465.141 147.561 426.384 130.98 401.343 99.225C397.341 94.155 393.951 88.704 390.24 83.433C394.473 90.465 398.766 97.293 403.689 103.869ZM482.349 106.326C469.722 62.256 419.262 27.756 365.385 26.445C423.204 30.879 473.394 75.066 482.349 106.326ZM306.561 95.106C318.705 84.657 327.348 76.977 331.494 36.189C328.323 59.025 323.292 80.709 306.561 95.106ZM492.156 416.382C491.313 439.215 481.827 449.847 475.536 465.033C461.43 499.08 478.464 522.609 481.581 550.893C481.605 551.106 482.484 560.082 482.31 560.205C482.376 560.154 482.256 559.149 482.253 559.062C481.671 521.898 463.581 501.894 478.98 465.519C491.631 435.624 501.996 428.994 485.691 367.785C488.034 379.494 492.846 397.764 492.156 416.382ZM432.582 498.663C445.053 532.878 441.894 531.006 443.337 538.212C443.25 537.777 443.061 529.983 441.132 521.202C436.644 500.751 426.831 482.964 429.27 458.841C431.646 435.378 448.671 419.34 450.177 397.98C450.654 391.221 449.787 384.939 448.575 378.315C456.309 432.849 408.345 432.225 432.582 498.663ZM453.672 298.065C452.934 301.656 452.604 305.691 451.398 309.153C454.365 300.609 456.06 291.204 457.977 282.387C467.937 236.679 457.725 221.925 429.447 185.331C453.981 221.424 467.193 232.386 453.672 298.065Z" fill="#827874"/>
<path d="M523.947 214.188C520.317 201.978 515.514 191.178 509.904 181.518C509.067 152.148 503.634 115.908 485.874 84.588C481.914 64.158 474.057 40.608 448.854 22.038C435.534 12.228 408.504 1.548 382.014 -3.852C363.024 -21.402 355.344 -21.492 338.547 -18.672C305.274 -13.122 304.284 -36.252 279.327 -19.092C260.727 -23.802 239.457 -24.372 225.747 -21.732C210.927 -18.882 191.817 -9.282 177.927 2.088C177.897 2.088 177.897 2.088 177.897 2.088C156.327 7.908 137.667 18.018 127.107 33.948C117.147 48.978 114.357 63.888 114.807 76.818C109.767 87.168 107.487 97.398 106.407 107.658C97.137 120.558 88.587 135.468 83.697 145.068C77.928 156.357 68.631 205.539 73.827 227.328C68.667 236.508 64.047 245.418 61.167 254.118C58.377 262.548 56.607 270.888 55.587 279.708C53.817 295.518 56.667 312.318 61.617 327.318C67.977 346.548 73.137 361.098 76.737 373.755C65.127 400.938 66.777 423.945 76.947 448.365C74.667 457.335 71.667 467.418 67.887 479.115C46.137 546.288 67.917 625.695 67.857 686.355C67.857 692.055 67.617 699.795 67.347 707.085C67.317 707.295 67.317 707.505 67.317 707.715C67.527 707.745 67.707 707.745 67.917 707.715C80.097 707.625 86.427 706.995 96.597 704.835C96.867 704.775 97.137 704.715 97.437 704.655C100.887 703.905 104.817 702.972 109.557 701.862C121.917 698.952 127.167 698.295 135.837 698.802C136.047 698.802 136.287 698.832 136.527 698.862C142.947 699.252 151.317 700.242 165.627 701.382C165.837 701.415 166.017 701.415 166.227 701.445C175.947 702.225 188.367 703.095 204.717 703.875C223.107 704.658 241.437 705.975 259.827 706.938C289.857 708.498 319.914 709.458 349.977 708.408C369.117 707.745 388.707 706.515 408.207 704.178C408.567 704.148 408.927 704.088 409.317 704.058C418.077 702.978 426.807 701.718 435.477 700.125C441.657 699.015 446.937 698.148 451.527 697.455C452.007 697.395 452.46 697.335 452.907 697.275C470.907 694.722 478.857 695.175 493.857 695.352C494.397 695.352 494.967 695.382 495.537 695.382C501.237 695.415 507.93 695.415 516.477 695.202C517.047 695.202 517.617 695.172 518.217 695.172C518.187 694.932 518.154 694.692 518.154 694.422C514.707 654.912 513.534 599.412 517.104 577.032C522.474 543.312 519.084 508.119 510.924 475.062C509.361 468.759 507.684 463.272 505.881 458.322C509.391 451.722 512.451 445.032 514.161 437.982C517.824 422.922 513.981 410.472 509.391 396.942C518.211 371.142 527.121 341.472 527.544 325.392C528.054 305.952 525.324 288.969 522.741 277.719C528.837 260.145 531.81 240.645 523.947 214.188ZM81.267 184.665C82.947 173.445 90.597 139.305 105.897 113.565C104.397 135.075 106.677 156.825 98.037 180.405C92.817 194.715 84.657 208.425 77.067 221.595C75.087 209.355 79.467 196.905 81.267 184.665ZM76.377 383.778C76.797 381.735 77.307 379.755 77.877 377.808C83.277 398.088 84.327 413.958 79.407 437.745C74.877 421.335 72.357 402.615 76.377 383.778ZM339.81 705.105C307.86 705.765 275.58 704.355 243.66 702.735C224.52 701.778 205.41 701.115 186.27 700.455C178.2 700.185 171.51 699.825 165.9 699.435C157.83 646.605 171.84 595.752 173.55 584.145C176.01 558.582 159.72 539.262 168.66 499.815C177.72 460.035 164.79 438.075 163.26 417.855C160.89 386.445 190.26 380.625 186.6 353.148C184.11 334.158 163.59 322.095 163.59 302.448C166.29 283.638 178.89 277.458 173.28 250.308C169.59 232.368 149.52 196.008 213.9 155.808C258.84 127.728 302.46 128.328 319.77 94.458C323.76 115.668 330.66 136.128 346.65 155.178C358.11 168.708 372 180.498 381.24 195.828C401.1 228.858 390.06 266.928 389.13 283.728C388.053 302.868 396.933 319.368 400.803 337.638C404.79 356.301 397.5 373.608 392.433 391.248C390.03 399.618 389.04 406.968 388.953 413.238C388.89 414.498 388.92 415.698 388.983 416.838C389.193 416.238 389.373 415.638 389.583 415.038C398.343 390.468 416.223 371.148 416.79 348.105C417.24 329.385 409.5 311.565 409.65 292.875C409.77 277.965 414.15 263.625 416.49 249.015C426.75 185.235 378.24 178.005 359.34 135.855C357.69 132.195 356.34 128.265 355.23 124.095C358.32 128.865 361.5 133.545 364.77 138.195C392.73 177.885 417.24 194.955 433.833 225.345C458.253 270.165 435.66 296.055 433.053 334.785C431.943 350.805 435.723 366.645 434.553 382.632C433.233 400.962 426.063 411.102 416.823 426.852C391.383 470.292 409.17 488.172 420.27 521.895C420.27 521.925 420.27 521.925 420.303 521.955C420.303 521.985 420.303 522.015 420.333 522.075C420.513 522.945 421.53 526.995 422.073 529.875C429.483 568.278 397.26 629.625 401.073 669.375C401.64 675.225 404.52 688.548 407.613 701.715C392.787 703.335 374.367 704.418 339.81 705.105ZM514.017 537.075C514.707 572.085 502.68 578.355 515.877 690.705C516.027 691.785 516.18 693.045 516.357 694.455C514.917 694.455 513.507 694.485 512.097 694.515C506.577 694.635 501.087 694.548 495.567 694.398C495.867 686.298 495.927 677.115 495.597 666.765C494.487 631.938 491.784 636.135 489.717 616.605C485.517 576.735 496.737 561.435 491.457 536.505C489.927 529.308 487.557 522.375 486.447 515.058C483.447 495.168 494.697 478.635 504.087 461.625C509.277 478.365 513.3 501.135 514.017 537.075ZM504.207 438.408C503.307 441.198 502.284 443.958 501.117 446.658C500.727 447.648 500.277 448.668 499.827 449.658C494.097 462.438 486.507 474.345 481.857 487.605C473.607 511.038 482.397 527.685 484.797 537.465C489.357 556.035 483.837 575.415 483.744 594.165C483.624 627.165 494.064 631.185 493.854 694.335C480.264 693.945 466.644 693.345 453.174 695.148C459.354 645.288 455.031 651.318 452.991 626.355C450.561 596.625 455.931 567.855 453.441 539.325C451.851 520.845 444.768 503.835 441.681 485.685C434.691 444.762 466.581 425.445 471.051 392.835C471.441 389.955 471.591 387.075 471.528 384.225C471.258 369.255 465.711 354.765 464.691 339.765C461.841 298.335 485.361 268.275 473.508 230.835C455.421 173.655 385.041 165.915 366.498 54.315C376.908 130.635 409.551 155.235 440.628 189.315C500.628 255.195 451.518 280.305 456.801 343.965C458.211 360.675 465.441 377.835 461.361 394.635C453.471 422.568 429.951 445.038 432.681 476.985C434.301 496.065 442.971 513.675 446.211 532.455C452.691 569.985 442.908 591.495 452.121 645.135C454.674 659.865 453.591 677.538 451.731 695.325C433.401 697.995 422.544 700.035 408.831 701.595C407.331 694.278 405.831 686.595 404.511 679.398C400.131 655.458 408.294 630.798 414.981 608.058C437.691 530.988 429.171 527.838 416.931 491.838C401.388 446.208 430.041 433.578 439.851 402.978C445.401 385.578 443.241 367.911 441.321 350.118C436.881 308.388 460.278 283.431 447.351 243.318C436.161 208.548 406.371 185.088 383.331 158.388C372.801 146.208 363.231 133.308 354.201 120.048C349.701 100.698 349.518 77.868 348.351 61.128C348.981 78.708 348.231 97.608 351.171 115.488C351.321 116.538 351.498 117.588 351.711 118.638C353.451 127.878 356.271 136.848 360.891 145.158C374.361 169.368 402.294 187.458 409.731 211.878C417.681 241.878 402.801 266.628 404.391 294.858C405.444 313.578 413.781 331.401 413.271 350.268C412.761 368.868 397.944 388.218 389.871 410.451C392.121 388.191 406.611 367.071 404.871 343.971C403.491 325.731 394.191 308.991 393.804 290.601C393.444 272.901 408.204 235.731 388.944 199.671C372.021 167.961 339.771 156.801 325.374 111.531C323.427 105.411 321.834 99.171 320.514 92.901C322.827 88.011 324.624 82.401 325.827 75.921C326.487 72.291 326.997 68.361 327.264 64.131C326.307 75.321 323.874 84.351 320.307 91.761C320.034 92.271 319.797 92.781 319.557 93.261C297.657 135.201 236.124 124.191 185.217 172.401C146.637 208.941 166.257 237.771 167.637 259.131C167.877 262.731 167.577 268.131 167.037 270.561C160.887 290.931 146.787 299.691 165.237 328.821C169.527 335.361 174.537 341.871 177.087 349.371C186.177 376.191 147.477 382.761 157.017 428.121C159.807 441.441 166.707 461.241 165.207 483.321C163.587 507.111 155.577 511.911 164.277 549.381C174.957 595.371 167.367 576.951 162.747 631.131C160.167 661.491 162.417 684.141 165.237 699.381C150.717 698.391 143.217 697.221 136.677 696.924C137.787 682.284 137.307 661.044 131.217 632.361C129.237 623.121 126.447 613.941 125.397 604.521C122.487 578.544 136.407 564.621 139.797 542.601C143.757 516.801 140.847 487.731 147.777 470.784C155.397 452.184 147.477 438.891 144.627 422.751C138.117 385.971 163.017 385.011 145.437 339.351C137.217 318.021 138.087 310.731 144.507 293.901C148.137 284.301 151.737 275.151 153.237 264.921C156.927 239.361 123.837 217.041 165.327 167.421C202.137 123.351 265.887 99.861 297.507 94.281C225.447 105.891 136.212 163.893 139.467 219.141C141.621 255.723 155.049 243.966 142.557 282.201C139.164 292.59 133.977 302.091 133.017 313.131C131.367 331.581 142.767 343.551 144.597 365.691C144.567 378.831 133.497 397.671 136.137 418.221C138.117 433.791 147.807 450.741 142.107 467.001C132.987 490.851 139.257 521.511 134.127 546.741C130.497 564.501 120.567 577.971 121.647 599.091C122.127 608.181 124.647 616.971 126.927 625.731C135.357 658.044 136.677 681.261 135.927 696.891C127.557 696.564 120.357 697.731 101.427 702.534C100.137 702.861 98.907 703.164 97.737 703.434C106.617 663.984 95.517 600.744 96.297 571.011C96.747 553.971 106.947 534.741 109.887 519.414C113.277 501.594 106.347 469.251 108.297 444.261C110.337 418.521 116.097 408.861 120.207 390.771C128.877 352.341 105.777 334.164 101.457 306.624C96.927 277.974 121.737 250.554 127.077 220.044C132.597 188.424 107.937 159.504 150.267 114.954C203.427 58.944 263.067 59.364 295.317 58.614C264.717 58.344 225.147 57.084 181.707 84.864C113.967 128.184 117.417 164.874 119.997 190.524C122.097 211.284 122.307 217.704 115.347 234.894C108.927 250.794 100.437 264.114 95.757 278.664C91.287 292.584 90.297 307.644 97.947 327.114C100.947 334.764 104.277 342.234 107.307 349.854C108.657 353.244 110.007 356.844 110.787 360.417C110.997 361.407 111.897 365.787 112.077 366.234C114.777 397.314 99.507 413.514 100.017 449.814C100.197 463.521 102.747 482.784 103.947 497.574C104.457 504.261 104.697 510.021 104.337 513.954C102.957 528.624 95.847 542.544 92.517 560.214C87.717 584.754 105.927 658.074 96.867 703.644C86.547 706.077 79.707 706.797 67.947 707.067C68.667 690.717 68.937 665.457 66.567 633.384C62.547 579.204 57.477 532.254 72.117 484.884C75.387 474.324 78.297 465.177 80.787 456.927C81.597 454.317 82.347 451.764 83.037 449.337C91.317 420.237 93.027 401.307 82.677 364.827C82.497 364.137 82.287 363.417 82.077 362.697C80.667 357.807 79.047 352.617 77.187 347.037C63.537 306.027 55.647 282.027 76.527 238.974C77.307 237.324 78.147 235.644 79.047 233.934C79.557 232.944 80.067 231.954 80.607 230.964C91.947 209.844 105.537 188.064 108.897 163.824C111.777 143.094 109.347 123.414 111.957 103.974C112.137 102.444 112.377 100.914 112.647 99.384C113.397 95.214 114.417 91.044 115.797 86.874C116.277 85.464 116.787 84.054 117.357 82.644C120.237 75.324 124.377 68.034 130.317 60.684C153.357 32.214 191.187 16.314 227.097 13.374C260.127 10.644 292.437 19.044 323.847 28.344C291.867 18.114 258.987 9.024 225.057 11.454C202.707 13.014 179.697 19.674 159.807 31.164C148.527 37.644 138.237 45.684 129.627 55.224C124.767 60.594 120.897 65.904 117.807 71.184C119.427 57.204 124.857 43.674 134.367 33.204C142.017 24.744 153.387 18.054 166.797 12.984C168.057 12.504 169.347 12.024 170.667 11.574C210.837 -2.376 266.787 -2.766 296.037 6.804C303.537 9.264 310.617 12.174 317.787 15.384C311.1 11.874 304.44 8.724 297.417 5.934C288.087 2.214 275.247 -0.755999 260.697 -2.526C260.577 -2.556 260.457 -2.586 260.337 -2.586C237.867 -5.286 211.317 -5.076 187.287 -0.125999C194.847 -4.536 202.827 -8.226 209.727 -10.716C232.137 -18.246 250.947 -19.056 271.227 -16.926C272.667 -16.746 274.137 -16.566 275.607 -16.356C276.507 -16.236 277.407 -16.086 278.307 -15.966C291.297 -13.956 305.037 -10.056 313.347 0.354003C307.527 -8.406 295.737 -14.526 282.147 -18.336C292.857 -24.516 297.267 -22.536 313.857 -15.126C321.477 -11.736 329.037 -10.926 337.287 -12.036C353.34 -14.256 357.537 -17.586 374.7 -5.226C349.767 -9.366 326.49 -8.286 316.86 3.234C316.44 3.744 316.02 4.284 315.66 4.824C326.76 -8.556 353.823 -7.386 381.453 -0.0659981C383.553 0.474002 385.683 1.074 387.813 1.704C412.353 8.934 436.38 20.544 449.13 30.564C468.183 45.594 476.37 61.284 481.41 77.184C470.4 60.264 455.433 45.144 435.093 33.864C424.053 27.744 414.483 23.244 405.273 20.034C405.033 19.944 404.763 19.854 404.523 19.794C387.213 13.824 371.133 12.354 348.903 12.864C357.816 13.194 366.483 13.704 375.336 14.904C407.766 19.284 433.956 36.204 456.846 58.014C468.276 68.904 481.236 89.514 491.283 114.924C498.576 133.464 504.336 154.584 506.793 176.334C503.346 170.904 499.623 165.834 495.726 161.124C492.486 134.604 484.746 109.434 457.173 84.774C446.133 74.874 433.686 68.094 420.513 61.524C433.263 68.904 445.503 76.824 455.643 87.684C475.533 108.984 485.373 134.214 490.773 155.364C465.603 127.554 435.066 112.464 418.806 98.964C392.106 76.854 377.106 51.924 362.706 38.604C356.556 32.964 349.866 28.794 342.366 25.224C347.976 28.134 353.226 31.254 358.086 35.364C362.976 39.504 367.266 44.424 371.316 49.434C371.883 50.154 372.456 50.874 373.023 51.594C391.923 75.504 404.973 95.184 440.586 119.514C461.163 133.584 479.616 149.364 493.746 168.744C494.856 170.274 495.906 171.804 496.956 173.364C501.096 179.484 504.783 185.964 507.996 192.834C508.686 194.304 509.346 195.774 509.976 197.274C510.456 198.414 510.936 199.554 511.386 200.724C515.949 212.244 519.576 224.904 520.536 237.354C520.809 247.314 519.969 255.054 518.046 262.494C517.896 263.154 517.719 263.814 517.536 264.474C515.046 273.204 511.116 281.814 505.839 293.454C475.176 360.714 494.739 383.424 502.629 409.224C503.019 410.514 503.379 411.804 503.709 413.124C505.617 420.705 506.277 428.745 504.207 438.408ZM507.747 392.058C503.43 379.278 499.167 365.238 500.277 346.968C501.81 321.498 513.387 302.778 521.277 281.808C526.8 314.415 521.997 343.005 507.747 392.058Z" fill="#452C22"/>
</g>
<defs>
<radialGradient id="paint0_radial_0:1" cx="0" cy="0" r="1" gradientUnits="userSpaceOnUse" gradientTransform="translate(300 300) scale(450)">
<stop stop-color="#45ADA8" stop-opacity="0"/>
<stop offset="0.2" stop-color="#2F9E98"/>
<stop offset="1" stop-color="#2F9E98" stop-opacity="0"/>
</radialGradient>
<linearGradient id="paint1_linear_0:1" x1="299.94" y1="513.81" x2="299.94" y2="409.053" gradientUnits="userSpaceOnUse">
<stop stop-color="#BE8A67" stop-opacity="0.8"/>
<stop offset="0.7" stop-color="#9F6037"/>
</linearGradient>
<linearGradient id="paint2_linear_0:1" x1="300" y1="423" x2="300" y2="414" gradientUnits="userSpaceOnUse">
<stop offset="0.1" stop-color="#C59575"/>
<stop offset="1" stop-color="#BE8A67"/>
</linearGradient>
<radialGradient id="paint3_radial_0:1" cx="0" cy="0" r="1" gradientUnits="userSpaceOnUse" gradientTransform="translate(219 263.502) rotate(180) scale(42)">
<stop stop-color="white"/>
<stop offset="0.544" stop-color="#FDFEFE"/>
<stop offset="0.74" stop-color="#F6F8F9"/>
<stop offset="0.879" stop-color="#EAEFF2"/>
<stop offset="0.992" stop-color="#D9E3E8"/>
<stop offset="1" stop-color="#D8E2E7"/>
</radialGradient>
<radialGradient id="paint4_radial_0:1" cx="0" cy="0" r="1" gradientUnits="userSpaceOnUse" gradientTransform="translate(224.532 260.829) rotate(1.19182) scale(56.1159 35.2535)">
<stop stop-color="#BE8A67"/>
<stop offset="0.7" stop-color="#BE8A67" stop-opacity="0.3"/>
<stop offset="1" stop-color="#CDA184" stop-opacity="0"/>
</radialGradient>
<radialGradient id="paint5_radial_0:1" cx="0" cy="0" r="1" gradientUnits="userSpaceOnUse" gradientTransform="translate(209.838 345.102) rotate(-3.00026) scale(91.4906)">
<stop offset="0.95" stop-opacity="0"/>
<stop offset="1" stop-opacity="0.3"/>
</radialGradient>
<radialGradient id="paint6_radial_0:1" cx="0" cy="0" r="1" gradientUnits="userSpaceOnUse" gradientTransform="translate(381 263.502) scale(42)">
<stop stop-color="white"/>
<stop offset="0.544" stop-color="#FDFEFE"/>
<stop offset="0.74" stop-color="#F6F8F9"/>
<stop offset="0.879" stop-color="#EAEFF2"/>
<stop offset="0.992" stop-color="#D9E3E8"/>
<stop offset="1" stop-color="#D8E2E7"/>
</radialGradient>
<radialGradient id="paint7_radial_0:1" cx="0" cy="0" r="1" gradientUnits="userSpaceOnUse" gradientTransform="translate(375.468 260.829) rotate(178.808) scale(56.1159 35.2535)">
<stop stop-color="#BE8A67"/>
<stop offset="0.7" stop-color="#BE8A67" stop-opacity="0.3"/>
<stop offset="1" stop-color="#CDA184" stop-opacity="0"/>
</radialGradient>
<radialGradient id="paint8_radial_0:1" cx="0" cy="0" r="1" gradientUnits="userSpaceOnUse" gradientTransform="translate(390.162 345.102) rotate(-177) scale(91.4937)">
<stop offset="0.95" stop-opacity="0"/>
<stop offset="1" stop-opacity="0.3"/>
</radialGradient>
<radialGradient id="paint9_radial_0:1" cx="0" cy="0" r="1" gradientUnits="userSpaceOnUse" gradientTransform="translate(300 339) scale(120)">
<stop stop-color="#DCBAA4" stop-opacity="0.5"/>
<stop offset="0.9" stop-color="#CDA184" stop-opacity="0"/>
</radialGradient>
<radialGradient id="paint10_radial_0:1" cx="0" cy="0" r="1" gradientUnits="userSpaceOnUse" gradientTransform="translate(300 171) scale(108)">
<stop stop-color="#DCBAA4" stop-opacity="0.5"/>
<stop offset="0.9" stop-color="#CDA184" stop-opacity="0"/>
</radialGradient>
<clipPath id="clip0_0:1">
<rect width="600" height="600" fill="white"/>
</clipPath>
</defs>
</svg>
