<svg viewBox="0 0 600 600" fill="none" xmlns="http://www.w3.org/2000/svg">
<g clip-path="url(#clip0_4:291)">
<path d="M675 675H-75V-75H675V675Z" fill="#F9F2E7"/>
<path d="M30 99.897L0 49.947L30 -0.00299072L60 49.947L30 99.897ZM120 49.947L90 -0.00299072L60 49.947L90 99.897L120 49.947ZM180 49.947L150 -0.00299072L120 49.947L150 99.897L180 49.947ZM240 49.947L210 -0.00299072L180 49.947L210 99.897L240 49.947ZM300 49.947L270 -0.00299072L240 49.947L270 99.897L300 49.947ZM360 49.947L330 -0.00299072L300 49.947L330 99.897L360 49.947ZM420 49.947L390 -0.00299072L360 49.947L390 99.897L420 49.947ZM480 49.947L450 -0.00299072L420 49.947L450 99.897L480 49.947ZM540 49.947L510 -0.00299072L480 49.947L510 99.897L540 49.947ZM600 49.947L570 -0.00299072L540 49.947L570 99.897L600 49.947ZM60 149.946L30 99.996L0 149.946L30 199.896L60 149.946ZM120 149.946L90 99.996L60 149.946L90 199.896L120 149.946ZM180 149.946L150 99.996L120 149.946L150 199.896L180 149.946ZM240 149.946L210 99.996L180 149.946L210 199.896L240 149.946ZM300 149.946L270 99.996L240 149.946L270 199.896L300 149.946ZM360 149.946L330 99.996L300 149.946L330 199.896L360 149.946ZM420 149.946L390 99.996L360 149.946L390 199.896L420 149.946ZM480 149.946L450 99.996L420 149.946L450 199.896L480 149.946ZM540 149.946L510 99.996L480 149.946L510 199.896L540 149.946ZM600 149.946L570 99.996L540 149.946L570 199.896L600 149.946ZM60 249.948L30 199.998L0 249.948L30 299.898L60 249.948ZM120 249.948L90 199.998L60 249.948L90 299.898L120 249.948ZM180 249.948L150 199.998L120 249.948L150 299.898L180 249.948ZM240 249.948L210 199.998L180 249.948L210 299.898L240 249.948ZM300 249.948L270 199.998L240 249.948L270 299.898L300 249.948ZM360 249.948L330 199.998L300 249.948L330 299.898L360 249.948ZM420 249.948L390 199.998L360 249.948L390 299.898L420 249.948ZM480 249.948L450 199.998L420 249.948L450 299.898L480 249.948ZM540 249.948L510 199.998L480 249.948L510 299.898L540 249.948ZM600 249.948L570 199.998L540 249.948L570 299.898L600 249.948ZM60 349.947L30 300L0 349.95L30 399.897L60 349.947ZM120 349.947L90 300L60 349.95L90 399.897L120 349.947ZM180 349.947L150 300L120 349.95L150 399.897L180 349.947ZM240 349.947L210 300L180 349.95L210 399.897L240 349.947ZM300 349.947L270 300L240 349.95L270 399.897L300 349.947ZM360 349.947L330 300L300 349.95L330 399.897L360 349.947ZM420 349.947L390 300L360 349.95L390 399.897L420 349.947ZM480 349.947L450 300L420 349.95L450 399.897L480 349.947ZM540 349.947L510 300L480 349.95L510 399.897L540 349.947ZM600 349.947L570 300L540 349.95L570 399.897L600 349.947ZM60 449.946L30 399.999L0 449.946L30 499.893L60 449.946ZM120 449.946L90 399.999L60 449.946L90 499.893L120 449.946ZM180 449.946L150 399.999L120 449.946L150 499.893L180 449.946ZM240 449.946L210 399.999L180 449.946L210 499.893L240 449.946ZM300 449.946L270 399.999L240 449.946L270 499.893L300 449.946ZM360 449.946L330 399.999L300 449.946L330 499.893L360 449.946ZM420 449.946L390 399.999L360 449.946L390 499.893L420 449.946ZM480 449.946L450 399.999L420 449.946L450 499.893L480 449.946ZM540 449.946L510 399.999L480 449.946L510 499.893L540 449.946ZM600 449.946L570 399.999L540 449.946L570 499.893L600 449.946ZM60 549.945L30 499.998L0 549.945L30 599.892L60 549.945ZM120 549.945L90 499.998L60 549.945L90 599.892L120 549.945ZM180 549.945L150 499.998L120 549.945L150 599.892L180 549.945ZM240 549.945L210 499.998L180 549.945L210 599.892L240 549.945ZM300 549.945L270 499.998L240 549.945L270 599.892L300 549.945ZM360 549.945L330 499.998L300 549.945L330 599.892L360 549.945ZM420 549.945L390 499.998L360 549.945L390 599.892L420 549.945ZM480 549.945L450 499.998L420 549.945L450 599.892L480 549.945ZM540 549.945L510 499.998L480 549.945L510 599.892L540 549.945ZM600 549.945L570 499.998L540 549.945L570 599.892L600 549.945Z" fill="#EADAC1"/>
<path d="M301.5 301.5H298.5V298.5H301.5V301.5Z" fill="#A46C47"/>
<path d="M586.251 599.334C579.663 585.096 561.666 563.997 541.671 558.168C516.954 550.959 461.16 542.244 440.472 537.399C423.888 533.511 390.486 503.517 378.78 493.449C376.68 491.649 374.961 487.932 374.919 485.169C374.502 452.577 387.504 365.997 387.504 365.997H300H212.499C212.499 365.997 225.501 452.574 225.078 485.169C225.045 487.932 223.317 491.649 221.223 493.449C209.517 503.517 176.115 533.511 159.531 537.399C138.84 542.244 83.046 551.256 58.332 558.465C38.331 564.291 20.34 585.093 13.752 599.331C2.628 623.355 0 666.831 0 704.331H300H600C600 666.834 597.369 623.358 586.251 599.334Z" fill="#93614A"/>
<path d="M477.468 552.174C550.494 562.8 581.226 578.298 590.85 704.337H600C600 666.837 597.369 623.361 586.251 599.337C579.663 585.099 561.666 564 541.671 558.171C516.954 550.962 461.16 542.247 440.472 537.402C423.888 533.514 385.746 501.195 375.543 488.352C385.623 502.464 413.916 535.167 438.705 543.732C450.564 547.83 460.44 549.696 477.468 552.174ZM161.298 543.732C186.087 535.17 214.377 502.464 224.46 488.352C214.26 501.192 176.118 533.514 159.531 537.402C138.843 542.247 83.049 551.259 58.332 558.468C38.337 564.294 20.34 585.096 13.752 599.334C2.63399 623.358 0.00299072 666.834 0.00299072 704.334H9.15299C18.717 579.102 49.578 562.785 122.535 552.171C139.56 549.696 149.439 547.83 161.298 543.732Z" fill="#A27662"/>
<path d="M286.938 592.86C286.938 592.86 271.716 588.033 265.689 585.723C234.342 573.696 132.504 565.902 132.504 565.902C132.504 565.902 239.766 570.159 263.436 574.239C262.062 559.938 254.385 514.227 254.385 514.227C254.385 514.227 269.832 564.672 273.612 577.398C275.634 584.202 286.938 592.86 286.938 592.86ZM319.335 588.834C319.068 589.053 318.762 589.338 318.429 589.638C318.768 589.383 319.074 589.116 319.335 588.834ZM286.938 592.86C286.938 592.86 295.617 601.836 299.979 601.95C305.709 602.103 314.463 593.253 318.432 589.638C314.637 592.509 305.955 593.811 302.502 593.946C298.512 594.099 286.938 592.86 286.938 592.86ZM349.992 570.303C345.357 571.047 336.834 572.67 336.834 572.67L343.695 528C341.757 537.213 330.273 576.633 319.335 588.834C325.065 583.986 337.809 581.661 344.307 580.722C375.015 576.27 375.003 576.273 467.493 565.902C467.493 565.902 380.28 565.437 349.992 570.303Z" fill="#844E35"/>
<path d="M586.251 599.334C579.663 585.096 561.666 563.997 541.671 558.168C516.954 550.959 461.16 542.244 440.472 537.399C423.888 533.511 390.486 503.517 378.78 493.449C376.68 491.649 374.961 487.932 374.919 485.169C374.502 452.577 387.504 365.997 387.504 365.997H300H212.499C212.499 365.997 225.501 452.574 225.078 485.169C225.045 487.932 223.317 491.649 221.223 493.449C209.517 503.517 176.115 533.511 159.531 537.399C138.84 542.244 83.046 551.256 58.332 558.465C38.331 564.291 20.34 585.093 13.752 599.331C2.628 623.355 0 666.831 0 704.331H300H600C600 666.834 597.369 623.358 586.251 599.334Z" stroke="#652E15" stroke-width="4.5"/>
<path d="M225.255 491.958C245.049 502.68 269.73 509.616 300.306 509.598C330.855 509.616 355.302 502.749 374.823 492.111C373.539 489.972 372.699 487.422 372.663 485.199C372.285 455.568 382.698 383.136 384.891 368.25H215.109C217.299 383.139 227.715 455.568 227.331 485.196C227.304 487.323 226.491 489.837 225.255 491.958Z" fill="url(#paint0_linear_4:291)"/>
<path d="M249.624 707.361C121.359 707.361 30.276 706.338 -1.04699 704.553C-10.731 580.173 50.1 553.611 76.719 547.962C92.052 544.308 104.136 543.183 114.795 542.193C140.181 539.835 160.275 537.966 205.092 505.512C206.661 507.51 210.492 512.589 217.551 522.162C238.395 549.894 269.706 565.677 303.618 565.677C303.621 565.677 303.624 565.677 303.63 565.677C342.045 565.671 378.072 545.715 402.687 510.864C447.855 538.626 457.374 539.511 480.09 541.614C487.581 542.307 496.902 543.174 509.487 545.244C545.001 550.017 571.962 569.505 587.496 601.602C600.711 628.911 605.559 665.181 601.176 703.863C566.238 705.801 409.884 707.361 249.651 707.361C249.636 707.361 249.633 707.361 249.624 707.361Z" fill="#F3F1F4"/>
<path d="M512.727 546.765C462.447 538.485 460.881 543.045 402.267 508.845C352.836 580.242 263.259 580.473 218.907 521.475C217.968 520.2 206.469 504.594 205.347 503.475C140.736 550.566 127.446 535.488 75.807 547.092C24.213 558.687 -10.818 599.292 -2.52297 704.925C-2.49297 705.285 -2.49297 705.612 -2.43297 705.975C76.023 710.76 542.718 708.933 602.517 705.288C606.804 630.486 600.747 561.09 512.727 546.765ZM-0.99297 704.898C-2.36697 638.703 7.77903 566.328 77.787 552.198C129.66 541.728 141.609 555.498 204.957 505.098C208.287 510.078 212.157 516.258 216.477 523.038C256.131 583.938 349.89 593.544 402.627 511.038C408.18 515.328 414.717 520.098 422.037 524.808C491.595 570.726 604.251 510.681 600.987 704.478C404.76 700.872 197.919 700.938 -0.99297 704.898Z" fill="#CFC8D7"/>
<path d="M322.32 713.127C313.995 713.127 290.139 713.751 272.784 712.437L272.754 711.924C270.3 655.95 276.141 619.767 286.365 594.06L286.509 593.691L286.23 593.412C283.515 590.7 278.955 587.607 274.128 584.337C269.295 581.058 264.303 577.674 261.12 574.599C262.995 572.403 265.305 570.237 268.164 567.996C268.899 567.621 271.65 565.467 286.086 553.083C286.728 552.531 287.121 552.195 287.172 552.153C289.626 551.619 293.586 551.274 298.386 551.274C304.935 551.274 312.579 551.937 317.922 552.963C322.605 557.337 328.275 568.95 330.396 574.473C327.468 581.346 324.012 583.86 319.245 587.325C316.923 589.014 314.289 590.928 311.289 593.661L311.04 593.886L311.103 594.219C323.181 655.149 323.184 669.381 323.184 683.145C323.187 689.208 323.187 702.972 324.201 713.1C323.751 713.121 323.112 713.127 322.32 713.127Z" fill="#131111"/>
<path d="M331.05 574.485C328.788 568.5 322.92 556.695 318.21 552.408C309.582 550.719 294.261 549.879 286.8 551.688C286.476 551.952 268.056 567.837 267.87 567.468C265.152 569.592 262.506 571.98 260.31 574.638C266.493 580.866 280.275 588.306 285.81 593.838C274.86 621.378 269.82 658.608 272.16 711.978C272.19 712.308 272.19 712.668 272.22 712.998C292.488 714.558 321.87 713.991 324.87 713.667C321.39 679.746 329.184 682.302 311.7 594.108C320.904 585.723 326.595 585.12 331.05 574.485ZM315.3 631.605C315.237 631.455 315.18 631.305 315.147 631.215C321.147 662.865 319.287 687.111 323.82 712.131C309.612 711.177 287.778 711.975 273.507 711.975C274.614 690.381 277.071 616.923 287.727 592.755C288.237 592.617 288.744 592.503 289.254 592.38L286.158 696.588L294.399 591.39C294.459 591.384 294.519 591.375 294.579 591.366L299.982 689.181L301.233 590.979C301.311 590.982 301.386 590.976 301.464 590.979L314.061 700.044L307.161 591.633C308.103 591.822 309.048 592.056 309.987 592.332C310.077 592.332 310.197 592.362 310.287 592.422C310.599 595.428 313.095 617.628 315.3 631.605ZM312.657 590.178C304.335 586.425 293.568 587.1 285.27 590.898C280.227 585.459 273.03 581.667 262.68 574.725C264.33 573.288 266.46 571.515 269.31 569.295C269.55 569.295 279.75 560.982 279.93 560.805C282.69 558.285 285.15 555.435 287.49 552.945C296.28 552.585 309.18 553.005 316.95 553.365C321.45 558.993 325.743 567.453 328.98 574.185C323.097 582.798 317.277 586.635 312.657 590.178Z" fill="black"/>
<path d="M234.588 639.231C199.986 519.018 204.726 557.022 195.507 509.802C201.591 495.363 218.268 471.948 221.517 468.477L221.757 468.219C228.633 540.24 248.631 509.127 293.109 551.385C267.684 568.347 244.116 612.381 234.588 639.231ZM406.092 510.9C401.748 499.794 381.348 475.893 377.934 472.281C382.206 534.315 332.496 521.934 304.884 550.881C331.32 568.02 356.403 612.861 365.4 639.246C403.959 529.209 396.063 573.645 406.092 510.9Z" fill="#F3F1F4"/>
<path d="M377.403 470.901C377.403 486.312 376.143 498.387 373.617 501.918C366.288 519.345 334.308 531.477 324.447 536.448C316.962 540.129 309.621 544.875 303.957 550.998C315.396 558.426 321.072 561.147 342.747 594.318C355.485 615.645 362.364 631.662 365.43 641.238C404.196 535.782 397.401 572.052 406.809 510.717C402.054 498.459 380.403 473.655 377.403 470.901ZM365.127 632.028C356.979 606.096 331.902 563.289 306.837 550.755C318.648 541.884 321.93 541.362 336.024 534.918C379.212 515.658 380.979 497.763 378.438 474.105C382.059 478.374 400.422 500.097 405.126 510.174C393.102 579.348 380.835 576.897 365.127 632.028ZM237.597 515.688C224.373 504.741 228.117 491.202 222.03 467.043C219.324 470.043 198.807 493.689 191.982 509.958C213.357 583.083 214.107 577.458 234.537 641.208C243.63 614.493 269.211 568.098 295.257 551.181C274.467 532.203 248.295 524.997 237.597 515.688ZM253.977 592.215C247.314 603.213 240.426 614.655 234.867 632.055C231.357 608.205 201.357 535.167 196.107 509.205C201.021 498.441 219.42 471.852 221.67 469.71C225.768 490.944 221.868 510.096 238.677 520.695C246.54 526.683 271.989 536.655 291.237 551.775C279.564 558.705 273.282 562.788 253.977 592.215Z" fill="#CFC8D7"/>
<path d="M149.571 704.724C122.961 704.724 98.979 704.313 80.103 703.536C79.893 701.868 79.638 699.726 79.332 697.173C76.173 670.686 67.83 600.732 50.247 554.589C78.738 543.084 125.307 534.516 160.176 530.235C183.675 578.982 240.363 657.243 280.137 701.937C235.302 703.758 190.224 704.724 149.58 704.724C149.58 704.724 149.577 704.724 149.571 704.724ZM450.429 704.724C477.039 704.724 501.018 704.313 519.897 703.536C520.107 701.868 520.359 699.726 520.665 697.173C523.827 670.686 532.17 600.732 549.75 554.589C521.259 543.084 474.69 534.516 439.821 530.235C416.322 578.982 359.634 657.243 319.86 701.937C364.695 703.758 409.773 704.724 450.417 704.724C450.423 704.724 450.423 704.724 450.429 704.724Z" fill="#39557E"/>
<path d="M96.459 635.877L65.019 596.997L72.309 548.763L101.478 587.175L96.459 635.877ZM142.152 577.707L107.379 539.649L101.475 587.172L136.305 624.363L142.152 577.707ZM176.451 564.444L141.327 533.451L142.152 577.707L179.118 612.378L176.451 564.444ZM126.96 671.019L96.459 635.877L81.405 681.927L114.759 720.888L126.96 671.019ZM174.321 659.526L136.308 624.366L126.96 671.019L169.662 704.358L174.321 659.526ZM220.137 640.599L179.118 612.378L174.321 659.526L217.185 692.847L220.137 640.599ZM498.522 587.175L527.694 548.763L534.984 596.997L503.544 635.877L498.522 587.175ZM463.692 624.366L498.519 587.175L492.618 539.652L457.842 577.71L463.692 624.366ZM420.882 612.378L457.845 577.707L458.67 533.451L423.546 564.444L420.882 612.378ZM485.238 720.888L518.595 681.927L503.538 635.877L473.037 671.019L485.238 720.888ZM430.335 704.358L473.037 671.019L463.692 624.366L425.676 659.526L430.335 704.358ZM382.815 692.847L425.676 659.526L420.879 612.378L379.86 640.599L382.815 692.847Z" fill="#4E688D"/>
<path d="M161.067 528.615C128.661 532.539 78.627 541.167 48.327 553.755C48.327 553.788 48.357 553.818 48.357 553.845C68.397 605.415 76.611 688.566 78.777 704.985C119.763 706.725 194.109 707.019 283.377 703.305C244.956 660.648 185.049 578.916 161.067 528.615ZM80.787 702.798C80.787 676.497 72.855 601.236 51.357 554.808C94.419 542.052 123.675 538.173 159.657 531.015C185.688 592.968 225.906 652.287 275.007 700.365C212.562 698.898 143.205 699.684 80.787 702.798ZM316.623 703.308C405.891 707.019 480.237 706.728 521.22 704.988C523.389 688.569 531.603 605.421 551.643 553.848C551.643 553.818 551.673 553.788 551.673 553.758C521.373 541.17 471.342 532.542 438.933 528.618C414.951 578.916 355.044 660.648 316.623 703.308ZM324.993 700.365C374.094 652.287 414.309 592.968 440.343 531.015C476.322 538.173 505.581 542.052 548.643 554.808C527.145 601.239 519.21 676.497 519.21 702.798C456.798 699.684 387.438 698.898 324.993 700.365Z" fill="#0C2850"/>
<path d="M136.329 248.166C131.922 240.867 116.385 225.531 105.399 228.336C96.462 230.622 87.303 238.065 87.303 250.755C87.3 270.414 91.791 278.769 94.806 287.688C97.374 295.278 106.551 309.189 112.089 314.58C118.908 321.204 129.96 342.63 131.301 344.817C133.416 348.279 136.932 353.781 143.43 353.988C153.3 354.3 164.685 347.673 165.399 343.524C169.26 321.027 147.789 267.156 136.329 248.166Z" fill="#93614A" stroke="#652E15" stroke-width="4.5"/>
<path d="M130.788 297.258C130.362 295.584 130.809 292.773 131.244 290.058C131.637 287.58 132.009 285.243 131.784 283.587C130.929 277.395 126.108 265.623 122.958 259.242C119.334 251.904 110.607 242.658 103.254 240.276C100.215 239.289 98.211 240.468 97.053 241.665C96.201 242.544 96.012 243.576 96.291 243.699C96.57 243.822 97.203 242.967 98.121 242.16C98.871 241.5 99.972 240.936 101.487 241.053C100.878 244.137 92.073 253.719 97.344 272.229C99.81 280.893 103.32 287.871 103.95 288.876C104.046 289.932 104.199 290.964 104.427 291.969C107.4 305.04 126.285 326.589 130.782 331.455C131.613 332.355 132.483 332.886 132.699 332.673C132.915 332.457 132.399 331.569 131.571 330.66C127.131 325.827 108.369 304.329 105.501 291.717C100.239 268.611 111.249 268.221 118.998 254.298C120.189 256.269 121.197 258.162 121.977 259.74C122.586 260.979 123.264 262.428 123.96 263.991C122.586 266.178 108.783 282.156 112.293 294.942C113.592 299.658 123.63 305.736 127.512 307.401C129.648 308.319 130.449 309.69 131.379 311.274C132.456 313.113 133.68 319.662 137.229 321.168C137.952 321.477 138.603 321.606 139.182 321.606C140.184 321.606 140.943 321.222 141.504 320.766C141.561 321.567 141.558 322.602 141.528 323.556C141.495 324.789 141.666 325.8 141.969 325.824C142.272 325.848 142.593 324.873 142.632 323.643C142.68 322.131 142.674 320.259 142.401 319.365C141.606 316.725 139.173 313.752 136.599 310.602C134.064 307.509 131.445 299.841 130.788 297.258ZM103.848 285.669C96.882 265.149 106.827 247.437 108.39 244.617C111.114 246.978 116.376 250.14 118.332 253.227C108.99 269.412 104.433 258.153 103.848 285.669ZM137.652 320.151C134.436 318.786 133.359 312.486 132.318 310.71C131.376 309.102 130.401 307.443 127.935 306.381C127.398 306.15 126.807 305.799 126.201 305.397C114.618 288.123 127.074 279.519 129.282 277.908C129.96 280.11 130.47 282.129 130.692 283.746C130.896 285.234 130.518 287.598 130.155 289.881C129.705 292.713 129.237 295.641 129.72 297.54C130.44 300.363 133.14 308.127 135.75 311.322C138.066 314.157 140.442 317.079 141.255 319.461C140.91 319.935 139.812 321.066 137.652 320.151Z" fill="#652E15"/>
<path d="M462.885 248.166C467.292 240.867 482.829 225.531 493.818 228.336C502.755 230.622 511.911 238.065 511.911 250.755C511.917 270.414 507.423 278.769 504.411 287.688C501.84 295.278 492.663 309.189 487.125 314.58C480.306 321.204 469.254 342.63 467.913 344.817C465.798 348.279 462.282 353.781 455.784 353.988C445.911 354.3 434.526 347.673 433.812 343.524C429.954 321.027 451.425 267.156 462.885 248.166Z" fill="#93614A" stroke="#652E15" stroke-width="4.5"/>
<path d="M462.615 310.608C460.044 313.758 457.611 316.731 456.813 319.371C456.543 320.265 456.537 322.137 456.585 323.649C456.627 324.876 456.942 325.851 457.248 325.83C457.554 325.809 457.722 324.795 457.686 323.562C457.656 322.611 457.656 321.573 457.716 320.772C458.274 321.228 459.033 321.612 460.035 321.612C460.614 321.612 461.265 321.483 461.985 321.174C465.537 319.668 466.761 313.116 467.838 311.28C468.771 309.696 469.566 308.325 471.705 307.407C475.584 305.742 485.622 299.664 486.921 294.948C490.431 282.162 476.625 266.184 475.254 263.997C475.95 262.431 476.625 260.985 477.234 259.746C478.014 258.168 479.022 256.275 480.216 254.304C487.962 268.227 498.972 268.617 493.71 291.723C490.839 304.335 472.083 325.833 467.643 330.666C466.818 331.575 466.302 332.463 466.512 332.679C466.728 332.889 467.595 332.361 468.429 331.461C472.929 326.595 491.814 305.046 494.784 291.975C495.012 290.973 495.171 289.938 495.264 288.882C495.891 287.88 499.401 280.899 501.867 272.235C507.141 253.725 498.333 244.143 497.724 241.059C499.236 240.942 500.337 241.506 501.093 242.166C502.008 242.973 502.647 243.825 502.92 243.705C503.202 243.582 503.007 242.55 502.158 241.671C500.997 240.474 498.993 239.295 495.954 240.282C488.601 242.664 479.877 251.91 476.25 259.248C473.103 265.626 468.282 277.398 467.427 283.593C467.205 285.249 467.574 287.586 467.967 290.064C468.402 292.782 468.846 295.593 468.423 297.264C467.772 299.841 465.153 307.509 462.615 310.608ZM480.885 253.227C482.841 250.14 488.103 246.978 490.824 244.617C492.387 247.434 502.332 265.146 495.372 285.669C494.784 258.153 490.224 269.412 480.885 253.227ZM457.956 319.458C458.769 317.076 461.148 314.154 463.464 311.319C466.071 308.124 468.774 300.36 469.494 297.537C469.974 295.641 469.512 292.713 469.059 289.878C468.696 287.595 468.315 285.228 468.519 283.743C468.741 282.126 469.251 280.107 469.932 277.905C472.134 279.516 484.593 288.12 473.007 305.394C472.404 305.796 471.813 306.147 471.273 306.378C468.807 307.44 467.835 309.102 466.89 310.707C465.852 312.483 464.775 318.783 461.559 320.148C459.405 321.066 458.304 319.935 457.956 319.458Z" fill="#652E15"/>
<path d="M300.309 2.601C199.443 2.442 117.858 84.441 117.702 185.787C117.678 201.882 119.709 217.494 123.561 232.377H123.573C123.606 232.539 147.936 318.102 152.997 363.279C156.729 396.585 190.758 485.667 300.306 485.598C409.851 485.664 441.12 397.305 446.997 363.279C454.737 318.492 477 232.539 477.036 232.377H477.051C480.9 217.494 482.934 201.882 482.907 185.787C482.757 84.441 401.169 2.442 300.309 2.601Z" fill="#93614A"/>
<path d="M407.565 37.482C442.848 71.067 465.234 120.939 465.303 176.706C465.327 192.801 463.497 208.413 460.02 223.296H460.005C459.972 223.458 439.854 309.414 432.855 354.198C427.542 388.227 399.288 476.583 300.303 476.517C201.315 476.58 170.565 387.501 167.196 354.198C162.618 309.021 140.637 223.455 140.607 223.296H140.595C137.109 208.413 135.279 192.801 135.3 176.706C135.378 120.936 157.767 71.061 193.05 37.476C147.453 70.755 117.792 124.746 117.699 185.79C117.675 201.885 119.706 217.497 123.558 232.38H123.57C123.603 232.542 147.933 318.105 152.994 363.282C156.726 396.588 190.755 485.67 300.303 485.601C409.848 485.667 441.117 397.308 446.994 363.282C454.734 318.495 476.997 232.542 477.033 232.38H477.048C480.897 217.497 482.931 201.885 482.904 185.79C482.817 124.749 453.159 70.761 407.565 37.482Z" fill="#8B573F"/>
<path d="M300.309 2.601C199.443 2.442 117.858 84.441 117.702 185.787C117.678 201.882 119.709 217.494 123.561 232.377H123.573C123.606 232.539 147.936 318.102 152.997 363.279C156.729 396.585 190.758 485.667 300.306 485.598C409.851 485.664 441.12 397.305 446.997 363.279C454.737 318.492 477 232.539 477.036 232.377H477.051C480.9 217.494 482.934 201.882 482.907 185.787C482.757 84.441 401.169 2.442 300.309 2.601Z" stroke="#652E15" stroke-width="4.5"/>
<path d="M299.949 423.531C290.229 423.531 285.69 412.131 285.69 412.131C285.69 412.131 300.168 412.728 313.527 414.93C313.527 414.93 308.496 423.531 299.949 423.531Z" fill="url(#paint1_linear_4:291)"/>
<path d="M263.376 406.713C262.257 405.723 267.96 396.594 275.154 394.578C284.247 391.932 292.431 394.656 299.127 395.817C305.229 396.879 314.25 395.964 320.211 397.554C326.958 399.354 345.603 407.403 344.154 408.954C343.44 409.719 329.265 403.926 319.926 402.12C313.986 400.968 305.283 401.862 299.304 400.881C293.118 399.87 285.894 397.251 277.5 398.466C269.886 399.567 264.651 407.841 263.376 406.713Z" fill="#652E15"/>
<path d="M230.196 235.149C243.957 237.186 253.989 245.613 262.515 258.969C262.527 258.984 262.554 258.981 262.569 258.993C262.59 259.074 262.632 259.152 262.647 259.233C263.412 262.254 260.199 264.69 256.182 266.547C241.869 268.374 228.105 271.014 213.6 269.157C184.557 265.434 184.035 252.63 182.622 249.27C181.866 245.967 181.647 245.019 181.689 241.851C188.685 237.753 193.818 236.91 199.251 235.836C205.623 234.582 219.804 233.604 230.196 235.149Z" fill="url(#paint2_radial_4:291)"/>
<path d="M244.455 259.938C241.194 275.901 228.849 285.306 216.852 280.92C204.864 276.54 197.784 260.028 201.045 244.062C204.303 228.09 216.678 218.688 228.666 223.074C240.645 227.454 247.719 243.966 244.455 259.938Z" fill="#3C8D8E" stroke="#0C5F60" stroke-width="1.5"/>
<path d="M240.954 260.313C237.774 272.568 228.174 279.72 218.832 276.309C210.207 273.15 204.765 262.113 205.47 250.449C208.674 250.113 212.169 250.011 215.802 250.251C215.766 250.419 215.703 250.563 215.667 250.734C214.524 256.359 217.194 262.257 221.64 263.886C226.101 265.512 230.643 262.251 231.795 256.629C231.936 255.894 232.014 255.159 232.038 254.433C235.086 255.912 238.077 257.826 240.954 260.313Z" fill="#529C9D"/>
<path opacity="0.9" d="M225.795 243.054C221.292 241.332 216.69 244.761 215.529 250.746C214.362 256.704 217.074 262.935 221.58 264.66C226.095 266.385 230.697 262.953 231.858 256.995C233.031 251.007 230.31 244.773 225.795 243.054ZM226.782 264.213C224.907 264.987 222.969 263.958 222.453 261.9C221.955 259.845 223.068 257.568 224.952 256.806C226.839 256.029 228.771 257.064 229.293 259.107C229.8 261.15 228.684 263.436 226.782 264.213Z" fill="black"/>
<path opacity="0.6" d="M210.792 267.795C209.403 268.905 207.336 267.915 206.148 265.563C204.96 263.232 205.143 260.439 206.535 259.326C207.909 258.234 210.003 259.224 211.182 261.558C212.346 263.892 212.181 266.688 210.792 267.795Z" fill="white"/>
<path opacity="0.9" d="M240.414 250.704C237.24 253.233 232.473 250.953 229.773 245.601C227.073 240.243 227.481 233.841 230.652 231.315C233.82 228.768 238.59 231.054 241.278 236.412C243.972 241.767 243.585 248.163 240.414 250.704Z" fill="white"/>
<path d="M165.336 250.749C175.008 284.694 187.761 320.688 218.391 321.756C249.021 322.824 284.796 300.039 285.261 255.042C285.78 204.741 253.839 184.899 223.209 183.831C192.579 182.763 150.921 200.142 165.336 250.749ZM182.625 249.27C181.869 245.967 181.65 245.019 181.692 241.851C187.773 238.221 193.812 237.21 199.245 236.136C205.614 234.882 219.804 233.601 230.196 235.149C243.957 237.186 253.989 245.613 262.515 258.969C262.527 258.984 262.554 258.981 262.569 258.993C262.59 259.074 262.632 259.152 262.647 259.233C263.412 262.254 260.199 264.69 256.182 266.547C241.869 268.374 228.105 271.014 213.6 269.157C184.557 265.434 184.035 252.63 182.625 249.27Z" fill="#93614A"/>
<path d="M222.675 285.513C250.443 289.716 276.216 276.483 280.233 255.936C284.253 235.389 265.017 215.325 237.246 211.116C209.472 206.919 183.711 220.152 179.691 240.702C175.671 261.246 194.901 281.298 222.675 285.513ZM181.689 241.851C188.064 238.428 193.809 237.21 199.242 236.136C205.611 234.882 219.801 233.601 230.193 235.149C243.954 237.186 253.986 245.613 262.512 258.969C262.524 258.984 262.551 258.981 262.566 258.993C262.587 259.074 262.629 259.152 262.644 259.233C263.409 262.254 260.196 264.69 256.179 266.547C241.866 268.374 228.102 271.014 213.597 269.157C184.554 265.434 184.032 252.63 182.619 249.27C181.866 245.967 181.65 245.016 181.689 241.851Z" fill="url(#paint3_radial_4:291)"/>
<path d="M182.625 249.27C181.869 245.967 181.65 245.019 181.692 241.851C187.968 238.326 193.812 237.21 199.245 236.136C205.614 234.882 219.804 233.601 230.196 235.149C243.957 237.186 253.989 245.613 262.515 258.969C262.527 258.984 262.554 258.981 262.569 258.993C262.59 259.074 262.632 259.152 262.647 259.233C263.412 262.254 260.199 264.69 256.182 266.547C241.869 268.374 228.105 271.014 213.6 269.157C184.557 265.434 184.035 252.63 182.625 249.27Z" fill="url(#paint4_radial_4:291)"/>
<path d="M228.981 227.244C238.863 228.861 248.496 233.406 257.421 239.079C259.332 240.291 261.519 241.674 264.984 243.432C262.5 242.868 260.202 241.581 258.057 240.399C260.265 242.493 262.323 244.986 264.003 247.401C256.44 237.924 242.112 230.787 229.923 228.354C218.217 226.017 196.956 227.562 181.17 234.48C195.624 226.347 216.711 225.24 228.981 227.244Z" fill="#652E15"/>
<path d="M262.524 258.831C253.983 245.811 243.945 237.585 230.181 235.59C215.682 233.475 196.368 234.927 185.079 241.119C184.155 241.626 180.258 244.866 180.876 241.47C183.498 237.969 193.842 233.901 198.855 232.686C255.09 219.057 265.746 263.562 262.524 258.831ZM181.938 248.523C179.79 254.712 184.521 268.485 212.373 271.032C232.158 272.838 259.674 265.782 256.275 266.193C241.938 267.96 228.15 270.54 213.618 268.71C180.672 264.57 184.404 249.069 181.938 248.523Z" fill="#1B2A40"/>
<path d="M368.601 235.149C354.843 237.186 344.808 245.613 336.282 258.969C336.27 258.984 336.246 258.981 336.228 258.993C336.21 259.074 336.168 259.152 336.153 259.233C335.385 262.254 338.598 264.69 342.615 266.547C356.928 268.374 370.692 271.014 385.197 269.157C414.24 265.434 414.762 252.63 416.172 249.27C416.931 245.967 417.147 245.019 417.108 241.851C410.115 237.753 404.979 236.91 399.546 235.836C393.177 234.582 378.996 233.604 368.601 235.149Z" fill="url(#paint5_radial_4:291)"/>
<path d="M398.952 259.938C395.688 275.901 383.343 285.306 371.346 280.914C359.364 276.54 352.278 260.025 355.545 244.062C358.806 228.09 371.175 218.688 383.157 223.08C395.148 227.454 402.222 243.969 398.952 259.938Z" fill="#3C8D8E" stroke="#0C5F60" stroke-width="1.5"/>
<path d="M395.457 260.313C392.271 272.568 382.674 279.717 373.332 276.303C364.707 273.147 359.262 262.113 359.97 250.449C363.171 250.116 366.675 250.011 370.305 250.251C370.272 250.416 370.2 250.56 370.167 250.734C369.024 256.359 371.691 262.254 376.137 263.883C380.604 265.509 385.14 262.242 386.292 256.623C386.439 255.891 386.511 255.153 386.541 254.427C389.58 255.915 392.574 257.829 395.457 260.313Z" fill="#529C9D"/>
<path opacity="0.9" d="M380.301 243.054C375.789 241.335 371.193 244.761 370.026 250.746C368.865 256.707 371.571 262.935 376.086 264.657C380.598 266.382 385.191 262.947 386.364 256.992C387.531 251.007 384.81 244.773 380.301 243.054ZM381.279 264.213C379.41 264.987 377.466 263.958 376.959 261.9C376.455 259.848 377.571 257.565 379.458 256.809C381.345 256.029 383.274 257.064 383.793 259.107C384.303 261.147 383.184 263.433 381.279 264.213Z" fill="black"/>
<path opacity="0.6" d="M365.292 267.795C363.909 268.899 361.842 267.912 360.651 265.56C359.463 263.232 359.646 260.442 361.035 259.323C362.412 258.231 364.5 259.224 365.676 261.561C366.849 263.892 366.687 266.685 365.292 267.795Z" fill="white"/>
<path opacity="0.9" d="M394.914 250.704C391.734 253.236 386.976 250.953 384.27 245.601C381.579 240.243 381.972 233.844 385.149 231.318C388.317 228.768 393.087 231.054 395.769 236.412C398.472 241.773 398.085 248.166 394.914 250.704Z" fill="white"/>
<path d="M375.591 183.831C344.958 184.899 313.02 204.741 313.536 255.042C313.998 300.042 349.773 322.827 380.406 321.756C411.036 320.688 428.967 269.787 433.461 250.749C445.551 199.536 406.221 182.763 375.591 183.831ZM385.197 269.157C370.692 271.014 356.928 268.374 342.615 266.547C338.598 264.693 335.385 262.257 336.153 259.233C336.171 259.152 336.213 259.074 336.228 258.993C336.246 258.981 336.27 258.984 336.282 258.969C344.811 245.613 354.846 237.186 368.601 235.149C378.996 233.601 393.186 234.882 399.555 236.136C404.988 237.207 411.027 238.218 417.108 241.851C417.15 245.016 416.931 245.967 416.172 249.27C414.765 252.63 414.24 265.434 385.197 269.157Z" fill="#93614A"/>
<path d="M419.109 240.702C415.089 220.152 389.325 206.919 361.551 211.116C333.78 215.325 314.544 235.389 318.567 255.936C322.584 276.483 348.357 289.716 376.125 285.513C403.899 281.298 423.129 261.246 419.109 240.702ZM416.175 249.27C414.765 252.633 414.24 265.434 385.2 269.157C370.695 271.014 356.931 268.374 342.618 266.547C338.601 264.693 335.388 262.257 336.156 259.233C336.174 259.152 336.216 259.074 336.231 258.993C336.249 258.981 336.273 258.984 336.285 258.969C344.814 245.613 354.849 237.186 368.604 235.149C378.999 233.601 393.189 234.882 399.558 236.136C404.991 237.207 410.739 238.428 417.111 241.851C417.15 245.016 416.934 245.967 416.175 249.27Z" fill="url(#paint6_radial_4:291)"/>
<path d="M416.175 249.27C416.934 245.967 417.15 245.019 417.111 241.851C410.835 238.326 404.991 237.21 399.558 236.136C393.189 234.882 378.996 233.601 368.604 235.149C354.846 237.186 344.811 245.613 336.285 258.969C336.273 258.984 336.249 258.981 336.231 258.993C336.213 259.074 336.171 259.152 336.156 259.233C335.388 262.254 338.601 264.69 342.618 266.547C356.931 268.374 370.695 271.014 385.2 269.157C414.24 265.434 414.765 252.63 416.175 249.27Z" fill="url(#paint7_radial_4:291)"/>
<path d="M369.819 227.244C359.934 228.861 350.301 233.406 341.379 239.079C339.468 240.291 337.278 241.674 333.816 243.432C336.3 242.868 338.598 241.581 340.743 240.399C338.535 242.493 336.477 244.986 334.797 247.401C342.36 237.924 356.688 230.787 368.874 228.354C380.58 226.017 401.841 227.562 417.63 234.48C403.173 226.347 382.086 225.24 369.819 227.244Z" fill="#652E15"/>
<path d="M399.942 232.689C404.958 233.904 415.299 237.972 417.924 241.473C418.539 244.869 414.642 241.629 413.718 241.122C402.426 234.93 383.115 233.478 368.619 235.593C354.855 237.588 344.811 245.814 336.276 258.834C333.054 263.562 343.71 219.057 399.942 232.689ZM385.185 268.71C370.653 270.54 356.868 267.96 342.528 266.193C339.126 265.782 366.642 272.838 386.427 271.032C414.279 268.485 419.01 254.712 416.862 248.523C414.393 249.069 418.128 264.57 385.185 268.71Z" fill="#1B2A40"/>
<path d="M423 341.922C423.105 409.788 368.124 464.904 300.186 464.997C232.26 465.108 177.102 410.178 176.997 342.297C176.892 274.437 231.873 219.105 299.808 218.997C367.737 218.892 422.901 274.047 423 341.922Z" fill="url(#paint8_radial_4:291)"/>
<path d="M412.5 161.997C412.5 224.13 362.133 274.497 300.003 274.497C237.87 274.497 187.5 224.13 187.5 161.997C187.5 99.864 237.87 49.497 300.003 49.497C362.133 49.497 412.5 99.864 412.5 161.997Z" fill="url(#paint9_radial_4:291)"/>
<path d="M167.976 217.323C212.145 208.239 266.64 225.633 267.984 215.376C268.476 211.62 265.308 210.189 262.719 209.991C218.076 206.199 181.5 205.665 167.976 217.323Z" fill="#A46C47"/>
<path d="M432.024 217.323C387.852 208.239 333.36 225.633 332.016 215.376C331.524 211.62 334.692 210.189 337.281 209.991C381.924 206.199 418.5 205.665 432.024 217.323Z" fill="#A46C47"/>
<path opacity="0.2" d="M287.979 341.301C287.316 348.138 290.064 353.712 293.043 354.834C300.645 357.687 299.334 354.075 300.024 342.357C301.503 317.25 299.106 257.997 299.106 257.997C299.106 257.997 289.539 325.227 287.979 341.301Z" fill="#B28E7D"/>
<path d="M289.974 329.562C289.974 329.562 283.227 342.642 284.283 347.133C285.657 352.974 292.314 357.636 303.831 356.928C291.936 355.227 290.574 351.555 289.374 346.752C288.327 342.564 289.974 329.562 289.974 329.562Z" fill="#652E15"/>
<path d="M456.528 288.063C443.538 253.71 449.34 227.937 446.847 176.433C442.998 97.149 424.398 106.896 381.6 103.791C315.468 99 292.491 68.382 243.189 68.382C216.528 68.382 185.469 80.526 161.67 101.385C142.536 231.84 169.584 220.995 141.438 286.92C123.579 268.179 121.275 239.325 108.036 201.435C97.479 170.082 100.062 168.402 88.455 153.288C95.907 154.635 96.657 154.575 99.981 154.575C94.071 141.657 86.544 118.722 83.694 108.756C90.681 105.408 98.211 97.029 103.104 90.999C100.311 84.615 98.166 77.337 96.867 71.124C97.098 71.046 98.181 70.644 98.181 70.644L98.193 70.593C115.236 63.342 118.713 22.761 130.548 12.426C136.371 6.984 141.966 4.833 147.15 2.088C147.762 -3.597 148.035 -4.743 148.875 -8.802C177.081 -16.365 185.637 -12.399 225.465 -23.481C239.157 -27.291 248.592 -29.94 277.416 -28.731C287.991 -23.394 325.596 2.706 353.868 -23.925C375.63 -10.344 394.59 -8.61 421.74 6.831C467.277 33.501 473.472 52.272 470.796 95.511C502.275 137.406 495.297 187.212 481.527 237.201C472.917 268.149 464.658 278.283 456.528 288.063Z" fill="#A46C47"/>
<path d="M456 246C453 222 465 201 468 180C465 186 459 189 459 195C459 174 468 156 465 135C462 141 459 144 453 147C462 126 453 102 438 84C441 93 444 99 444 108C426 81 384 78 354 63C360 72 372 78 381 84C339 69 300 51 261 33C267.618 39.618 272.625 51.072 280.767 55.497C284.196 55.986 283.701 57.09 280.767 55.497C244.743 50.37 206.874 46.437 174 30C174 42 183 51 192 57C183 57 174 48 168 51C159 57 177 63 174 69C165 75 156 66 147 66C153 75 147 90 153 99C147 96 141 90 141 93C138 105 132 108 132 117C132 132 141 147 141 162C141 157.176 135.186 158.163 132.909 155.619C147.936 197.544 147.255 241.695 140.727 286.11C140.973 286.377 141.189 286.662 141.438 286.923C169.584 220.998 142.536 231.843 161.67 101.388C185.469 80.529 216.528 68.385 243.189 68.385C292.494 68.385 315.471 99.006 381.603 103.791C424.401 106.899 443.001 97.149 446.85 176.433C449.34 227.937 443.538 253.71 456.531 288.063C456.546 288.048 456.558 288.03 456.573 288.015C458.523 265.785 465 245.388 465 225C462 231 459 237 456 246Z" fill="#85481F"/>
<path d="M477.789 214.464C476.862 216.435 471 217.029 471 219C471 210 481.548 203.271 479.772 188.208C479.772 189.396 470.298 197.058 469.347 198.246C468.729 201.246 482.211 166.203 482.211 154.62C477.789 161.997 474 162 474 168C474 156 473.982 138.438 473.982 126.438C473.982 132.438 468 141.285 468 147.285C470.799 124.893 457.788 99 455.16 76.782C453.627 82.167 450.723 88.449 453 93C444 81 447 60 432 51C429 57 429 63 426 69C417 57 405 48 399 36C399 42 399 45 399 51C384 39 363 33 354 15C354 21 354 30 354 36C342 33 322.515 22.212 316.515 13.212C316.515 22.212 327 36 327 45C303 33 285 15 261 3C261 9 267 15 264 21C252 15 228.687 15 222.687 3C222.687 12 232.017 21 232.017 30C205.017 27 198.99 18.534 174.291 7.212C171.291 13.212 168 21 165 27C159 21 156 15 147 15C147 24 156 36 150 45C147 48 135 36 135 39C129 51 135 69 129 81C129 84 120 75 114 78C125.616 95.421 117.606 115.644 125.235 133.248C125.529 133.794 125.79 134.37 126 135C125.712 134.421 125.49 133.833 125.235 133.248C121.356 125.964 110.79 125.37 108 117C108 138.909 120.471 158.322 124.935 179.796C126.45 180.699 127.212 182.364 126 186C125.739 183.909 125.358 181.845 124.935 179.796C122.691 178.458 118.788 178.788 117 177C131.184 205.365 135.573 254.019 140.727 286.107C151.362 239.985 145.854 191.739 132.909 155.616C132.354 154.998 132 154.176 132 153C132.327 153.87 132.594 154.746 132.909 155.619C135.189 158.163 141 157.176 141 162C141 147 132 132 132 117C132 108 138 105 141 93C141 90 147 96 153 99C147 90 153 75 147 66C156 66 165 75 174 69C177 63 159 57 168 51C174 48 183 57 192 57C183 51 174 42 174 30C206.874 46.437 244.743 50.37 280.767 55.497C272.625 51.072 267.618 39.618 261 33C300 51 339 69 381 84C372 78 360 72 354 63C384 78 426 81 444 108C444 99 441 93 438 84C453 102 462 126 453 147C459 144 462 141 465 135C468 156 459 174 459 195C459 189 465 186 468 180C465 201 453 222 456 246C459 237 462 231 465 225C465 245.388 458.523 265.785 456.567 288.012C459.009 285.075 461.466 282.087 463.938 278.523C463.635 256.287 472.437 238.014 477.789 214.464Z" fill="#955932"/>
<path d="M279.357 54.705C275.973 54.972 271.953 55.542 264.537 54.417C244.443 51.636 178.686 49.038 175.107 28.455C178.272 38.514 197.322 41.352 211.719 44.049C211.719 44.049 221.865 46.002 237.888 47.802C267.873 51.303 261.537 53.664 279.357 54.705ZM347.691 71.238C276 40.167 281.1 43.593 264.357 32.955C286.356 51.423 293.874 51.471 332.214 69.009C349.977 77.01 353.448 76.692 377.607 82.455C360.672 75.723 358.677 75.861 347.691 71.238ZM355.857 62.205C385.599 86.664 421.881 80.58 445.107 107.205C426.492 77.754 385.554 80.724 355.857 62.205ZM179.715 51.993C171.711 49.578 167.724 50.703 163.857 53.205C176.532 47.238 189.81 61.974 205.107 57.705C198.018 58.569 179.715 52.59 179.715 51.993ZM171.153 71.796C164.169 69.594 155.544 65.859 149.7 66.015C146.61 66.087 145.857 67.455 145.857 67.455C148.782 64.038 162.684 70.752 171.045 72.333C173.343 72.813 175.107 72.702 175.107 72.702C175.107 72.702 173.349 72.528 171.153 71.796ZM136.956 107.034C139.017 101.358 141.339 95.781 140.724 90.588C140.412 88.707 139.797 87.723 139.857 87.708C141.249 93.627 138.918 97.233 134.817 106.116C125.772 125.475 137.589 140.568 142.107 161.208C140.58 137.598 129.498 127.167 136.956 107.034ZM463.107 137.955C464.067 144.459 463.782 148.845 462.645 159.18C462.645 159.18 460.56 176.517 456.357 193.455C462.594 178.914 467.82 154.167 463.107 137.955ZM467.607 184.455C457.446 212.616 455.799 222.993 454.107 245.205C465.297 193.491 459.852 219.462 467.607 184.455Z" fill="#A46C47"/>
<path d="M344.607 -5.29504C326.229 -2.40004 307.047 -0.0930433 272.607 -21.045C305.847 -5.99704 322.002 -4.55104 344.607 -5.29504ZM385.203 0.569956C366.975 -6.01204 365.778 -13.734 352.107 -18.045C364.584 -12.393 364.488 -5.13604 380.784 2.23796C388.71 5.98495 416.25 13.584 433.107 24.555C418.215 11.382 408.198 9.17696 385.203 0.569956ZM181.857 -6.04504C216.636 -5.32204 222.18 -14.202 262.107 -18.795C226.209 -19.242 222.408 -10.683 181.857 -6.04504ZM272.607 -5.29504C286.614 -3.61804 306.822 8.94296 313.107 23.205C308.52 7.21496 288.603 -5.20504 272.607 -5.29504ZM350.607 -0.795044C364.563 6.62996 369.531 22.302 386.607 25.455C369.852 19.911 366.534 5.40896 350.607 -0.795044ZM326.607 2.20496C330.186 8.30396 335.397 14.526 349.107 23.205C333.108 10.059 330.363 7.29296 326.607 2.20496ZM396.357 16.455C411.702 18.336 427.71 33.444 429.357 50.205C430.125 33.687 415.284 16.743 396.357 16.455ZM448.374 42.021C441.453 33.183 435.357 31.095 432.357 29.955C436.641 32.178 441.348 35.13 446.955 43.113C446.955 43.113 457.266 56.823 461.607 71.955C458.613 53.721 448.374 42.021 448.374 42.021ZM163.107 -0.795044C163.662 -1.96804 179.079 4.80296 180.297 5.29496C183.984 6.73196 202.446 14.196 208.857 14.955C205.854 14.151 163.269 -4.24204 163.107 -0.795044ZM137.607 17.955C139.653 20.643 141.981 24.744 143.637 27.69C143.637 27.69 144.525 29.259 145.35 30.867C146.16 32.478 146.88 34.125 146.88 34.125C148.902 38.736 149.865 41.583 150 45C150.756 36.057 143.106 23.616 137.607 17.955ZM128.607 26.955C121.056 45.402 121.14 56.079 128.607 74.955C123.918 56.043 122.958 47.091 128.607 26.955Z" fill="#B38160"/>
<path d="M471.717 95.235C472.401 84.735 472.686 78.183 471.777 67.815C468.363 37.428 450.126 22.407 422.19 6.04499C394.716 -9.57901 375.651 -11.208 353.757 -25.065C325.755 2.06099 287.952 -24.513 277.647 -29.625C227.319 -31.773 235.074 -22.071 179.397 -15.285C158.865 -12.966 150.387 -10.125 150.387 -10.125C149.607 -9.91501 148.827 -9.73501 148.107 -9.52501C147.507 -6.52501 146.964 -4.67701 146.307 1.51499C141.759 3.91799 135.855 6.23099 129.957 11.745C117.813 22.353 114.321 63.33 97.467 69.915V69.945C97.113 70.074 96.183 70.434 95.817 70.485C97.074 76.773 99.381 84.735 102.057 90.855C97.275 96.732 89.547 105.276 82.617 108.255C84.255 114.195 92.556 140.508 98.577 153.675C95.277 153.675 92.568 153.093 86.307 151.995C99.471 168.729 96.15 168.954 107.187 201.735C120.63 240.213 122.811 269.52 141.657 288.435C158.556 256.497 157.095 241.686 157.227 230.205C157.596 214.41 149.928 174.819 163.032 101.811C190.818 77.496 230.166 63.549 267.477 72.015C306.48 80.835 326.052 100.668 381.537 104.685C424.734 107.823 442.14 98.046 445.95 176.475C448.473 228.594 442.461 254.544 456.24 289.815C464.247 280.155 473.175 270.591 482.4 237.435C495.897 188.421 503.448 137.817 471.717 95.235ZM483.06 212.178C472.656 261.969 466.587 271.005 455.877 287.058C447.231 260.418 449.598 234.648 450.477 207.288C454.935 89.55 425.205 102.813 381.897 99.528C328.833 95.952 308.031 75.84 268.617 67.908C232.701 60.558 192.867 70.173 159.567 101.388C141.432 182.772 161.301 226.212 145.227 267.498C141.741 276.327 143.94 278.58 141.387 285.018C127.479 264.084 123.765 234.522 119.157 219.648C104.805 183.12 105.261 171.135 89.637 153.738C93.45 154.569 98.367 155.109 102.267 154.458C102.237 154.428 102.237 154.428 102.237 154.398C101.241 151.395 88.665 116.988 84.987 108.408C92.148 104.952 99.174 97.17 104.037 90.918C100.161 78.654 104.979 96.624 97.737 70.938C119.835 64.293 117.537 22.563 140.067 7.30799C143.058 5.31299 145.707 3.66899 148.647 1.81799C149.31 -3.81901 148.86 -0.495013 150.207 -9.07201C176.616 -14.511 187.407 -9.14401 225.747 -21.222C254.79 -28.29 275.655 -28.029 278.667 -27.702C297.168 -16.116 307.635 -9.58801 329.397 -11.112C339.366 -11.928 347.295 -16.746 354.237 -23.832C366.267 -14.808 379.692 -9.33901 396.207 -1.78201C462.939 28.761 468.894 53.595 468.894 94.758C473.088 100.683 477.708 110.055 479.994 116.328C493.779 150.351 489.288 183.111 483.06 212.178Z" fill="#763810"/>
<path opacity="0.7" d="M379.17 323.61C332.19 323.61 315.6 272.19 315.6 259.05C315.6 233.28 336.57 212.28 362.37 212.28H416.64C436.2 212.28 452.13 228.18 452.13 247.74C452.1 291 420.75 323.61 379.17 323.61ZM220.83 323.61C267.81 323.61 284.4 272.19 284.4 259.05C284.4 233.28 263.43 212.28 237.63 212.28H183.33C163.77 212.28 147.87 228.18 147.87 247.74C147.9 291 179.25 323.61 220.83 323.61Z" fill="#604AB3"/>
<path opacity="0.1" d="M450.93 261.93C412.95 250.68 367.44 243.51 320.16 239.04C327.69 223.26 343.74 212.31 362.34 212.31H416.61C436.17 212.31 452.1 228.21 452.1 247.77C452.1 252.63 451.68 257.37 450.93 261.93ZM278.13 235.74C270.03 221.76 254.94 212.31 237.66 212.31H183.36C169.38 212.31 157.29 220.47 151.5 232.26C190.77 232.2 234.45 233.01 278.13 235.74Z" fill="#5B1D0D"/>
<path d="M416.64 210.87H362.37C345.21 210.87 330.15 219.84 321.63 233.34C310.35 236.67 290.04 236.76 278.46 233.34C269.91 219.84 254.85 210.87 237.72 210.87H183.42C163.05 210.87 146.52 227.4 146.52 247.77C146.52 290.52 176.46 323.94 219.21 325.02C266.91 326.25 285.9 275.73 285.9 259.05C285.9 255.24 285.45 251.55 284.61 247.98C289.8 244.59 310.2 244.53 315.48 247.98C314.64 251.52 314.19 255.24 314.19 259.05C314.19 275.7 333.18 326.25 380.91 325.02C423.63 323.94 453.6 290.52 453.6 247.77C453.54 227.4 437.01 210.87 416.64 210.87ZM220.83 322.2C180.66 322.2 149.31 291.36 149.31 247.8C149.31 229.02 164.58 213.75 183.36 213.75H237.66C262.65 213.75 282.99 234.09 282.99 259.08C282.99 271.92 266.76 322.2 220.83 322.2ZM379.17 322.2C333.24 322.2 317.01 271.92 317.01 259.08C317.01 234.09 337.35 213.75 362.34 213.75H416.61C435.39 213.75 450.66 229.02 450.66 247.8C450.66 291.36 419.34 322.2 379.17 322.2Z" fill="#1A1A1A"/>
<path d="M313.08 237.75C318.09 217.32 343.56 207.57 375.42 204.39C413.28 200.61 439.8 204.03 462.81 217.77C464.16 218.58 465 220.05 465 221.61V233.22C465 234.75 464.37 236.19 463.26 237.24L452.46 247.44C452.61 240.21 449.31 232.32 440.64 225.36C432.72 219.03 407.64 216.45 379.71 216.96C349.98 217.53 334.35 222.21 318.75 236.76L313.08 237.75ZM286.92 237.75C281.91 217.32 256.44 207.57 224.58 204.39C186.72 200.61 160.23 204 137.19 217.77C135.84 218.58 135 220.05 135 221.61V233.22C135 234.75 135.63 236.19 136.74 237.24L147.54 247.44C147.39 240.21 150.69 232.32 159.36 225.36C167.28 219.03 192.36 216.45 220.29 216.96C250.02 217.53 265.65 222.21 281.25 236.76L286.92 237.75Z" fill="black"/>
<path d="M462.12 231.9C461.7 222.12 460.32 221.34 456.18 218.67C456.18 218.67 452.49 216.18 447.42 213.96C440.49 210.87 437.91 209.94 432.66 208.23C440.67 209.79 460.23 215.79 461.94 223.71C462.57 226.29 462.36 229.23 462.12 231.9ZM377.85 206.01C355.71 208.53 330.69 212.85 317.94 231.06C331.29 215.07 352.11 211.35 377.85 206.01ZM143.79 218.64C147.51 216.15 152.55 213.93 152.55 213.93C161.4 209.97 164.55 209.1 167.31 208.2C162.27 209.16 157.17 210.42 152.01 212.73C137.1 219.33 137.07 222.75 137.88 231.87C138.3 221.52 140.1 221.07 143.79 218.64ZM222.15 206.01C249.66 211.74 258.24 213.9 271.02 221.22C277.92 225.87 279.09 227.52 282.06 231.09C269.31 212.82 244.44 208.53 222.15 206.01Z" fill="#4D4D4D"/>
</g>
<defs>
<linearGradient id="paint0_linear_4:291" x1="300" y1="510" x2="300" y2="366" gradientUnits="userSpaceOnUse">
<stop stop-color="#844E35" stop-opacity="0.8"/>
<stop offset="0.7" stop-color="#652E15"/>
</linearGradient>
<linearGradient id="paint1_linear_4:291" x1="300" y1="423" x2="300" y2="411" gradientUnits="userSpaceOnUse">
<stop offset="0.1" stop-color="#8B573F"/>
<stop offset="1" stop-color="#844E35"/>
</linearGradient>
<radialGradient id="paint2_radial_4:291" cx="0" cy="0" r="1" gradientUnits="userSpaceOnUse" gradientTransform="translate(220.528 252.8) rotate(177.797) scale(43.7414 36.6678)">
<stop stop-color="white"/>
<stop offset="0.544" stop-color="#FDFEFE"/>
<stop offset="0.74" stop-color="#F6F8F9"/>
<stop offset="0.879" stop-color="#EAEFF2"/>
<stop offset="0.992" stop-color="#D9E3E8"/>
<stop offset="1" stop-color="#D8E2E7"/>
</radialGradient>
<radialGradient id="paint3_radial_4:291" cx="0" cy="0" r="1" gradientUnits="userSpaceOnUse" gradientTransform="translate(230.259 246.817) rotate(7.8743) scale(51.002 38.1704)">
<stop stop-color="#844E35"/>
<stop offset="0.7" stop-color="#844E35" stop-opacity="0.3"/>
<stop offset="1" stop-color="#93614A" stop-opacity="0"/>
</radialGradient>
<radialGradient id="paint4_radial_4:291" cx="0" cy="0" r="1" gradientUnits="userSpaceOnUse" gradientTransform="translate(216.084 283.103) rotate(-4.77486) scale(56.735 48.7105)">
<stop offset="0.95" stop-opacity="0"/>
<stop offset="1" stop-opacity="0.2"/>
</radialGradient>
<radialGradient id="paint5_radial_4:291" cx="0" cy="0" r="1" gradientUnits="userSpaceOnUse" gradientTransform="translate(378.274 252.801) rotate(2.203) scale(43.7381 36.665)">
<stop stop-color="white"/>
<stop offset="0.544" stop-color="#FDFEFE"/>
<stop offset="0.74" stop-color="#F6F8F9"/>
<stop offset="0.879" stop-color="#EAEFF2"/>
<stop offset="0.992" stop-color="#D9E3E8"/>
<stop offset="1" stop-color="#D8E2E7"/>
</radialGradient>
<radialGradient id="paint6_radial_4:291" cx="0" cy="0" r="1" gradientUnits="userSpaceOnUse" gradientTransform="translate(368.541 246.818) rotate(172.126) scale(50.999 38.1681)">
<stop stop-color="#844E35"/>
<stop offset="0.7" stop-color="#844E35" stop-opacity="0.3"/>
<stop offset="1" stop-color="#93614A" stop-opacity="0"/>
</radialGradient>
<radialGradient id="paint7_radial_4:291" cx="0" cy="0" r="1" gradientUnits="userSpaceOnUse" gradientTransform="translate(382.718 283.104) rotate(-175.225) scale(56.735 48.7105)">
<stop offset="0.95" stop-opacity="0"/>
<stop offset="1" stop-opacity="0.2"/>
</radialGradient>
<radialGradient id="paint8_radial_4:291" cx="0" cy="0" r="1" gradientUnits="userSpaceOnUse" gradientTransform="translate(300 342) scale(123)">
<stop stop-color="#A27662" stop-opacity="0.5"/>
<stop offset="0.9" stop-color="#93614A" stop-opacity="0"/>
</radialGradient>
<radialGradient id="paint9_radial_4:291" cx="0" cy="0" r="1" gradientUnits="userSpaceOnUse" gradientTransform="translate(300 162) scale(111)">
<stop stop-color="#A27662" stop-opacity="0.5"/>
<stop offset="0.9" stop-color="#93614A" stop-opacity="0"/>
</radialGradient>
<clipPath id="clip0_4:291">
<rect width="600" height="600" fill="white"/>
</clipPath>
</defs>
</svg>
