<svg viewBox="0 0 600 600" fill="none" xmlns="http://www.w3.org/2000/svg">
<g clip-path="url(#clip0_5:588)">
<path d="M675 675H-75V-75H675V675Z" fill="#ECE5CE"/>
<path d="M600 615V-15M0 -15V615V-15ZM30 615V-15V615ZM60 615V-15V615ZM90 615V-15V615ZM120 615V-15V615ZM150 615V-15V615ZM180 615V-15V615ZM210 615V-15V615ZM240 615V-15V615ZM270 615V-15V615ZM300 615V-15V615ZM330 615V-15V615ZM360 615V-15V615ZM390 615V-15V615ZM420 615V-15V615ZM450 615V-15V615ZM480 615V-15V615ZM510 615V-15V615ZM540 615V-15V615ZM570 615V-15V615Z" stroke="#DDD1AB" stroke-width="15"/>
<path d="M301.5 301.5H298.5V298.5H301.5V301.5Z" fill="#CAC1B2"/>
<path d="M586.251 599.334C579.663 585.096 561.666 563.997 541.671 558.168C516.954 550.959 461.16 542.244 440.472 537.399C423.888 533.511 390.486 503.517 378.78 493.449C376.68 491.649 374.961 487.932 374.919 485.169C374.502 452.577 387.504 365.997 387.504 365.997H300H212.499C212.499 365.997 225.501 452.574 225.078 485.169C225.045 487.932 223.317 491.649 221.223 493.449C209.517 503.517 176.115 533.511 159.531 537.399C138.84 542.244 83.046 551.256 58.332 558.465C38.331 564.291 20.34 585.093 13.752 599.331C2.628 623.355 0 666.831 0 704.331H300H600C600 666.834 597.369 623.358 586.251 599.334Z" fill="#582812"/>
<path d="M477.468 552.174C550.494 562.8 581.226 578.298 590.85 704.337H600C600 666.837 597.369 623.361 586.251 599.337C579.663 585.099 561.666 564 541.671 558.171C516.954 550.962 461.16 542.247 440.472 537.402C423.888 533.514 385.746 501.195 375.543 488.352C385.623 502.464 413.916 535.167 438.705 543.732C450.564 547.83 460.44 549.696 477.468 552.174ZM161.298 543.732C186.087 535.17 214.377 502.464 224.46 488.352C214.26 501.192 176.118 533.514 159.531 537.402C138.843 542.247 83.049 551.259 58.332 558.468C38.337 564.294 20.34 585.096 13.752 599.334C2.63399 623.358 0.00299072 666.834 0.00299072 704.334H9.15299C18.717 579.102 49.578 562.785 122.535 552.171C139.56 549.696 149.439 547.83 161.298 543.732Z" fill="#67361F"/>
<path d="M286.938 592.86C286.938 592.86 271.716 588.033 265.689 585.723C234.342 573.696 132.504 565.902 132.504 565.902C132.504 565.902 239.766 570.159 263.436 574.239C262.062 559.938 254.385 514.227 254.385 514.227C254.385 514.227 269.832 564.672 273.612 577.398C275.634 584.202 286.938 592.86 286.938 592.86ZM319.335 588.834C319.068 589.053 318.762 589.338 318.429 589.638C318.768 589.383 319.074 589.116 319.335 588.834ZM286.938 592.86C286.938 592.86 295.617 601.836 299.979 601.95C305.709 602.103 314.463 593.253 318.432 589.638C314.637 592.509 305.955 593.811 302.502 593.946C298.512 594.099 286.938 592.86 286.938 592.86ZM349.992 570.303C345.357 571.047 336.834 572.67 336.834 572.67L343.695 528C341.757 537.213 330.273 576.633 319.335 588.834C325.065 583.986 337.809 581.661 344.307 580.722C375.015 576.27 375.003 576.273 467.493 565.902C467.493 565.902 380.28 565.437 349.992 570.303Z" fill="#491C08"/>
<path d="M586.251 599.334C579.663 585.096 561.666 563.997 541.671 558.168C516.954 550.959 461.16 542.244 440.472 537.399C423.888 533.511 390.486 503.517 378.78 493.449C376.68 491.649 374.961 487.932 374.919 485.169C374.502 452.577 387.504 365.997 387.504 365.997H300H212.499C212.499 365.997 225.501 452.574 225.078 485.169C225.045 487.932 223.317 491.649 221.223 493.449C209.517 503.517 176.115 533.511 159.531 537.399C138.84 542.244 83.046 551.256 58.332 558.465C38.331 564.291 20.34 585.093 13.752 599.331C2.628 623.355 0 666.831 0 704.331H300H600C600 666.834 597.369 623.358 586.251 599.334Z" stroke="#2A0D00" stroke-width="4.5"/>
<path d="M226.551 489.156C247.488 502.776 275.472 515.598 300.006 515.598C323.49 515.598 352.041 502.671 373.38 488.991C372.945 487.707 372.681 486.405 372.663 485.199C372.285 455.568 382.698 383.136 384.891 368.25H215.109C217.299 383.139 227.715 455.568 227.331 485.196C227.316 486.438 227.028 487.809 226.551 489.156Z" fill="url(#paint0_linear_5:588)"/>
<path d="M305.064 703.185C228.669 703.185 130.47 702.735 100.947 701.469C114.252 637.527 109.281 604.59 94.698 546.333C116.052 541.092 130.461 538.725 141.042 536.988C152.415 535.122 159.51 533.958 165.84 530.667C195.828 562.113 246.579 594.783 293.28 597.528C295.839 597.693 298.455 597.777 301.05 597.777C344.472 597.774 393.594 573.657 435.96 531.579C441.645 533.943 452.052 535.794 465.036 538.101C477.297 540.282 491.136 542.742 505.311 546.333C504.873 548.226 504.267 550.566 503.556 553.32C497.268 577.68 482.619 634.449 499.071 701.739C472.77 702.741 383.526 703.188 305.079 703.188C305.07 703.185 305.067 703.185 305.064 703.185Z" fill="#6A3A47"/>
<path d="M505.311 546.327C504.873 548.22 504.267 550.56 503.556 553.314C503.436 553.779 503.307 554.28 503.181 554.772C500.358 554.112 497.538 553.488 494.721 552.879C485.055 578.826 483.159 606.429 477.003 634.293C479.733 607.008 484.989 579.723 492.684 552.441C479.364 549.597 466.17 547.125 453.282 544.083C427.02 573.213 401.19 593.652 357.003 607.713C392.904 591.117 423.519 570.687 448.92 543.039C442.431 541.425 436.02 539.643 429.732 537.537C431.82 535.581 433.908 533.613 435.963 531.573C441.648 533.937 452.055 535.788 465.039 538.095C477.297 540.276 491.136 542.736 505.311 546.327ZM154.785 541.848C160.527 540.285 166.215 538.59 171.783 536.643C169.722 534.651 167.739 532.656 165.843 530.664C159.513 533.958 152.418 535.119 141.045 536.985C130.464 538.722 116.055 541.089 94.701 546.33C95.52 549.606 96.306 552.792 97.065 555.918C101.406 554.703 105.822 553.596 110.265 552.513C121.284 585.825 122.226 617.154 125.031 647.997C127.467 613.887 122.862 583.275 114.009 551.607C126.057 548.76 138.33 546.141 150.408 543.006C171.645 577.635 209.007 603.948 256.668 612.933C216.423 602.889 175.497 575.961 154.785 541.848Z" fill="#794E5A"/>
<path d="M435.627 529.788C398.265 567.15 346.206 599.415 293.367 596.028C247.191 593.313 196.059 560.544 166.137 528.798C154.038 535.629 139.773 533.61 92.877 545.235C107.682 604.167 113.115 636.66 99.117 702.885C149.025 705.324 456.012 705.156 500.967 703.158C481.464 625.782 503.541 562.095 507.087 545.235C476.262 537.267 445.635 534.552 435.627 529.788ZM160.377 534.558C163.176 533.439 163.53 533.034 165.237 531.948C211.425 584.922 272.589 617.913 337.947 599.058C377.187 588.12 408.102 562.917 435.534 532.458C439.995 535.143 448.914 537.042 451.947 537.648C361.113 641.16 216.96 633.216 151.617 536.835C151.746 536.835 160.251 534.588 160.377 534.558ZM489.387 599.205C485.493 641.004 485.718 666.984 498.117 700.905C364.089 699.087 243.549 698.343 101.787 701.112C105.552 690.792 108.549 680.382 110.517 668.925C119.433 603.201 103.239 568.215 95.697 546.612C98.076 546.141 105.78 544.962 105.867 544.962C117.402 568.968 128.706 657.309 115.887 693.582C116.175 692.922 118.482 687.489 118.617 686.742C118.647 686.682 118.677 686.562 118.647 686.415C118.587 686.295 118.497 686.175 118.497 686.145C118.182 685.8 119.457 680.835 119.577 680.382C131.619 638.001 118.857 565.851 107.307 544.722C110.307 544.233 141.081 539.412 150.987 537.012C160.476 551.853 162.333 553.215 170.247 562.512C195.468 590.196 234.801 610.152 262.947 614.025C337.011 625.911 399.204 601.737 451.287 540.585C452.007 539.685 452.7 538.815 453.357 537.945C460.818 539.361 458.727 539.205 493.287 544.815C492.339 547.815 486.603 563.547 482.82 577.815C476.97 602.673 471.954 648.27 478.287 671.625C482.826 691.059 481.377 682.989 481.377 686.835C481.584 687.522 483.9 693.114 484.107 693.585C483.549 692.001 481.917 686.595 481.917 686.595C482.91 686.595 480.003 672.18 479.82 671.175C472.881 639.249 485.13 578.406 494.7 545.025C495.315 545.118 503.301 546.384 504.3 546.585C497.931 564.78 490.05 585.342 489.387 599.205Z" fill="#3C0F1B"/>
<path d="M140.334 250.839C132.465 246.399 114.609 225.279 106.92 228.288C101.955 230.226 99.789 244.8 99.006 250.698C98.007 258.273 96.219 273.831 98.022 281.253C100.197 290.208 108.915 306.774 114.132 314.334C118.536 320.7 129.765 331.725 133.353 338.598C135.63 342.96 137.832 354.717 145.602 353.958C150.624 353.466 162.213 344.742 162.834 340.602C166.218 318.171 155.829 259.584 140.334 250.839Z" fill="#582812" stroke="#2A0D00" stroke-width="4.5"/>
<path d="M129.939 299.28C129.564 297.612 129.957 294.807 130.338 292.095C130.683 289.623 131.01 287.292 130.812 285.642C130.059 279.462 125.832 267.717 123.078 261.351C119.901 254.031 114.765 244.806 108.321 242.43C105.657 241.44 103.902 242.619 102.882 243.813C102.138 244.689 101.967 245.721 102.213 245.841C102.459 245.964 103.011 245.109 103.818 244.305C104.475 243.648 105.444 243.084 106.767 243.201C106.233 246.279 103.494 262.947 104.679 274.308C105.612 283.242 109.146 289.914 109.698 290.916C109.782 291.972 109.917 293.001 110.115 294C112.722 307.041 124.059 321.87 128.004 326.724C128.733 327.618 129.492 328.152 129.684 327.936C129.87 327.714 129.423 326.832 128.694 325.932C124.8 321.105 113.568 306.333 111.057 293.748C108.387 280.398 117.558 260.604 119.604 256.419C120.648 258.384 121.533 260.274 122.214 261.846C122.751 263.082 123.348 264.528 123.957 266.088C122.751 268.275 114.324 284.214 117.396 296.973C118.536 301.677 123.66 307.74 127.065 309.402C128.937 310.32 129.642 311.685 130.455 313.266C131.397 315.105 132.474 317.187 135.579 318.696C136.212 318.999 136.785 319.128 137.292 319.128C138.171 319.128 138.837 318.75 139.329 318.285C139.38 319.089 139.377 320.118 139.35 321.069C139.32 322.302 139.473 323.31 139.737 323.337C140.001 323.361 140.283 322.383 140.313 321.159C140.361 319.65 140.352 317.784 140.112 316.893C139.416 314.262 137.286 311.292 135.03 308.148C132.81 305.055 130.512 301.854 129.939 299.28ZM109.614 287.715C103.509 267.24 109.614 248.436 110.988 245.628C113.373 247.983 117.312 252.267 119.025 255.345C117.774 257.814 109.869 273.945 109.614 287.715ZM135.954 317.673C133.14 316.305 132.195 314.472 131.283 312.702C130.458 311.097 129.603 309.441 127.44 308.382C126.969 308.151 126.45 307.803 125.925 307.398C118.953 289.434 126.687 281.58 128.622 279.972C129.219 282.165 129.66 284.181 129.855 285.795C130.038 287.28 129.705 289.635 129.387 291.918C128.991 294.744 128.583 297.666 129.006 299.556C129.639 302.376 132.003 305.67 134.286 308.856C136.317 311.685 138.405 314.601 139.113 316.98C138.813 317.454 137.847 318.585 135.954 317.673Z" fill="#2A0D00"/>
<path d="M458.883 250.839C466.752 246.399 484.605 225.279 492.294 228.288C497.262 230.226 499.431 244.8 500.211 250.698C501.213 258.273 502.995 273.831 501.195 281.253C499.02 290.208 490.302 306.774 485.082 314.334C480.681 320.7 469.449 331.725 465.864 338.598C463.584 342.96 461.388 354.717 453.612 353.958C448.59 353.466 437.007 344.742 436.38 340.602C432.996 318.171 443.385 259.584 458.883 250.839Z" fill="#582812" stroke="#2A0D00" stroke-width="4.5"/>
<path d="M464.187 308.148C461.931 311.289 459.798 314.262 459.102 316.893C458.868 317.784 458.856 319.65 458.904 321.159C458.94 322.38 459.219 323.358 459.483 323.337C459.747 323.31 459.9 322.302 459.87 321.069C459.84 320.121 459.84 319.089 459.888 318.285C460.38 318.75 461.049 319.128 461.928 319.128C462.432 319.128 463.005 318.999 463.638 318.696C466.743 317.187 467.823 315.108 468.765 313.266C469.578 311.685 470.283 310.32 472.158 309.402C475.557 307.74 480.684 301.677 481.827 296.973C484.896 284.214 476.472 268.275 475.263 266.088C475.872 264.528 476.469 263.082 477.009 261.846C477.684 260.274 478.572 258.384 479.616 256.419C481.662 260.604 490.83 280.398 488.16 293.748C485.646 306.333 474.414 321.102 470.523 325.932C469.797 326.832 469.344 327.714 469.533 327.936C469.725 328.149 470.487 327.618 471.216 326.724C475.158 321.87 486.498 307.041 489.105 294C489.303 293.001 489.438 291.969 489.522 290.916C490.074 289.914 493.611 283.242 494.544 274.308C495.729 262.944 492.99 246.279 492.459 243.201C493.782 243.084 494.751 243.648 495.405 244.305C496.209 245.109 496.764 245.961 497.01 245.841C497.25 245.718 497.079 244.689 496.341 243.813C495.315 242.622 493.563 241.44 490.902 242.43C484.458 244.806 479.319 254.031 476.142 261.351C473.382 267.72 469.164 279.462 468.408 285.642C468.21 287.292 468.537 289.626 468.882 292.095C469.263 294.807 469.65 297.612 469.281 299.28C468.702 301.854 466.407 305.055 464.187 308.148ZM480.192 255.345C481.902 252.267 485.841 247.98 488.226 245.628C489.597 248.436 495.708 267.24 489.603 287.715C489.345 273.945 481.44 257.814 480.192 255.345ZM460.101 316.98C460.809 314.601 462.897 311.685 464.928 308.856C467.214 305.667 469.575 302.376 470.208 299.556C470.631 297.663 470.226 294.744 469.827 291.918C469.512 289.638 469.176 287.28 469.359 285.795C469.557 284.178 469.998 282.165 470.595 279.972C472.53 281.58 480.264 289.434 473.289 307.398C472.761 307.8 472.245 308.148 471.777 308.382C469.608 309.441 468.753 311.097 467.934 312.702C467.019 314.472 466.077 316.305 463.257 317.673C461.367 318.585 460.401 317.454 460.101 316.98Z" fill="#2A0D00"/>
<path d="M300.006 2.60095C199.152 2.75995 117.246 85.608 117.402 187.68C117.429 203.889 119.514 219.606 123.408 234.582H123.411C123.447 234.744 154.278 328.884 162.255 366.747C169.395 400.641 201.132 428.133 215.415 443.115C231.825 460.341 252.336 485.826 300.006 485.601C347.673 485.826 368.187 460.341 384.597 443.115C398.88 428.133 430.617 400.641 437.757 366.747C445.734 328.884 476.568 234.747 476.598 234.582H476.604C480.498 219.606 482.586 203.889 482.61 187.68C482.769 85.608 400.86 2.75995 300.006 2.60095Z" fill="#582812"/>
<path d="M400.41 33.189C444.222 66.78 472.803 121.65 472.71 183.654C472.686 199.863 470.718 215.583 467.034 230.556H467.028C466.995 230.718 437.838 324.852 430.29 362.712C423.537 396.612 393.522 424.098 380.01 439.086C364.491 456.312 345.09 481.797 300.009 481.572C254.925 481.797 235.524 456.312 220.005 439.086C206.499 424.098 176.481 396.612 169.728 362.712C162.18 324.852 133.023 230.718 132.987 230.556H132.984C129.3 215.58 127.329 199.863 127.305 183.654C127.215 121.65 155.796 66.78 199.608 33.192C150.042 66.315 117.309 123.138 117.408 187.68C117.435 203.889 119.52 219.606 123.414 234.582H123.417C123.453 234.744 154.284 328.884 162.261 366.747C169.401 400.641 201.138 428.133 215.421 443.115C231.831 460.341 252.342 485.826 300.012 485.601C347.679 485.826 368.193 460.341 384.603 443.115C398.886 428.133 430.623 400.641 437.763 366.747C445.74 328.884 476.574 234.747 476.604 234.582H476.61C480.504 219.606 482.592 203.889 482.616 187.68C482.709 123.138 449.976 66.312 400.41 33.189Z" fill="#50220C"/>
<path d="M300.006 2.60095C199.152 2.75995 117.246 85.608 117.402 187.68C117.429 203.889 119.514 219.606 123.408 234.582H123.411C123.447 234.744 154.278 328.884 162.255 366.747C169.395 400.641 201.132 428.133 215.415 443.115C231.825 460.341 252.336 485.826 300.006 485.601C347.673 485.826 368.187 460.341 384.597 443.115C398.88 428.133 430.617 400.641 437.757 366.747C445.734 328.884 476.568 234.747 476.598 234.582H476.604C480.498 219.606 482.586 203.889 482.61 187.68C482.769 85.608 400.86 2.75995 300.006 2.60095Z" stroke="#2A0D00" stroke-width="4.5"/>
<path d="M284.577 412.281C285.354 412.287 317.631 411.984 317.631 411.984C317.631 411.984 308.109 414.126 300.036 414.048C293.064 413.991 284.577 412.281 284.577 412.281Z" fill="#491C08"/>
<path d="M259.611 407.994C257.664 406.068 270.999 399.369 277.572 397.353C285.879 394.707 294.015 396.843 302.472 396.204C310.185 395.619 317.175 393.999 324.735 396.432C331.566 398.631 344.472 405.576 343.611 407.235C342.744 408.909 331.044 402.126 324.477 400.695C316.953 399.093 310.134 401.418 302.637 402.159C294.963 402.921 287.388 400.02 279.717 401.238C272.76 402.342 260.682 409.053 259.611 407.994Z" fill="#2A0D00"/>
<path d="M249.213 267.375C239.334 265.023 234.306 270.552 219.786 270.873C195.615 271.404 189.972 269.019 186.189 262.959C184.62 260.448 183.12 257.175 182.397 255.156L182.097 242.709C186.081 230.862 240.72 229.653 259.797 248.061C260.658 250.059 261.096 251.922 261.192 253.662C260.622 256.536 259.656 259.296 258.351 261.909C256.233 264.339 253.065 266.187 249.213 267.375Z" fill="url(#paint1_radial_5:588)"/>
<path d="M240.114 257.514C237.507 267.09 227.628 272.733 218.031 270.102C208.44 267.474 202.779 257.568 205.389 247.989C207.996 238.404 217.893 232.761 227.484 235.395C237.066 238.02 242.727 247.926 240.114 257.514Z" fill="#3C8D8E" stroke="#0C5F60" stroke-width="1.5"/>
<path opacity="0.7" d="M236.901 248.769C235.194 251.388 230.793 251.544 227.073 249.12C223.353 246.696 221.721 242.61 223.428 239.991C225.132 237.375 229.536 237.219 233.256 239.64C236.97 242.067 238.602 246.156 236.901 248.769Z" fill="url(#paint2_linear_5:588)"/>
<path d="M161.187 252.294C160.041 262.206 190.749 318.306 221.4 318.306C252.051 318.306 279.9 302.43 279.9 252.297C279.9 198.93 252.051 186.294 221.4 186.294C190.749 186.294 166.878 203.112 161.187 252.294ZM182.4 255.159L182.1 242.712C186.084 230.865 240.723 229.656 259.8 248.064C263.988 257.757 258.573 264.495 249.213 267.378C239.334 265.026 234.306 270.555 219.786 270.876C195.615 271.407 189.972 269.022 186.189 262.962C184.62 260.448 183.12 257.178 182.4 255.159Z" fill="#582812"/>
<path d="M179.094 247.236C179.163 269.838 202.032 288.048 230.208 287.934C258.375 287.805 281.163 269.397 281.091 246.795C281.022 224.196 258.15 205.98 229.971 206.097C201.795 206.229 179.019 224.634 179.094 247.236ZM182.4 255.159L182.1 242.712C186.084 230.865 240.723 229.656 259.8 248.064C263.988 257.757 258.573 264.495 249.213 267.378C239.334 265.026 234.306 270.555 219.786 270.876C195.615 271.407 189.972 269.022 186.189 262.962C184.62 260.448 183.12 257.178 182.4 255.159Z" fill="url(#paint3_radial_5:588)"/>
<path d="M186.189 262.962C184.62 260.451 183.12 257.178 182.397 255.159L182.097 242.712C186.081 230.865 240.72 229.656 259.797 248.064C263.985 257.757 258.57 264.495 249.21 267.378C239.331 265.026 234.303 270.555 219.783 270.876C195.618 271.407 189.972 269.019 186.189 262.962Z" fill="url(#paint4_radial_5:588)"/>
<path d="M268.395 243.579C239.544 226.296 218.292 225.195 184.044 227.397C212.631 222.894 245.556 226.161 268.395 243.579Z" fill="#2A0D00"/>
<path d="M264.69 255.849C254.97 230.904 186.861 230.757 182.397 243.306V254.991C179.334 250.374 179.256 250.092 177.948 244.779L171.363 247.017C171.363 247.017 179.601 235.398 187.26 233.874C253.818 220.617 264.12 251.847 264.69 255.849ZM254.229 268.26C240.354 262.32 236.409 269.394 219.54 269.745C195.528 270.249 190.839 267.447 186.165 262.317C188.604 268.59 190.29 271.572 218.79 271.398C234.918 271.299 243.729 264.636 254.229 268.26Z" fill="#582311"/>
<path d="M349.587 267.375C359.466 265.023 364.494 270.552 379.014 270.873C403.185 271.404 408.828 269.019 412.611 262.959C414.18 260.448 415.68 257.175 416.403 255.156L416.703 242.709C412.719 230.862 358.08 229.653 339.003 248.061C338.142 250.059 337.704 251.922 337.608 253.662C338.178 256.536 339.144 259.296 340.449 261.909C342.567 264.339 345.735 266.187 349.587 267.375Z" fill="url(#paint5_radial_5:588)"/>
<path d="M394.614 257.514C392.007 267.09 382.128 272.733 372.528 270.102C362.94 267.474 357.276 257.568 359.886 247.989C362.493 238.404 372.393 232.761 381.981 235.395C391.566 238.02 397.224 247.926 394.614 257.514Z" fill="#3C8D8E" stroke="#0C5F60" stroke-width="1.5"/>
<path opacity="0.7" d="M391.401 248.769C389.694 251.388 385.293 251.544 381.573 249.12C377.856 246.696 376.221 242.61 377.928 239.991C379.632 237.375 384.033 237.219 387.753 239.64C391.47 242.067 393.102 246.156 391.401 248.769Z" fill="url(#paint6_linear_5:588)"/>
<path d="M377.403 186.294C346.752 186.294 318.903 198.93 318.903 252.297C318.903 302.43 346.752 318.306 377.403 318.306C408.054 318.306 437.076 264.21 437.613 252.294C439.851 202.833 408.054 186.294 377.403 186.294ZM412.611 262.962C408.828 269.022 403.182 271.407 379.014 270.876C364.494 270.555 359.466 265.026 349.587 267.378C340.227 264.495 334.812 257.757 339 248.064C358.077 229.656 412.716 230.865 416.7 242.712L416.4 255.159C415.683 257.178 414.183 260.448 412.611 262.962Z" fill="#582812"/>
<path d="M368.829 206.097C340.65 205.977 317.781 224.196 317.712 246.795C317.637 269.4 340.428 287.805 368.595 287.934C396.768 288.045 419.637 269.835 419.706 247.236C419.784 224.634 397.008 206.229 368.829 206.097ZM412.611 262.962C408.828 269.022 403.182 271.407 379.014 270.876C364.494 270.555 359.466 265.026 349.587 267.378C340.227 264.495 334.812 257.757 339 248.064C358.077 229.656 412.716 230.865 416.7 242.712L416.4 255.159C415.683 257.178 414.183 260.448 412.611 262.962Z" fill="url(#paint7_radial_5:588)"/>
<path d="M412.611 262.962C414.18 260.451 415.68 257.178 416.403 255.159L416.703 242.712C412.719 230.865 358.08 229.656 339.003 248.064C334.815 257.757 340.23 264.495 349.59 267.378C359.469 265.026 364.497 270.555 379.017 270.876C403.185 271.407 408.828 269.019 412.611 262.962Z" fill="url(#paint8_radial_5:588)"/>
<path d="M330.408 243.579C359.259 226.296 380.511 225.195 414.759 227.397C386.172 222.894 353.247 226.161 330.408 243.579Z" fill="#2A0D00"/>
<path d="M411.543 233.871C419.202 235.395 427.44 247.014 427.44 247.014L420.855 244.776C419.544 250.089 419.466 250.371 416.406 254.988V243.303C411.945 230.754 343.836 230.901 334.113 255.846C334.683 251.847 344.982 220.617 411.543 233.871ZM380.01 271.401C408.51 271.575 410.199 268.59 412.635 262.32C407.961 267.45 403.272 270.252 379.26 269.748C362.394 269.397 358.446 262.32 344.571 268.263C355.071 264.636 363.885 271.299 380.01 271.401Z" fill="#582311"/>
<path d="M423 341.922C423.105 409.788 368.124 464.904 300.186 464.997C232.26 465.108 177.102 410.178 176.997 342.297C176.892 274.437 231.873 219.105 299.808 218.997C367.737 218.892 422.901 274.047 423 341.922Z" fill="url(#paint9_radial_5:588)"/>
<path d="M412.5 161.997C412.5 224.13 362.133 274.497 300.003 274.497C237.87 274.497 187.5 224.13 187.5 161.997C187.5 99.8639 237.87 49.4969 300.003 49.4969C362.133 49.4969 412.5 99.8639 412.5 161.997Z" fill="url(#paint10_radial_5:588)"/>
<path d="M162 222.567C191.862 192.645 212.283 204.822 253.767 212.775C256.302 213.261 272.727 217.392 269.697 223.182C268.248 225.954 263.589 225.624 260.988 225.576C219.924 224.808 199.956 195.591 162 222.567Z" fill="#2A232B"/>
<path d="M438 222.567C408.141 192.645 387.717 204.822 346.233 212.775C343.695 213.261 327.273 217.392 330.3 223.182C331.749 225.954 336.408 225.624 339.009 225.576C380.073 224.808 400.044 195.591 438 222.567Z" fill="#2A232B"/>
<path d="M284.388 269.997C284.388 269.997 286.374 276.72 286.431 278.745C286.527 282.186 286.122 284.88 285.858 287.526C284.118 304.8 275.1 329.796 275.583 341.727C275.793 346.863 278.967 354.357 278.967 354.357C278.967 354.357 271.341 352.254 269.664 337.698C268.974 331.692 274.827 320.067 276.873 314.433C278.814 309.078 282.603 291.72 283.932 286.122C284.493 283.779 285.495 280.95 285.48 278.523C285.468 276.363 284.388 269.997 284.388 269.997ZM283.518 355.806C283.518 355.806 284.421 363.795 293.253 365.751C301.542 367.587 306.192 358.539 306.192 358.539C306.192 358.539 299.304 363.18 294.012 361.512C291.222 360.639 283.518 355.806 283.518 355.806ZM315.294 338.601C315.234 340.518 314.697 346.056 314.697 346.056C314.697 346.056 317.415 341.604 317.589 339.846C317.901 336.69 314.394 327.594 314.394 327.594C314.394 327.594 315.375 335.82 315.294 338.601Z" fill="#491C08"/>
<path d="M277.434 325.383C273.753 337.875 271.152 351.096 281.886 356.982C283.29 357.753 284.793 358.32 286.323 358.644C287.154 358.818 287.763 359.574 288.492 360.066C290.166 361.218 292.926 361.38 294.843 361.731C302.217 363.096 309.666 359.904 311.49 352.266C306.9 358.845 302.838 360.663 296.592 360.138C289.098 359.505 282.843 352.8 280.881 344.931C279.711 340.251 279.255 335.55 279.606 330.669C279.93 326.481 281.07 322.326 281.73 318.177C282.969 310.692 285.963 295.038 285.942 287.223C284.745 292.671 282.579 305.52 281.757 308.658C281.145 310.992 279.846 315.732 279.318 318.096C278.901 319.98 277.968 323.559 277.434 325.383ZM276.582 346.212C276.093 342.531 276.717 338.658 277.467 335.088C277.731 342.18 279.597 350.439 283.845 355.68C280.176 354.114 277.206 350.868 276.582 346.212C277.338 351.87 276.144 342.921 276.582 346.212Z" fill="#2A0D00"/>
<path d="M286.695 339.54C287.169 341.832 286.791 343.899 285.849 344.166C284.91 344.43 283.941 343.038 283.47 340.746C282.996 338.457 283.2 336.141 284.136 335.877C285.078 335.61 286.221 337.251 286.695 339.54Z" fill="#67361F"/>
<path d="M147.975 334.668C131.721 325.287 120.549 314.787 109.296 289.215C107.769 285.348 103.617 272.457 103.617 269.466C97.047 264.051 89.793 248.046 86.622 240.123C77.616 209.235 78.771 172.623 85.101 155.109L84.036 154.578C76.281 166.455 74.187 177.462 72.339 188.1C64.086 160.902 68.628 129.999 89.637 103.317C79.98 105.735 76.206 107.64 67.452 106.005C84.279 97.236 134.544 60.792 148.323 36.075C136.467 39.114 123.69 45.363 113.922 51.798C126.279 12.888 176.49 -19.203 217.179 -15.669C209.838 -22.191 203.493 -30.519 198.264 -38.562C209.337 -34.926 228.339 -27.504 246.876 -22.95C310.632 -9.58501 292.734 -15.495 351.702 -36.708C349.269 -27.972 349.29 -27.498 344.073 -15.099C386.694 -31.941 427.743 -14.409 440.613 9.55799H440.64C440.826 9.90299 441.006 10.254 441.186 10.602C435.414 8.66099 430.446 8.15699 424.443 7.81499C435.105 26.178 442.242 27.897 476.979 38.241C480.573 39.369 486.426 40.851 491.319 41.709C484.062 46.893 478.986 48.189 470.178 49.326C484.164 55.278 492.309 66.003 498.471 80.118C507.393 101.403 508.938 118.521 507.351 138.114C503.487 132.192 498.276 123.426 492.996 116.214L491.967 116.82C505.113 145.203 500.547 168.678 550.449 202.758C546.144 203.721 541.272 204.225 536.262 204.225C527.52 204.225 519.972 202.797 512.598 200.34C514.704 226.383 513.111 239.115 510.498 250.32C504.411 273.246 492.333 289.644 469.605 295.164C456.345 312.492 442.776 319.674 433.362 321.291C439.983 310.347 455.454 280.467 458.106 268.695L456.852 266.466C428.325 259.416 408.225 237.78 404.157 206.823C398.316 215.595 392.85 222.141 375.711 235.29C374.316 200.616 357.276 156.063 335.961 128.133C335.847 137.811 336.159 138.561 338.625 151.632H338.646C341.802 166.962 351.306 186.402 354.477 195.786C345.159 190.473 337.422 186.903 327.24 170.841C322.287 163.05 316.296 149.844 313.596 140.781L312.426 140.88C311.73 146.613 311.811 150.219 311.853 152.154C311.853 158.553 320.295 190.779 325.818 200.151C306.108 190.224 297.276 173.919 290.718 157.767L289.563 157.956C288.927 167.883 290.016 190.065 294.321 206.916C278.478 202.143 268.974 195.237 260.634 182.505C255.117 172.167 254.868 167.724 253.686 157.545C235.896 181.17 206.754 201.009 186.846 207.222C186.753 207.249 186.564 207.303 186.339 207.366C189.039 202.023 191.874 196.782 194.619 191.7C202.152 177.765 206.4 169.701 211.587 156.783C163.467 190.035 153.999 240.987 166.434 297.405C158.04 292.023 156.693 290.937 149.694 283.518C151.32 294.489 150.789 310.884 144.315 326.094L144.216 326.328L144.315 326.562C147.927 335.076 146.727 332.688 147.975 334.668Z" fill="#CAC1B2"/>
<path d="M375.612 233.892C373.878 200.322 357.843 158.01 337.575 130.362C379.701 141.855 390.825 208.866 375.612 233.892ZM318.033 109.176C307.197 130.842 316.749 174.279 354.471 195.789C337.575 175.722 322.857 155.577 318.033 109.176ZM325.359 199.299C303.783 175.188 294.291 141.777 294.318 111.6C283.773 130.362 287.898 181.065 325.815 200.154C325.668 199.905 325.512 199.578 325.359 199.299ZM267 111C253.902 132.309 238.626 190.143 294.318 206.919C261.144 179.568 261 149.712 267 111ZM186.33 207.369C186.555 207.306 186.744 207.249 186.837 207.225C206.121 201.21 236.754 178.521 254.655 155.88C255.813 148.308 255.735 142.443 257.283 135.003C243.411 160.521 202.989 195.789 186.33 207.369ZM158.073 267.441C137.352 234.972 154.503 173.157 162 166.725C149.925 174.156 123.873 242.682 158.073 267.441ZM489.009 214.641C486.303 260.256 461.022 291.885 433.896 321.18C464.952 315.249 498.105 264.672 489.009 214.641ZM374.238 39.024C417.438 62.844 428.412 74.754 444 129C444 89.889 420.081 35.961 374.238 39.024ZM329.232 30C319.206 70.8 337.575 99 367.803 111.6C347.982 92.955 328.335 59.061 329.232 30ZM105.873 170.049C126.099 171.186 156.081 159.942 162 135C147.975 153.627 135.774 164.058 105.873 170.049ZM356.796 19.5C400.671 2.601 429.171 6.144 441.183 10.602C430.764 3.915 389.607 -7.545 356.796 19.5ZM116.457 48.105C146.835 29.469 160.422 32.268 177.216 31.287C154.263 21.819 137.232 28.134 116.457 48.105ZM415.269 27.123C447.513 45.687 454.206 56.184 491.316 41.709C471 48.486 444 41.445 415.269 27.123ZM260.217 19.368C278.934 19.377 290.922 26.364 300 33.189C295.05 24.219 275.139 11.907 260.217 19.368ZM431.418 141.957C425.874 175.758 446.469 190.203 474.753 194.73C456.837 189.297 436.962 170.493 431.418 141.957ZM181.665 132.309C208.071 119.022 242.748 88.083 242.748 59.697C230.232 84.33 211.341 111 181.665 132.309ZM549.723 202.251C513.138 205.524 493.368 175.164 471 150C479.403 172.404 495.651 186.966 514.857 201.006C521.526 203.022 528.402 204.225 536.259 204.225C541.269 204.225 546.141 203.721 550.446 202.758C550.194 202.587 549.969 202.422 549.723 202.251ZM112.527 201.432C101.667 237.462 94.356 293.997 147.975 334.668C117.402 300 107.229 243.813 112.527 201.432ZM253.491 35.061C216.96 35.814 187.5 39 169.191 84.33C208.566 46.824 225.894 44.208 253.491 35.061ZM72.357 173.157C77.547 153.198 91.185 139.416 111.591 131.832C85.818 132.309 76.437 144.558 72.357 173.157ZM413.49 177.111C392.841 209.997 415.71 251.967 456.537 265.296C415.524 223.044 414.333 211.926 413.49 177.111ZM506.655 135.726C498.18 99 481.746 78.705 456.837 92.82C482.61 84.33 488.286 111.6 506.655 135.726ZM394.338 215.19C424.515 184.77 414.339 139.515 389.445 120.279C409.119 160.335 404.382 182.127 394.338 215.19Z" fill="#BBAB92"/>
<path d="M330.609 86.205C307.353 70.185 296.292 57.303 279.609 36.204C295.521 50.613 315.312 70.626 330.609 86.205ZM371.607 70.206C409.632 78.519 402.759 74.478 427.608 98.205C409.752 72.645 404.823 71.868 371.607 70.206ZM383.607 100.206C404.844 110.109 418.572 147.984 422.607 170.205C422.856 143.805 409.161 107.211 383.607 100.206ZM420.609 182.205C419.295 207.906 429.849 218.01 442.608 247.206C436.353 219.834 424.206 210.87 420.609 182.205ZM476.607 204.207C474.486 229.47 477.297 248.088 465.609 268.206C481.404 249.501 478.848 228.483 476.607 204.207ZM503.607 203.205C510.057 221.121 502.011 255.468 492.609 271.206C507.648 253.575 514.287 222.03 503.607 203.205ZM458.607 101.205C493.551 107.295 472.686 155.682 516.609 183.204C478.248 146.664 495.729 100.65 458.607 101.205ZM439.608 58.206C471.732 62.151 486.597 74.376 498.609 100.206C491.121 69.645 469.728 56.319 439.608 58.206ZM345.609 123.207C374.295 142.365 385.131 176.031 385.608 210.207C392.46 176.103 380.613 137.193 345.609 123.207ZM344.607 -3.79504C384.345 -8.19004 385.698 -9.58804 411.609 -2.79604C393.345 -12.402 379.377 -15.243 344.607 -3.79504ZM223.608 -21.795C251.13 -1.45204 311.571 16.092 336.609 -24.795C309.888 5.33096 259.704 -3.96904 223.608 -21.795ZM275.607 13.206C290.769 10.956 299.436 14.835 315.609 36.207C307.452 17.973 294.33 6.26096 275.607 13.206ZM247.608 25.206C222.06 22.245 199.236 23.052 188.607 50.205C203.433 27.873 216.669 28.233 247.608 25.206ZM143.607 24.207C157.656 12.069 186.201 -6.23104 210.606 -2.79304C187.29 -11.397 158.739 4.28996 143.607 24.207ZM104.607 89.205C129.324 81.342 154.764 68.886 166.608 46.206C152.535 63.099 129.942 74.496 104.607 89.205ZM149.607 87.207C146.022 125.298 125.406 135.549 107.607 164.208C136.908 134.754 153.537 121.557 149.607 87.207ZM205.608 141.207C168.732 145.014 153.519 196.554 155.607 233.208C161.454 199.314 173.823 151.683 205.608 141.207ZM225.609 119.205C222.564 142.146 219.789 153.633 209.61 182.205C224.313 158.856 227.163 140.826 225.609 119.205ZM289.608 107.205C282.348 131.949 277.215 157.608 287.607 181.206C283.068 159.063 286.875 142.293 289.608 107.205ZM263.607 46.206C255.69 79.044 251.553 91.515 236.607 113.205C256.935 93.873 262.647 75.117 263.607 46.206ZM315.609 101.205C303.066 120.732 302.217 137.64 307.608 160.206C307.14 136.473 307.416 122.76 315.609 101.205ZM332.607 109.206C325.125 128.433 326.526 143.25 334.608 159.207C330.264 142.779 329.037 132.591 332.607 109.206ZM146.607 170.205C130.365 188.166 132.069 214.167 134.607 238.206C137.688 210.051 135.207 189.795 146.607 170.205ZM120.609 192.207C112.578 214.911 111.141 245.889 124.608 267.207C116.814 245.877 118.083 213.405 120.609 192.207ZM98.607 144.207C85.674 174.093 82.767 198.111 96.606 235.206C91.752 203.01 90.435 183.702 98.607 144.207ZM78.609 144.207C111.777 91.413 132.135 108.51 145.608 82.206C125.76 105.252 99 88.923 78.609 144.207ZM216.609 58.206C216.966 76.692 208.539 90.684 201.609 111.207C211.566 94.509 220.974 77.04 216.609 58.206ZM419.607 13.206C428.055 31.05 449.049 40.371 467.607 40.206C452.889 37.158 430.533 27.558 419.607 13.206ZM436.608 140.205C435.834 156.387 447.297 172.953 460.608 181.206C451.941 173.382 438.981 154.935 436.608 140.205Z" fill="#D9D8D5"/>
<path d="M551.907 203.025C533.118 190.257 529.917 186.621 518.97 174.345C518.97 174.345 518.58 173.895 517.89 173.115C497.805 144.996 505.347 144.282 492.51 116.565C498.186 124.32 503.718 133.779 507.813 139.905C508.443 130.866 511.494 109.638 499.02 79.875C493.545 67.335 484.98 54.975 472.443 49.635C484.764 48.042 489.873 43.338 492.873 41.355C487.686 40.554 481.011 38.874 477.153 37.665C443.574 27.642 435.591 25.8 425.523 8.47498C433.302 8.91898 437.802 9.98398 442.383 11.655C441.963 10.785 441.483 9.85498 441.003 8.95498H440.973C435.918 -0.447017 423.891 -11.238 408.54 -17.175C388.56 -23.667 368.199 -25.272 345.183 -16.185C350.142 -27.945 350.1 -28.785 352.593 -37.665C292.338 -16.146 310.986 -10.128 247.023 -23.535C227.64 -28.296 207.432 -36.315 196.863 -39.645C200.289 -34.2 208.275 -22.785 215.433 -16.425C178.767 -19.617 125.082 11.133 112.863 53.235C124.635 45.222 138.603 39.192 147.123 37.005C134.214 60.147 82.233 98.301 65.643 106.245C75.744 108.51 79.974 106.353 88.083 104.325C71.541 125.325 63.501 153.273 70.323 182.775C70.323 182.805 70.323 182.805 70.323 182.805C71.076 186.003 71.517 187.551 72.513 190.635C74.478 179.349 76.263 167.586 84.543 154.905C78.594 171.363 76.608 207.903 86.073 240.345C89.493 248.892 96.666 264.438 103.023 269.745C103.023 270.939 105.642 281.574 108.753 289.455C119.988 314.979 131.13 325.956 149.673 336.315C146.46 330.789 149.217 336.573 144.873 326.325C149.472 315.519 150.933 306.375 150.933 295.575C151.005 292.383 150.687 286.089 150.573 285.315C156.933 292.062 159.12 293.427 167.343 298.695C147.687 211.995 187.533 174.135 210.285 158.412C203.079 176.379 193.596 191.493 185.193 208.305C185.673 208.182 186.753 207.87 186.993 207.795C186.993 207.795 186.993 207.795 187.023 207.795C209.301 200.847 238.359 178.881 253.263 159.105C254.304 168.063 254.697 172.65 260.133 182.835C269.106 196.527 279.252 203.166 295.173 207.795C290.508 190.323 289.563 167.352 290.163 157.995C297.36 175.722 306.453 191.277 326.343 201.015H326.373C326.793 201.225 327.243 201.435 327.633 201.645C322.47 196.443 312.453 159.444 312.453 152.145C312.405 150.03 312.345 146.535 313.02 140.955C315.855 150.486 321.936 163.62 326.73 171.165C337.458 188.082 345.417 191.223 355.53 197.085C352.2 186.459 345.369 174.393 340.083 155.055C339.42 152.655 339.15 151.035 339.123 151.035C337.053 140.016 336.456 137.859 336.543 129.885C355.257 154.398 374.022 199.41 375.153 236.475C385.482 228.579 395.841 220.386 403.773 208.485C407.844 239.334 429.504 260.265 456.456 266.985C456.783 267.585 457.143 268.185 457.476 268.785C455.004 279.849 439.314 310.605 432.186 322.065C441.627 320.985 456.057 313.8 469.956 295.695C492.804 290.157 504.957 273.54 511.086 250.455C513.39 240.582 515.424 227.493 513.273 201.195C527.043 205.788 541.806 205.575 551.907 203.025ZM150.267 281.505C149.703 274.674 148.647 267.681 147.147 260.805C149.778 263.805 151.956 266.193 158.037 271.005C158.52 277.731 159.411 284.859 160.917 291.915C157.917 289.299 153.039 285.711 150.267 281.505ZM451.377 241.755C455.208 248.058 460.362 252.873 458.31 264.585C456.873 261.585 453.744 252.615 451.377 241.755ZM511.56 200.475C510.195 237.753 508.308 279.798 471.417 293.745C495.285 260.211 489.351 245.31 490.32 225.465C487.878 239.196 490.011 229.452 487.35 250.695C483.459 270.615 461.988 309.276 437.25 319.125C439.083 316.551 442.929 310.311 445.38 306.438C458.442 285.225 463.077 272.439 463.5 257.808C463.44 256.788 463.32 256.188 463.32 256.188C462.312 248.184 455.706 240.114 450 234.408C449.283 229.923 446.658 211.29 445.44 191.568C444.633 202.668 444.426 218.475 446.037 230.568L446.07 230.598C448.656 248.265 452.802 261.222 455.157 264.438C450.504 262.569 449.847 262.095 446.847 260.478C420.681 246.018 411.987 230.862 406.467 203.838C411.255 195.666 411.681 190.71 413.127 184.398C413.127 184.368 413.127 184.368 413.127 184.338C414.669 179.637 411.447 155.565 411.447 152.508C411.447 152.148 411.507 151.908 411.534 151.848C411.279 152.109 411.246 154.272 411.234 154.638C410.547 176.178 412.932 183.063 402.894 202.668C402.057 204.018 401.334 205.548 400.344 206.928C393.843 215.286 394.323 215.397 377.004 231.648C379.041 197.907 360.837 150.681 336.567 127.398C336.897 116.178 336.33 112.488 334.524 109.488C336.642 114.687 335.238 120.738 334.524 127.368C332.805 141.537 335.055 162.366 350.634 192.198C332.067 177.885 320.265 154.047 314.274 132.078C315.963 121.515 316.992 118.203 318.414 106.038C314.334 123.93 309.114 133.962 309.114 152.238C309.516 162.543 316.407 185.361 323.634 197.328C311.277 188.454 297.33 170.094 290.784 146.658C292.575 122.85 295.248 109.53 297.204 96.828C286.65 131.061 286.491 143.955 285.654 159.288C285.594 163.128 285.684 166.998 285.684 169.878C285.714 171.318 285.714 172.518 285.744 173.388C285.834 174.228 285.864 174.708 285.864 174.708C287.499 191.034 290.352 200.772 291.984 204.828C277.131 198.3 262.191 184.017 258.684 166.218C253.836 143.628 265.803 113.358 266.724 110.358C264.165 115.476 253.539 134.241 253.194 155.268C247.116 162.039 239.307 169.518 236.304 172.188C219.489 187.437 203.364 198.303 188.424 205.758C188.814 205.158 189.234 204.498 189.654 203.838L189.624 203.928C208.056 176.796 219.519 153.906 220.164 121.278C218.424 133.992 215.361 144.978 211.566 155.046C180.186 171.486 155.307 210.756 157.794 266.748C157.344 266.238 156.864 265.758 156.384 265.248C135.192 244.368 142.296 222.363 148.374 197.778C155.337 170.079 159.504 169.248 162.504 166.248C152.124 172.455 145.716 192.705 142.044 204.798C133.857 231.177 137.607 245.364 142.884 254.748C146.982 282.24 149.568 298.89 143.514 323.118C139.866 314.913 134.85 293.769 134.154 283.098C132.135 265.2 131.865 259.215 130.404 237.318C128.922 259.533 126.519 297.441 141.264 326.928C110.217 297.36 96.672 252.069 113.454 198.348C103.392 220.203 98.832 239.952 101.934 263.628C82.731 230.148 80.871 182.688 89.514 148.188C97.35 138.741 106.566 134.484 112.554 131.478C94.131 138.192 91.236 141.69 83.634 150.048C78.348 157.431 74.82 164.163 72.114 174.408C70.506 149.901 76.749 125.928 94.314 102.498C111.273 97.974 126.726 88.482 140.514 78.138C120.189 89.346 107.679 95.694 86.874 101.568C84.216 102.354 76.665 104.574 73.854 104.928C96.225 93.33 137.658 63.711 149.004 36.498C160.914 32.94 168.051 32.499 176.124 31.518C154.701 31.518 139.554 33.336 116.454 48.108C130.305 20.928 175.38 -14.112 218.334 -14.112C226.875 -7.47302 238.488 -3.24302 248.904 2.68798C242.397 -2.87102 226.665 -11.232 221.064 -15.642C221.064 -15.672 221.064 -15.672 221.034 -15.642C217.461 -18.492 215.844 -18.588 203.364 -34.452C231.582 -21.033 241.596 -18.522 253.074 -15.852C309.273 -3.06602 304.731 -12.858 348.744 -33.312C347.682 -30.276 341.232 -12.393 338.904 -10.122C332.676 0.884979 325.122 9.53398 313.374 15.408C326.814 10.953 336.363 1.23898 342.984 -11.622C344.934 -12.597 357.165 -15.717 362.094 -16.242C386.748 -18.9 397.491 -16.674 415.014 -8.74202C418.014 -7.07702 429.12 -1.42502 436.797 7.48798C416.643 1.18498 384.972 9.57298 365.034 16.248C370.167 15.27 396.399 9.77998 411.894 8.62798C417.567 8.14798 423.177 8.38798 423.177 8.35798C423.447 8.35798 423.717 8.38798 423.987 8.38798C431.853 24.741 436.587 30.636 476.577 40.368C480.693 41.322 485.091 41.85 488.067 42.228C481.122 45.306 477.285 46.062 469.107 46.758C437.508 47.4 432.651 32.355 413.307 26.478C433.713 35.571 433.029 49.878 470.217 49.878C481.146 53.943 490.737 70.266 495.534 81.348C502.398 97.803 505.485 116.094 506.244 133.908C501.408 125.076 483.12 96.765 473.034 93.198C470.751 92.307 468.834 92.286 466.614 92.508C472.815 92.508 477.111 96.234 480.744 101.298H480.774C488.415 112.431 492.588 128.601 496.524 142.098C496.524 142.098 496.707 142.698 497.004 143.718C504.6 170.16 521.292 188.967 544.317 201.708C495.915 203.85 491.304 173.124 467.514 146.748C481.236 165.567 488.256 190.584 511.56 200.475ZM471.687 190.725C463.956 172.017 468.639 179.352 459.024 160.275C469.587 173.541 470.364 183.825 476.214 195.585C454.47 189.777 431.814 167.493 431.214 142.845C431.094 140.505 431.031 139.065 431.031 139.065C435.297 164.598 449.892 179.904 471.687 190.725ZM445.647 140.118C442.107 129.345 421.488 87.366 402.81 81.288C396.864 78.729 388.026 77.199 381.09 75.558C405.891 77.724 417.78 77.052 437.37 114.138C439.14 117.558 440.91 121.428 442.62 125.418C437.55 84.687 422.919 64.569 404.34 50.178C391.464 41.583 381.486 40.494 373.47 39.138C382.317 39.381 392.868 39.387 406.47 46.908C420.369 55.797 429.627 65.04 438.93 88.518C439.59 90.078 440.037 91.428 440.31 92.388C440.61 93.318 440.787 93.858 440.787 93.858C445.869 110.13 446.154 122.919 445.647 140.118ZM362.097 108.345C343.839 89.595 328.827 65.157 330.267 39.135C332.358 66.822 352.302 93.327 371.727 114.165C334.176 109.167 308.661 83.976 287.127 54.435C319.221 89.826 340.428 100.74 362.097 108.345ZM261.897 17.625C261.867 17.655 261.867 17.685 261.837 17.715C271.368 13.971 289.827 17.349 298.077 30.675C289.674 20.034 271.491 15.255 260.217 19.365C263.832 7.61398 281.055 4.42198 293.007 6.10498C285.411 6.10498 274.017 7.92298 267.387 12.195C264.321 14.103 263.727 15.285 261.897 17.625ZM176.727 136.665C193.602 111.372 190.404 124.539 202.977 89.565C204.372 85.539 208.749 72.885 211.677 66.315C211.617 66.615 211.257 67.905 210.717 69.885C201.099 108.351 198.447 114.363 184.317 130.845C210.933 114.885 227.436 100.122 241.317 72.225C232.044 103.386 205.737 125.274 176.727 136.665ZM167.157 86.385C167.157 86.385 167.157 86.385 167.157 86.355C167.157 47.613 189.639 6.75298 225.267 11.205C183.861 11.205 170.007 70.002 170.007 82.905C188.67 60.531 221.331 41.037 254.817 34.935C226.314 43.722 189.528 64.512 167.127 88.575C167.157 87.855 167.157 87.105 167.157 86.385ZM108.117 169.665C127.473 170.286 144.345 160.95 157.377 146.835C145.413 165.654 120.171 176.499 100.917 170.115C129.666 160.512 150.48 133.737 156.657 103.515C154.332 132.54 138.828 154.755 114.297 167.235C109.035 169.671 111.117 168.378 108.117 169.665Z" fill="#9C845B"/>
<path opacity="0.85" d="M393.06 310.56C377.94 310.56 363.09 307.77 354.33 303.24C341.49 296.64 325.95 281.28 324.9 245.64C324.87 244.65 324.84 243.63 324.84 242.61C324.75 227.91 341.52 220.68 351.42 218.73C364.41 216.18 375.81 215.04 388.41 215.04C400.2 215.04 412.23 216.09 423.51 217.2C430.65 217.77 437.58 221.4 442.47 227.19C446.7 232.2 448.8 238.8 448.89 247.29C448.92 249.18 448.89 251.19 448.83 253.23C448.35 265.05 445.95 278.76 444.6 285C441.15 301.02 421.89 310.56 393.06 310.56ZM206.94 310.56C222.06 310.56 236.88 307.77 245.67 303.24C258.51 296.64 274.05 281.25 275.1 245.64C275.13 244.65 275.16 243.63 275.16 242.61C275.25 228.09 258.48 220.92 248.58 218.97C235.59 216.42 224.19 215.28 211.59 215.28C199.8 215.28 187.77 216.33 176.58 217.44C169.23 218.01 162.3 221.58 157.56 227.22C153.33 232.23 151.23 238.8 151.14 247.29C151.11 249.21 151.11 251.22 151.2 253.26C151.68 265.11 154.08 278.82 155.43 285.06C158.88 301.02 178.14 310.56 206.94 310.56Z" fill="#2F1515"/>
<path opacity="0.05" d="M445.83 253.14C427.35 236.88 363.87 236.31 327.93 245.55C327.9 244.59 327.87 243.6 327.87 242.58C327.78 229.41 344.25 223.2 352.02 221.67C377.07 216.75 395.49 217.41 423.21 220.17C429.81 220.68 435.93 224.07 440.19 229.11C444.45 234.18 445.83 240.69 445.89 247.32C445.95 249.21 445.92 251.16 445.83 253.14ZM247.98 221.91C222.93 216.99 204.51 217.65 176.79 220.41C170.19 220.92 164.07 224.07 159.81 229.11C155.55 234.18 154.17 240.69 154.11 247.32C154.08 249.18 154.11 251.13 154.17 253.11C172.65 236.85 236.13 236.28 272.1 245.52C272.13 244.56 272.16 243.57 272.16 242.55C272.22 229.44 255.75 223.44 247.98 221.91Z" fill="white"/>
<path d="M472.89 221.97H465C465 221.94 465 221.91 465 221.88C465 219.03 463.08 216.51 460.29 215.82C411.93 203.7 364.56 205.68 322.5 219.93C316.11 222.09 306.63 220.29 299.76 220.29C292.92 220.29 283.89 222.09 277.5 219.93C235.44 205.68 188.04 203.7 139.71 215.82C136.92 216.48 135 219 135 221.85C135 221.88 135 221.91 135 221.94H127.11V238.77L136.71 245.43C139.17 262.98 144.36 279.9 152.52 295.32C162.78 314.79 185.73 315.81 221.67 312.99C237.24 311.76 252.45 307.11 263.34 295.92C283.62 275.13 284.19 237.51 299.79 237.51C316.29 237.51 316.14 274.8 336.72 295.92C347.61 307.11 362.82 311.76 378.39 312.99C414.3 315.81 437.28 314.76 447.54 295.32C455.67 279.9 460.86 262.98 463.35 245.43L472.95 238.77V221.97H472.89ZM244.29 300.6C223.83 311.13 164.46 312.66 158.34 284.43C157.2 279.21 153.78 261.15 154.11 247.38C154.17 240.75 155.55 234.24 159.81 229.17C164.07 224.1 170.19 220.98 176.79 220.47C204.51 217.71 222.93 217.02 247.98 221.97C255.75 223.5 272.22 229.47 272.13 242.64C271.92 279.81 255.87 294.63 244.29 300.6ZM441.66 284.43C435.54 312.66 376.17 311.13 355.71 300.6C344.1 294.63 328.08 279.84 327.84 242.61C327.75 229.44 344.22 223.47 351.99 221.94C377.04 217.02 395.46 217.68 423.18 220.44C429.78 220.95 435.9 224.1 440.16 229.14C444.42 234.21 445.8 240.72 445.86 247.35C446.22 261.15 442.8 279.21 441.66 284.43Z" fill="#28BE9C"/>
<path d="M443.19 277.74C445.11 266.55 446.82 250.62 444.81 239.52C443.43 230.58 437.82 222.78 417.99 220.08C417.99 220.08 392.4 216.99 370.35 219.42C321.84 224.01 325.23 239.31 329.91 264.09C324.3 240.09 318.96 219.66 377.67 216.42C399.48 215.19 418.29 217.56 418.29 217.56C441.06 220.59 454.14 229.38 443.19 277.74ZM156.81 277.74C154.89 266.55 153.18 250.62 155.19 239.52C156.57 230.58 162.18 222.63 182.01 219.9C182.01 219.9 207.6 216.81 229.65 219.24C278.13 223.83 274.77 239.28 270.09 264.06C275.7 240.06 281.04 219.63 222.33 216.39C200.52 215.16 181.71 217.53 181.71 217.53C158.94 220.59 145.86 229.38 156.81 277.74ZM322.5 222.9C322.17 222.48 321.63 222.24 321.09 222.3L316.11 222.87C315.15 222.99 314.34 223.56 313.92 224.43L307.38 237.63C303.15 234.96 297.21 234.72 292.62 237.63L286.08 224.43C285.66 223.56 284.82 222.99 283.89 222.87L278.91 222.3C278.37 222.24 277.83 222.45 277.5 222.9C277.17 223.35 277.08 223.92 277.26 224.43L286.08 247.65C286.08 247.65 282.78 258.81 279.54 267.63C285.54 256.08 288.45 237.54 300.03 237.54C311.61 237.54 314.49 256.08 320.52 267.63C317.28 258.84 313.98 247.65 313.98 247.65L322.8 224.43C322.92 223.92 322.83 223.35 322.5 222.9Z" fill="#13AF8B"/>
<path d="M443.79 283.83C441.93 289.29 439.32 294.12 435.12 298.08C425.13 307.56 405.12 309.93 391.05 309.57C370.59 309.06 361.74 305.55 353.88 301.23C347.46 297.24 342.75 293.61 336.36 284.01C344.31 294.87 351.66 300.57 365.34 304.89C392.4 311.67 423.15 307.71 434.61 297.63C438.9 293.91 441.72 289.17 443.79 283.83ZM156.21 283.83C158.04 289.29 160.68 294.12 164.88 298.08C174.87 307.56 194.88 309.93 208.95 309.57C229.41 309.06 238.26 305.55 246.12 301.23C252.54 297.24 257.25 293.61 263.64 284.01C255.69 294.87 248.34 300.57 234.66 304.89C207.6 311.67 176.85 307.71 165.39 297.63C161.1 293.91 158.28 289.17 156.21 283.83Z" fill="#40CDAD"/>
</g>
<defs>
<linearGradient id="paint0_linear_5:588" x1="300" y1="516" x2="300" y2="369" gradientUnits="userSpaceOnUse">
<stop stop-color="#491C08" stop-opacity="0.8"/>
<stop offset="0.7" stop-color="#2A0D00"/>
</linearGradient>
<radialGradient id="paint1_radial_5:588" cx="0" cy="0" r="1" gradientUnits="userSpaceOnUse" gradientTransform="translate(221.03 247.503) rotate(179.978) scale(40.8004 35.8929)">
<stop stop-color="white"/>
<stop offset="0.544" stop-color="#FDFEFE"/>
<stop offset="0.74" stop-color="#F6F8F9"/>
<stop offset="0.879" stop-color="#EAEFF2"/>
<stop offset="0.992" stop-color="#D9E3E8"/>
<stop offset="1" stop-color="#D8E2E7"/>
</radialGradient>
<linearGradient id="paint2_linear_5:588" x1="233.661" y1="240.216" x2="228.48" y2="246.39" gradientUnits="userSpaceOnUse">
<stop stop-color="white"/>
<stop offset="1" stop-color="white" stop-opacity="0"/>
</linearGradient>
<radialGradient id="paint3_radial_5:588" cx="0" cy="0" r="1" gradientUnits="userSpaceOnUse" gradientTransform="translate(230.342 245.415) rotate(1.04861) scale(53.6922 37.7998)">
<stop stop-color="#491C08"/>
<stop offset="0.7" stop-color="#491C08" stop-opacity="0.3"/>
<stop offset="1" stop-color="#582812" stop-opacity="0"/>
</radialGradient>
<radialGradient id="paint4_radial_5:588" cx="0" cy="0" r="1" gradientUnits="userSpaceOnUse" gradientTransform="translate(215.238 305.15) rotate(-2.60422) scale(76.4635 66.5558)">
<stop offset="0.9" stop-opacity="0"/>
<stop offset="1" stop-opacity="0.2"/>
</radialGradient>
<radialGradient id="paint5_radial_5:588" cx="0" cy="0" r="1" gradientUnits="userSpaceOnUse" gradientTransform="translate(377.769 247.503) rotate(0.0216374) scale(40.8036 35.8957)">
<stop stop-color="white"/>
<stop offset="0.544" stop-color="#FDFEFE"/>
<stop offset="0.74" stop-color="#F6F8F9"/>
<stop offset="0.879" stop-color="#EAEFF2"/>
<stop offset="0.992" stop-color="#D9E3E8"/>
<stop offset="1" stop-color="#D8E2E7"/>
</radialGradient>
<linearGradient id="paint6_linear_5:588" x1="388.161" y1="240.219" x2="382.98" y2="246.393" gradientUnits="userSpaceOnUse">
<stop stop-color="white"/>
<stop offset="1" stop-color="white" stop-opacity="0"/>
</linearGradient>
<radialGradient id="paint7_radial_5:588" cx="0" cy="0" r="1" gradientUnits="userSpaceOnUse" gradientTransform="translate(368.461 245.415) rotate(178.951) scale(53.6922 37.7998)">
<stop stop-color="#491C08"/>
<stop offset="0.7" stop-color="#491C08" stop-opacity="0.3"/>
<stop offset="1" stop-color="#582812" stop-opacity="0"/>
</radialGradient>
<radialGradient id="paint8_radial_5:588" cx="0" cy="0" r="1" gradientUnits="userSpaceOnUse" gradientTransform="translate(383.564 305.15) rotate(-177.396) scale(76.4635 66.5558)">
<stop offset="0.9" stop-opacity="0"/>
<stop offset="1" stop-opacity="0.2"/>
</radialGradient>
<radialGradient id="paint9_radial_5:588" cx="0" cy="0" r="1" gradientUnits="userSpaceOnUse" gradientTransform="translate(300 342) scale(123)">
<stop stop-color="#67361F" stop-opacity="0.5"/>
<stop offset="0.9" stop-color="#582812" stop-opacity="0"/>
</radialGradient>
<radialGradient id="paint10_radial_5:588" cx="0" cy="0" r="1" gradientUnits="userSpaceOnUse" gradientTransform="translate(300 162) scale(111)">
<stop stop-color="#67361F" stop-opacity="0.5"/>
<stop offset="0.9" stop-color="#582812" stop-opacity="0"/>
</radialGradient>
<clipPath id="clip0_5:588">
<rect width="600" height="600" fill="white"/>
</clipPath>
</defs>
</svg>
