<svg viewBox="0 0 600 600" fill="none" xmlns="http://www.w3.org/2000/svg">
<rect width="600" height="600" fill="#E5E5E5"/>
<g clip-path="url(#clip0_0:1)">
<path d="M675 675H-75V-75H675V675Z" fill="#45ADA8"/>
<path d="M48 29.997C48 39.936 39.939 47.997 30 47.997C20.061 47.997 12 39.936 12 29.997C12 20.058 20.061 11.997 30 11.997C39.939 11.997 48 20.058 48 29.997ZM84 11.997C74.061 11.997 66 20.058 66 29.997C66 39.936 74.061 47.997 84 47.997C93.939 47.997 102 39.936 102 29.997C102 20.058 93.939 11.997 84 11.997ZM138 11.997C128.061 11.997 120 20.058 120 29.997C120 39.936 128.061 47.997 138 47.997C147.939 47.997 156 39.936 156 29.997C156 20.058 147.939 11.997 138 11.997ZM192 11.997C182.061 11.997 174 20.058 174 29.997C174 39.936 182.061 47.997 192 47.997C201.939 47.997 210 39.936 210 29.997C210 20.058 201.939 11.997 192 11.997ZM246 11.997C236.061 11.997 228 20.058 228 29.997C228 39.936 236.061 47.997 246 47.997C255.939 47.997 264 39.936 264 29.997C264 20.058 255.939 11.997 246 11.997ZM300 11.997C290.061 11.997 282 20.058 282 29.997C282 39.936 290.061 47.997 300 47.997C309.939 47.997 318 39.936 318 29.997C318 20.058 309.939 11.997 300 11.997ZM354 11.997C344.061 11.997 336 20.058 336 29.997C336 39.936 344.061 47.997 354 47.997C363.939 47.997 372 39.936 372 29.997C372 20.058 363.939 11.997 354 11.997ZM408 11.997C398.061 11.997 390 20.058 390 29.997C390 39.936 398.061 47.997 408 47.997C417.939 47.997 426 39.936 426 29.997C426 20.058 417.939 11.997 408 11.997ZM462 11.997C452.061 11.997 444 20.058 444 29.997C444 39.936 452.061 47.997 462 47.997C471.939 47.997 480 39.936 480 29.997C480 20.058 471.939 11.997 462 11.997ZM516 11.997C506.061 11.997 498 20.058 498 29.997C498 39.936 506.061 47.997 516 47.997C525.939 47.997 534 39.936 534 29.997C534 20.058 525.939 11.997 516 11.997ZM570 11.997C560.061 11.997 552 20.058 552 29.997C552 39.936 560.061 47.997 570 47.997C579.939 47.997 588 39.936 588 29.997C588 20.058 579.939 11.997 570 11.997ZM48 83.997C48 93.936 39.939 101.997 30 101.997C20.061 101.997 12 93.936 12 83.997C12 74.058 20.061 65.997 30 65.997C39.939 65.997 48 74.058 48 83.997ZM84 65.997C74.061 65.997 66 74.058 66 83.997C66 93.936 74.061 101.997 84 101.997C93.939 101.997 102 93.936 102 83.997C102 74.058 93.939 65.997 84 65.997ZM138 65.997C128.061 65.997 120 74.058 120 83.997C120 93.936 128.061 101.997 138 101.997C147.939 101.997 156 93.936 156 83.997C156 74.058 147.939 65.997 138 65.997ZM192 65.997C182.061 65.997 174 74.058 174 83.997C174 93.936 182.061 101.997 192 101.997C201.939 101.997 210 93.936 210 83.997C210 74.058 201.939 65.997 192 65.997ZM246 65.997C236.061 65.997 228 74.058 228 83.997C228 93.936 236.061 101.997 246 101.997C255.939 101.997 264 93.936 264 83.997C264 74.058 255.939 65.997 246 65.997ZM300 65.997C290.061 65.997 282 74.058 282 83.997C282 93.936 290.061 101.997 300 101.997C309.939 101.997 318 93.936 318 83.997C318 74.058 309.939 65.997 300 65.997ZM354 65.997C344.061 65.997 336 74.058 336 83.997C336 93.936 344.061 101.997 354 101.997C363.939 101.997 372 93.936 372 83.997C372 74.058 363.939 65.997 354 65.997ZM408 65.997C398.061 65.997 390 74.058 390 83.997C390 93.936 398.061 101.997 408 101.997C417.939 101.997 426 93.936 426 83.997C426 74.058 417.939 65.997 408 65.997ZM462 65.997C452.061 65.997 444 74.058 444 83.997C444 93.936 452.061 101.997 462 101.997C471.939 101.997 480 93.936 480 83.997C480 74.058 471.939 65.997 462 65.997ZM516 65.997C506.061 65.997 498 74.058 498 83.997C498 93.936 506.061 101.997 516 101.997C525.939 101.997 534 93.936 534 83.997C534 74.058 525.939 65.997 516 65.997ZM570 65.997C560.061 65.997 552 74.058 552 83.997C552 93.936 560.061 101.997 570 101.997C579.939 101.997 588 93.936 588 83.997C588 74.058 579.939 65.997 570 65.997ZM48 137.997C48 147.936 39.939 155.997 30 155.997C20.061 155.997 12 147.936 12 137.997C12 128.058 20.061 119.997 30 119.997C39.939 119.997 48 128.058 48 137.997ZM84 119.997C74.061 119.997 66 128.058 66 137.997C66 147.936 74.061 155.997 84 155.997C93.939 155.997 102 147.936 102 137.997C102 128.058 93.939 119.997 84 119.997ZM138 119.997C128.061 119.997 120 128.058 120 137.997C120 147.936 128.061 155.997 138 155.997C147.939 155.997 156 147.936 156 137.997C156 128.058 147.939 119.997 138 119.997ZM192 119.997C182.061 119.997 174 128.058 174 137.997C174 147.936 182.061 155.997 192 155.997C201.939 155.997 210 147.936 210 137.997C210 128.058 201.939 119.997 192 119.997ZM246 119.997C236.061 119.997 228 128.058 228 137.997C228 147.936 236.061 155.997 246 155.997C255.939 155.997 264 147.936 264 137.997C264 128.058 255.939 119.997 246 119.997ZM300 119.997C290.061 119.997 282 128.058 282 137.997C282 147.936 290.061 155.997 300 155.997C309.939 155.997 318 147.936 318 137.997C318 128.058 309.939 119.997 300 119.997ZM354 119.997C344.061 119.997 336 128.058 336 137.997C336 147.936 344.061 155.997 354 155.997C363.939 155.997 372 147.936 372 137.997C372 128.058 363.939 119.997 354 119.997ZM408 119.997C398.061 119.997 390 128.058 390 137.997C390 147.936 398.061 155.997 408 155.997C417.939 155.997 426 147.936 426 137.997C426 128.058 417.939 119.997 408 119.997ZM462 119.997C452.061 119.997 444 128.058 444 137.997C444 147.936 452.061 155.997 462 155.997C471.939 155.997 480 147.936 480 137.997C480 128.058 471.939 119.997 462 119.997ZM516 119.997C506.061 119.997 498 128.058 498 137.997C498 147.936 506.061 155.997 516 155.997C525.939 155.997 534 147.936 534 137.997C534 128.058 525.939 119.997 516 119.997ZM570 119.997C560.061 119.997 552 128.058 552 137.997C552 147.936 560.061 155.997 570 155.997C579.939 155.997 588 147.936 588 137.997C588 128.058 579.939 119.997 570 119.997ZM48 191.997C48 201.936 39.939 209.997 30 209.997C20.061 209.997 12 201.936 12 191.997C12 182.058 20.061 173.997 30 173.997C39.939 173.997 48 182.058 48 191.997ZM84 173.997C74.061 173.997 66 182.058 66 191.997C66 201.936 74.061 209.997 84 209.997C93.939 209.997 102 201.936 102 191.997C102 182.058 93.939 173.997 84 173.997ZM138 173.997C128.061 173.997 120 182.058 120 191.997C120 201.936 128.061 209.997 138 209.997C147.939 209.997 156 201.936 156 191.997C156 182.058 147.939 173.997 138 173.997ZM192 173.997C182.061 173.997 174 182.058 174 191.997C174 201.936 182.061 209.997 192 209.997C201.939 209.997 210 201.936 210 191.997C210 182.058 201.939 173.997 192 173.997ZM246 173.997C236.061 173.997 228 182.058 228 191.997C228 201.936 236.061 209.997 246 209.997C255.939 209.997 264 201.936 264 191.997C264 182.058 255.939 173.997 246 173.997ZM300 173.997C290.061 173.997 282 182.058 282 191.997C282 201.936 290.061 209.997 300 209.997C309.939 209.997 318 201.936 318 191.997C318 182.058 309.939 173.997 300 173.997ZM354 173.997C344.061 173.997 336 182.058 336 191.997C336 201.936 344.061 209.997 354 209.997C363.939 209.997 372 201.936 372 191.997C372 182.058 363.939 173.997 354 173.997ZM408 173.997C398.061 173.997 390 182.058 390 191.997C390 201.936 398.061 209.997 408 209.997C417.939 209.997 426 201.936 426 191.997C426 182.058 417.939 173.997 408 173.997ZM462 173.997C452.061 173.997 444 182.058 444 191.997C444 201.936 452.061 209.997 462 209.997C471.939 209.997 480 201.936 480 191.997C480 182.058 471.939 173.997 462 173.997ZM516 173.997C506.061 173.997 498 182.058 498 191.997C498 201.936 506.061 209.997 516 209.997C525.939 209.997 534 201.936 534 191.997C534 182.058 525.939 173.997 516 173.997ZM570 173.997C560.061 173.997 552 182.058 552 191.997C552 201.936 560.061 209.997 570 209.997C579.939 209.997 588 201.936 588 191.997C588 182.058 579.939 173.997 570 173.997ZM48 245.997C48 255.936 39.939 263.997 30 263.997C20.061 263.997 12 255.936 12 245.997C12 236.058 20.061 227.997 30 227.997C39.939 227.997 48 236.058 48 245.997ZM84 227.997C74.061 227.997 66 236.058 66 245.997C66 255.936 74.061 263.997 84 263.997C93.939 263.997 102 255.936 102 245.997C102 236.058 93.939 227.997 84 227.997ZM138 227.997C128.061 227.997 120 236.058 120 245.997C120 255.936 128.061 263.997 138 263.997C147.939 263.997 156 255.936 156 245.997C156 236.058 147.939 227.997 138 227.997ZM192 227.997C182.061 227.997 174 236.058 174 245.997C174 255.936 182.061 263.997 192 263.997C201.939 263.997 210 255.936 210 245.997C210 236.058 201.939 227.997 192 227.997ZM246 227.997C236.061 227.997 228 236.058 228 245.997C228 255.936 236.061 263.997 246 263.997C255.939 263.997 264 255.936 264 245.997C264 236.058 255.939 227.997 246 227.997ZM300 227.997C290.061 227.997 282 236.058 282 245.997C282 255.936 290.061 263.997 300 263.997C309.939 263.997 318 255.936 318 245.997C318 236.058 309.939 227.997 300 227.997ZM354 227.997C344.061 227.997 336 236.058 336 245.997C336 255.936 344.061 263.997 354 263.997C363.939 263.997 372 255.936 372 245.997C372 236.058 363.939 227.997 354 227.997ZM408 227.997C398.061 227.997 390 236.058 390 245.997C390 255.936 398.061 263.997 408 263.997C417.939 263.997 426 255.936 426 245.997C426 236.058 417.939 227.997 408 227.997ZM462 227.997C452.061 227.997 444 236.058 444 245.997C444 255.936 452.061 263.997 462 263.997C471.939 263.997 480 255.936 480 245.997C480 236.058 471.939 227.997 462 227.997ZM516 227.997C506.061 227.997 498 236.058 498 245.997C498 255.936 506.061 263.997 516 263.997C525.939 263.997 534 255.936 534 245.997C534 236.058 525.939 227.997 516 227.997ZM570 227.997C560.061 227.997 552 236.058 552 245.997C552 255.936 560.061 263.997 570 263.997C579.939 263.997 588 255.936 588 245.997C588 236.058 579.939 227.997 570 227.997ZM48 299.997C48 309.936 39.939 317.997 30 317.997C20.061 317.997 12 309.936 12 299.997C12 290.058 20.061 281.997 30 281.997C39.939 281.997 48 290.058 48 299.997ZM84 281.997C74.061 281.997 66 290.058 66 299.997C66 309.936 74.061 317.997 84 317.997C93.939 317.997 102 309.936 102 299.997C102 290.058 93.939 281.997 84 281.997ZM138 281.997C128.061 281.997 120 290.058 120 299.997C120 309.936 128.061 317.997 138 317.997C147.939 317.997 156 309.936 156 299.997C156 290.058 147.939 281.997 138 281.997ZM192 281.997C182.061 281.997 174 290.058 174 299.997C174 309.936 182.061 317.997 192 317.997C201.939 317.997 210 309.936 210 299.997C210 290.058 201.939 281.997 192 281.997ZM246 281.997C236.061 281.997 228 290.058 228 299.997C228 309.936 236.061 317.997 246 317.997C255.939 317.997 264 309.936 264 299.997C264 290.058 255.939 281.997 246 281.997ZM300 281.997C290.061 281.997 282 290.058 282 299.997C282 309.936 290.061 317.997 300 317.997C309.939 317.997 318 309.936 318 299.997C318 290.058 309.939 281.997 300 281.997ZM354 281.997C344.061 281.997 336 290.058 336 299.997C336 309.936 344.061 317.997 354 317.997C363.939 317.997 372 309.936 372 299.997C372 290.058 363.939 281.997 354 281.997ZM408 281.997C398.061 281.997 390 290.058 390 299.997C390 309.936 398.061 317.997 408 317.997C417.939 317.997 426 309.936 426 299.997C426 290.058 417.939 281.997 408 281.997ZM462 281.997C452.061 281.997 444 290.058 444 299.997C444 309.936 452.061 317.997 462 317.997C471.939 317.997 480 309.936 480 299.997C480 290.058 471.939 281.997 462 281.997ZM516 281.997C506.061 281.997 498 290.058 498 299.997C498 309.936 506.061 317.997 516 317.997C525.939 317.997 534 309.936 534 299.997C534 290.058 525.939 281.997 516 281.997ZM570 281.997C560.061 281.997 552 290.058 552 299.997C552 309.936 560.061 317.997 570 317.997C579.939 317.997 588 309.936 588 299.997C588 290.058 579.939 281.997 570 281.997ZM48 515.997C48 525.936 39.939 533.997 30 533.997C20.061 533.997 12 525.936 12 515.997C12 506.058 20.061 497.997 30 497.997C39.939 497.997 48 506.058 48 515.997ZM84 497.997C74.061 497.997 66 506.058 66 515.997C66 525.936 74.061 533.997 84 533.997C93.939 533.997 102 525.936 102 515.997C102 506.058 93.939 497.997 84 497.997ZM138 497.997C128.061 497.997 120 506.058 120 515.997C120 525.936 128.061 533.997 138 533.997C147.939 533.997 156 525.936 156 515.997C156 506.058 147.939 497.997 138 497.997ZM192 497.997C182.061 497.997 174 506.058 174 515.997C174 525.936 182.061 533.997 192 533.997C201.939 533.997 210 525.936 210 515.997C210 506.058 201.939 497.997 192 497.997ZM246 497.997C236.061 497.997 228 506.058 228 515.997C228 525.936 236.061 533.997 246 533.997C255.939 533.997 264 525.936 264 515.997C264 506.058 255.939 497.997 246 497.997ZM300 497.997C290.061 497.997 282 506.058 282 515.997C282 525.936 290.061 533.997 300 533.997C309.939 533.997 318 525.936 318 515.997C318 506.058 309.939 497.997 300 497.997ZM354 497.997C344.061 497.997 336 506.058 336 515.997C336 525.936 344.061 533.997 354 533.997C363.939 533.997 372 525.936 372 515.997C372 506.058 363.939 497.997 354 497.997ZM408 497.997C398.061 497.997 390 506.058 390 515.997C390 525.936 398.061 533.997 408 533.997C417.939 533.997 426 525.936 426 515.997C426 506.058 417.939 497.997 408 497.997ZM462 497.997C452.061 497.997 444 506.058 444 515.997C444 525.936 452.061 533.997 462 533.997C471.939 533.997 480 525.936 480 515.997C480 506.058 471.939 497.997 462 497.997ZM516 497.997C506.061 497.997 498 506.058 498 515.997C498 525.936 506.061 533.997 516 533.997C525.939 533.997 534 525.936 534 515.997C534 506.058 525.939 497.997 516 497.997ZM570 497.997C560.061 497.997 552 506.058 552 515.997C552 525.936 560.061 533.997 570 533.997C579.939 533.997 588 525.936 588 515.997C588 506.058 579.939 497.997 570 497.997ZM48 569.997C48 579.936 39.939 587.997 30 587.997C20.061 587.997 12 579.936 12 569.997C12 560.058 20.061 551.997 30 551.997C39.939 551.997 48 560.058 48 569.997ZM84 551.997C74.061 551.997 66 560.058 66 569.997C66 579.936 74.061 587.997 84 587.997C93.939 587.997 102 579.936 102 569.997C102 560.058 93.939 551.997 84 551.997ZM138 551.997C128.061 551.997 120 560.058 120 569.997C120 579.936 128.061 587.997 138 587.997C147.939 587.997 156 579.936 156 569.997C156 560.058 147.939 551.997 138 551.997ZM192 551.997C182.061 551.997 174 560.058 174 569.997C174 579.936 182.061 587.997 192 587.997C201.939 587.997 210 579.936 210 569.997C210 560.058 201.939 551.997 192 551.997ZM246 551.997C236.061 551.997 228 560.058 228 569.997C228 579.936 236.061 587.997 246 587.997C255.939 587.997 264 579.936 264 569.997C264 560.058 255.939 551.997 246 551.997ZM300 551.997C290.061 551.997 282 560.058 282 569.997C282 579.936 290.061 587.997 300 587.997C309.939 587.997 318 579.936 318 569.997C318 560.058 309.939 551.997 300 551.997ZM354 551.997C344.061 551.997 336 560.058 336 569.997C336 579.936 344.061 587.997 354 587.997C363.939 587.997 372 579.936 372 569.997C372 560.058 363.939 551.997 354 551.997ZM408 551.997C398.061 551.997 390 560.058 390 569.997C390 579.936 398.061 587.997 408 587.997C417.939 587.997 426 579.936 426 569.997C426 560.058 417.939 551.997 408 551.997ZM462 551.997C452.061 551.997 444 560.058 444 569.997C444 579.936 452.061 587.997 462 587.997C471.939 587.997 480 579.936 480 569.997C480 560.058 471.939 551.997 462 551.997ZM516 551.997C506.061 551.997 498 560.058 498 569.997C498 579.936 506.061 587.997 516 587.997C525.939 587.997 534 579.936 534 569.997C534 560.058 525.939 551.997 516 551.997ZM570 551.997C560.061 551.997 552 560.058 552 569.997C552 579.936 560.061 587.997 570 587.997C579.939 587.997 588 579.936 588 569.997C588 560.058 579.939 551.997 570 551.997ZM48 353.997C48 363.936 39.939 371.997 30 371.997C20.061 371.997 12 363.936 12 353.997C12 344.058 20.061 335.997 30 335.997C39.939 335.997 48 344.058 48 353.997ZM84 335.997C74.061 335.997 66 344.058 66 353.997C66 363.936 74.061 371.997 84 371.997C93.939 371.997 102 363.936 102 353.997C102 344.058 93.939 335.997 84 335.997ZM138 335.997C128.061 335.997 120 344.058 120 353.997C120 363.936 128.061 371.997 138 371.997C147.939 371.997 156 363.936 156 353.997C156 344.058 147.939 335.997 138 335.997ZM192 335.997C182.061 335.997 174 344.058 174 353.997C174 363.936 182.061 371.997 192 371.997C201.939 371.997 210 363.936 210 353.997C210 344.058 201.939 335.997 192 335.997ZM246 335.997C236.061 335.997 228 344.058 228 353.997C228 363.936 236.061 371.997 246 371.997C255.939 371.997 264 363.936 264 353.997C264 344.058 255.939 335.997 246 335.997ZM300 335.997C290.061 335.997 282 344.058 282 353.997C282 363.936 290.061 371.997 300 371.997C309.939 371.997 318 363.936 318 353.997C318 344.058 309.939 335.997 300 335.997ZM354 335.997C344.061 335.997 336 344.058 336 353.997C336 363.936 344.061 371.997 354 371.997C363.939 371.997 372 363.936 372 353.997C372 344.058 363.939 335.997 354 335.997ZM408 335.997C398.061 335.997 390 344.058 390 353.997C390 363.936 398.061 371.997 408 371.997C417.939 371.997 426 363.936 426 353.997C426 344.058 417.939 335.997 408 335.997ZM462 335.997C452.061 335.997 444 344.058 444 353.997C444 363.936 452.061 371.997 462 371.997C471.939 371.997 480 363.936 480 353.997C480 344.058 471.939 335.997 462 335.997ZM516 335.997C506.061 335.997 498 344.058 498 353.997C498 363.936 506.061 371.997 516 371.997C525.939 371.997 534 363.936 534 353.997C534 344.058 525.939 335.997 516 335.997ZM570 335.997C560.061 335.997 552 344.058 552 353.997C552 363.936 560.061 371.997 570 371.997C579.939 371.997 588 363.936 588 353.997C588 344.058 579.939 335.997 570 335.997ZM48 407.997C48 417.936 39.939 425.997 30 425.997C20.061 425.997 12 417.936 12 407.997C12 398.058 20.061 389.997 30 389.997C39.939 389.997 48 398.058 48 407.997ZM84 389.997C74.061 389.997 66 398.058 66 407.997C66 417.936 74.061 425.997 84 425.997C93.939 425.997 102 417.936 102 407.997C102 398.058 93.939 389.997 84 389.997ZM138 389.997C128.061 389.997 120 398.058 120 407.997C120 417.936 128.061 425.997 138 425.997C147.939 425.997 156 417.936 156 407.997C156 398.058 147.939 389.997 138 389.997ZM192 389.997C182.061 389.997 174 398.058 174 407.997C174 417.936 182.061 425.997 192 425.997C201.939 425.997 210 417.936 210 407.997C210 398.058 201.939 389.997 192 389.997ZM246 389.997C236.061 389.997 228 398.058 228 407.997C228 417.936 236.061 425.997 246 425.997C255.939 425.997 264 417.936 264 407.997C264 398.058 255.939 389.997 246 389.997ZM300 389.997C290.061 389.997 282 398.058 282 407.997C282 417.936 290.061 425.997 300 425.997C309.939 425.997 318 417.936 318 407.997C318 398.058 309.939 389.997 300 389.997ZM354 389.997C344.061 389.997 336 398.058 336 407.997C336 417.936 344.061 425.997 354 425.997C363.939 425.997 372 417.936 372 407.997C372 398.058 363.939 389.997 354 389.997ZM408 389.997C398.061 389.997 390 398.058 390 407.997C390 417.936 398.061 425.997 408 425.997C417.939 425.997 426 417.936 426 407.997C426 398.058 417.939 389.997 408 389.997ZM462 389.997C452.061 389.997 444 398.058 444 407.997C444 417.936 452.061 425.997 462 425.997C471.939 425.997 480 417.936 480 407.997C480 398.058 471.939 389.997 462 389.997ZM516 389.997C506.061 389.997 498 398.058 498 407.997C498 417.936 506.061 425.997 516 425.997C525.939 425.997 534 417.936 534 407.997C534 398.058 525.939 389.997 516 389.997ZM570 389.997C560.061 389.997 552 398.058 552 407.997C552 417.936 560.061 425.997 570 425.997C579.939 425.997 588 417.936 588 407.997C588 398.058 579.939 389.997 570 389.997ZM48 461.997C48 471.936 39.939 479.997 30 479.997C20.061 479.997 12 471.936 12 461.997C12 452.058 20.061 443.997 30 443.997C39.939 443.997 48 452.058 48 461.997ZM84 443.997C74.061 443.997 66 452.058 66 461.997C66 471.936 74.061 479.997 84 479.997C93.939 479.997 102 471.936 102 461.997C102 452.058 93.939 443.997 84 443.997ZM138 443.997C128.061 443.997 120 452.058 120 461.997C120 471.936 128.061 479.997 138 479.997C147.939 479.997 156 471.936 156 461.997C156 452.058 147.939 443.997 138 443.997ZM192 443.997C182.061 443.997 174 452.058 174 461.997C174 471.936 182.061 479.997 192 479.997C201.939 479.997 210 471.936 210 461.997C210 452.058 201.939 443.997 192 443.997ZM246 443.997C236.061 443.997 228 452.058 228 461.997C228 471.936 236.061 479.997 246 479.997C255.939 479.997 264 471.936 264 461.997C264 452.058 255.939 443.997 246 443.997ZM300 443.997C290.061 443.997 282 452.058 282 461.997C282 471.936 290.061 479.997 300 479.997C309.939 479.997 318 471.936 318 461.997C318 452.058 309.939 443.997 300 443.997ZM354 443.997C344.061 443.997 336 452.058 336 461.997C336 471.936 344.061 479.997 354 479.997C363.939 479.997 372 471.936 372 461.997C372 452.058 363.939 443.997 354 443.997ZM408 443.997C398.061 443.997 390 452.058 390 461.997C390 471.936 398.061 479.997 408 479.997C417.939 479.997 426 471.936 426 461.997C426 452.058 417.939 443.997 408 443.997ZM462 443.997C452.061 443.997 444 452.058 444 461.997C444 471.936 452.061 479.997 462 479.997C471.939 479.997 480 471.936 480 461.997C480 452.058 471.939 443.997 462 443.997ZM516 443.997C506.061 443.997 498 452.058 498 461.997C498 471.936 506.061 479.997 516 479.997C525.939 479.997 534 471.936 534 461.997C534 452.058 525.939 443.997 516 443.997ZM570 443.997C560.061 443.997 552 452.058 552 461.997C552 471.936 560.061 479.997 570 479.997C579.939 479.997 588 471.936 588 461.997C588 452.058 579.939 443.997 570 443.997Z" fill="#2F9E98"/>
<path d="M301.5 301.5H298.5V298.5H301.5V301.5Z" fill="#DDBC9B"/>
<path d="M586.251 599.334C579.663 585.096 561.666 563.997 541.671 558.168C516.954 550.959 461.16 542.244 440.472 537.399C423.888 533.511 390.486 503.517 378.78 493.449C376.68 491.649 374.961 487.932 374.919 485.169C374.502 452.577 387.504 365.997 387.504 365.997H300H212.499C212.499 365.997 225.501 452.574 225.078 485.169C225.045 487.932 223.317 491.649 221.223 493.449C209.517 503.517 176.115 533.511 159.531 537.399C138.84 542.244 83.046 551.256 58.332 558.465C38.331 564.291 20.34 585.093 13.752 599.331C2.628 623.355 0 666.831 0 704.331H300H600C600 666.834 597.369 623.358 586.251 599.334Z" fill="#F3D4CF"/>
<path d="M477.468 552.174C550.494 562.8 581.226 578.298 590.85 704.337H600C600 666.837 597.369 623.361 586.251 599.337C579.663 585.099 561.666 564 541.671 558.171C516.954 550.962 461.16 542.247 440.472 537.402C423.888 533.514 385.746 501.195 375.543 488.352C385.623 502.464 413.916 535.167 438.705 543.732C450.564 547.83 460.44 549.696 477.468 552.174ZM161.298 543.732C186.087 535.17 214.377 502.464 224.46 488.352C214.26 501.192 176.118 533.514 159.531 537.402C138.843 542.247 83.049 551.259 58.332 558.468C38.337 564.294 20.34 585.096 13.752 599.334C2.63399 623.358 0.00299072 666.834 0.00299072 704.334H9.15299C18.717 579.102 49.578 562.785 122.535 552.171C139.56 549.696 149.439 547.83 161.298 543.732Z" fill="#FFF4F3"/>
<path d="M286.938 592.86C286.938 592.86 271.716 588.033 265.689 585.723C234.342 573.696 132.504 565.902 132.504 565.902C132.504 565.902 239.766 570.159 263.436 574.239C262.062 559.938 254.385 514.227 254.385 514.227C254.385 514.227 269.832 564.672 273.612 577.398C275.634 584.202 286.938 592.86 286.938 592.86ZM319.335 588.834C319.068 589.053 318.762 589.338 318.429 589.638C318.768 589.383 319.074 589.116 319.335 588.834ZM286.938 592.86C286.938 592.86 295.617 601.836 299.979 601.95C305.709 602.103 314.463 593.253 318.432 589.638C314.637 592.509 305.955 593.811 302.502 593.946C298.512 594.099 286.938 592.86 286.938 592.86ZM349.992 570.303C345.357 571.047 336.834 572.67 336.834 572.67L343.695 528C341.757 537.213 330.273 576.633 319.335 588.834C325.065 583.986 337.809 581.661 344.307 580.722C375.015 576.27 375.003 576.273 467.493 565.902C467.493 565.902 380.28 565.437 349.992 570.303Z" fill="#E4B3AB"/>
<path d="M586.251 599.334C579.663 585.096 561.666 563.997 541.671 558.168C516.954 550.959 461.16 542.244 440.472 537.399C423.888 533.511 390.486 503.517 378.78 493.449C376.68 491.649 374.961 487.932 374.919 485.169C374.502 452.577 387.504 365.997 387.504 365.997H300H212.499C212.499 365.997 225.501 452.574 225.078 485.169C225.045 487.932 223.317 491.649 221.223 493.449C209.517 503.517 176.115 533.511 159.531 537.399C138.84 542.244 83.046 551.256 58.332 558.465C38.331 564.291 20.34 585.093 13.752 599.331C2.628 623.355 0 666.831 0 704.331H300H600C600 666.834 597.369 623.358 586.251 599.334Z" stroke="#C5796D" stroke-width="4.5"/>
<path d="M226.551 489.156C247.488 502.776 275.472 515.598 300.006 515.598C323.49 515.598 352.041 502.671 373.38 488.991C372.945 487.707 372.681 486.405 372.663 485.199C372.285 455.568 382.698 383.136 384.891 368.25H215.109C217.299 383.139 227.715 455.568 227.331 485.196C227.316 486.438 227.028 487.809 226.551 489.156Z" fill="url(#paint0_linear_0:1)"/>
<path d="M593.394 604.638C561.96 543.804 501.435 552.426 443.49 536.109C442.086 546.864 403.737 597.546 394.629 626.292C389.514 622.023 383.409 616.317 379.002 611.094C357.438 585.765 325.479 503.814 314.754 567.81C317.085 539.082 329.763 532.752 347.367 556.833C366.291 582.747 366.993 596.127 393.993 624.306C398.763 604.503 409.089 590.529 421.101 572.994C432.726 556.005 441.216 548.343 442.458 533.22C438.123 525.996 439.161 522.762 432.156 518.082C388.191 488.346 419.58 458.172 379.728 450.987C379.416 454.581 379.023 458.607 378.693 461.634C387.216 466.02 389.766 483.09 376.644 495.588C355.791 518.481 322.284 519.618 313.548 554.757L313.527 554.754C310.746 565.185 308.52 581.151 307.464 590.511L300.099 665.205L292.689 591.834C286.68 536.757 278.826 531.369 253.14 514.35C236.121 503.07 208.311 486.051 217.389 466.809C218.424 464.583 219.684 463.215 221.247 462.186C220.797 457.788 220.533 455.238 220.185 451.152C187.284 452.553 192.342 499.098 167.427 516.222C160.896 520.71 157.566 524.859 155.223 531.609C156.816 550.452 198.735 593.037 206.058 624.306C233.313 595.53 233.523 582.957 252.558 556.929C268.953 534.534 282.342 536.832 285.159 567.138C283.611 558.033 279.945 544.095 272.001 544.095C265.455 544.095 258.633 553.749 255.258 558.408C236.361 584.442 233.325 603.063 205.317 626.307C203.379 620.484 201.105 614.634 198.393 609.189C187.293 586.767 157.236 541.524 153.819 537.138C140.535 540.876 120.288 545.016 108.12 547.038C28.608 560.271 -2.214 585.945 -13.935 706.131C277.671 703.179 396.498 704.463 613.695 704.463C610.98 677.721 605.643 628.38 593.394 604.638Z" fill="#864025"/>
<path d="M419.907 572.349C409.524 587.511 401.304 600.249 396.183 616.212C402.084 583.275 439.491 552.09 435.441 532.395C433.707 523.959 403.863 505.152 402.318 477.195C410.553 502.809 441.294 521.091 441.345 533.364C441.426 553.446 440.826 541.785 419.907 572.349ZM613.458 702.084C614.499 676.038 605.742 625.332 594.888 604.29C563.454 543.456 500.199 551.217 442.257 534.9C441.744 535.554 443.727 539.88 442.338 541.74C577.785 566.7 593.208 596.451 613.458 702.084ZM167.436 516.225C184.077 502.434 189.066 489.075 192.885 477.192C184.335 526.032 171.552 507.561 162.225 532.02C156.891 546.009 198.234 584.229 203.823 616.209C196.497 603.684 188.643 588.27 178.26 573.108C170.178 561.297 165.03 550.497 157.023 541.407C153.207 521.268 161.088 521.487 167.436 516.225ZM157.02 541.41C155.631 539.55 154.338 537.798 153.825 537.144C95.883 553.458 38.043 543.456 6.61199 604.293C-4.24501 625.335 -9.66601 668.382 -12.657 694.485C-6.87001 662.766 1.75499 622.806 20.232 598.698C51.564 556.197 109.38 547.995 157.02 541.41Z" fill="#955238"/>
<path d="M359.544 514.176C344.955 522.636 332.601 530.94 324.405 542.619C344.106 543.705 358.668 578.916 362.607 583.704C325.608 532.206 311.607 567.204 307.107 600C308.403 589.362 309.468 571.212 311.568 563.421C312.18 560.322 312.837 557.358 313.53 554.754L313.551 554.757C322.287 519.618 355.794 518.481 376.647 495.588C389.769 483.09 387.216 466.02 378.696 461.634C379.023 458.607 379.419 454.581 379.731 450.987C381.918 451.386 383.868 451.863 385.677 452.394C412.554 476.037 377.88 505.971 359.544 514.176ZM236.895 514.176C251.487 522.636 269.331 532.662 277.503 543.327C263.109 540.708 247.11 562.209 239.109 581.208C273.609 537.207 284.109 562.209 295.11 600.003C293.817 589.368 290.538 571.215 288.438 563.424C287.826 560.325 287.172 557.361 286.476 554.757L286.458 554.76C277.722 519.621 245.412 518.484 224.559 495.591C211.437 483.093 213.693 466.023 222.216 461.637C221.889 458.61 221.496 454.584 221.184 450.99C218.997 451.389 217.047 451.866 215.238 452.397C192.714 479.901 220.416 504.18 236.895 514.176Z" fill="#773015"/>
<path d="M377.628 489.969C377.721 472.866 377.151 482.355 378.882 462.999C385.554 466.578 386.403 481.269 377.628 489.969ZM222.417 488.352C215.448 479.232 214.587 469.917 221.376 462.882C223.002 478.056 222.177 476.226 222.417 488.352Z" fill="#672208"/>
<path d="M442.872 530.745C442.254 520.119 419.433 511.257 409.308 488.22C402.057 471.81 408.939 453.018 379.113 449.997C377.478 459.558 376.029 480.576 376.464 490.734C361.35 507.003 337.971 511.212 323.109 528.705C307.245 547.377 300.369 587.805 300.108 671.706L303.804 669.303C303.804 669.303 307.92 589.848 307.95 589.614C317.202 510.333 346.614 529.059 376.887 495.825C390.45 482.829 387.21 465.609 379.053 461.436C379.407 458.076 379.737 454.749 380.028 451.386C405.684 456.099 398.355 471.201 406.38 489.645C417.048 514.167 437.271 519.522 438.576 531.414C440.646 550.257 429.402 558.255 418.125 574.716C400.386 600.393 396.285 613.491 393.822 623.64C366.897 595.362 366.882 582.966 347.628 556.626C327.096 528.528 313.611 541.704 307.95 589.614C308.532 581.739 319.26 538.089 332.079 545.661C346.896 554.295 361.452 590.985 378.762 611.319C383.379 616.788 389.325 622.275 394.797 626.865C405.018 591.174 442.797 553.47 444.021 536.25C503.106 552.918 604.338 535.815 613.344 704.139C489.93 704.799 355.899 702.093 -13.566 705.801C-8.211 650.49 0.846002 596.277 33.603 571.842C47.658 561.321 63.954 555.819 80.739 552.318C104.13 547.47 130.305 544.353 153.498 538.077C155.862 541.077 196.113 601.671 205.17 626.868C237.759 601.359 250.791 553.491 268.734 545.226C281.226 539.487 291.411 581.04 291.993 588.885C287.103 538.212 271.143 521.631 240.921 574.116C226.029 599.988 222.081 607.002 206.241 623.646C199.881 596.664 155.556 545.784 157.482 531.66C159.384 517.722 176.424 521.571 187.776 491.928C194.142 475.308 192.732 456.984 219.9 451.563C220.194 455.064 220.551 458.523 220.908 462.021C213.471 466.914 211.581 483.354 223.464 494.847C234.165 507.102 253.476 514.095 266.229 523.875C281.262 535.476 287.208 547.356 291.993 588.885C292.098 589.791 296.103 669.711 296.103 669.711L300.102 671.712C298.101 588.213 290.097 538.008 273.939 523.938C259.983 511.488 235.614 503.55 223.788 489.651C224.148 479.223 222.093 458.097 220.809 450.138C193.782 452.892 193.017 470.052 187.221 485.034C171.726 525.087 156.819 513.615 154.35 530.211C154.119 531.762 154.476 532.929 154.851 534.993C132.111 539.637 103.731 542.682 80.928 546.852C46.899 553.065 14.793 571.026 0.152999 605.208C-10.968 631.149 -14.19 677.361 -15.006 705.837C-15.039 706.041 -15.039 706.278 -15.039 706.482C-14.583 706.518 -14.097 706.518 -13.641 706.518C377.784 710.679 611.706 704.784 614.961 704.784C616.107 544.704 528.606 551.706 442.872 530.745ZM377.928 489.072C377.976 480.273 378.243 470.085 378.882 462.999C383.676 466.419 387.399 477.786 377.928 489.072ZM222.264 487.779C214.308 477.366 217.464 467.271 221.076 463.779C221.829 470.817 222.126 480.672 222.264 487.779Z" fill="#581900"/>
<path d="M141.654 244.515C138.753 237.054 117.408 226.509 108.024 228.174C97.41 230.055 93.51 241.242 94.917 249.531C98.226 268.992 106.905 277.188 110.805 292.389C114.093 305.208 121.104 312.585 124.569 318.033C128.829 324.717 132.759 340.056 133.638 342.294C135.027 345.834 139.947 354.423 148.644 353.982C158.643 353.466 171.279 333.918 171.486 329.577C172.632 306.027 149.199 263.937 141.654 244.515Z" fill="#F3D4CF" stroke="#C5796D" stroke-width="4.5"/>
<path d="M143.859 323.88C143.859 323.88 145.146 320.667 143.577 317.814C141.561 314.145 136.308 307.41 135.114 303.381C134.139 300.087 134.634 293.046 134.475 289.602C134.193 283.512 129.999 279.342 128.694 275.847C119.952 252.468 108.318 237.978 101.694 234.969C96.795 246.936 100.677 255.69 107.514 274.104C103.389 249.078 107.352 241.254 107.352 241.254C107.352 241.254 119.406 251.649 125.355 274.77C126.432 278.943 122.022 287.652 122.865 291.885C123.921 297.201 135.417 307.488 138.636 311.79C141.147 315.141 143.859 323.88 143.859 323.88Z" fill="#C5796D"/>
<path d="M457.56 244.515C460.461 237.054 481.806 226.509 491.193 228.174C501.81 230.055 505.707 241.242 504.3 249.531C500.988 268.992 492.312 277.188 488.409 292.389C485.121 305.208 478.107 312.585 474.645 318.033C470.385 324.717 466.455 340.056 465.576 342.294C464.187 345.834 459.264 354.423 450.57 353.982C440.574 353.466 427.935 333.918 427.731 329.577C426.579 306.027 450.018 263.937 457.56 244.515Z" fill="#F3D4CF" stroke="#C5796D" stroke-width="4.5"/>
<path d="M455.355 323.88C455.355 323.88 454.065 320.667 455.637 317.814C457.653 314.145 462.909 307.41 464.097 303.381C465.069 300.087 464.577 293.046 464.742 289.602C465.024 283.512 469.212 279.342 470.52 275.847C479.262 252.468 490.899 237.978 497.52 234.969C502.419 246.936 498.534 255.69 491.703 274.104C495.828 249.078 491.862 241.254 491.862 241.254C491.862 241.254 479.808 251.649 473.856 274.77C472.785 278.943 477.189 287.652 476.346 291.885C475.29 297.201 463.794 307.488 460.578 311.79C458.067 315.141 455.355 323.88 455.355 323.88Z" fill="#C5796D"/>
<path d="M300.006 2.60101C199.152 2.76001 117.246 85.608 117.402 187.68C117.429 203.889 119.514 219.609 123.408 234.582H123.411C123.447 234.744 148.434 296.022 154.8 334.197C161.94 377.025 186.186 424.893 203.706 441.555C221.862 458.823 264.549 485.601 300.003 485.601C333.804 485.601 378.141 458.823 396.3 441.555C413.82 424.893 438.066 377.025 445.206 334.197C451.572 296.022 476.562 234.744 476.595 234.582H476.601C480.495 219.606 482.583 203.889 482.607 187.68C482.769 85.608 400.86 2.76001 300.006 2.60101Z" fill="#F3D4CF"/>
<path d="M410.703 40.59C449.301 74.544 473.892 125.838 473.811 183.207C473.784 199.416 471.798 215.133 468.093 230.109H468.09C468.057 230.271 444.273 291.549 438.213 329.724C431.412 372.555 408.336 420.423 391.662 437.082C374.379 454.353 332.178 481.131 300.006 481.131C266.259 481.131 225.63 454.353 208.35 437.082C191.676 420.423 168.6 372.555 161.802 329.724C155.742 291.552 131.958 230.274 131.925 230.109H131.922C128.214 215.133 126.228 199.416 126.204 183.207C126.12 125.841 150.708 74.553 189.303 40.596C145.557 74.427 117.312 127.722 117.402 187.68C117.429 203.889 119.514 219.609 123.408 234.582H123.411C123.447 234.744 148.434 296.022 154.8 334.197C161.94 377.025 186.186 424.893 203.706 441.555C221.862 458.823 264.549 485.601 300.003 485.601C333.804 485.601 378.141 458.823 396.3 441.555C413.82 424.893 438.066 377.025 445.206 334.197C451.572 296.022 476.562 234.744 476.595 234.582H476.601C480.495 219.606 482.583 203.889 482.607 187.68C482.703 127.719 454.455 74.418 410.703 40.59Z" fill="#EBC3BD"/>
<path d="M300.006 2.60101C199.152 2.76001 117.246 85.608 117.402 187.68C117.429 203.889 119.514 219.609 123.408 234.582H123.411C123.447 234.744 148.434 296.022 154.8 334.197C161.94 377.025 186.186 424.893 203.706 441.555C221.862 458.823 264.549 485.601 300.003 485.601C333.804 485.601 378.141 458.823 396.3 441.555C413.82 424.893 438.066 377.025 445.206 334.197C451.572 296.022 476.562 234.744 476.595 234.582H476.601C480.495 219.606 482.583 203.889 482.607 187.68C482.769 85.608 400.86 2.76001 300.006 2.60101Z" stroke="#C5796D" stroke-width="4.5"/>
<path d="M300.6 428.841C292.104 429.273 289.668 420.582 289.668 420.582C289.668 420.582 301.461 422.277 310.641 419.523C310.644 419.526 308.076 428.466 300.6 428.841Z" fill="url(#paint1_linear_0:1)"/>
<path d="M301.464 422.28C295.512 422.58 290.169 422.049 289.833 422.013C289.419 421.971 289.119 421.605 289.161 421.197C289.206 420.783 289.59 420.498 289.983 420.525C290.106 420.534 302.271 421.74 310.197 419.514C310.59 419.418 311.01 419.637 311.124 420.036C311.238 420.435 311.004 420.846 310.605 420.96C307.803 421.746 304.551 422.124 301.464 422.28Z" fill="#C5796D"/>
<path d="M247.5 390.897C247.5 390.897 285.096 395.355 297.654 395.394C311.313 395.43 355.5 390.897 355.5 390.897C342.726 401.499 328.671 411.693 296.835 411.894C268.359 412.077 261.063 401.736 247.5 390.897Z" fill="white"/>
<path d="M247.5 390.897C247.5 390.897 285.096 395.355 297.654 395.394C311.313 395.43 355.5 390.897 355.5 390.897C342.726 401.499 328.671 411.693 296.835 411.894C268.359 412.077 261.063 401.736 247.5 390.897Z" stroke="#C5796D" stroke-width="2.25"/>
<path d="M260.187 254.241C260.67 255.954 260.958 257.712 260.958 259.515C260.958 263.958 259.389 268.158 256.638 271.92C244.407 272.034 205.74 274.038 199.833 271.011C191.394 266.688 183.864 248.904 183.315 244.53C213.3 227.283 235.425 230.637 260.187 254.241Z" fill="url(#paint2_radial_0:1)"/>
<path d="M242.25 253.5C242.25 263.439 234.189 271.497 224.25 271.497C214.311 271.497 206.25 263.439 206.25 253.5C206.25 243.552 214.311 235.497 224.25 235.497C234.189 235.497 242.25 243.555 242.25 253.5Z" fill="#66724E"/>
<path d="M213.786 261.915C216.411 261.699 214.086 260.997 214.086 260.997C212.787 260.298 210.342 259.221 210.342 258.234C210.342 255.141 214.584 254.337 210.24 253.119C205.728 248.979 213.741 249.063 213.681 248.925C210.756 241.797 214.578 245.712 216.186 243.606C222.15 235.809 217.848 244.407 221.085 243.606C222.258 243.318 218.745 239.013 221.187 239.616C222.804 240.012 223.173 241.356 223.173 241.356C224.352 241.125 226.197 239.31 226.197 239.31C228.444 239.988 230.022 243.18 229.326 242.583C230.43 242.448 231.978 241.92 233.184 241.56C233.184 241.56 233.394 240.843 233.601 241.461C236.352 249.444 243.453 248.871 235.278 251.181C235.278 251.181 234.75 251.181 236.424 252.507C244.554 258.999 230.118 256.992 237.777 259.977C238.089 259.665 233.187 262.872 233.187 263.76C233.187 265.263 230.061 269.214 227.349 267.66C225.837 266.796 225.606 269.46 224.718 268.23C222.975 265.821 219.492 268.125 220.779 265.911C222.681 264.348 218.817 266.523 218.067 266.523C215.583 266.523 221.316 258.174 229.749 264.378C232.215 266.184 227.157 260.079 231.624 260.079C232.071 260.226 231.936 258.516 231.936 258.033C229.614 257.58 236.106 258.024 236.106 254.247C236.517 254.328 237.633 253.197 231.201 254.247C231.201 254.247 230.997 251.997 231.099 251.589C231.429 250.275 234.741 250.695 233.811 249.339C233.811 249.336 231.414 244.527 231.414 244.527C223.695 243.285 228.108 242.511 223.281 243.504C223.053 244.638 212.946 249.456 213.267 251.691C213.567 253.797 219.612 254.505 213.891 258.237C222.465 274.653 207.561 257.862 213.786 261.915Z" fill="#788165"/>
<path d="M224.25 237.747L224.763 250.926L230.274 238.947L225.705 251.316L235.386 242.361L226.431 252.039L238.803 247.47L226.827 252.987L240.003 253.497L226.827 254.007L238.803 259.524L226.431 254.955L235.386 264.633L225.705 255.678L230.274 268.047L224.763 256.068L224.25 269.247L223.737 256.068L218.223 268.047L222.789 255.678L213.111 264.633L222.066 254.955L209.694 259.524L221.67 254.007L208.5 253.497L221.67 252.987L209.694 247.47L222.066 252.039L213.111 242.361L222.789 251.316L218.223 238.947L223.737 250.926L224.25 237.747Z" fill="#455328"/>
<path d="M226.638 241.701L225.021 251.646L230.964 243.513L225.666 252.084L234.276 246.84L226.101 252.732L236.058 251.187L226.254 253.5L236.052 255.882L226.101 254.268L234.237 260.214L225.663 254.919L230.907 263.526L225.015 255.351L226.563 265.308L224.25 255.498L221.865 265.29L223.482 255.345L217.53 263.478L222.834 254.907L214.227 260.151L222.402 254.259L212.445 255.807L222.252 253.494L212.46 251.115L222.405 252.726L214.269 246.78L222.843 252.075L217.602 243.468L223.494 251.643L221.946 241.689L224.262 251.499L226.638 241.701Z" fill="#36441A"/>
<path opacity="0.9" d="M231 253.5C231 257.229 227.976 260.25 224.25 260.25C220.524 260.25 217.5 257.229 217.5 253.5C217.5 249.771 220.524 246.75 224.25 246.75C227.976 246.75 231 249.771 231 253.5Z" fill="black"/>
<path opacity="0.7" d="M217.161 266.433C216.168 267.429 214.206 267.078 212.781 265.65C211.353 264.225 211.002 262.263 211.998 261.267C212.991 260.274 214.953 260.625 216.378 262.05C217.806 263.478 218.157 265.437 217.161 266.433Z" fill="white"/>
<path opacity="0.9" d="M238.668 249.954C237.18 251.442 233.577 250.254 230.622 247.296C227.664 244.338 226.476 240.735 227.964 239.247C229.452 237.759 233.055 238.947 236.01 241.905C238.968 244.866 240.156 248.466 238.668 249.954Z" fill="white"/>
<path d="M167.4 239.985C167.4 281.409 191.58 334.197 221.4 334.197C251.22 334.197 275.4 300.624 275.4 259.2C275.4 217.773 251.22 184.197 221.4 184.197C191.58 184.197 167.4 198.561 167.4 239.985ZM183.312 244.53C213.297 227.283 235.422 230.64 260.184 254.241C260.667 255.954 260.955 257.712 260.955 259.515C260.955 263.958 259.386 268.158 256.635 271.92C244.404 272.034 205.737 274.038 199.83 271.011C191.394 266.688 183.861 248.904 183.312 244.53Z" fill="#F3D4CF"/>
<path d="M183.627 245.985C185.193 251.922 192.126 267.063 199.83 271.011C205.737 274.038 244.401 272.034 256.635 271.92C259.386 268.161 260.955 263.961 260.955 259.515C260.955 257.712 260.667 255.954 260.184 254.241C235.686 230.889 213.756 227.391 184.254 244.02C190.158 226.848 209.82 214.164 233.274 214.059C261.453 213.939 284.328 232.002 284.397 254.412C284.466 276.819 261.681 295.074 233.514 295.2C205.335 295.32 182.466 277.257 182.397 254.85C182.391 251.802 182.835 248.844 183.627 245.985Z" fill="url(#paint3_radial_0:1)"/>
<path d="M199.83 271.011C191.391 266.688 183.861 248.904 183.312 244.53C213.297 227.283 235.422 230.64 260.184 254.241C260.667 255.954 260.955 257.712 260.955 259.515C260.955 263.958 259.386 268.158 256.635 271.92C244.404 272.034 205.737 274.038 199.83 271.011Z" fill="url(#paint4_radial_0:1)"/>
<path d="M183.414 235.167C193.656 231.147 236.808 216.225 260.358 247.989C233.4 217.686 196.746 231.654 183.414 235.167Z" fill="#C5796D"/>
<path d="M176.4 242.916C180.051 249.942 195.483 273.393 199.083 273.57C229.26 275.394 248.016 272.826 260.022 271.131C255.525 270.561 206.544 273.474 199.833 270.192C191.394 266.067 183.864 249.099 183.315 244.923C214.068 228.045 236.544 231.786 262.083 255.9C237.18 218.103 185.559 235.323 176.4 242.916Z" fill="#1B1929"/>
<path d="M338.616 254.241C338.133 255.954 337.845 257.712 337.845 259.515C337.845 263.958 339.414 268.158 342.165 271.92C354.396 272.034 393.063 274.038 398.97 271.011C407.409 266.688 414.939 248.904 415.488 244.53C385.503 227.283 363.378 230.637 338.616 254.241Z" fill="url(#paint5_radial_0:1)"/>
<path d="M393.75 253.497C393.75 263.445 385.698 271.497 375.75 271.497C365.802 271.497 357.75 263.445 357.75 253.497C357.75 243.549 365.802 235.497 375.75 235.497C385.698 235.497 393.75 243.549 393.75 253.497Z" fill="#66724E"/>
<path d="M365.274 261.918C367.911 261.69 365.589 261.003 365.589 261.003C364.287 260.301 361.827 259.227 361.827 258.225C361.827 255.132 366.081 254.34 361.758 253.11C357.222 248.979 365.238 249.066 365.169 248.925C362.25 241.788 366.084 245.709 367.701 243.6C373.641 235.812 369.354 244.41 372.588 243.6C373.749 243.318 370.233 239.013 372.693 239.61C374.31 240.015 374.661 241.35 374.661 241.35C375.855 241.122 377.685 239.31 377.685 239.31C379.935 239.979 381.516 243.177 380.814 242.58C381.939 242.439 383.487 241.911 384.681 241.56C384.681 241.56 384.891 240.84 385.104 241.455C387.846 249.435 394.947 248.874 386.793 251.175C386.793 251.175 386.265 251.175 387.918 252.492C396.039 258.996 381.624 256.974 389.289 259.962C389.604 259.662 384.684 262.863 384.684 263.76C384.684 265.254 381.555 269.208 378.849 267.645C377.337 266.784 377.091 269.457 376.212 268.224C374.49 265.815 370.974 268.119 372.273 265.905C374.172 264.342 370.305 266.52 369.567 266.52C367.071 266.52 372.801 258.171 381.24 264.375C383.7 266.169 378.639 260.067 383.139 260.067C383.562 260.208 383.454 258.504 383.454 258.027C381.099 257.571 387.603 258.009 387.603 254.229C388.026 254.316 389.151 253.191 382.716 254.229C382.716 254.229 382.506 251.979 382.611 251.574C382.926 250.257 386.232 250.677 385.317 249.324L382.926 244.509C375.192 243.279 379.62 242.505 374.769 243.489C374.559 244.632 364.434 249.447 364.749 251.679C365.064 253.788 371.112 254.493 365.382 258.219C373.956 274.662 359.052 257.856 365.274 261.918Z" fill="#788165"/>
<path d="M375.75 237.747L376.278 250.932L381.762 238.944L377.193 251.319L386.895 242.355L377.931 252.042L390.306 247.473L378.318 252.993L391.503 253.503L378.318 254.013L390.306 259.533L377.931 254.964L386.895 264.651L377.193 255.687L381.762 268.062L376.278 256.074L375.75 269.247L375.222 256.062L369.702 268.05L374.271 255.675L364.602 264.639L373.566 254.952L361.191 259.521L373.179 254.001L359.994 253.491L373.179 252.981L361.191 247.461L373.566 252.03L364.602 242.343L374.271 251.307L369.702 238.932L375.222 250.92L375.75 237.747Z" fill="#455328"/>
<path d="M378.141 241.701L376.524 251.649L382.464 243.51L377.154 252.087L385.767 246.831L377.61 252.738L387.558 251.19L377.748 253.494L387.558 255.885L377.61 254.268L385.731 260.208L377.154 254.916L382.392 263.529L376.521 255.354L378.069 265.302L375.75 255.501L373.359 265.293L374.976 255.345L369.036 263.484L374.346 254.907L365.733 260.163L373.89 254.256L363.942 255.804L373.752 253.5L363.942 251.109L373.89 252.726L365.769 246.786L374.346 252.078L369.108 243.465L374.979 251.64L373.431 241.692L375.75 251.502L378.141 241.701Z" fill="#36441A"/>
<path opacity="0.9" d="M382.5 253.497C382.5 257.223 379.476 260.247 375.75 260.247C372.024 260.247 369 257.223 369 253.497C369 249.771 372.024 246.747 375.75 246.747C379.476 246.747 382.5 249.771 382.5 253.497Z" fill="black"/>
<path opacity="0.7" d="M368.649 266.436C367.665 267.42 365.697 267.087 364.29 265.644C362.85 264.219 362.496 262.269 363.516 261.267C364.5 260.283 366.468 260.634 367.875 262.059C369.315 263.481 369.669 265.434 368.649 266.436Z" fill="white"/>
<path opacity="0.9" d="M390.165 249.945C388.689 251.439 385.068 250.26 382.113 247.29C379.161 244.338 377.964 240.732 379.476 239.256C380.952 237.762 384.54 238.941 387.492 241.911C390.48 244.866 391.641 248.469 390.165 249.945Z" fill="white"/>
<path d="M377.403 184.197C347.583 184.197 323.403 217.776 323.403 259.2C323.403 300.624 347.583 334.197 377.403 334.197C407.223 334.197 431.403 285.519 431.403 244.098C431.403 202.674 407.223 184.197 377.403 184.197ZM398.97 271.011C393.063 274.038 354.399 272.034 342.165 271.92C339.414 268.161 337.845 263.961 337.845 259.515C337.845 257.712 338.133 255.954 338.616 254.241C363.378 230.637 385.503 227.283 415.488 244.53C414.939 248.904 407.409 266.688 398.97 271.011Z" fill="#F3D4CF"/>
<path d="M415.176 245.985C413.61 251.922 406.677 267.063 398.973 271.011C393.066 274.038 354.402 272.034 342.168 271.92C339.417 268.161 337.848 263.961 337.848 259.515C337.848 257.712 338.136 255.954 338.619 254.241C363.117 230.889 385.047 227.391 414.549 244.02C408.645 226.848 388.983 214.164 365.529 214.059C337.35 213.939 314.475 232.002 314.406 254.412C314.337 276.819 337.122 295.074 365.289 295.2C393.468 295.32 416.337 277.257 416.406 254.85C416.412 251.802 415.965 248.844 415.176 245.985Z" fill="url(#paint6_radial_0:1)"/>
<path d="M398.97 271.011C407.409 266.688 414.939 248.904 415.488 244.53C385.503 227.283 363.378 230.64 338.616 254.241C338.133 255.954 337.845 257.712 337.845 259.515C337.845 263.958 339.414 268.158 342.165 271.92C354.399 272.034 393.063 274.038 398.97 271.011Z" fill="url(#paint7_radial_0:1)"/>
<path d="M338.442 247.992C361.992 216.228 405.144 231.147 415.386 235.17C402.057 231.654 365.403 217.686 338.442 247.992Z" fill="#C5796D"/>
<path d="M422.403 242.916C418.752 249.942 403.32 273.393 399.72 273.57C369.543 275.394 350.787 272.826 338.781 271.131C343.278 270.561 392.259 273.474 398.97 270.192C407.409 266.067 414.939 249.099 415.488 244.923C384.735 228.045 362.259 231.786 336.72 255.9C361.623 218.103 413.244 235.323 422.403 242.916Z" fill="#1B1929"/>
<path d="M423 341.922C423.105 409.788 368.124 464.904 300.186 464.997C232.26 465.108 177.102 410.178 176.997 342.297C176.892 274.437 231.873 219.105 299.808 218.997C367.737 218.892 422.901 274.047 423 341.922Z" fill="url(#paint8_radial_0:1)"/>
<path d="M412.5 161.997C412.5 224.13 362.133 274.497 300.003 274.497C237.87 274.497 187.5 224.13 187.5 161.997C187.5 99.864 237.87 49.497 300.003 49.497C362.133 49.497 412.5 99.864 412.5 161.997Z" fill="url(#paint9_radial_0:1)"/>
<path d="M157.464 221.61C179.889 193.461 218.478 198.144 250.098 202.668C258.141 203.82 266.421 204.684 274.308 206.676C279.96 208.101 284.403 214.542 279.861 219.744C277.737 222.219 273.102 221.76 270.24 221.7C232.377 220.935 189.579 199.161 157.464 221.61Z" fill="#B79675"/>
<path d="M442.731 220.47C436.239 216.126 429.369 213.06 421.602 211.803C393.111 207.183 338.844 226.173 324.579 222.153C315.843 219.687 317.61 210.936 321.474 208.779C323.799 207.48 324.444 207.513 345.201 203.943C380.472 197.883 419.964 193.065 442.731 220.47Z" fill="#B79675"/>
<path d="M299.937 362.946C292.14 362.709 278.265 354.672 279.921 347.448C281.454 340.734 290.187 349.896 300.219 349.98C310.248 350.061 322.227 344.079 323.637 350.811C325.908 361.683 312.498 363.336 299.937 362.946Z" fill="#EBC3BD"/>
<path d="M317.379 358.86C318.009 359.685 319.095 359.685 319.77 358.854C320.463 358.023 320.499 356.673 319.851 355.851C315.147 349.788 306.681 357.915 307.32 358.758C307.557 359.073 313.824 354.339 317.379 358.86ZM282.318 343.431C283.305 349.875 285.354 358.479 301.839 362.988C285.588 362.505 275.028 359.481 275.115 344.37C275.16 336.723 283.149 321 283.149 321C283.149 321 281.274 336.621 282.318 343.431Z" fill="#C5796D"/>
<path d="M458.949 295.812C445.26 258.507 461.1 201.294 434.334 158.967C422.142 138.681 411.543 124.74 413.484 101.139L412.38 100.767C409.794 104.823 406.398 109.227 404.145 112.047C405.426 108.774 407.514 103.761 409.404 99.978L408.408 99.324C400.653 108.543 393.993 113.271 384.831 115.824C394.731 108.864 405.678 96.753 410.469 90.039L409.656 89.187C375.699 111.036 337.164 111.333 303.168 111.6C272.487 111.828 253.431 111.135 231.309 98.277C215.346 103.569 202.776 102.894 188.961 93.372C145.719 177.213 164.931 135.243 139.08 290.664C124.068 270.654 119.706 257.928 116.154 238.863C115.215 232.782 114.297 223.401 114.867 217.218L114.678 217.023C101.322 187.713 95.019 171.024 98.193 112.887C100.548 88.767 105.792 70.659 120.915 51.693C118.92 41.388 118.728 30.999 120.084 21.063C112.164 6.58197 106.713 -8.32203 104.589 -13.647C115.653 -5.17803 116.568 -4.68903 125.799 -1.77603C127.911 -7.58703 130.989 -13.359 132.96 -16.371C133.851 -9.65703 134.559 -5.12103 136.569 1.40397C137.253 1.56897 140.508 2.45097 141.549 2.72997C140.952 -1.24203 140.406 -3.08403 140.49 -6.64503C142.203 -2.73903 143.649 -1.83303 148.62 4.23297C154.122 5.38797 152.802 5.21697 154.452 5.21697C146.445 -7.33203 141.042 -18.438 139.671 -35.328C150.63 -29.085 165.963 -25.518 181.974 -25.518C219.591 -25.518 258.081 -53.754 311.481 -53.754C357.756 -53.754 397.794 -28.08 415.53 1.15497C415.512 -6.38703 415.191 -12.627 417.912 -20.379C417.912 -20.379 418.227 -9.26403 418.227 -0.603031L419.415 -0.492029C421.275 -10.395 425.199 -18.837 431.679 -26.811C425.925 -11.337 428.115 -19.599 421.677 -0.705032L422.721 -0.144032C427.014 -5.66103 430.53 -9.56103 440.778 -14.73C433.374 -7.31103 427.713 -3.06003 424.212 2.18697L425.115 2.96397C429.483 -0.996028 434.028 -2.49603 438.651 1.12497C431.208 -1.58103 426.813 3.16197 421.707 9.14997C441.564 12.423 452.337 23.88 466.299 39.195C498.435 76.251 506.898 112.428 489.468 163.713C496.773 179.502 495.648 215.088 479.343 243.771C479.337 260.601 467.823 281.367 458.949 295.812Z" fill="#DDBC9B"/>
<path d="M186.897 91.113C187.974 92.115 189.051 93.117 190.119 94.125C189.732 93.87 189.345 93.633 188.955 93.366C145.713 177.207 164.925 135.237 139.074 290.658C124.062 270.648 119.7 257.922 116.148 238.857C115.209 232.776 114.291 223.395 114.861 217.212L114.672 217.017C101.316 187.707 95.013 171.018 98.187 112.881C100.542 88.761 105.786 70.653 120.909 51.687C118.947 41.553 118.749 31.341 120.03 21.555C121.821 24.177 123.699 26.73 125.619 29.25C126.912 37.122 128.007 44.799 126 51C97.383 139.434 114 180 132 243C124.608 195.207 110.574 134.445 148.857 99C132.504 138.288 137.019 156.102 141 183C143.751 147.246 156.585 113.988 186.897 91.113ZM466.296 39.18C465.168 37.944 464.07 36.744 462.978 35.559C461.832 36.324 460.656 37.026 459.501 37.77C504.369 129.753 461.283 120.921 471.552 161.997C483.549 191.997 468 210 468 240C468 195 465.957 163.683 441.12 128.475C432.732 116.586 430.377 76.206 424.725 56.253C355.119 99 252.006 107.943 143.748 21.549C194.748 39.549 298.695 25.599 334.377 2.60098C293.703 9.98398 208.791 10.425 170.607 -5.29202C262.107 -12.402 261 -41.772 339 -47.292C301.5 -61.293 219.588 -25.53 181.974 -25.53C165.966 -25.53 150.633 -29.094 139.671 -35.34C141.042 -18.45 146.445 -7.34102 154.452 5.20498C152.799 5.20498 154.122 5.37598 148.62 4.22098C143.646 -1.84502 142.2 -2.75402 140.49 -6.65702C140.403 -3.09602 140.952 -1.25402 141.549 2.71798C140.508 2.43898 137.25 1.55698 136.569 1.39198C134.559 -5.13302 133.851 -9.66902 132.96 -16.383C130.992 -13.371 127.911 -7.59902 125.799 -1.78802C116.565 -4.70102 115.653 -5.19002 104.589 -13.659C106.713 -8.33402 112.164 6.57298 120.084 21.051C120.063 21.216 120.057 21.384 120.036 21.549C138.951 49.254 165.543 70.962 190.125 94.125C203.487 102.897 215.799 103.413 231.312 98.271C253.434 111.129 272.493 111.822 303.171 111.594C337.167 111.33 375.702 111.03 409.659 89.181L410.472 90.033C405.681 96.747 394.734 108.858 384.834 115.818C393.999 113.262 400.656 108.534 408.411 99.318L409.407 99.972C407.517 103.758 405.429 108.768 404.148 112.041C406.401 109.221 409.797 104.817 412.383 100.761L413.487 101.133C411.549 124.737 422.145 138.675 434.337 158.961C461.103 201.288 445.266 258.504 458.952 295.806C467.826 281.361 479.34 260.598 479.34 243.75C495.645 215.067 496.77 179.481 489.465 163.692C506.895 112.413 498.432 76.236 466.296 39.18ZM468.495 116.127C467.505 87.555 448.596 51.291 448.596 51.291C439.758 35.679 431.859 28.23 418.608 25.206C455.886 27.063 470.526 82.743 468.915 111.831C468.762 114.531 468.495 116.127 468.495 116.127ZM383.721 -4.52102C393.57 3.46798 395.922 5.74798 405.609 19.206C355.65 -70.461 257.61 -2.60402 226.608 -4.79402C258.123 1.71898 329.379 -44.37 383.721 -4.52102ZM409.107 34.455C349.224 84.099 257.787 63.069 183 39.63C257.481 73.743 352.305 92.202 409.107 34.455ZM173.607 88.455C153.99 98.73 144.759 124.605 143.907 141.705C147.57 126.948 158.562 99.873 173.607 88.455ZM148.857 74.205C120.78 91.302 115.335 130.518 118.107 163.455C121.059 133.029 126.543 93.33 148.857 74.205ZM351.192 37.02C348.174 37.665 329.415 40.236 319.176 40.605C311.193 41.07 280.065 41.589 252.003 40.461C280.968 46.668 298.365 47.823 319.491 46.596C343.809 45.717 365.571 40.902 383.604 26.208C370.899 33.201 365.484 34.197 351.192 37.02ZM451.827 116.655C451.827 116.655 451.059 115.332 450.063 113.349C447.33 108.768 444.228 96.306 432.249 57.141C441.147 129.726 455.7 116.487 462.222 153.99C462.225 140.502 461.283 133.587 451.827 116.655Z" fill="#CEA57C"/>
<path d="M473.559 204.393C474.651 194.655 474.21 199.119 474.33 193.563C475.248 174.831 464.052 159.126 470.868 136.602C476.43 120.243 479.643 117.678 477.207 89.199C476.85 85.089 475.785 74.877 473.901 71.205C476.469 75.672 478.167 83.94 479.076 89.007C484.137 117.636 479.88 121.983 474.513 137.808C467.343 161.718 481.104 172.266 473.559 204.393ZM424.725 56.253C428.076 147.363 446.553 126.201 462.876 181.509C451.794 116.271 441.543 170.358 424.725 56.253ZM145.107 102.705C117.537 137.394 120.321 162.402 127.107 213.705C126.495 161.775 120.165 142.065 145.107 102.705ZM125.316 53.142C109.494 102.099 106.029 124.194 113.625 176.997C112.218 124.059 112.554 112.374 125.316 53.142ZM185.856 91.923C156.966 112.68 141.885 150.651 141 183C145.446 152.085 162.036 113.091 185.856 91.923ZM386.565 73.782C350.412 87.093 291.564 90.657 248.601 77.748C215.118 67.983 162.837 35.169 134.715 14.535C160.209 34.83 205.128 64.956 236.493 76.863C269.082 89.04 320.154 93.564 359.736 83.598C387.48 76.626 401.859 70.038 424.725 56.256C414.546 61.836 399.552 69.726 386.565 73.782ZM308.439 -34.782C344.94 -41.637 387.966 -18.108 410.61 9.70798C386.919 -24.246 348.099 -41.139 324.924 -41.541C286.887 -42.201 247.539 -9.61202 170.607 -6.79502C242.946 -3.60902 277.719 -29.808 308.439 -34.782ZM337.107 3.70499C285.24 22.134 245.187 26.544 190.686 29.445C246.975 32.91 287.217 27.45 337.107 3.70499ZM391.608 14.214C359.622 29.295 345.618 31.767 279.597 35.787C320.988 37.458 359.655 35.307 391.608 14.214ZM285.744 60.069C317.676 63.78 373.611 59.754 401.607 30.705C367.797 59.187 305.25 58.167 256.467 56.229C275.139 59.142 271.77 58.656 285.744 60.069ZM422.607 32.205C445.494 40.632 451.074 80.784 460.107 113.205C456.066 84.468 449.163 38.439 422.607 32.205Z" fill="#ECD5BD"/>
<path d="M466.737 38.775C453.693 24.468 441.981 11.865 422.847 8.715C429.129 1.326 433.545 -1.42201 441.597 3.16499C436.827 -2.44801 431.346 -3.513 424.707 2.505C428.52 -3.21 435.111 -7.875 443.607 -16.785C430.914 -10.83 427.098 -6.765 422.247 -0.525004C429.102 -20.634 426.147 -9.909 433.407 -29.775C425.82 -21.267 420.969 -12.015 418.83 -0.615006C418.83 -18.324 418.275 -16.035 418.62 -23.775C414.459 -14.508 414.933 -6.345 414.933 -1.005C408.234 -12.051 398.391 -21.405 387.78 -29.055C312.618 -83.922 237.663 -33.423 197.04 -27.315C180.573 -24.534 155.898 -26.301 138.99 -36.435C140.184 -19.143 145.539 -7.65901 153.36 4.60499C153.357 4.60499 148.95 3.67499 148.95 3.67499C142.893 -3.627 142.308 -3.393 140.07 -9.315C139.497 -4.026 140.373 -1.09501 140.82 1.90499C139.326 1.51499 137.949 1.10099 137.04 0.884994C134.811 -6.35701 134.166 -11.865 133.35 -17.985C131.508 -15.63 127.584 -8.445 125.43 -2.535C116.433 -5.379 115.788 -5.832 103.14 -15.525C104.64 -12.525 110.067 3.85799 119.46 21.165C118.05 31.767 118.476 42.345 120.27 51.525C105.195 70.461 99.96 88.563 97.59 112.845C94.467 170.022 100.191 186.678 114.18 217.305C114.21 217.335 114.21 217.395 114.24 217.425C113.709 223.338 114.597 232.731 115.56 238.965C119.097 257.961 123.435 271.044 139.29 291.915C139.35 291.975 139.38 292.065 139.44 292.125C149.625 231.021 148.575 229.524 150.75 214.455C161.466 137.319 161.001 148.839 189.18 94.245C200.619 102.129 213.285 104.901 231.24 98.925C244.266 106.497 257.568 112.275 294.42 112.275C330.933 111.819 372.948 113.511 409.98 89.685C404.37 97.551 391.626 111.147 381.6 117.225C392.037 115.017 399.525 110.814 408.87 99.705C405.999 105.45 402.621 114.147 402.36 115.185C402.81 114.645 408.81 107.475 412.89 101.085C410.931 124.92 421.572 138.876 433.83 159.285C460.698 201.774 444.363 259.848 458.82 297.165C468.09 282.177 479.94 260.907 479.94 243.915C495.57 216.657 497.808 180.582 490.11 163.665C505.761 116.772 502.599 80.124 466.737 38.775ZM140.367 -7.395C141.831 -3.228 142.152 -3.318 147.837 3.43499C145.017 2.84999 143.142 2.439 141.447 2.055C140.79 -1.113 140.367 -4.125 140.367 -7.395ZM132.837 -15.375C133.119 -10.779 134.214 -4.749 135.807 0.554998C127.212 -1.656 130.407 -0.957005 127.407 -1.84501C129.876 -9.267 130.806 -11.145 132.837 -15.375ZM137.997 285.285C125.349 262.47 122.028 254.712 118.527 231.615C118.185 228.957 117.111 221.277 117.057 217.605C98.847 175.965 92.001 96.897 120.687 53.385C120.687 53.355 120.687 53.355 120.687 53.355C120.687 53.355 121.884 51.483 124.047 48.795C123.246 44.763 122.454 36.255 122.727 26.955C124.947 30.915 127.467 34.515 129.717 37.965C129.717 37.956 131.487 40.308 131.487 40.365C145.14 57.735 157.749 72.177 188.247 93.615C151.632 152.937 153.903 132.9 137.997 285.285ZM490.917 144.618C489.849 151.692 487.548 161.367 486.3 165.588C494.64 186.792 485.529 226.839 477.117 244.728C473.439 266.007 469.482 270.291 459.087 291.498C451.656 258.498 466.836 199.941 438.807 156.258C420.63 126.126 412.836 122.178 417.117 84.948C417.117 84.948 417.3 82.923 417.357 82.398C379.473 105.561 337.629 108.18 282.447 106.998C266.496 106.998 244.947 104.994 231.507 96.678C204.264 104.427 194.157 92.367 171.477 74.658C146.988 53.847 130.35 35.676 109.827 -7.15201C121.356 2.20199 144.438 6.915 158.997 9.348C149.178 -3.741 143.4 -15.699 140.787 -32.652C151.227 -25.692 176.247 -18.843 198.297 -21.282C238.899 -25.095 295.749 -66.783 365.607 -35.172C398.019 -20.871 414.465 -0.744003 418.317 9.828C418.347 9.828 418.377 9.858 418.437 9.858C418.617 9.918 418.797 9.94799 419.004 9.97799C419.055 10.032 420 10.248 420.084 10.248C441.012 17.223 442.413 18.525 462.684 42.168C474.078 56.145 501.504 84.048 490.917 144.618Z" fill="#AF7B46"/>
</g>
<defs>
<linearGradient id="paint0_linear_0:1" x1="300" y1="516" x2="300" y2="366" gradientUnits="userSpaceOnUse">
<stop stop-color="#E4B3AB" stop-opacity="0.8"/>
<stop offset="0.7" stop-color="#C5796D"/>
</linearGradient>
<linearGradient id="paint1_linear_0:1" x1="300" y1="426" x2="300" y2="417" gradientUnits="userSpaceOnUse">
<stop offset="0.1" stop-color="#EBC3BD"/>
<stop offset="1" stop-color="#E4B3AB"/>
</linearGradient>
<radialGradient id="paint2_radial_0:1" cx="0" cy="0" r="1" gradientUnits="userSpaceOnUse" gradientTransform="translate(221.113 254.557) rotate(180) scale(40.7999)">
<stop stop-color="white"/>
<stop offset="0.544" stop-color="#FDFEFE"/>
<stop offset="0.74" stop-color="#F6F8F9"/>
<stop offset="0.879" stop-color="#EAEFF2"/>
<stop offset="0.992" stop-color="#D9E3E8"/>
<stop offset="1" stop-color="#D8E2E7"/>
</radialGradient>
<radialGradient id="paint3_radial_0:1" cx="0" cy="0" r="1" gradientUnits="userSpaceOnUse" gradientTransform="translate(233.648 253.04) rotate(1.19182) scale(50.5898 40.4698)">
<stop stop-color="#E4B3AB"/>
<stop offset="0.7" stop-color="#E4B3AB" stop-opacity="0.3"/>
<stop offset="1" stop-color="#F3D4CF" stop-opacity="0"/>
</radialGradient>
<radialGradient id="paint4_radial_0:1" cx="0" cy="0" r="1" gradientUnits="userSpaceOnUse" gradientTransform="translate(218.567 308.56) rotate(-2.98402) scale(69.4013 68.9787)">
<stop offset="0.95" stop-opacity="0"/>
<stop offset="1" stop-opacity="0.2"/>
</radialGradient>
<radialGradient id="paint5_radial_0:1" cx="0" cy="0" r="1" gradientUnits="userSpaceOnUse" gradientTransform="translate(377.688 254.557) scale(40.8029)">
<stop stop-color="white"/>
<stop offset="0.544" stop-color="#FDFEFE"/>
<stop offset="0.74" stop-color="#F6F8F9"/>
<stop offset="0.879" stop-color="#EAEFF2"/>
<stop offset="0.992" stop-color="#D9E3E8"/>
<stop offset="1" stop-color="#D8E2E7"/>
</radialGradient>
<radialGradient id="paint6_radial_0:1" cx="0" cy="0" r="1" gradientUnits="userSpaceOnUse" gradientTransform="translate(365.153 253.04) rotate(178.808) scale(50.5898 40.4698)">
<stop stop-color="#E4B3AB"/>
<stop offset="0.7" stop-color="#E4B3AB" stop-opacity="0.3"/>
<stop offset="1" stop-color="#F3D4CF" stop-opacity="0"/>
</radialGradient>
<radialGradient id="paint7_radial_0:1" cx="0" cy="0" r="1" gradientUnits="userSpaceOnUse" gradientTransform="translate(380.231 308.56) rotate(-177.016) scale(69.4014 68.9787)">
<stop offset="0.95" stop-opacity="0"/>
<stop offset="1" stop-opacity="0.2"/>
</radialGradient>
<radialGradient id="paint8_radial_0:1" cx="0" cy="0" r="1" gradientUnits="userSpaceOnUse" gradientTransform="translate(300 342) scale(123)">
<stop stop-color="#FFF4F3" stop-opacity="0.5"/>
<stop offset="0.9" stop-color="#F3D4CF" stop-opacity="0"/>
</radialGradient>
<radialGradient id="paint9_radial_0:1" cx="0" cy="0" r="1" gradientUnits="userSpaceOnUse" gradientTransform="translate(300 162) scale(111)">
<stop stop-color="#FFF4F3" stop-opacity="0.5"/>
<stop offset="0.9" stop-color="#F3D4CF" stop-opacity="0"/>
</radialGradient>
<clipPath id="clip0_0:1">
<rect width="600" height="600" fill="white"/>
</clipPath>
</defs>
</svg>
