<svg width="600" height="600" viewBox="0 0 600 600" fill="none" xmlns="http://www.w3.org/2000/svg">
<g clip-path="url(#clip0_6:2)">
<path d="M675 675H-75V-75H675V675Z" fill="#774F38"/>
<path d="M300 299.997L270 -150.003H330L300 299.997ZM217.146 -143.325L159.03 -128.406L300 299.997L217.146 -143.325ZM109.5 -108.795L56.919 -79.89L300 299.997L109.5 -108.795ZM13.821 -48.576L-29.919 -7.49999L300 299.997L13.821 -48.576ZM-63.876 33.546L-96.027 84.207L300 299.997L-63.876 33.546ZM-118.707 132.408L-137.247 189.474L300 299.997L-118.707 132.408ZM-147.231 241.8L-150.999 301.683L300 299.997L-147.231 241.8ZM-147.654 354.849L-136.41 413.787L300 299.997L-147.654 354.849ZM-119.949 464.451L-94.401 518.745L300 299.997L-119.949 464.451ZM-65.859 563.721L-27.609 609.954L300 299.997L-65.859 563.721ZM11.22 646.422L59.766 681.693L300 299.997L11.22 646.422ZM106.443 707.355L162.234 729.444L300 299.997L106.443 707.355ZM213.828 742.692L273.36 750.213L300 299.997L213.828 742.692ZM326.631 750.213L386.163 742.692L300 299.997L326.631 750.213ZM437.757 729.444L493.551 707.358L300 299.997L437.757 729.444ZM540.228 681.693L588.777 646.425L300 299.997L540.228 681.693ZM627.603 609.96L665.856 563.727L300 299.997L627.603 609.96ZM694.395 518.751L719.952 464.457L300 299.997L694.395 518.751ZM736.407 413.799L747.657 354.855L300 299.997L736.407 413.799ZM750.996 301.692L747.234 241.8L300 299.997L750.996 301.692ZM737.247 189.483L718.71 132.408L300 299.997L737.247 189.483ZM696.027 84.216L663.879 33.543L300 299.997L696.027 84.216ZM629.922 -7.494L586.182 -48.579L300 299.997L629.922 -7.494ZM543.084 -79.881L490.503 -108.798L300 299.997L543.084 -79.881ZM440.976 -128.4L382.854 -143.334L300 299.997L440.976 -128.4Z" fill="url(#paint0_radial_6:2)"/>
<path d="M467.184 34.692H132.816C85.473 92.13 65.439 174.957 97.383 272.235C124.23 356.508 137.919 382.881 160.803 446.955C160.803 446.955 160.812 434.463 160.503 427.425C169.707 450.816 166.221 443.001 173.07 455.262C173.262 444.15 172.494 432.852 171.42 421.872C178.302 449.34 182.58 455.358 190.53 471.312C191.973 462.297 192.18 454.482 192.18 446.412C192.198 446.478 208.17 494.418 208.17 494.472C208.95 496.785 209.7 498.972 210.36 500.922C211.212 491.604 212.034 479.316 212.679 467.853C214.773 474.246 217.314 481.692 220.014 489.186C221.178 497.007 222.369 505.248 223.467 513.249C223.917 509.199 376.068 509.199 376.521 513.249C377.619 505.245 378.813 497.004 379.974 489.18C382.674 481.686 385.215 474.243 387.309 467.853C387.957 479.316 388.776 491.604 389.628 500.922C390.291 498.972 391.041 496.782 391.818 494.472C391.818 494.418 407.79 446.481 407.808 446.412C407.808 454.479 408.012 462.297 409.458 471.312C417.408 455.358 421.686 449.34 428.568 421.872C427.497 432.852 426.726 444.15 426.918 455.262C433.767 443.001 430.281 450.816 439.485 427.425C439.176 434.463 439.185 446.955 439.185 446.955C462.069 382.881 475.755 356.508 502.605 272.235C534.561 174.957 514.527 92.13 467.184 34.692Z" fill="#976F50"/>
<path d="M467.193 34.686L470.64 50.226C510.885 106.362 525.114 183.537 497.514 271.818C473.826 351.345 465.696 366.516 441.714 438.048C442.398 413.868 440.961 425.022 450.924 390.078C467.718 332.361 475.575 325.191 477.804 293.808C472.503 328.326 456.738 347.664 446.694 388.848C446.358 390.009 442.38 404.061 441.954 405.168C441.954 406.86 429.975 442.866 428.604 445.908C434.775 354.687 467.514 314.577 485.364 243.888C495.189 201.681 490.503 182.193 484.734 141.378C481.8 120.711 477.813 97.221 468.594 89.808C478.503 99.717 480.855 125.094 482.574 141.468C483.786 153.162 489.999 188.559 485.364 222.078C474.789 284.358 439.764 339.807 431.994 395.058C431.994 395.058 432.024 395.088 431.994 395.118C423.189 428.829 422.487 436.557 410.874 464.181C410.346 451.113 410.325 442.917 410.967 431.673C428.88 384.987 424.149 401.427 434.937 341.781C434.277 343.575 423.117 377.022 412.665 408.843C413.373 400.323 414.27 389.958 415.371 376.731C415.371 376.731 415.371 376.761 415.341 376.821C406.098 439.086 411.837 408.222 395.904 460.881C390.516 416.703 402.786 352.947 404.034 343.044C394.869 379.476 389.628 408.9 391.194 444.834C390.273 447.819 389.634 449.916 389.16 451.494C387.009 416.289 386.787 410.589 386.775 409.677C385.647 461.622 387.714 414.957 378.057 484.89C377.409 486.801 376.731 488.805 375.987 491.004C373.767 473.706 372.606 450.999 371.724 442.437C365.391 441.252 358.167 440.907 352.074 440.907C322.146 441.678 340.59 443.694 299.994 444.675C259.398 443.694 277.839 441.678 247.911 440.907C241.818 440.907 234.597 441.252 228.261 442.437C227.379 450.999 226.221 473.709 224.001 491.004C223.254 488.805 222.576 486.801 221.931 484.89C212.298 415.128 214.335 461.367 213.213 409.677C213.201 410.592 212.976 416.289 210.828 451.497C210.354 449.925 209.715 447.822 208.794 444.834C210.357 408.9 205.119 379.476 195.954 343.044C197.202 352.95 209.472 416.706 204.084 460.881C188.115 408.12 193.899 439.077 184.647 376.821C184.617 376.758 184.617 376.731 184.617 376.731C185.721 389.961 186.615 400.326 187.323 408.846C176.874 377.028 165.711 343.575 165.051 341.784C175.839 401.403 171.111 384.987 189.024 431.679C189.666 442.92 189.645 451.116 189.117 464.184C177.504 436.56 176.802 428.835 167.997 395.121C167.967 395.091 167.997 395.061 167.997 395.061C160.227 339.81 125.202 284.361 114.627 222.081C109.992 188.562 116.202 153.165 117.417 141.471C119.136 125.097 121.488 99.72 131.397 89.811C122.178 97.224 118.191 120.714 115.257 141.381C109.488 182.196 104.802 201.684 114.627 243.891C132.477 314.58 165.216 354.69 171.387 445.911C170.016 442.869 158.037 406.863 158.037 405.171C157.608 404.064 153.633 390.009 153.297 388.851C143.253 347.667 127.485 328.329 122.187 293.811C124.416 325.194 132.273 332.364 149.067 390.081C159.03 425.025 157.596 413.874 158.277 438.051C134.298 366.519 126.168 351.348 102.477 271.821C74.877 183.54 89.106 106.365 129.351 50.229L132.798 34.689C85.464 92.124 65.439 174.96 97.383 272.235C124.23 356.508 137.919 382.881 160.803 446.955C160.803 446.955 160.812 434.463 160.503 427.425C169.707 450.816 166.221 443.001 173.07 455.262C173.262 444.15 172.494 432.852 171.42 421.872C178.302 449.34 182.58 455.358 190.53 471.312C191.973 462.297 192.18 454.482 192.18 446.412C192.198 446.478 208.17 494.418 208.17 494.472C208.95 496.785 209.7 498.972 210.36 500.922C211.212 491.604 212.034 479.316 212.679 467.853C221.331 494.253 219.216 482.277 223.47 513.252C223.92 509.202 224.379 505.533 224.844 502.131C224.904 502.287 224.967 502.446 225.027 502.602C231.72 459.36 231.801 465.297 234.06 446.322C291.435 449.391 308.097 449.418 365.937 446.322C368.208 465.423 368.223 458.952 374.97 502.602C375.033 502.446 375.093 502.287 375.153 502.128C375.618 505.53 376.077 509.202 376.527 513.252C380.784 482.241 378.669 494.25 387.318 467.853C387.966 479.316 388.785 491.604 389.637 500.922C390.3 498.972 391.05 496.782 391.827 494.472C391.827 494.418 407.799 446.481 407.817 446.412C407.817 454.479 408.021 462.297 409.467 471.312C417.417 455.358 421.695 449.34 428.577 421.872C427.506 432.852 426.735 444.15 426.927 455.262C433.776 443.001 430.29 450.816 439.494 427.425C439.185 434.463 439.194 446.955 439.194 446.955C462.078 382.881 475.764 356.508 502.614 272.235C534.561 174.96 514.536 92.124 467.193 34.686ZM208.473 489.495C204.504 473.775 201.099 463.767 198.378 455.895C201.6 464.202 203.979 470.307 205.077 473.208C206.574 465.423 207.867 456.588 208.227 453.588C208.74 455.379 209.442 457.698 210.285 460.386C209.775 468.678 209.178 478.275 208.473 489.495ZM213.156 459.045C213.339 455.415 213.501 451.98 213.633 448.908C213.999 450.699 215.436 459.384 217.272 471.153C214.956 464.349 213.828 461.055 213.156 459.045ZM232.893 445.215C232.602 446.367 230.859 455.1 228.93 465.111C229.479 456.174 229.689 448.368 229.557 443.235C233.649 442.716 246.654 442.239 265.635 445.122C256.257 445.185 245.445 445.215 232.893 445.215ZM367.107 445.215C354.552 445.215 343.74 445.182 334.362 445.122C351.057 442.587 364.653 442.5 370.44 443.235C370.308 448.368 370.518 456.171 371.07 465.105C369.141 455.094 367.398 446.364 367.107 445.215ZM382.728 471.153C384.561 459.381 386.001 450.699 386.367 448.908C386.499 451.977 386.661 455.412 386.844 459.045C386.172 461.052 385.044 464.349 382.728 471.153ZM391.527 489.495C390.825 478.275 390.225 468.678 389.715 460.383C390.555 457.695 391.26 455.376 391.773 453.585C392.13 456.585 393.426 465.42 394.923 473.205C396.021 470.304 398.4 464.193 401.625 455.877C398.904 463.752 395.499 473.763 391.527 489.495Z" fill="#784B28"/>
<path d="M586.251 599.334C579.663 585.096 561.666 563.997 541.671 558.168C516.954 550.959 461.16 542.244 440.472 537.399C423.888 533.511 390.486 503.517 378.78 493.449C376.68 491.649 374.961 487.932 374.919 485.169C374.502 452.577 387.504 365.997 387.504 365.997H300H212.499C212.499 365.997 225.501 452.574 225.078 485.169C225.045 487.932 223.317 491.649 221.223 493.449C209.517 503.517 176.115 533.511 159.531 537.399C138.84 542.244 83.046 551.256 58.332 558.465C38.331 564.291 20.34 585.093 13.752 599.331C2.628 623.355 0 666.831 0 704.331H300H600C600 666.834 597.369 623.358 586.251 599.334Z" fill="#FFD0BC"/>
<path d="M477.468 552.174C550.494 562.8 581.226 578.298 590.85 704.337H600C600 666.837 597.369 623.361 586.251 599.337C579.663 585.099 561.666 564 541.671 558.171C516.954 550.962 461.16 542.247 440.472 537.402C423.888 533.514 385.746 501.195 375.543 488.352C385.623 502.464 413.916 535.167 438.705 543.732C450.564 547.83 460.44 549.696 477.468 552.174ZM161.298 543.732C186.087 535.17 214.377 502.464 224.46 488.352C214.26 501.192 176.118 533.514 159.531 537.402C138.843 542.247 83.049 551.259 58.332 558.468C38.337 564.294 20.34 585.096 13.752 599.334C2.63399 623.358 0.00299072 666.834 0.00299072 704.334H9.15299C18.717 579.102 49.578 562.785 122.535 552.171C139.56 549.696 149.439 547.83 161.298 543.732Z" fill="#FFE2D6"/>
<path d="M286.938 592.86C286.938 592.86 271.716 588.033 265.689 585.723C234.342 573.696 132.504 565.902 132.504 565.902C132.504 565.902 239.766 570.159 263.436 574.239C262.062 559.938 254.385 514.227 254.385 514.227C254.385 514.227 269.832 564.672 273.612 577.398C275.634 584.202 286.938 592.86 286.938 592.86ZM319.335 588.834C319.068 589.053 318.762 589.338 318.429 589.638C318.768 589.383 319.074 589.116 319.335 588.834ZM286.938 592.86C286.938 592.86 295.617 601.836 299.979 601.95C305.709 602.103 314.463 593.253 318.432 589.638C314.637 592.509 305.955 593.811 302.502 593.946C298.512 594.099 286.938 592.86 286.938 592.86ZM349.992 570.303C345.357 571.047 336.834 572.67 336.834 572.67L343.695 528C341.757 537.213 330.273 576.633 319.335 588.834C325.065 583.986 337.809 581.661 344.307 580.722C375.015 576.27 375.003 576.273 467.493 565.902C467.493 565.902 380.28 565.437 349.992 570.303Z" fill="#F0B399"/>
<path d="M586.251 599.334C579.663 585.096 561.666 563.997 541.671 558.168C516.954 550.959 461.16 542.244 440.472 537.399C423.888 533.511 390.486 503.517 378.78 493.449C376.68 491.649 374.961 487.932 374.919 485.169C374.502 452.577 387.504 365.997 387.504 365.997H300H212.499C212.499 365.997 225.501 452.574 225.078 485.169C225.045 487.932 223.317 491.649 221.223 493.449C209.517 503.517 176.115 533.511 159.531 537.399C138.84 542.244 83.046 551.256 58.332 558.465C38.331 564.291 20.34 585.093 13.752 599.331C2.628 623.355 0 666.831 0 704.331H300H600C600 666.834 597.369 623.358 586.251 599.334Z" stroke="#D17F5B" stroke-width="4.5"/>
<path d="M372.759 477.876C373.386 458.112 376.92 427.41 380.079 403.074C334.941 396.123 264.867 396.258 219.963 403.41C223.086 427.494 226.557 457.719 227.22 477.402C252.585 498.165 281.355 515.628 300.462 515.595C319.359 515.568 347.661 498.408 372.759 477.876Z" fill="url(#paint1_linear_6:2)"/>
<path d="M128.31 707.271L132.279 524.715C132.279 524.715 162.861 517.254 182.184 505.776C234.672 571.635 390.537 557.775 417.192 503.916C421.659 505.491 425.355 507.507 429.978 509.055C444.978 519.213 457.617 522.537 457.617 522.537L460.422 707.592C417.564 708.156 128.31 707.271 128.31 707.271Z" fill="#F5F4F5"/>
<path d="M462.042 533.115C449.334 530.958 439.209 528.024 433.686 522.483C417.657 552.558 353.397 571.617 332.121 574.41C393.783 555.582 419.685 541.971 429.915 509.661C435.885 516.81 449.481 520.308 466.854 523.275L462.042 533.115ZM158.01 523.143C162.372 522.207 164.55 519.441 168.879 518.364L164.295 512.763C154.953 519.465 137.382 522.678 116.595 526.035L117.159 537.249C129.027 534.879 140.61 531.885 151.446 527.28C173.895 552.735 208.95 565.257 244.626 570.441C199.872 559.686 174.21 541.533 158.01 523.143Z" fill="white"/>
<path d="M413.583 510.165C395.796 544.248 261.363 583.95 185.556 512.763C180.843 514.608 166.743 519.018 166.743 519.018C221.961 588.258 383.778 588.699 426.849 518.682C426.663 518.61 417.963 512.211 413.583 510.165Z" fill="#DFDDE2"/>
<path d="M417.024 503.523C386.763 559.248 229.29 567.135 182.307 505.398C165.147 510.066 148.65 520.026 132.039 522.519L128.31 707.271L460.419 707.592L457.854 520.434C447.747 518.313 438.351 512.223 430.092 508.752C425.526 506.835 421.65 505.11 417.024 503.523ZM181.17 507.261C222.879 576.519 387.621 562.626 419.427 507.558C423.285 509.055 424.272 509.646 428.745 511.107C395.799 574.731 232.827 595.008 166.17 514.548C166.638 514.428 176.469 508.887 181.17 507.261ZM162.861 517.254C216.75 598.392 394.641 585.822 431.61 513.393C436.923 517.566 445.2 522.36 455.418 524.598L460.398 701.838L129.267 701.886L134.979 526.989C143.331 522.792 156.741 519.696 162.861 517.254Z" fill="#B8B6C9"/>
<path d="M-13.587 706.698C-21.309 665.142 -20.463 563.922 13.452 564.135C52.86 548.202 101.259 529.923 141.858 518.202C162.582 496.464 182.166 475.791 220.422 454.26C221.589 462.057 226.044 479.883 220.455 489.579C216.39 496.635 203.106 506.307 191.793 514.683C185.706 522.843 180.012 530.805 171.996 541.95C187.5 608.853 200.799 643.29 202.287 701.319C202.287 701.319 197.931 703.386 395.7 702.51C402.345 635.493 410.679 601.827 426.837 540.216C426.837 540.216 413.913 525.174 405.216 513.606C399.054 507.615 380.136 491.01 378.696 487.653C375.171 479.43 377.052 469.089 379.026 453.552C411.405 468.171 430.026 489.615 457.272 517.461C480.459 523.818 549.852 547.362 584.607 563.109C596.502 562.779 603.216 569.106 608.223 579.507C624.438 613.092 620.601 661.398 614.763 707.874C557.49 707.967 149.661 714.51 -13.587 706.698Z" fill="#601090"/>
<path d="M221.625 462.243C222.105 465.453 222.537 468.498 222.858 471.366C222.204 472.164 171.222 541.425 170.85 541.941C183.378 513.444 201.3 483.915 221.625 462.243ZM378.159 462.243C377.682 465.453 377.607 468.498 377.286 471.366C377.94 472.164 428.079 538.773 428.448 539.292C415.173 512.742 398.484 483.915 378.159 462.243ZM495.024 555.462C482.184 574.155 479.442 580.608 465.387 599.133C468.6 599.133 473.784 599.631 476.997 599.631C487.989 580.776 488.01 571.179 495.024 555.462ZM508.182 691.137C519.561 664.437 528.984 641.004 540.399 614.265L536.658 608.223C527.151 635.688 517.062 663.597 508.182 691.137ZM123.144 599.631C126.357 599.631 131.541 599.133 134.757 599.133C120.702 580.608 117.96 579.45 105.123 560.757C112.131 576.474 112.152 580.776 123.144 599.631ZM63.483 608.223L59.742 614.265C71.16 641.004 74.037 664.437 85.419 691.137C76.536 663.597 72.99 635.688 63.483 608.223Z" fill="#510181"/>
<path d="M196.914 507.849C200.457 502.911 212.625 486.033 222.717 470.166C225.681 486.537 220.239 496.248 196.914 507.849ZM377.22 469.08C384.879 482.268 393.906 495.396 403.212 507.489C378 496.008 376.305 484.269 377.22 469.08Z" fill="#470071"/>
<path d="M378.954 454.077C378.978 453.894 379.005 453.723 379.023 453.555C433.302 483.552 464.751 528.615 501.264 562.206C499.92 564.369 497.58 565.785 496.203 567.921C457.968 538.827 439.797 494.838 378.954 454.077ZM215.208 456.066C170.106 480.705 106.482 556.137 100.254 561.873C101.598 564.045 102.327 563.604 103.704 565.737C141.942 536.646 152.379 507.849 215.208 456.066ZM584.607 563.112C581.607 560.715 510.669 532.995 456.837 518.205C557.931 567.102 593.598 573.84 611.25 591.168C610.101 588.171 607.758 562.467 584.607 563.112ZM142.374 517.665C101.802 529.407 49.857 547.959 13.449 564.138C-2.64304 564.456 -14.175 587.928 -16.644 612.39C5.74196 561.951 -5.31904 595.86 142.374 517.665Z" fill="#70229F"/>
<path d="M619.8 630.186C618.78 604.281 610.635 560.877 584.727 562.806C582.585 560.976 522.261 533.505 457.872 515.973C435.813 493.608 408.327 463.179 378.759 453.102C376.626 472.386 374.328 484.968 379.407 491.244C386.13 498.561 394.197 505.881 402.111 510.81C415.959 529.218 426.528 540.144 426.528 540.144C410.238 602.253 400.083 634.086 393.609 701.208H206.394C199.923 634.089 189.765 602.256 173.475 540.144C173.475 540.144 184.041 529.215 197.892 510.81C205.809 505.878 213.873 498.561 220.596 491.244C225.672 484.968 223.377 472.386 221.244 453.102C191.676 463.179 164.187 493.608 142.131 515.973C77.742 533.508 17.418 560.976 15.276 562.806C-10.635 560.877 -18.78 604.281 -19.797 630.186C-21.03 661.647 -15.492 705 -15.042 708H615.045C615.495 704.997 621.033 661.647 619.8 630.186ZM218.952 489.582C212.178 496.281 207.978 499.125 199.533 505.428C214.02 486.615 212.556 489.129 222.657 471.741C223.11 479.217 220.299 488.253 218.952 489.582ZM-9.51602 702.084C-12.762 663.552 -18.264 628.854 -8.22602 591.108C-4.38302 576.627 -0.774019 566.823 14.139 565.581C17.34 582.195 38.535 651.753 57.033 699.18C38.355 626.604 41.1 642.75 32.376 613.824C29.484 604.119 26.814 594.366 23.439 584.808C21.09 578.166 18.489 571.647 16.653 564.849L137.952 520.254C137.115 521.103 99.267 560.556 98.355 561.666C103.896 570.729 121.803 583.332 130.89 596.94C93.582 600.462 75.366 606.459 61.89 608.46C62.883 611.217 89.073 684.519 91.818 691.428C87.381 667.677 77.37 630.537 65.907 609.795C70.137 609.258 120.138 602.319 136.086 599.364C131.658 590.802 111.957 574.053 101.409 561.507C163.347 507.021 177.675 479.301 220.188 455.145C220.638 459.672 221.517 464.178 221.838 468.702C174.453 539.301 168.891 539.403 168.891 539.403C182.646 592.833 200.487 646.875 200.487 701.622L-9.51602 702.084ZM381.048 489.582C379.704 488.253 376.89 479.217 377.343 471.741C387.444 489.132 385.98 486.615 400.467 505.428C392.022 499.125 387.819 496.284 381.048 489.582ZM609.516 702.084L399.516 701.622C399.516 646.875 417.357 592.83 431.112 539.403C431.112 539.403 425.55 539.301 378.165 468.702C378.483 464.178 379.362 459.672 379.815 455.145C422.328 479.301 436.653 507.021 498.594 561.507C488.046 574.056 468.345 590.805 463.917 599.364C479.862 602.316 529.863 609.258 534.096 609.795C522.636 630.537 512.625 667.677 508.185 691.428C510.93 684.516 537.12 611.217 538.113 608.46C524.637 606.459 506.421 600.462 469.113 596.94C478.197 583.332 496.107 570.732 501.648 561.666C500.733 560.556 462.888 521.103 462.051 520.254C462.054 520.254 583.35 564.849 583.35 564.849C581.517 571.65 578.913 578.166 576.564 584.808C573.189 594.366 570.519 604.119 567.627 613.824C558.903 642.753 561.648 626.604 542.97 699.18C561.468 651.75 582.66 582.195 585.864 565.581C600.777 566.823 604.386 576.627 608.229 591.108C618.264 628.854 612.762 663.555 609.516 702.084Z" fill="#3D0062"/>
<path d="M137.013 253.032C132.558 245.646 118.032 225.435 106.92 228.27C97.884 230.586 98.001 243.183 97.302 250.635C96.282 261.567 95.91 280.611 98.877 288.339C101.73 295.758 110.757 310.095 116.361 315.564C123.258 322.269 134.271 343.638 135.627 345.855C137.76 349.359 142.038 354.375 148.602 353.979C157.815 353.424 165.774 344.718 166.497 340.524C170.4 317.754 148.608 272.25 137.013 253.032Z" fill="#FFD0BC" stroke="#D17F5B" stroke-width="4.5"/>
<path d="M132.6 298.023C132.171 296.334 132.621 293.484 133.062 290.736C133.461 288.231 133.836 285.864 133.608 284.19C132.741 277.92 127.863 266.01 124.68 259.554C121.011 252.126 115.083 242.769 107.643 240.357C104.571 239.358 102.546 240.552 101.376 241.761C100.512 242.649 100.317 243.696 100.599 243.822C100.884 243.945 101.52 243.078 102.45 242.265C103.212 241.599 100.926 242.145 102.45 242.265C101.835 245.385 99.855 261.171 101.22 272.694C102.294 281.76 104.37 288.531 105.009 289.545C105.102 290.613 105.258 291.66 105.489 292.674C108.495 305.904 128.043 323.205 132.591 328.134C133.431 329.043 134.313 329.583 134.529 329.361C134.745 329.139 134.226 328.242 133.392 327.327C128.898 322.431 109.479 305.184 106.575 292.422C103.494 278.88 118.311 258.801 120.672 254.553C121.875 256.548 122.898 258.462 123.684 260.058C124.305 261.309 124.986 262.776 125.694 264.363C124.305 266.577 110.34 282.744 113.892 295.686C115.206 300.459 125.358 306.612 129.285 308.295C131.445 309.225 132.255 310.611 133.197 312.213C134.289 314.085 133.296 318.9 136.887 320.43C137.619 320.742 138.279 320.868 138.864 320.868C139.878 320.868 140.646 320.478 141.213 320.016C141.273 320.829 141.27 321.873 141.24 322.839C141.204 324.093 141.381 324.666 141.684 324.69C141.993 324.717 142.314 324.168 142.353 322.929C142.404 321.399 142.395 319.506 142.122 318.597C141.315 315.93 138.858 312.915 136.251 309.726C133.689 306.591 133.266 300.639 132.6 298.023ZM104.907 286.296C97.863 265.527 108.756 246.609 110.337 243.759C113.373 244.956 118.023 250.338 120 253.464C118.56 255.963 105.201 272.325 104.907 286.296ZM137.316 319.392C134.064 318.006 135.198 313.44 134.148 311.64C133.194 310.014 132.21 308.334 129.711 307.26C129.171 307.026 128.574 306.672 127.962 306.264C119.916 288.039 128.841 280.074 131.079 278.445C131.766 280.671 132.276 282.714 132.507 284.355C132.711 285.855 132.33 288.249 131.964 290.559C131.505 293.424 131.034 296.391 131.523 298.311C132.255 301.17 132.756 307.221 135.396 310.455C137.739 313.323 140.145 316.281 140.967 318.693C140.613 319.173 139.5 320.325 137.316 319.392Z" fill="#D17F5B"/>
<path d="M462.198 253.032C466.656 245.646 481.182 225.435 492.291 228.27C501.327 230.586 501.21 243.183 501.912 250.635C502.932 261.567 503.301 280.611 500.337 288.339C497.484 295.758 488.454 310.095 482.853 315.564C475.956 322.269 464.94 343.638 463.587 345.855C461.454 349.359 457.176 354.375 450.609 353.979C441.399 353.424 433.44 344.718 432.714 340.524C428.814 317.754 450.609 272.25 462.198 253.032Z" fill="#FFD0BC" stroke="#D17F5B" stroke-width="4.5"/>
<path d="M462.966 309.729C460.359 312.918 457.902 315.933 457.095 318.6C456.819 319.512 456.813 321.405 456.861 322.932C456.903 324.171 457.224 324.72 457.536 324.693C457.842 324.669 458.016 324.096 457.98 322.842C457.95 321.876 457.944 320.832 458.004 320.019C458.571 320.481 459.339 320.871 460.353 320.871C460.938 320.871 461.601 320.745 462.333 320.433C465.918 318.9 464.928 314.085 466.02 312.216C466.962 310.614 467.772 309.225 469.935 308.298C473.862 306.615 484.014 300.465 485.328 295.689C488.88 282.747 474.915 266.577 473.526 264.366C474.228 262.779 474.915 261.312 475.53 260.061C476.322 258.465 477.342 256.548 478.548 254.556C480.909 258.804 495.723 278.88 492.645 292.425C489.738 305.187 470.322 322.434 465.828 327.33C464.991 328.245 464.469 329.142 464.685 329.364C464.907 329.586 465.786 329.046 466.623 328.137C471.171 323.208 490.716 305.907 493.722 292.677C493.956 291.663 494.115 290.616 494.208 289.548C494.841 288.537 496.92 281.766 497.994 272.697C499.359 261.174 497.379 245.388 496.764 242.268C498.288 242.148 496.002 241.602 496.764 242.268C497.697 243.081 498.333 243.948 498.615 243.825C498.897 243.699 498.702 242.655 497.841 241.764C496.668 240.555 494.643 239.361 491.571 240.36C484.131 242.772 478.2 252.129 474.531 259.557C471.348 266.013 466.473 277.923 465.606 284.193C465.378 285.867 465.753 288.234 466.152 290.739C466.59 293.487 467.043 296.337 466.614 298.026C465.948 300.639 465.528 306.591 462.966 309.729ZM479.214 253.464C481.194 250.338 485.841 244.959 488.877 243.759C490.458 246.609 501.351 265.527 494.31 286.296C494.016 272.325 480.657 255.963 479.214 253.464ZM458.25 318.687C459.069 316.275 461.478 313.317 463.821 310.449C466.458 307.215 466.962 301.164 467.694 298.305C468.18 296.385 467.712 293.418 467.256 290.553C466.887 288.243 466.506 285.849 466.71 284.349C466.938 282.708 467.448 280.665 468.135 278.439C470.373 280.068 479.298 288.036 471.252 306.258C470.643 306.666 470.046 307.02 469.5 307.254C467.004 308.328 466.02 310.008 465.063 311.634C464.013 313.434 465.15 318.003 461.898 319.386C459.714 320.325 458.601 319.173 458.25 318.687Z" fill="#D17F5B"/>
<path d="M476.754 234.018H476.739C476.703 234.18 446.79 358.143 422.181 396.495C402.825 426.663 335.484 485.547 300.462 485.598C265.449 485.661 197.952 426.981 178.506 396.87C153.78 358.596 123.447 234.744 123.411 234.582H123.408C119.514 219.606 117.426 203.889 117.402 187.68C117.246 85.608 198.867 2.76 299.721 2.601C400.584 2.442 482.46 85.029 482.61 187.098C482.637 203.307 480.603 219.03 476.754 234.018Z" fill="#FFD0BC"/>
<path d="M373.791 18.357C429.495 48.36 467.904 111.255 468.003 184.098C468.027 200.307 466.155 216.03 462.615 231.021H462.6C462.567 231.183 435.045 355.146 412.41 393.498C394.599 423.666 332.646 482.55 300.429 482.601C268.218 482.664 206.118 423.984 188.229 393.873C165.483 355.599 137.574 231.747 137.541 231.585H137.538C133.953 216.609 132.033 200.892 132.012 184.683C131.907 111.651 170.325 48.483 226.173 18.378C162.018 47.118 117.288 112.11 117.402 187.68C117.426 203.889 119.514 219.609 123.408 234.582H123.411C123.447 234.744 153.78 358.596 178.506 396.87C197.952 426.981 265.449 485.661 300.462 485.598C335.481 485.544 402.825 426.66 422.181 396.495C446.787 358.143 476.703 234.18 476.739 234.018H476.754C480.603 219.027 482.637 203.307 482.61 187.095C482.499 111.714 437.784 47.001 373.791 18.357Z" fill="#F7C1AA"/>
<path d="M476.754 234.018H476.739C476.703 234.18 446.79 358.143 422.181 396.495C402.825 426.663 335.484 485.547 300.462 485.598C265.449 485.661 197.952 426.981 178.506 396.87C153.78 358.596 123.447 234.744 123.411 234.582H123.408C119.514 219.606 117.426 203.889 117.402 187.68C117.246 85.608 198.867 2.76 299.721 2.601C400.584 2.442 482.46 85.029 482.61 187.098C482.637 203.307 480.603 219.03 476.754 234.018Z" stroke="#D17F5B" stroke-width="4.5"/>
<path d="M301.02 425.775C296.442 425.775 292.026 425.196 289.32 424.134C288.549 423.828 288.168 422.958 288.471 422.19C288.774 421.419 289.641 421.041 290.415 421.341C295.407 423.3 307.98 423.369 313.527 420.762C314.28 420.411 315.171 420.732 315.522 421.479C315.876 422.229 315.555 423.123 314.805 423.474C311.445 425.052 306.132 425.775 301.02 425.775ZM345.075 400.332C346.269 399.819 346.827 398.436 346.314 397.239C345.801 396.042 344.409 395.49 343.221 396C308.223 410.976 256.995 397.014 256.485 396.876C255.234 396.528 253.929 397.257 253.581 398.514C253.233 399.768 253.965 401.067 255.219 401.418C256.608 401.802 278.295 407.718 303.321 407.718C317.181 407.715 332.055 405.903 345.075 400.332Z" fill="#D17F5B"/>
<path d="M177.492 238.467C179.46 247.419 194.73 276.411 227.073 274.215C238.914 273.411 263.514 268.89 264.888 259.638C266.214 250.758 226.665 232.923 211.269 234.27C178.974 237.096 177.492 238.467 177.492 238.467Z" fill="url(#paint2_radial_6:2)"/>
<path d="M241.5 253.5C241.5 263.439 233.439 271.497 223.5 271.497C213.561 271.497 205.5 263.439 205.5 253.5C205.5 243.552 213.561 235.497 223.5 235.497C233.439 235.497 241.5 243.555 241.5 253.5Z" fill="#3E4442"/>
<path d="M213.036 261.915C215.661 261.699 213.336 260.997 213.336 260.997C212.037 260.298 209.592 259.221 209.592 258.234C209.592 255.141 213.834 254.337 209.49 253.119C204.978 248.979 212.991 249.063 212.931 248.925C210.006 241.797 213.828 245.712 215.436 243.606C221.4 235.809 217.098 244.407 220.335 243.606C221.508 243.318 217.995 239.013 220.437 239.616C222.054 240.012 222.423 241.356 222.423 241.356C223.602 241.125 225.447 239.31 225.447 239.31C227.694 239.988 229.272 243.18 228.576 242.583C229.68 242.448 231.228 241.92 232.434 241.56C232.434 241.56 232.644 240.843 232.851 241.461C235.602 249.444 242.703 248.871 234.528 251.181C234.528 251.181 234 251.181 235.674 252.507C243.804 258.999 229.368 256.992 237.027 259.977C237.339 259.665 232.437 262.872 232.437 263.76C232.437 265.263 229.311 269.214 226.599 267.66C225.087 266.796 224.856 269.46 223.968 268.23C222.225 265.821 218.742 268.125 220.029 265.911C221.931 264.348 218.067 266.523 217.317 266.523C214.833 266.523 220.566 258.174 228.999 264.378C231.465 266.184 226.407 260.079 230.874 260.079C231.321 260.226 231.186 258.516 231.186 258.033C228.864 257.58 235.356 258.024 235.356 254.247C235.767 254.328 236.883 253.197 230.451 254.247C230.451 254.247 230.247 251.997 230.349 251.589C230.679 250.275 233.991 250.695 233.061 249.339C233.061 249.336 230.664 244.527 230.664 244.527C222.945 243.285 227.358 242.511 222.531 243.504C222.303 244.638 212.196 249.456 212.517 251.691C212.817 253.797 218.862 254.505 213.141 258.237C221.715 274.653 206.811 257.862 213.036 261.915Z" fill="#535353"/>
<path d="M223.5 237.747L224.013 250.926L229.524 238.947L224.955 251.316L234.636 242.361L225.681 252.039L238.053 247.47L226.077 252.987L239.253 253.497L226.077 254.007L238.053 259.524L225.681 254.955L234.636 264.633L224.955 255.678L229.524 268.047L224.013 256.068L223.5 269.247L222.987 256.068L217.473 268.047L222.039 255.678L212.361 264.633L221.316 254.955L208.944 259.524L220.92 254.007L207.75 253.497L220.92 252.987L208.944 247.47L221.316 252.039L212.361 242.361L222.039 251.316L217.473 238.947L222.987 250.926L223.5 237.747Z" fill="#1B2522"/>
<path d="M225.888 241.701L224.271 251.646L230.214 243.513L224.916 252.084L233.526 246.84L225.351 252.732L235.308 251.187L225.504 253.5L235.302 255.882L225.351 254.268L233.487 260.214L224.913 254.919L230.157 263.526L224.265 255.351L225.813 265.308L223.5 255.498L221.115 265.29L222.732 255.345L216.78 263.478L222.084 254.907L213.477 260.151L221.652 254.259L211.695 255.807L221.502 253.494L211.71 251.115L221.655 252.726L213.519 246.78L222.093 252.075L216.852 243.468L222.744 251.643L221.196 241.689L223.512 251.499L225.888 241.701Z" fill="#0E1613"/>
<path opacity="0.9" d="M230.25 253.5C230.25 257.229 227.226 260.25 223.5 260.25C219.774 260.25 216.75 257.229 216.75 253.5C216.75 249.771 219.774 246.75 223.5 246.75C227.226 246.75 230.25 249.771 230.25 253.5Z" fill="black"/>
<path opacity="0.7" d="M216.411 266.433C215.418 267.429 213.456 267.078 212.031 265.65C210.603 264.225 210.252 262.263 211.248 261.267C212.241 260.274 214.203 260.625 215.628 262.05C217.056 263.478 217.407 265.437 216.411 266.433Z" fill="white"/>
<path opacity="0.9" d="M237.918 249.954C236.43 251.442 232.827 250.254 229.872 247.296C226.914 244.338 225.726 240.735 227.214 239.247C228.702 237.759 232.305 238.947 235.26 241.905C238.218 244.866 239.406 248.466 237.918 249.954Z" fill="white"/>
<path d="M165.816 260.082C169.425 301.344 197.775 332.571 229.134 329.829C260.493 327.084 282.99 291.408 279.381 250.146C275.772 208.884 247.422 177.654 216.063 180.399C184.701 183.144 162.207 218.82 165.816 260.082ZM177.492 238.467C177.492 238.467 178.974 237.096 211.272 234.27C226.668 232.923 266.217 250.755 264.891 259.638C263.517 268.89 238.917 273.411 227.076 274.215C194.73 276.414 179.46 247.422 177.492 238.467Z" fill="#FFD0BC"/>
<path d="M171.897 255.582C173.685 278.715 204.729 298.953 233.586 296.313C262.434 293.658 284.148 272.79 282.042 249.681C279.951 226.584 254.883 210.009 226.023 212.655C197.166 215.313 169.44 223.941 171.897 255.582ZM177.492 238.467C177.492 238.467 178.974 237.096 211.272 234.27C226.668 232.923 266.217 250.755 264.891 259.638C263.517 268.89 238.917 273.411 227.076 274.215C194.73 276.414 179.46 247.422 177.492 238.467Z" fill="url(#paint3_radial_6:2)"/>
<path d="M177.492 238.467C179.46 247.419 194.73 276.411 227.073 274.215C238.914 273.411 263.514 268.89 264.888 259.638C266.214 250.758 226.665 232.923 211.269 234.27C178.974 237.096 177.492 238.467 177.492 238.467Z" fill="url(#paint4_radial_6:2)"/>
<path d="M267.816 252.153C239.721 227.388 220.773 223.821 188.841 231.624C224.478 226.731 236.364 228.663 267.816 252.153Z" fill="#D17F5B"/>
<path d="M268.371 258.477C236.307 236.721 211.686 230.586 179.595 241.314C201.834 277.935 222.588 281.145 265.518 262.824C229.314 286.314 195.57 281.25 172.722 240.549L167.319 239.358C210.045 223.941 245.403 233.742 268.371 258.477Z" fill="#092E0C"/>
<path d="M421.311 238.467C419.343 247.419 404.073 276.411 371.73 274.215C359.889 273.411 335.289 268.89 333.915 259.638C332.589 250.758 372.138 232.923 387.534 234.27C419.826 237.096 421.311 238.467 421.311 238.467Z" fill="url(#paint5_radial_6:2)"/>
<path d="M394.5 253.497C394.5 263.445 386.448 271.497 376.5 271.497C366.552 271.497 358.5 263.445 358.5 253.497C358.5 243.549 366.552 235.497 376.5 235.497C386.448 235.497 394.5 243.549 394.5 253.497Z" fill="#3E4442"/>
<path d="M366.024 261.918C368.661 261.69 366.339 261.003 366.339 261.003C365.037 260.301 362.577 259.227 362.577 258.225C362.577 255.132 366.831 254.34 362.508 253.11C357.972 248.979 365.988 249.066 365.919 248.925C363 241.788 366.834 245.709 368.451 243.6C374.391 235.812 370.104 244.41 373.338 243.6C374.499 243.318 370.983 239.013 373.443 239.61C375.06 240.015 375.411 241.35 375.411 241.35C376.605 241.122 378.435 239.31 378.435 239.31C380.685 239.979 382.266 243.177 381.564 242.58C382.689 242.439 384.237 241.911 385.431 241.56C385.431 241.56 385.641 240.84 385.854 241.455C388.596 249.435 395.697 248.874 387.543 251.175C387.543 251.175 387.015 251.175 388.668 252.492C396.789 258.996 382.374 256.974 390.039 259.962C390.354 259.662 385.434 262.863 385.434 263.76C385.434 265.254 382.305 269.208 379.599 267.645C378.087 266.784 377.841 269.457 376.962 268.224C375.24 265.815 371.724 268.119 373.023 265.905C374.922 264.342 371.055 266.52 370.317 266.52C367.821 266.52 373.551 258.171 381.99 264.375C384.45 266.169 379.389 260.067 383.889 260.067C384.312 260.208 384.204 258.504 384.204 258.027C381.849 257.571 388.353 258.009 388.353 254.229C388.776 254.316 389.901 253.191 383.466 254.229C383.466 254.229 383.256 251.979 383.361 251.574C383.676 250.257 386.982 250.677 386.067 249.324L383.676 244.509C375.942 243.279 380.37 242.505 375.519 243.489C375.309 244.632 365.184 249.447 365.499 251.679C365.814 253.788 371.862 254.493 366.132 258.219C374.706 274.662 359.802 257.856 366.024 261.918Z" fill="#535353"/>
<path d="M376.5 237.747L377.028 250.932L382.512 238.944L377.943 251.319L387.645 242.355L378.681 252.042L391.056 247.473L379.068 252.993L392.253 253.503L379.068 254.013L391.056 259.533L378.681 254.964L387.645 264.651L377.943 255.687L382.512 268.062L377.028 256.074L376.5 269.247L375.972 256.062L370.452 268.05L375.021 255.675L365.352 264.639L374.316 254.952L361.941 259.521L373.929 254.001L360.744 253.491L373.929 252.981L361.941 247.461L374.316 252.03L365.352 242.343L375.021 251.307L370.452 238.932L375.972 250.92L376.5 237.747Z" fill="#1B2522"/>
<path d="M378.891 241.701L377.274 251.649L383.214 243.51L377.904 252.087L386.517 246.831L378.36 252.738L388.308 251.19L378.498 253.494L388.308 255.885L378.36 254.268L386.481 260.208L377.904 254.916L383.142 263.529L377.271 255.354L378.819 265.302L376.5 255.501L374.109 265.293L375.726 255.345L369.786 263.484L375.096 254.907L366.483 260.163L374.64 254.256L364.692 255.804L374.502 253.5L364.692 251.109L374.64 252.726L366.519 246.786L375.096 252.078L369.858 243.465L375.729 251.64L374.181 241.692L376.5 251.502L378.891 241.701Z" fill="#0E1613"/>
<path opacity="0.9" d="M383.25 253.497C383.25 257.223 380.226 260.247 376.5 260.247C372.774 260.247 369.75 257.223 369.75 253.497C369.75 249.771 372.774 246.747 376.5 246.747C380.226 246.747 383.25 249.771 383.25 253.497Z" fill="black"/>
<path opacity="0.7" d="M369.399 266.436C368.415 267.42 366.447 267.087 365.04 265.644C363.6 264.219 363.246 262.269 364.266 261.267C365.25 260.283 367.218 260.634 368.625 262.059C370.065 263.481 370.419 265.434 369.399 266.436Z" fill="white"/>
<path opacity="0.9" d="M390.915 249.945C389.439 251.439 385.818 250.26 382.863 247.29C379.911 244.338 378.714 240.732 380.226 239.256C381.702 237.762 385.29 238.941 388.242 241.911C391.23 244.866 392.391 248.469 390.915 249.945Z" fill="white"/>
<path d="M382.737 180.399C351.378 177.654 323.028 208.884 319.419 250.146C315.81 291.408 338.307 327.084 369.666 329.829C401.025 332.571 429.375 301.344 432.984 260.082C436.593 218.82 414.099 183.144 382.737 180.399ZM371.727 274.215C359.886 273.411 335.286 268.89 333.912 259.638C332.586 250.758 372.135 232.923 387.531 234.27C419.829 237.096 421.311 238.467 421.311 238.467C419.34 247.422 404.07 276.414 371.727 274.215Z" fill="#FFD0BC"/>
<path d="M372.777 212.655C343.917 210.009 318.849 226.584 316.758 249.681C314.655 272.79 336.366 293.658 365.214 296.313C394.071 298.953 425.118 278.715 426.903 255.582C429.36 223.941 401.637 215.313 372.777 212.655ZM371.727 274.215C359.886 273.411 335.286 268.89 333.912 259.638C332.586 250.758 372.135 232.923 387.531 234.27C419.829 237.096 421.311 238.467 421.311 238.467C419.34 247.422 404.07 276.414 371.727 274.215Z" fill="url(#paint6_radial_6:2)"/>
<path d="M421.311 238.467C419.343 247.419 404.073 276.411 371.73 274.215C359.889 273.411 335.289 268.89 333.915 259.638C332.589 250.758 372.138 232.923 387.534 234.27C419.826 237.096 421.311 238.467 421.311 238.467Z" fill="url(#paint7_radial_6:2)"/>
<path d="M330.984 252.153C359.079 227.388 378.027 223.821 409.959 231.624C374.322 226.731 362.439 228.663 330.984 252.153Z" fill="#D17F5B"/>
<path d="M330.432 258.477C362.496 236.721 387.117 230.586 419.208 241.314C396.969 277.935 376.215 281.145 333.285 262.824C369.489 286.314 403.233 281.25 426.081 240.549L431.484 239.358C388.758 223.941 353.4 233.742 330.432 258.477Z" fill="#092E0C"/>
<path d="M423 341.922C423.105 409.788 368.124 464.904 300.186 464.997C232.26 465.108 177.102 410.178 176.997 342.297C176.892 274.437 231.873 219.105 299.808 218.997C367.737 218.892 422.901 274.047 423 341.922Z" fill="url(#paint8_radial_6:2)"/>
<path d="M412.5 161.997C412.5 224.13 362.133 274.497 300.003 274.497C237.87 274.497 187.5 224.13 187.5 161.997C187.5 99.864 237.87 49.497 300.003 49.497C362.133 49.497 412.5 99.864 412.5 161.997Z" fill="url(#paint9_radial_6:2)"/>
<path d="M162.615 228C226.5 174.6 293.223 214.491 272.772 224.196C264.756 228 234.399 194.997 162.615 228Z" fill="#A68469"/>
<path d="M437.385 228C373.5 174.6 306.777 214.491 327.228 224.196C335.244 228 365.601 194.997 437.385 228Z" fill="#A68469"/>
<path d="M284.388 269.997C284.388 269.997 286.374 276.72 286.431 278.745C286.527 282.186 286.122 284.88 285.858 287.526C284.118 304.8 275.1 329.796 275.583 341.727C275.793 346.863 278.967 354.357 278.967 354.357C278.967 354.357 271.341 352.254 269.664 337.698C268.974 331.692 274.827 320.067 276.873 314.433C278.814 309.078 282.603 291.72 283.932 286.122C284.493 283.779 285.495 280.95 285.48 278.523C285.468 276.363 284.388 269.997 284.388 269.997ZM283.518 355.806C283.518 355.806 284.421 363.795 293.253 365.751C301.542 367.587 306.192 358.539 306.192 358.539C306.192 358.539 299.304 363.18 294.012 361.512C291.222 360.639 283.518 355.806 283.518 355.806ZM315.294 338.601C315.234 340.518 314.697 346.056 314.697 346.056C314.697 346.056 317.415 341.604 317.589 339.846C317.901 336.69 314.394 327.594 314.394 327.594C314.394 327.594 315.375 335.82 315.294 338.601Z" fill="#F0B399"/>
<path d="M277.434 325.383C273.753 337.875 271.152 351.096 281.886 356.982C283.29 357.753 284.793 358.32 286.323 358.644C287.154 358.818 287.763 359.574 288.492 360.066C290.166 361.218 292.926 361.38 294.843 361.731C302.217 363.096 309.666 359.904 311.49 352.266C306.9 358.845 302.838 360.663 296.592 360.138C289.098 359.505 282.843 352.8 280.881 344.931C279.711 340.251 279.255 335.55 279.606 330.669C279.93 326.481 281.07 322.326 281.73 318.177C282.969 310.692 285.963 295.038 285.942 287.223C284.745 292.671 282.579 305.52 281.757 308.658C281.145 310.992 279.846 315.732 279.318 318.096C278.901 319.98 277.968 323.559 277.434 325.383ZM276.582 346.212C276.093 342.531 276.717 338.658 277.467 335.088C277.731 342.18 279.597 350.439 283.845 355.68C280.176 354.114 277.206 350.868 276.582 346.212C277.338 351.87 276.144 342.921 276.582 346.212Z" fill="#D17F5B"/>
<path d="M286.695 339.54C287.169 341.832 286.791 343.899 285.849 344.166C284.91 344.43 283.941 343.038 283.47 340.746C282.996 338.457 283.2 336.141 284.136 335.877C285.078 335.61 286.221 337.251 286.695 339.54Z" fill="#FFE2D6"/>
<path d="M243.687 111.801C282.291 105.849 301.5 100.296 323.787 105.768C376.119 93 456.975 144.231 455.961 143.184L424.515 27.189L264.429 20.643L243.687 111.801Z" fill="#875D3B"/>
<path d="M150.642 257.421C159.513 270.729 175.584 291.249 187.659 301.548C181.161 285.951 153.294 181.677 170.007 127.2C189.252 184.374 223.71 219.729 256.884 232.698C270.456 252 290.031 272.652 307.761 285.612C296.682 263.358 264.594 219.432 267.438 190.188C285.495 222.474 318.999 259.284 335.7 263.727C284.238 177.18 261.465 91.485 294.75 58.317C304.914 65.715 317.802 91.488 324.03 106.518C335.478 86.091 370.533 42.945 389.724 55.206C400.884 56.205 403.908 87.39 412.482 123.33C424.617 174.189 445.107 221.955 399.9 301.524C433.257 278.997 437.232 246.33 445.11 233.154C460.107 264.33 390.732 382.008 382.107 392.955C424.857 368.25 453.066 307.368 462 285C502.656 183.21 490.674 127.209 467.184 34.692C443.496 5.94899 412.974 -16.443 378.69 -31.095C321.102 -56.529 238.833 -55.152 180.33 -33.945C110.607 -8.334 44.052 71.955 48.03 145.515C49.632 138.579 53.097 122.202 58.071 113.415C71.241 91.152 79.323 76.173 115.5 46.482C102.567 70.302 88.242 99.843 79.59 125.142C78.453 128.742 79.293 125.136 76.83 134.712C62.337 193.542 63.324 242.841 88.98 307.512C88.98 305.661 88.62 292.227 88.35 286.992C85.863 194.532 79.116 206.697 101.988 147.54C96.624 182.895 86.301 193.017 113.85 311.082C121.857 344.253 137.598 371.169 141.18 375.972C147.954 385.779 174.531 423.741 184.65 437.712C184.035 434.718 174.669 394.386 174.27 392.682C174.495 393.285 174.717 393.876 174.942 394.482C163.074 351.981 147.609 304.119 150.642 257.421Z" fill="#A68469"/>
<path d="M467.184 34.692C462.237 28.689 456.975 22.98 451.461 17.544C485.832 80.592 484.644 208.629 454.263 272.994C475.377 185.157 467.457 117.702 443.649 66.06C449.61 115.452 450.36 161.994 438.579 214.452C435.063 131.763 418.128 42.18 389.613 34.683C356.682 26.025 342.996 58.857 327.306 75.702C326.787 50.394 306.117 35.511 294.294 40.779C264.621 54.003 268.29 128.202 274.635 161.994C250.113 100.452 264.432 80.118 268.29 30.51C229.29 75.51 232.023 125.592 246.006 176.997C213.006 119.997 222.006 47.997 267.006 -0.0029974C201.687 31.776 179.205 103.89 210.555 179.679C174.291 127.317 194.364 63.93 201.687 10.875C156.468 104.925 137.418 137.568 152.334 231C112.026 139.374 158.229 60.504 181.515 23.553C163.515 35.553 140.958 61.353 128.22 91.491C134.076 70.818 153.369 33.189 177 18C137.178 30.858 119.124 65.913 109.617 89.076C124.818 23.808 178.731 9.027 199.014 -6.723C140.709 -0.746997 113.049 34.563 92.049 52.563C118.575 9.156 153.024 -12.549 207.048 -41.814C197.757 -39.6 188.775 -37.002 180.327 -33.942C110.604 -8.331 44.049 71.958 48.027 145.518C49.629 138.582 53.094 122.205 58.068 113.418C71.238 91.155 79.32 76.176 115.497 46.485C102.564 70.305 88.239 99.846 79.587 125.145C78.45 128.745 79.29 125.139 76.827 134.715C62.334 193.545 63.321 242.844 88.977 307.515C88.977 305.664 88.617 292.23 88.347 286.995C85.86 194.535 79.113 206.7 101.985 147.543C96.621 182.898 86.298 193.02 113.847 311.085C121.854 344.256 137.595 371.172 141.177 375.975C147.951 385.782 174.528 423.744 184.647 437.715C184.032 434.721 174.666 394.389 174.267 392.685C174.492 393.288 174.714 393.879 174.939 394.485C163.071 351.981 147.609 304.119 150.639 257.421C159.51 270.729 175.581 291.249 187.656 301.548C181.158 285.951 153.291 181.677 170.004 127.2C189.249 184.374 223.707 219.729 256.881 232.698C270.456 252 290.031 272.652 307.761 285.612C296.682 263.358 264.594 219.432 267.438 190.188C285.495 222.474 318.999 259.284 335.7 263.727C284.238 177.18 261.465 91.485 294.75 58.317C304.245 65.226 316.113 88.167 322.713 103.41C322.767 100.209 322.767 100.209 322.713 103.41C323.178 104.484 323.622 105.528 324.03 106.518C335.478 86.091 370.533 42.945 389.724 55.206C400.884 56.205 403.908 87.39 412.482 123.33C424.617 174.189 445.107 221.955 399.9 301.524C433.257 278.997 437.232 246.33 445.11 233.154C460.107 264.33 390.732 382.008 382.107 392.955C424.857 368.25 453.066 307.368 462 285C502.656 183.21 490.674 127.209 467.184 34.692Z" fill="#976F50"/>
<path d="M163.857 393.705C151.149 375.138 137.376 348.393 125.256 302.205C125.256 302.205 124.257 298.395 122.859 292.659C108.714 235.215 101.376 187.023 115.107 141.705C107.226 177.402 111.489 204.714 117.183 239.769C123.444 277.884 140.343 351.603 163.857 393.705ZM100.857 109.455C84.672 152.784 76.905 183.876 78.357 226.455C79.869 196.122 82.53 171.474 100.857 109.455ZM166.857 116.955C158.526 158.58 153.876 179.748 161.709 217.305C167.31 245.565 172.05 259.791 180.357 287.205C157.971 184.557 157.512 193.158 166.857 116.955ZM218.607 125.205C223.971 185.421 254.877 236.121 300.357 276.705C259.647 233.991 227.934 182.775 218.607 125.205ZM256.857 141.705C272.658 200.145 286.203 224.634 333.687 261.495C289.563 221.214 278.481 203.04 256.857 141.705ZM497.412 98.217C495.597 92.763 478.146 56.301 455.97 32.142C472.041 52.194 483.39 76.068 493.341 97.611C493.344 97.611 493.677 98.268 494.088 99.498C508.968 141.426 510.858 198.714 509.355 218.994C513.882 189.984 512.076 139.371 497.412 98.217ZM458.64 282.705C444.834 309.339 438.027 321.261 435.846 325.293C435.849 325.293 435.648 325.728 435.198 326.427C413.982 360.513 409.674 362.007 387.507 387.075C422.04 353.763 431.025 346.38 458.64 282.705ZM429.897 203.97C430.356 244.326 423.81 265.026 402.843 297.471C424.113 269.514 433.356 246.513 429.897 203.97ZM160.104 351.999C160.104 351.999 159.516 349.755 158.808 346.35C149.154 300.696 148.227 277.593 147.357 257.205C146.07 299.043 149.736 339.267 172.857 409.455C172.857 409.455 167.259 383.028 160.104 351.999ZM86.412 48.237C97.818 32.805 101.586 27.891 115.857 14.958C90.261 34.947 71.532 58.857 56.685 104.022C55.509 107.418 55.647 107.235 54.357 113.208C62.907 85.383 86.412 46.419 86.412 48.237ZM172.287 124.455C184.443 165.555 210.681 204.984 249.3 226.455C213.291 202.257 186.78 162.237 172.287 124.455ZM403.659 43.746C399.864 39.297 395.085 37.032 390.678 35.268C393.678 36.711 395.622 37.512 398.499 39.912C401.817 43.071 405.582 46.995 408.471 52.644C425.289 83.307 436.842 178.401 439.362 211.509C439.263 178.8 430.722 72.06 403.659 43.746ZM293.307 39.648C308.244 39.855 319.743 40.287 329.334 76.161C322.137 37.002 304.764 39.021 293.307 39.648ZM268.005 -0.203995C241.68 19.605 227.937 55.977 227.376 88.224C230.499 56.814 244.362 20.583 268.005 -0.203995Z" fill="#B59A85"/>
<path d="M467.493 34.986C443.805 6.24 412.971 -16.443 378.687 -31.095C321.099 -56.529 238.83 -55.152 180.327 -33.945C110.604 -8.334 44.049 71.955 48.027 145.515C55.725 112.44 74.169 83.355 115.497 46.485C102.564 70.305 88.239 99.846 79.587 125.145C78.45 128.745 79.29 125.139 76.827 134.715C62.334 193.545 63.321 242.844 88.977 307.515C88.977 305.664 88.617 292.23 88.347 286.995C85.86 194.535 90.786 188.97 105.858 133.512C94.458 170.946 86.301 193.017 113.847 311.082C121.854 344.253 137.595 371.169 141.177 375.972C147.951 385.779 174.528 423.741 184.647 437.712C184.029 434.712 148.668 300.003 150.777 263.082C160.872 276.381 179.229 297.222 192.357 307.722C185.853 288.579 174.567 237.453 172.857 226.512C172.587 224.562 172.197 221.802 171.717 218.472C168.15 196.599 165.921 155.409 170.937 130.932C175.38 146.109 185.832 170.082 195.537 183.222C215.772 211.359 225.405 217.512 254.667 233.922C272.715 258.606 289.935 273.936 312.057 289.962C276.522 229.929 272.166 215.13 268.587 193.602C284.955 227.271 306.381 252.603 339.654 267.432C313.545 216.3 271.14 133.968 287.277 80.292C290.115 71.049 293.412 64.83 294.987 62.742V62.682C295.191 62.241 295.167 62.295 295.287 62.082C300.351 65.697 318.648 90.771 323.787 108.762C323.82 108.732 323.82 108.702 323.85 108.672C327.651 101.073 337.302 87.165 347.037 76.992C396.882 27.153 397.311 70.872 403.2 99.222C427.446 197.004 437.538 238.248 392.907 307.962C418.695 296.121 439.875 262.695 445.47 234.612C435.993 303.918 411.807 338.64 374.4 401.832C383.13 395.565 382.17 396.186 385.17 394.002C482.148 327.366 511.962 152.805 475.896 85.296C502.221 145.263 477.429 312.06 386.583 388.452C446.448 299.997 448.194 257.994 454.263 191.592C458.313 148.665 455.61 135.387 452.826 121.182C454.455 135.213 455.346 143.526 452.043 173.442C446.124 218.571 437.082 267.984 401.976 298.812C443.175 236.247 433.005 190.833 410.016 100.872C404.079 77.52 402.714 30.681 363.606 57.972C348.126 68.247 333.108 88.344 324.636 105.012C319.95 88.065 310.26 69.681 294.726 53.292C294.666 53.232 294.576 53.082 294.516 53.112C289.05 61.848 262.506 86.85 286.686 164.322C298.266 201.717 315.03 230.571 333.696 261.492C292.458 238.008 249.354 164.118 253.323 106.632C254.262 90.555 257.469 69.381 256.983 52.932C254.562 92.832 240.945 116.994 254.043 156.732C254.043 156.732 257.823 169.092 263.493 182.382C265.176 221.685 284.313 249.27 305.313 283.332C253.455 237.957 221.772 173.367 214.413 109.632C212.613 83.202 224.808 40.578 236.013 34.182C224.292 42.063 209.598 70.899 208.083 104.622C206.928 137.4 227.577 196.074 250.683 228.432C222.561 210.258 195.183 189.735 172.293 124.452C177.99 97.647 186.711 82.2 189.093 46.722C183.444 84.432 174.402 93.489 165.003 131.052C158.97 152.271 157.689 222.135 185.253 297.042C168.864 278.829 141.669 238.371 134.463 215.142C108.975 146.598 145.026 71.625 154.023 59.742C159 52.782 166.29 45.234 169.233 37.452C157.281 58.293 148.857 50.583 126.423 111.132C114.453 147.024 116.898 187.524 127.803 217.452C131.766 228 142.38 245.967 148.443 260.052C143.379 300.459 166.35 385.608 177.903 423.552C146.931 374.433 124.563 349.002 111.243 264.492C100.485 196.23 89.391 154.635 147.183 39.072C136.857 57.48 131.691 66.201 119.793 90.462L119.763 90.492C90.063 152.433 78.81 196.212 82.623 270.582C61.677 181.77 84.192 122.973 122.043 41.712C127.149 34.686 164.358 9.786 178.887 -1.90735e-06C164.481 8.631 70.968 57.546 50.367 129.645C57.369 67.38 114.402 -4.389 181.797 -28.425C238.233 -48.015 319.86 -49.728 376.047 -24.885C414.414 -8.442 447.909 18.465 471.537 51.426L467.493 34.986Z" fill="#784B28"/>
</g>
<defs>
<radialGradient id="paint0_radial_6:2" cx="0" cy="0" r="1" gradientUnits="userSpaceOnUse" gradientTransform="translate(300 300) scale(450)">
<stop stop-color="#774F38" stop-opacity="0"/>
<stop offset="0.2" stop-color="#683E26"/>
<stop offset="1" stop-color="#683E26" stop-opacity="0"/>
</radialGradient>
<linearGradient id="paint1_linear_6:2" x1="300" y1="516" x2="300" y2="399" gradientUnits="userSpaceOnUse">
<stop stop-color="#F0B399" stop-opacity="0.8"/>
<stop offset="0.7" stop-color="#D17F5B"/>
</linearGradient>
<radialGradient id="paint2_radial_6:2" cx="0" cy="0" r="1" gradientUnits="userSpaceOnUse" gradientTransform="translate(221.671 254.032) rotate(174.997) scale(33.4893)">
<stop stop-color="white"/>
<stop offset="0.544" stop-color="#FDFEFE"/>
<stop offset="0.74" stop-color="#F6F8F9"/>
<stop offset="0.879" stop-color="#EAEFF2"/>
<stop offset="0.992" stop-color="#D9E3E8"/>
<stop offset="1" stop-color="#D8E2E7"/>
</radialGradient>
<radialGradient id="paint3_radial_6:2" cx="0" cy="0" r="1" gradientUnits="userSpaceOnUse" gradientTransform="translate(227.279 253.039) rotate(-3.81293) scale(53.7577 43.004)">
<stop stop-color="#F0B399"/>
<stop offset="0.7" stop-color="#F0B399" stop-opacity="0.3"/>
<stop offset="1" stop-color="#FFD0BC" stop-opacity="0"/>
</radialGradient>
<radialGradient id="paint4_radial_6:2" cx="0" cy="0" r="1" gradientUnits="userSpaceOnUse" gradientTransform="translate(237.088 311.022) rotate(-143.003) scale(85.7376 60.8764)">
<stop offset="0.9" stop-opacity="0"/>
<stop offset="1" stop-opacity="0.2"/>
</radialGradient>
<radialGradient id="paint5_radial_6:2" cx="0" cy="0" r="1" gradientUnits="userSpaceOnUse" gradientTransform="translate(377.13 254.03) rotate(5.0025) scale(33.4923)">
<stop stop-color="white"/>
<stop offset="0.544" stop-color="#FDFEFE"/>
<stop offset="0.74" stop-color="#F6F8F9"/>
<stop offset="0.879" stop-color="#EAEFF2"/>
<stop offset="0.992" stop-color="#D9E3E8"/>
<stop offset="1" stop-color="#D8E2E7"/>
</radialGradient>
<radialGradient id="paint6_radial_6:2" cx="0" cy="0" r="1" gradientUnits="userSpaceOnUse" gradientTransform="translate(371.523 253.041) rotate(-176.187) scale(53.7607 43.0064)">
<stop stop-color="#F0B399"/>
<stop offset="0.7" stop-color="#F0B399" stop-opacity="0.3"/>
<stop offset="1" stop-color="#FFD0BC" stop-opacity="0"/>
</radialGradient>
<radialGradient id="paint7_radial_6:2" cx="0" cy="0" r="1" gradientUnits="userSpaceOnUse" gradientTransform="translate(361.711 311.023) rotate(-36.9971) scale(85.7406 60.8786)">
<stop offset="0.9" stop-opacity="0"/>
<stop offset="1" stop-opacity="0.2"/>
</radialGradient>
<radialGradient id="paint8_radial_6:2" cx="0" cy="0" r="1" gradientUnits="userSpaceOnUse" gradientTransform="translate(300 342) scale(123)">
<stop stop-color="#FFE2D6" stop-opacity="0.5"/>
<stop offset="0.9" stop-color="#FFD0BC" stop-opacity="0"/>
</radialGradient>
<radialGradient id="paint9_radial_6:2" cx="0" cy="0" r="1" gradientUnits="userSpaceOnUse" gradientTransform="translate(300 162) scale(111)">
<stop stop-color="#FFE2D6" stop-opacity="0.5"/>
<stop offset="0.9" stop-color="#FFD0BC" stop-opacity="0"/>
</radialGradient>
<clipPath id="clip0_6:2">
<rect width="600" height="600" fill="white"/>
</clipPath>
</defs>
</svg>
